# MagicaVoxel @ Ephtracy

# group
g Tile3

# material
mtllib Tile3.mtl
usemtl palette

# normals
vn -1 0 0
vn 1 0 0
vn 0 0 1
vn 0 0 -1
vn 0 -1 0
vn 0 1 0

# texcoords
vt 0.314453 0.5
vt 0.318359 0.5
vt 0.615234 0.5
vt 0.619141 0.5

# verts
v -13 5 13
v -13 5 -12
v -13 7 13
v -13 7 -12
v -13 9 2
v -13 9 -1
v -13 11 9
v -13 11 6
v -13 12 -5
v -13 12 -8
v -13 13 13
v -13 13 9
v -13 13 6
v -13 13 2
v -13 13 -1
v -13 13 -5
v -13 13 -8
v -13 13 -12
v -13 16 13
v -13 16 9
v -13 16 6
v -13 16 2
v -13 16 -1
v -13 16 -5
v -13 16 -8
v -13 16 -12
v 13 5 13
v 13 5 -12
v 13 7 13
v 13 7 -12
v 13 9 2
v 13 9 -1
v 13 11 9
v 13 11 6
v 13 12 -5
v 13 12 -8
v 13 13 13
v 13 13 9
v 13 13 6
v 13 13 2
v 13 13 -1
v 13 13 -5
v 13 13 -8
v 13 13 -12
v 13 16 13
v 13 16 9
v 13 16 6
v 13 16 2
v 13 16 -1
v 13 16 -5
v 13 16 -8
v 13 16 -12
v -13 5 13
v -13 7 13
v -13 13 13
v -13 16 13
v -10 7 13
v -10 13 13
v -10 16 13
v -7 7 13
v -7 13 13
v -7 16 13
v -2 10 13
v -2 13 13
v -2 16 13
v 2 10 13
v 2 13 13
v 2 16 13
v 7 7 13
v 7 13 13
v 7 16 13
v 10 7 13
v 10 13 13
v 10 16 13
v 13 5 13
v 13 7 13
v 13 13 13
v 13 16 13
v -13 5 -12
v -13 7 -12
v -13 13 -12
v -13 16 -12
v -10 9 -12
v -10 13 -12
v -10 16 -12
v -7 9 -12
v -7 13 -12
v -7 16 -12
v -2 11 -12
v -2 13 -12
v -2 16 -12
v 2 11 -12
v 2 13 -12
v 2 16 -12
v 7 9 -12
v 7 13 -12
v 7 16 -12
v 10 9 -12
v 10 13 -12
v 10 16 -12
v 13 5 -12
v 13 7 -12
v 13 13 -12
v 13 16 -12
v -13 5 13
v 13 5 13
v -13 5 -12
v 13 5 -12
v -13 16 13
v -10 16 13
v -7 16 13
v -2 16 13
v 2 16 13
v 7 16 13
v 10 16 13
v 13 16 13
v -13 16 9
v -10 16 9
v -7 16 9
v -2 16 9
v 2 16 9
v 7 16 9
v 10 16 9
v 13 16 9
v -13 16 6
v -10 16 6
v -7 16 6
v -2 16 6
v 2 16 6
v 7 16 6
v 10 16 6
v 13 16 6
v -13 16 2
v -10 16 2
v -7 16 2
v -2 16 2
v 2 16 2
v 7 16 2
v 10 16 2
v 13 16 2
v -13 16 -1
v -10 16 -1
v -7 16 -1
v -2 16 -1
v 2 16 -1
v 7 16 -1
v 10 16 -1
v 13 16 -1
v -13 16 -5
v -10 16 -5
v -7 16 -5
v -2 16 -5
v 2 16 -5
v 7 16 -5
v 10 16 -5
v 13 16 -5
v -13 16 -8
v -10 16 -8
v -7 16 -8
v -2 16 -8
v 2 16 -8
v 7 16 -8
v 10 16 -8
v 13 16 -8
v -13 16 -12
v -10 16 -12
v -7 16 -12
v -2 16 -12
v 2 16 -12
v 7 16 -12
v 10 16 -12
v 13 16 -12

# faces
f 3/1/1 2/1/1 1/1/1
f 4/1/1 2/1/1 3/1/1
f 5/2/1 4/2/1 3/2/1
f 6/2/1 4/2/1 5/2/1
f 7/2/1 5/2/1 3/2/1
f 8/2/1 5/2/1 7/2/1
f 9/2/1 4/2/1 6/2/1
f 10/2/1 4/2/1 9/2/1
f 11/2/1 7/2/1 3/2/1
f 12/4/1 8/4/1 7/4/1
f 12/2/1 7/2/1 11/2/1
f 13/2/1 5/2/1 8/2/1
f 13/4/1 8/4/1 12/4/1
f 14/4/1 6/4/1 5/4/1
f 14/2/1 5/2/1 13/2/1
f 15/2/1 9/2/1 6/2/1
f 15/4/1 6/4/1 14/4/1
f 16/4/1 10/4/1 9/4/1
f 16/2/1 9/2/1 15/2/1
f 17/2/1 4/2/1 10/2/1
f 17/4/1 10/4/1 16/4/1
f 18/2/1 4/2/1 17/2/1
f 19/3/1 12/3/1 11/3/1
f 20/4/1 13/4/1 12/4/1
f 20/3/1 12/3/1 19/3/1
f 21/3/1 14/3/1 13/3/1
f 21/4/1 13/4/1 20/4/1
f 22/4/1 15/4/1 14/4/1
f 22/3/1 14/3/1 21/3/1
f 23/3/1 16/3/1 15/3/1
f 23/4/1 15/4/1 22/4/1
f 24/4/1 17/4/1 16/4/1
f 24/3/1 16/3/1 23/3/1
f 25/3/1 18/3/1 17/3/1
f 25/4/1 17/4/1 24/4/1
f 26/3/1 18/3/1 25/3/1
f 27/1/2 28/1/2 29/1/2
f 29/1/2 28/1/2 30/1/2
f 29/2/2 30/2/2 31/2/2
f 31/2/2 30/2/2 32/2/2
f 29/2/2 31/2/2 33/2/2
f 33/2/2 31/2/2 34/2/2
f 32/2/2 30/2/2 35/2/2
f 35/2/2 30/2/2 36/2/2
f 29/2/2 33/2/2 37/2/2
f 33/4/2 34/4/2 38/4/2
f 37/2/2 33/2/2 38/2/2
f 34/2/2 31/2/2 39/2/2
f 38/4/2 34/4/2 39/4/2
f 31/4/2 32/4/2 40/4/2
f 39/2/2 31/2/2 40/2/2
f 32/2/2 35/2/2 41/2/2
f 40/4/2 32/4/2 41/4/2
f 35/4/2 36/4/2 42/4/2
f 41/2/2 35/2/2 42/2/2
f 36/2/2 30/2/2 43/2/2
f 42/4/2 36/4/2 43/4/2
f 43/2/2 30/2/2 44/2/2
f 37/3/2 38/3/2 45/3/2
f 38/4/2 39/4/2 46/4/2
f 45/3/2 38/3/2 46/3/2
f 39/3/2 40/3/2 47/3/2
f 46/4/2 39/4/2 47/4/2
f 40/4/2 41/4/2 48/4/2
f 47/3/2 40/3/2 48/3/2
f 41/3/2 42/3/2 49/3/2
f 48/4/2 41/4/2 49/4/2
f 42/4/2 43/4/2 50/4/2
f 49/3/2 42/3/2 50/3/2
f 43/3/2 44/3/2 51/3/2
f 50/4/2 43/4/2 51/4/2
f 51/3/2 44/3/2 52/3/2
f 57/1/3 54/1/3 53/1/3
f 57/2/3 55/2/3 54/2/3
f 58/3/3 56/3/3 55/3/3
f 58/2/3 55/2/3 57/2/3
f 59/3/3 56/3/3 58/3/3
f 60/1/3 57/1/3 53/1/3
f 60/4/3 58/4/3 57/4/3
f 60/4/3 59/4/3 58/4/3
f 61/4/3 59/4/3 60/4/3
f 62/4/3 59/4/3 61/4/3
f 63/2/3 61/2/3 60/2/3
f 64/3/3 62/3/3 61/3/3
f 64/2/3 61/2/3 63/2/3
f 65/3/3 62/3/3 64/3/3
f 66/2/3 63/2/3 60/2/3
f 66/4/3 64/4/3 63/4/3
f 66/4/3 65/4/3 64/4/3
f 67/4/3 65/4/3 66/4/3
f 68/4/3 65/4/3 67/4/3
f 69/1/3 60/1/3 53/1/3
f 69/2/3 66/2/3 60/2/3
f 69/2/3 67/2/3 66/2/3
f 70/3/3 68/3/3 67/3/3
f 70/2/3 67/2/3 69/2/3
f 71/3/3 68/3/3 70/3/3
f 72/1/3 69/1/3 53/1/3
f 72/4/3 70/4/3 69/4/3
f 72/4/3 71/4/3 70/4/3
f 73/4/3 71/4/3 72/4/3
f 74/4/3 71/4/3 73/4/3
f 75/1/3 72/1/3 53/1/3
f 76/2/3 73/2/3 72/2/3
f 76/1/3 72/1/3 75/1/3
f 77/3/3 74/3/3 73/3/3
f 77/2/3 73/2/3 76/2/3
f 78/3/3 74/3/3 77/3/3
f 80/2/4 81/2/4 83/2/4
f 81/3/4 82/3/4 84/3/4
f 83/2/4 81/2/4 84/2/4
f 84/3/4 82/3/4 85/3/4
f 80/2/4 83/2/4 86/2/4
f 83/4/4 84/4/4 86/4/4
f 84/4/4 85/4/4 86/4/4
f 86/4/4 85/4/4 87/4/4
f 87/4/4 85/4/4 88/4/4
f 86/2/4 87/2/4 89/2/4
f 87/3/4 88/3/4 90/3/4
f 89/2/4 87/2/4 90/2/4
f 90/3/4 88/3/4 91/3/4
f 86/2/4 89/2/4 92/2/4
f 89/4/4 90/4/4 92/4/4
f 90/4/4 91/4/4 92/4/4
f 92/4/4 91/4/4 93/4/4
f 93/4/4 91/4/4 94/4/4
f 80/2/4 86/2/4 95/2/4
f 86/2/4 92/2/4 95/2/4
f 92/2/4 93/2/4 95/2/4
f 93/3/4 94/3/4 96/3/4
f 95/2/4 93/2/4 96/2/4
f 96/3/4 94/3/4 97/3/4
f 80/2/4 95/2/4 98/2/4
f 95/4/4 96/4/4 98/4/4
f 96/4/4 97/4/4 98/4/4
f 98/4/4 97/4/4 99/4/4
f 99/4/4 97/4/4 100/4/4
f 79/1/4 80/1/4 101/1/4
f 80/2/4 98/2/4 102/2/4
f 101/1/4 80/1/4 102/1/4
f 98/2/4 99/2/4 102/2/4
f 99/3/4 100/3/4 103/3/4
f 102/2/4 99/2/4 103/2/4
f 103/3/4 100/3/4 104/3/4
f 107/1/5 106/1/5 105/1/5
f 108/1/5 106/1/5 107/1/5
f 109/3/6 110/3/6 117/3/6
f 110/4/6 111/4/6 118/4/6
f 117/3/6 110/3/6 118/3/6
f 111/3/6 112/3/6 119/3/6
f 118/4/6 111/4/6 119/4/6
f 112/4/6 113/4/6 120/4/6
f 119/3/6 112/3/6 120/3/6
f 113/3/6 114/3/6 121/3/6
f 120/4/6 113/4/6 121/4/6
f 114/4/6 115/4/6 122/4/6
f 121/3/6 114/3/6 122/3/6
f 115/3/6 116/3/6 123/3/6
f 122/4/6 115/4/6 123/4/6
f 123/3/6 116/3/6 124/3/6
f 121/4/6 122/4/6 125/4/6
f 117/4/6 118/4/6 125/4/6
f 123/4/6 124/4/6 125/4/6
f 122/4/6 123/4/6 125/4/6
f 120/4/6 121/4/6 125/4/6
f 119/4/6 120/4/6 125/4/6
f 118/4/6 119/4/6 125/4/6
f 125/4/6 124/4/6 126/4/6
f 126/4/6 124/4/6 127/4/6
f 127/4/6 124/4/6 128/4/6
f 128/4/6 124/4/6 129/4/6
f 129/4/6 124/4/6 130/4/6
f 130/4/6 124/4/6 131/4/6
f 131/4/6 124/4/6 132/4/6
f 125/3/6 126/3/6 133/3/6
f 126/4/6 127/4/6 134/4/6
f 133/3/6 126/3/6 134/3/6
f 127/3/6 128/3/6 135/3/6
f 134/4/6 127/4/6 135/4/6
f 128/4/6 129/4/6 136/4/6
f 135/3/6 128/3/6 136/3/6
f 129/3/6 130/3/6 137/3/6
f 136/4/6 129/4/6 137/4/6
f 130/4/6 131/4/6 138/4/6
f 137/3/6 130/3/6 138/3/6
f 131/3/6 132/3/6 139/3/6
f 138/4/6 131/4/6 139/4/6
f 139/3/6 132/3/6 140/3/6
f 133/4/6 134/4/6 141/4/6
f 134/4/6 135/4/6 141/4/6
f 139/4/6 140/4/6 141/4/6
f 138/4/6 139/4/6 141/4/6
f 137/4/6 138/4/6 141/4/6
f 136/4/6 137/4/6 141/4/6
f 135/4/6 136/4/6 141/4/6
f 141/4/6 140/4/6 142/4/6
f 142/4/6 140/4/6 143/4/6
f 143/4/6 140/4/6 144/4/6
f 144/4/6 140/4/6 145/4/6
f 145/4/6 140/4/6 146/4/6
f 146/4/6 140/4/6 147/4/6
f 147/4/6 140/4/6 148/4/6
f 141/3/6 142/3/6 149/3/6
f 142/4/6 143/4/6 150/4/6
f 149/3/6 142/3/6 150/3/6
f 143/3/6 144/3/6 151/3/6
f 150/4/6 143/4/6 151/4/6
f 144/4/6 145/4/6 152/4/6
f 151/3/6 144/3/6 152/3/6
f 145/3/6 146/3/6 153/3/6
f 152/4/6 145/4/6 153/4/6
f 146/4/6 147/4/6 154/4/6
f 153/3/6 146/3/6 154/3/6
f 147/3/6 148/3/6 155/3/6
f 154/4/6 147/4/6 155/4/6
f 155/3/6 148/3/6 156/3/6
f 149/4/6 150/4/6 157/4/6
f 150/4/6 151/4/6 157/4/6
f 155/4/6 156/4/6 157/4/6
f 154/4/6 155/4/6 157/4/6
f 153/4/6 154/4/6 157/4/6
f 152/4/6 153/4/6 157/4/6
f 151/4/6 152/4/6 157/4/6
f 157/4/6 156/4/6 158/4/6
f 158/4/6 156/4/6 159/4/6
f 159/4/6 156/4/6 160/4/6
f 160/4/6 156/4/6 161/4/6
f 161/4/6 156/4/6 162/4/6
f 162/4/6 156/4/6 163/4/6
f 163/4/6 156/4/6 164/4/6
f 157/3/6 158/3/6 165/3/6
f 158/4/6 159/4/6 166/4/6
f 165/3/6 158/3/6 166/3/6
f 159/3/6 160/3/6 167/3/6
f 166/4/6 159/4/6 167/4/6
f 160/4/6 161/4/6 168/4/6
f 167/3/6 160/3/6 168/3/6
f 161/3/6 162/3/6 169/3/6
f 168/4/6 161/4/6 169/4/6
f 162/4/6 163/4/6 170/4/6
f 169/3/6 162/3/6 170/3/6
f 163/3/6 164/3/6 171/3/6
f 170/4/6 163/4/6 171/4/6
f 171/3/6 164/3/6 172/3/6
