# MagicaVoxel @ Ephtracy

# group
g Tile6

# material
mtllib Tile6.mtl
usemtl palette

# normals
vn -1 0 0
vn 1 0 0
vn 0 0 1
vn 0 0 -1
vn 0 -1 0
vn 0 1 0

# texcoords
vt 0.525391 0.5
vt 0.529297 0.5

# verts
v -6 0 6
v -6 0 4
v -6 0 -4
v -6 0 -6
v -6 1 4
v -6 1 -4
v -6 2 6
v -6 2 3
v -6 2 -3
v -6 2 -6
v -6 4 1
v -6 4 -1
v -6 5 6
v -6 5 3
v -6 5 1
v -6 5 -1
v -6 5 -3
v -6 5 -6
v -4 4 1
v -4 4 -1
v -4 5 1
v -4 5 -1
v 1 4 6
v 1 4 4
v 1 4 1
v 1 4 -1
v 1 4 -4
v 1 4 -6
v 1 5 6
v 1 5 4
v 1 5 1
v 1 5 -1
v 1 5 -4
v 1 5 -6
v 4 0 6
v 4 0 4
v 4 0 -4
v 4 0 -6
v 4 1 6
v 4 1 4
v 4 1 -4
v 4 1 -6
v -4 0 6
v -4 0 4
v -4 0 -4
v -4 0 -6
v -4 1 6
v -4 1 4
v -4 1 -4
v -4 1 -6
v -1 4 6
v -1 4 4
v -1 4 1
v -1 4 -1
v -1 4 -4
v -1 4 -6
v -1 5 6
v -1 5 4
v -1 5 1
v -1 5 -1
v -1 5 -4
v -1 5 -6
v 4 4 1
v 4 4 -1
v 4 5 1
v 4 5 -1
v 6 0 6
v 6 0 4
v 6 0 -4
v 6 0 -6
v 6 1 4
v 6 1 -4
v 6 2 6
v 6 2 3
v 6 2 -3
v 6 2 -6
v 6 4 1
v 6 4 -1
v 6 5 6
v 6 5 3
v 6 5 1
v 6 5 -1
v 6 5 -3
v 6 5 -6
v -6 0 6
v -6 2 6
v -6 5 6
v -4 0 6
v -4 1 6
v -3 2 6
v -3 5 6
v -1 4 6
v -1 5 6
v 1 4 6
v 1 5 6
v 3 2 6
v 3 5 6
v 4 0 6
v 4 1 6
v 6 0 6
v 6 2 6
v 6 5 6
v -1 4 4
v -1 5 4
v 1 4 4
v 1 5 4
v -6 4 -1
v -6 5 -1
v -4 4 -1
v -4 5 -1
v -1 4 -1
v -1 5 -1
v 1 4 -1
v 1 5 -1
v 4 4 -1
v 4 5 -1
v 6 4 -1
v 6 5 -1
v -6 0 -4
v -6 1 -4
v -4 0 -4
v -4 1 -4
v 4 0 -4
v 4 1 -4
v 6 0 -4
v 6 1 -4
v -6 0 4
v -6 1 4
v -4 0 4
v -4 1 4
v 4 0 4
v 4 1 4
v 6 0 4
v 6 1 4
v -6 4 1
v -6 5 1
v -4 4 1
v -4 5 1
v -1 4 1
v -1 5 1
v 1 4 1
v 1 5 1
v 4 4 1
v 4 5 1
v 6 4 1
v 6 5 1
v -1 4 -4
v -1 5 -4
v 1 4 -4
v 1 5 -4
v -6 0 -6
v -6 2 -6
v -6 5 -6
v -4 0 -6
v -4 1 -6
v -3 2 -6
v -3 5 -6
v -1 4 -6
v -1 5 -6
v 1 4 -6
v 1 5 -6
v 3 2 -6
v 3 5 -6
v 4 0 -6
v 4 1 -6
v 6 0 -6
v 6 2 -6
v 6 5 -6
v -6 0 6
v -4 0 6
v 4 0 6
v 6 0 6
v -6 0 4
v -4 0 4
v 4 0 4
v 6 0 4
v -6 0 -4
v -4 0 -4
v 4 0 -4
v 6 0 -4
v -6 0 -6
v -4 0 -6
v 4 0 -6
v 6 0 -6
v -4 1 6
v 4 1 6
v -6 1 4
v -4 1 4
v 4 1 4
v 6 1 4
v -6 1 -4
v -4 1 -4
v 4 1 -4
v 6 1 -4
v -4 1 -6
v 4 1 -6
v -1 4 6
v 1 4 6
v -1 4 4
v 1 4 4
v -6 4 1
v -4 4 1
v -1 4 1
v 1 4 1
v 4 4 1
v 6 4 1
v -6 4 -1
v -4 4 -1
v -1 4 -1
v 1 4 -1
v 4 4 -1
v 6 4 -1
v -1 4 -4
v 1 4 -4
v -1 4 -6
v 1 4 -6
v -6 5 6
v -3 5 6
v -1 5 6
v 1 5 6
v 3 5 6
v 6 5 6
v -3 5 4
v -1 5 4
v 1 5 4
v 3 5 4
v -6 5 3
v -4 5 3
v 4 5 3
v 6 5 3
v -6 5 1
v -4 5 1
v -1 5 1
v 1 5 1
v 4 5 1
v 6 5 1
v -6 5 -1
v -4 5 -1
v -1 5 -1
v 1 5 -1
v 4 5 -1
v 6 5 -1
v -6 5 -3
v -4 5 -3
v 4 5 -3
v 6 5 -3
v -3 5 -4
v -1 5 -4
v 1 5 -4
v 3 5 -4
v -6 5 -6
v -3 5 -6
v -1 5 -6
v 1 5 -6
v 3 5 -6
v 6 5 -6

# faces
f 5/2/1 2/2/1 1/2/1
f 6/2/1 4/2/1 3/2/1
f 7/2/1 5/2/1 1/2/1
f 7/2/1 6/2/1 5/2/1
f 8/2/1 6/2/1 7/2/1
f 9/2/1 6/2/1 8/2/1
f 10/2/1 4/2/1 6/2/1
f 10/2/1 6/2/1 9/2/1
f 11/2/1 9/2/1 8/2/1
f 12/2/1 9/2/1 11/2/1
f 13/1/1 8/1/1 7/1/1
f 14/2/1 11/2/1 8/2/1
f 14/1/1 8/1/1 13/1/1
f 15/2/1 11/2/1 14/2/1
f 16/2/1 9/2/1 12/2/1
f 17/1/1 10/1/1 9/1/1
f 17/2/1 9/2/1 16/2/1
f 18/1/1 10/1/1 17/1/1
f 21/2/1 20/2/1 19/2/1
f 22/2/1 20/2/1 21/2/1
f 29/2/1 24/2/1 23/2/1
f 30/2/1 24/2/1 29/2/1
f 31/2/1 26/2/1 25/2/1
f 32/2/1 26/2/1 31/2/1
f 33/2/1 28/2/1 27/2/1
f 34/2/1 28/2/1 33/2/1
f 39/2/1 36/2/1 35/2/1
f 40/2/1 36/2/1 39/2/1
f 41/2/1 38/2/1 37/2/1
f 42/2/1 38/2/1 41/2/1
f 43/2/2 44/2/2 47/2/2
f 47/2/2 44/2/2 48/2/2
f 45/2/2 46/2/2 49/2/2
f 49/2/2 46/2/2 50/2/2
f 51/2/2 52/2/2 57/2/2
f 57/2/2 52/2/2 58/2/2
f 53/2/2 54/2/2 59/2/2
f 59/2/2 54/2/2 60/2/2
f 55/2/2 56/2/2 61/2/2
f 61/2/2 56/2/2 62/2/2
f 63/2/2 64/2/2 65/2/2
f 65/2/2 64/2/2 66/2/2
f 67/2/2 68/2/2 71/2/2
f 69/2/2 70/2/2 72/2/2
f 67/2/2 71/2/2 73/2/2
f 71/2/2 72/2/2 73/2/2
f 73/2/2 72/2/2 74/2/2
f 74/2/2 72/2/2 75/2/2
f 72/2/2 70/2/2 76/2/2
f 75/2/2 72/2/2 76/2/2
f 74/2/2 75/2/2 77/2/2
f 77/2/2 75/2/2 78/2/2
f 73/1/2 74/1/2 79/1/2
f 74/2/2 77/2/2 80/2/2
f 79/1/2 74/1/2 80/1/2
f 80/2/2 77/2/2 81/2/2
f 78/2/2 75/2/2 82/2/2
f 75/1/2 76/1/2 83/1/2
f 82/2/2 75/2/2 83/2/2
f 83/1/2 76/1/2 84/1/2
f 88/2/3 86/2/3 85/2/3
f 89/2/3 86/2/3 88/2/3
f 90/1/3 87/1/3 86/1/3
f 90/2/3 86/2/3 89/2/3
f 91/1/3 87/1/3 90/1/3
f 92/2/3 91/2/3 90/2/3
f 93/2/3 91/2/3 92/2/3
f 94/2/3 92/2/3 90/2/3
f 96/2/3 90/2/3 89/2/3
f 96/2/3 95/2/3 94/2/3
f 96/2/3 94/2/3 90/2/3
f 97/2/3 95/2/3 96/2/3
f 99/2/3 96/2/3 89/2/3
f 100/2/3 99/2/3 98/2/3
f 101/1/3 97/1/3 96/1/3
f 101/2/3 99/2/3 100/2/3
f 101/2/3 96/2/3 99/2/3
f 102/1/3 97/1/3 101/1/3
f 105/2/3 104/2/3 103/2/3
f 106/2/3 104/2/3 105/2/3
f 109/2/3 108/2/3 107/2/3
f 110/2/3 108/2/3 109/2/3
f 113/2/3 112/2/3 111/2/3
f 114/2/3 112/2/3 113/2/3
f 117/2/3 116/2/3 115/2/3
f 118/2/3 116/2/3 117/2/3
f 121/2/3 120/2/3 119/2/3
f 122/2/3 120/2/3 121/2/3
f 125/2/3 124/2/3 123/2/3
f 126/2/3 124/2/3 125/2/3
f 127/2/4 128/2/4 129/2/4
f 129/2/4 128/2/4 130/2/4
f 131/2/4 132/2/4 133/2/4
f 133/2/4 132/2/4 134/2/4
f 135/2/4 136/2/4 137/2/4
f 137/2/4 136/2/4 138/2/4
f 139/2/4 140/2/4 141/2/4
f 141/2/4 140/2/4 142/2/4
f 143/2/4 144/2/4 145/2/4
f 145/2/4 144/2/4 146/2/4
f 147/2/4 148/2/4 149/2/4
f 149/2/4 148/2/4 150/2/4
f 151/2/4 152/2/4 154/2/4
f 154/2/4 152/2/4 155/2/4
f 152/1/4 153/1/4 156/1/4
f 155/2/4 152/2/4 156/2/4
f 156/1/4 153/1/4 157/1/4
f 156/2/4 157/2/4 158/2/4
f 158/2/4 157/2/4 159/2/4
f 156/2/4 158/2/4 160/2/4
f 155/2/4 156/2/4 162/2/4
f 160/2/4 161/2/4 162/2/4
f 156/2/4 160/2/4 162/2/4
f 162/2/4 161/2/4 163/2/4
f 155/2/4 162/2/4 165/2/4
f 164/2/4 165/2/4 166/2/4
f 162/1/4 163/1/4 167/1/4
f 166/2/4 165/2/4 167/2/4
f 165/2/4 162/2/4 167/2/4
f 167/1/4 163/1/4 168/1/4
f 173/2/5 170/2/5 169/2/5
f 174/2/5 170/2/5 173/2/5
f 175/2/5 172/2/5 171/2/5
f 176/2/5 172/2/5 175/2/5
f 181/2/5 178/2/5 177/2/5
f 182/2/5 178/2/5 181/2/5
f 183/2/5 180/2/5 179/2/5
f 184/2/5 180/2/5 183/2/5
f 188/2/5 186/2/5 185/2/5
f 189/2/5 186/2/5 188/2/5
f 191/2/5 188/2/5 187/2/5
f 191/2/5 190/2/5 189/2/5
f 191/2/5 189/2/5 188/2/5
f 192/2/5 190/2/5 191/2/5
f 193/2/5 190/2/5 192/2/5
f 194/2/5 190/2/5 193/2/5
f 195/2/5 193/2/5 192/2/5
f 196/2/5 193/2/5 195/2/5
f 197/2/6 198/2/6 199/2/6
f 199/2/6 198/2/6 200/2/6
f 201/2/6 202/2/6 207/2/6
f 207/2/6 202/2/6 208/2/6
f 203/2/6 204/2/6 209/2/6
f 209/2/6 204/2/6 210/2/6
f 205/2/6 206/2/6 211/2/6
f 211/2/6 206/2/6 212/2/6
f 213/2/6 214/2/6 215/2/6
f 215/2/6 214/2/6 216/2/6
f 217/1/6 218/1/6 223/1/6
f 218/2/6 219/2/6 223/2/6
f 223/2/6 219/2/6 224/2/6
f 220/2/6 221/2/6 225/2/6
f 221/1/6 222/1/6 226/1/6
f 225/2/6 221/2/6 226/2/6
f 223/1/6 224/1/6 227/1/6
f 217/1/6 223/1/6 227/1/6
f 227/1/6 224/1/6 228/1/6
f 226/1/6 222/1/6 229/1/6
f 225/1/6 226/1/6 229/1/6
f 229/1/6 222/1/6 230/1/6
f 227/2/6 228/2/6 231/2/6
f 228/1/6 224/1/6 232/1/6
f 231/2/6 228/2/6 232/2/6
f 224/2/6 225/2/6 233/2/6
f 232/1/6 224/1/6 233/1/6
f 225/1/6 229/1/6 234/1/6
f 233/2/6 225/2/6 234/2/6
f 229/2/6 230/2/6 235/2/6
f 234/1/6 229/1/6 235/1/6
f 235/2/6 230/2/6 236/2/6
f 232/2/6 233/2/6 238/2/6
f 238/2/6 233/2/6 239/2/6
f 234/2/6 235/2/6 240/2/6
f 240/2/6 235/2/6 241/2/6
f 237/2/6 238/2/6 243/2/6
f 238/1/6 239/1/6 244/1/6
f 243/2/6 238/2/6 244/2/6
f 241/2/6 242/2/6 245/2/6
f 240/1/6 241/1/6 245/1/6
f 245/2/6 242/2/6 246/2/6
f 244/1/6 239/1/6 247/1/6
f 243/1/6 244/1/6 247/1/6
f 239/2/6 240/2/6 248/2/6
f 247/1/6 239/1/6 248/1/6
f 245/1/6 246/1/6 249/1/6
f 248/2/6 240/2/6 249/2/6
f 240/1/6 245/1/6 249/1/6
f 249/1/6 246/1/6 250/1/6
f 243/1/6 247/1/6 251/1/6
f 247/2/6 248/2/6 252/2/6
f 251/1/6 247/1/6 252/1/6
f 252/2/6 248/2/6 253/2/6
f 249/2/6 250/2/6 254/2/6
f 250/1/6 246/1/6 255/1/6
f 254/2/6 250/2/6 255/2/6
f 255/1/6 246/1/6 256/1/6
