# MagicaVoxel @ Ephtracy

# group
g Knife

# material
mtllib Knife.mtl
usemtl palette

# normals
vn -1 0 0
vn 1 0 0
vn 0 0 1
vn 0 0 -1
vn 0 -1 0
vn 0 1 0

# texcoords
vt 0.111328 0.5
vt 0.119141 0.5
vt 0.923828 0.5
vt 0.966797 0.5

# verts
v -7 17 3
v -7 17 -2
v -7 18 3
v -7 18 -2
v -6 7 3
v -6 7 -2
v -6 8 3
v -6 8 -2
v -6 9 3
v -6 9 -2
v -6 10 3
v -6 10 -2
v -6 11 3
v -6 11 -2
v -6 12 3
v -6 12 -2
v -6 13 3
v -6 13 -2
v -6 14 3
v -6 14 -2
v -6 15 3
v -6 15 -2
v -6 16 3
v -6 16 -2
v -6 17 8
v -6 17 4
v -6 17 3
v -6 17 -2
v -6 17 -4
v -6 17 -7
v -6 18 7
v -6 18 4
v -6 18 3
v -6 18 -2
v -6 18 -4
v -6 18 -6
v -6 20 8
v -6 20 7
v -6 20 -6
v -6 20 -7
v -5 6 2
v -5 6 -1
v -5 7 2
v -5 7 -1
v -5 8 2
v -5 8 -1
v -5 9 2
v -5 9 -1
v -5 10 2
v -5 10 -1
v -5 11 2
v -5 11 -1
v -5 12 2
v -5 12 -1
v -5 13 2
v -5 13 -1
v -5 14 2
v -5 14 -1
v -5 15 2
v -5 15 -1
v -5 16 2
v -5 16 -1
v -5 17 2
v -5 17 -1
v -4 18 4
v -4 18 1
v -4 18 -0
v -4 18 -3
v -4 32 4
v -4 32 3
v -4 32 1
v -4 32 -0
v -4 33 3
v -4 33 2
v -4 34 2
v -4 34 1
v -4 35 1
v -4 35 -0
v -4 36 -0
v -4 36 -1
v -4 37 -1
v -4 37 -2
v -4 38 -2
v -4 38 -3
v -3 18 4
v -3 18 1
v -3 18 -0
v -3 18 -3
v -3 32 4
v -3 32 3
v -3 32 1
v -3 32 -0
v -3 33 3
v -3 33 2
v -3 34 2
v -3 34 1
v -3 35 1
v -3 35 -0
v -3 36 -0
v -3 36 -1
v -3 37 -1
v -3 37 -2
v -3 38 -2
v -3 38 -3
v -2 6 2
v -2 6 -1
v -2 7 2
v -2 7 1
v -2 7 -1
v -2 8 2
v -2 8 1
v -2 8 -1
v -2 9 2
v -2 9 1
v -2 9 -1
v -2 10 2
v -2 10 1
v -2 10 -1
v -2 11 2
v -2 11 -0
v -2 11 -1
v -2 12 2
v -2 12 -0
v -2 12 -1
v -2 13 2
v -2 13 -1
v -2 14 2
v -2 14 -1
v -2 15 2
v -2 15 -1
v -2 16 2
v -2 16 -1
v -2 17 2
v -2 17 -1
v -1 7 3
v -1 7 1
v -1 7 -2
v -1 8 3
v -1 8 1
v -1 8 -2
v -1 9 3
v -1 9 1
v -1 9 -2
v -1 10 3
v -1 10 1
v -1 10 -2
v -1 11 3
v -1 11 -0
v -1 11 -2
v -1 12 3
v -1 12 -0
v -1 12 -2
v -1 13 3
v -1 13 -2
v -1 14 3
v -1 14 -2
v -1 15 3
v -1 15 -1
v -1 15 -2
v -1 16 3
v -1 16 -1
v -1 16 -2
v -1 17 8
v -1 17 3
v -1 17 -2
v -1 17 -7
v -1 18 7
v -1 18 3
v -1 18 -2
v -1 18 -6
v -1 20 8
v -1 20 7
v -1 20 -6
v -1 20 -7
v 0 17 3
v 0 17 1
v 0 17 -2
v 0 18 3
v 0 18 1
v 0 18 -2
v -6 17 8
v -6 20 8
v -5 18 8
v -5 20 8
v -3 18 8
v -3 20 8
v -1 17 8
v -1 20 8
v -4 18 4
v -4 32 4
v -3 18 4
v -3 32 4
v -7 17 3
v -7 18 3
v -6 7 3
v -6 8 3
v -6 9 3
v -6 10 3
v -6 11 3
v -6 12 3
v -6 13 3
v -6 14 3
v -6 15 3
v -6 16 3
v -6 17 3
v -6 18 3
v -5 7 3
v -5 8 3
v -5 9 3
v -5 10 3
v -4 9 3
v -4 10 3
v -4 32 3
v -4 33 3
v -3 32 3
v -3 33 3
v -2 9 3
v -2 10 3
v -1 7 3
v -1 8 3
v -1 9 3
v -1 10 3
v -1 11 3
v -1 12 3
v -1 13 3
v -1 14 3
v -1 15 3
v -1 16 3
v -1 17 3
v -1 18 3
v 0 17 3
v 0 18 3
v -5 6 2
v -5 7 2
v -5 8 2
v -5 9 2
v -5 10 2
v -5 11 2
v -5 12 2
v -5 13 2
v -5 14 2
v -5 15 2
v -5 16 2
v -5 17 2
v -4 9 2
v -4 10 2
v -4 33 2
v -4 34 2
v -3 33 2
v -3 34 2
v -2 6 2
v -2 7 2
v -2 8 2
v -2 9 2
v -2 10 2
v -2 11 2
v -2 12 2
v -2 13 2
v -2 14 2
v -2 15 2
v -2 16 2
v -2 17 2
v -4 34 1
v -4 35 1
v -3 34 1
v -3 35 1
v -4 35 -0
v -4 36 -0
v -3 35 -0
v -3 36 -0
v -4 36 -1
v -4 37 -1
v -3 36 -1
v -3 37 -1
v -4 37 -2
v -4 38 -2
v -3 37 -2
v -3 38 -2
v -6 18 -6
v -6 20 -6
v -5 18 -6
v -4 18 -6
v -1 18 -6
v -1 20 -6
v -6 18 7
v -6 20 7
v -5 18 7
v -5 20 7
v -3 18 7
v -3 20 7
v -1 18 7
v -1 20 7
v -5 6 -1
v -5 7 -1
v -5 8 -1
v -5 9 -1
v -5 10 -1
v -5 11 -1
v -5 12 -1
v -5 13 -1
v -5 14 -1
v -5 15 -1
v -5 16 -1
v -5 17 -1
v -3 11 -1
v -3 12 -1
v -2 6 -1
v -2 7 -1
v -2 8 -1
v -2 9 -1
v -2 10 -1
v -2 11 -1
v -2 12 -1
v -2 13 -1
v -2 14 -1
v -2 15 -1
v -2 16 -1
v -2 17 -1
v -7 17 -2
v -7 18 -2
v -6 7 -2
v -6 8 -2
v -6 9 -2
v -6 10 -2
v -6 11 -2
v -6 12 -2
v -6 13 -2
v -6 14 -2
v -6 15 -2
v -6 16 -2
v -6 17 -2
v -6 18 -2
v -3 11 -2
v -3 12 -2
v -2 15 -2
v -2 16 -2
v -1 7 -2
v -1 8 -2
v -1 9 -2
v -1 10 -2
v -1 11 -2
v -1 12 -2
v -1 13 -2
v -1 14 -2
v -1 15 -2
v -1 16 -2
v -1 17 -2
v -1 18 -2
v 0 17 -2
v 0 18 -2
v -4 18 -3
v -4 38 -3
v -3 18 -3
v -3 38 -3
v -6 17 -7
v -6 20 -7
v -1 17 -7
v -1 20 -7
v -5 6 2
v -2 6 2
v -5 6 -1
v -2 6 -1
v -6 7 3
v -5 7 3
v -1 7 3
v -5 7 2
v -2 7 2
v -2 7 1
v -1 7 1
v -5 7 -1
v -2 7 -1
v -6 7 -2
v -1 7 -2
v -6 9 3
v -5 9 3
v -4 9 3
v -2 9 3
v -1 9 3
v -5 9 2
v -4 9 2
v -2 9 2
v -2 9 1
v -1 9 1
v -5 9 -1
v -2 9 -1
v -6 9 -2
v -1 9 -2
v -6 11 3
v -1 11 3
v -5 11 2
v -2 11 2
v -2 11 -0
v -1 11 -0
v -5 11 -1
v -3 11 -1
v -2 11 -1
v -6 11 -2
v -3 11 -2
v -1 11 -2
v -6 13 3
v -1 13 3
v -5 13 2
v -2 13 2
v -5 13 -1
v -2 13 -1
v -6 13 -2
v -1 13 -2
v -6 15 3
v -1 15 3
v -5 15 2
v -2 15 2
v -5 15 -1
v -2 15 -1
v -1 15 -1
v -6 15 -2
v -2 15 -2
v -1 15 -2
v -6 17 8
v -1 17 8
v -6 17 4
v -5 17 4
v -7 17 3
v -6 17 3
v -1 17 3
v 0 17 3
v -5 17 2
v -2 17 2
v -1 17 1
v 0 17 1
v -5 17 -1
v -2 17 -1
v -7 17 -2
v -6 17 -2
v -1 17 -2
v 0 17 -2
v -5 17 -3
v -4 17 -3
v -6 17 -4
v -5 17 -4
v -5 17 -6
v -4 17 -6
v -6 17 -7
v -1 17 -7
v -6 8 3
v -5 8 3
v -1 8 3
v -5 8 2
v -2 8 2
v -2 8 1
v -1 8 1
v -5 8 -1
v -2 8 -1
v -6 8 -2
v -1 8 -2
v -6 10 3
v -5 10 3
v -4 10 3
v -2 10 3
v -1 10 3
v -5 10 2
v -4 10 2
v -2 10 2
v -2 10 1
v -1 10 1
v -5 10 -1
v -2 10 -1
v -6 10 -2
v -1 10 -2
v -6 12 3
v -1 12 3
v -5 12 2
v -2 12 2
v -2 12 -0
v -1 12 -0
v -5 12 -1
v -3 12 -1
v -2 12 -1
v -6 12 -2
v -3 12 -2
v -1 12 -2
v -6 14 3
v -1 14 3
v -5 14 2
v -2 14 2
v -5 14 -1
v -2 14 -1
v -6 14 -2
v -1 14 -2
v -6 16 3
v -1 16 3
v -5 16 2
v -2 16 2
v -5 16 -1
v -2 16 -1
v -1 16 -1
v -6 16 -2
v -2 16 -2
v -1 16 -2
v -6 18 7
v -5 18 7
v -3 18 7
v -1 18 7
v -6 18 4
v -5 18 4
v -4 18 4
v -3 18 4
v -7 18 3
v -6 18 3
v -1 18 3
v 0 18 3
v -4 18 1
v -3 18 1
v -1 18 1
v 0 18 1
v -4 18 -0
v -3 18 -0
v -7 18 -2
v -6 18 -2
v -1 18 -2
v 0 18 -2
v -5 18 -3
v -4 18 -3
v -3 18 -3
v -6 18 -4
v -5 18 -4
v -6 18 -6
v -5 18 -6
v -4 18 -6
v -1 18 -6
v -6 20 8
v -5 20 8
v -3 20 8
v -1 20 8
v -6 20 7
v -5 20 7
v -3 20 7
v -1 20 7
v -6 20 -6
v -1 20 -6
v -6 20 -7
v -1 20 -7
v -4 32 4
v -3 32 4
v -4 32 3
v -3 32 3
v -4 33 3
v -3 33 3
v -4 33 2
v -3 33 2
v -4 34 2
v -3 34 2
v -4 34 1
v -3 34 1
v -4 35 1
v -3 35 1
v -4 35 -0
v -3 35 -0
v -4 36 -0
v -3 36 -0
v -4 36 -1
v -3 36 -1
v -4 37 -1
v -3 37 -1
v -4 37 -2
v -3 37 -2
v -4 38 -2
v -3 38 -2
v -4 38 -3
v -3 38 -3

# faces
f 3/2/1 2/2/1 1/2/1
f 4/2/1 2/2/1 3/2/1
f 7/2/1 6/2/1 5/2/1
f 8/2/1 6/2/1 7/2/1
f 11/2/1 10/2/1 9/2/1
f 12/2/1 10/2/1 11/2/1
f 15/2/1 14/2/1 13/2/1
f 16/2/1 14/2/1 15/2/1
f 19/2/1 18/2/1 17/2/1
f 20/2/1 18/2/1 19/2/1
f 23/2/1 22/2/1 21/2/1
f 24/2/1 22/2/1 23/2/1
f 31/2/1 26/2/1 25/2/1
f 32/1/1 27/1/1 26/1/1
f 32/2/1 26/2/1 31/2/1
f 33/1/1 27/1/1 32/1/1
f 34/1/1 29/1/1 28/1/1
f 35/2/1 30/2/1 29/2/1
f 35/1/1 29/1/1 34/1/1
f 36/2/1 30/2/1 35/2/1
f 37/2/1 31/2/1 25/2/1
f 38/2/1 31/2/1 37/2/1
f 39/2/1 30/2/1 36/2/1
f 40/2/1 30/2/1 39/2/1
f 43/4/1 42/4/1 41/4/1
f 44/4/1 42/4/1 43/4/1
f 47/4/1 46/4/1 45/4/1
f 48/4/1 46/4/1 47/4/1
f 51/4/1 50/4/1 49/4/1
f 52/4/1 50/4/1 51/4/1
f 55/4/1 54/4/1 53/4/1
f 56/4/1 54/4/1 55/4/1
f 59/4/1 58/4/1 57/4/1
f 60/4/1 58/4/1 59/4/1
f 63/4/1 62/4/1 61/4/1
f 64/4/1 62/4/1 63/4/1
f 69/4/1 66/4/1 65/4/1
f 70/4/1 66/4/1 69/4/1
f 71/3/1 67/3/1 66/3/1
f 71/4/1 66/4/1 70/4/1
f 72/4/1 68/4/1 67/4/1
f 72/3/1 67/3/1 71/3/1
f 73/4/1 71/4/1 70/4/1
f 73/4/1 72/4/1 71/4/1
f 74/4/1 72/4/1 73/4/1
f 75/4/1 72/4/1 74/4/1
f 76/4/1 72/4/1 75/4/1
f 77/4/1 72/4/1 76/4/1
f 78/4/1 68/4/1 72/4/1
f 78/4/1 72/4/1 77/4/1
f 79/4/1 68/4/1 78/4/1
f 80/4/1 68/4/1 79/4/1
f 81/4/1 68/4/1 80/4/1
f 82/4/1 68/4/1 81/4/1
f 83/4/1 68/4/1 82/4/1
f 84/4/1 68/4/1 83/4/1
f 85/4/2 86/4/2 89/4/2
f 89/4/2 86/4/2 90/4/2
f 86/3/2 87/3/2 91/3/2
f 90/4/2 86/4/2 91/4/2
f 87/4/2 88/4/2 92/4/2
f 91/3/2 87/3/2 92/3/2
f 90/4/2 91/4/2 93/4/2
f 91/4/2 92/4/2 93/4/2
f 93/4/2 92/4/2 94/4/2
f 94/4/2 92/4/2 95/4/2
f 95/4/2 92/4/2 96/4/2
f 96/4/2 92/4/2 97/4/2
f 92/4/2 88/4/2 98/4/2
f 97/4/2 92/4/2 98/4/2
f 98/4/2 88/4/2 99/4/2
f 99/4/2 88/4/2 100/4/2
f 100/4/2 88/4/2 101/4/2
f 101/4/2 88/4/2 102/4/2
f 102/4/2 88/4/2 103/4/2
f 103/4/2 88/4/2 104/4/2
f 105/4/2 106/4/2 107/4/2
f 107/4/2 106/4/2 108/4/2
f 108/4/2 106/4/2 109/4/2
f 110/4/2 111/4/2 113/4/2
f 111/4/2 112/4/2 113/4/2
f 113/4/2 112/4/2 114/4/2
f 114/4/2 112/4/2 115/4/2
f 116/4/2 117/4/2 119/4/2
f 117/4/2 118/4/2 119/4/2
f 119/4/2 118/4/2 120/4/2
f 120/4/2 118/4/2 121/4/2
f 122/4/2 123/4/2 125/4/2
f 123/4/2 124/4/2 125/4/2
f 125/4/2 124/4/2 126/4/2
f 127/4/2 128/4/2 129/4/2
f 129/4/2 128/4/2 130/4/2
f 131/4/2 132/4/2 133/4/2
f 133/4/2 132/4/2 134/4/2
f 135/1/2 136/1/2 138/1/2
f 136/2/2 137/2/2 139/2/2
f 138/1/2 136/1/2 139/1/2
f 139/2/2 137/2/2 140/2/2
f 141/1/2 142/1/2 144/1/2
f 142/2/2 143/2/2 145/2/2
f 144/1/2 142/1/2 145/1/2
f 145/2/2 143/2/2 146/2/2
f 147/2/2 148/2/2 150/2/2
f 148/1/2 149/1/2 151/1/2
f 150/2/2 148/2/2 151/2/2
f 151/1/2 149/1/2 152/1/2
f 153/2/2 154/2/2 155/2/2
f 155/2/2 154/2/2 156/2/2
f 157/2/2 158/2/2 160/2/2
f 158/1/2 159/1/2 161/1/2
f 160/2/2 158/2/2 161/2/2
f 161/1/2 159/1/2 162/1/2
f 163/2/2 164/2/2 167/2/2
f 167/2/2 164/2/2 168/2/2
f 165/2/2 166/2/2 169/2/2
f 169/2/2 166/2/2 170/2/2
f 163/2/2 167/2/2 171/2/2
f 171/2/2 167/2/2 172/2/2
f 170/2/2 166/2/2 173/2/2
f 173/2/2 166/2/2 174/2/2
f 175/2/2 176/2/2 178/2/2
f 176/1/2 177/1/2 179/1/2
f 178/2/2 176/2/2 179/2/2
f 179/1/2 177/1/2 180/1/2
f 183/2/3 182/2/3 181/2/3
f 184/2/3 182/2/3 183/2/3
f 185/2/3 183/2/3 181/2/3
f 185/1/3 184/1/3 183/1/3
f 186/1/3 184/1/3 185/1/3
f 187/2/3 185/2/3 181/2/3
f 187/2/3 186/2/3 185/2/3
f 188/2/3 186/2/3 187/2/3
f 191/4/3 190/4/3 189/4/3
f 192/4/3 190/4/3 191/4/3
f 205/2/3 194/2/3 193/2/3
f 206/2/3 194/2/3 205/2/3
f 207/2/3 196/2/3 195/2/3
f 208/2/3 196/2/3 207/2/3
f 209/2/3 198/2/3 197/2/3
f 210/2/3 198/2/3 209/2/3
f 211/1/3 210/1/3 209/1/3
f 212/1/3 210/1/3 211/1/3
f 215/4/3 214/4/3 213/4/3
f 216/4/3 214/4/3 215/4/3
f 217/2/3 212/2/3 211/2/3
f 218/2/3 212/2/3 217/2/3
f 219/1/3 208/1/3 207/1/3
f 220/1/3 208/1/3 219/1/3
f 221/1/3 218/1/3 217/1/3
f 222/1/3 218/1/3 221/1/3
f 223/2/3 200/2/3 199/2/3
f 224/2/3 200/2/3 223/2/3
f 225/2/3 202/2/3 201/2/3
f 226/2/3 202/2/3 225/2/3
f 227/2/3 204/2/3 203/2/3
f 228/2/3 204/2/3 227/2/3
f 231/2/3 230/2/3 229/2/3
f 232/2/3 230/2/3 231/2/3
f 245/4/3 236/4/3 235/4/3
f 246/4/3 238/4/3 237/4/3
f 249/4/3 248/4/3 247/4/3
f 250/4/3 248/4/3 249/4/3
f 251/4/3 234/4/3 233/4/3
f 252/4/3 234/4/3 251/4/3
f 253/4/3 245/4/3 235/4/3
f 254/4/3 245/4/3 253/4/3
f 255/4/3 238/4/3 246/4/3
f 256/4/3 238/4/3 255/4/3
f 257/4/3 240/4/3 239/4/3
f 258/4/3 240/4/3 257/4/3
f 259/4/3 242/4/3 241/4/3
f 260/4/3 242/4/3 259/4/3
f 261/4/3 244/4/3 243/4/3
f 262/4/3 244/4/3 261/4/3
f 265/4/3 264/4/3 263/4/3
f 266/4/3 264/4/3 265/4/3
f 269/4/3 268/4/3 267/4/3
f 270/4/3 268/4/3 269/4/3
f 273/4/3 272/4/3 271/4/3
f 274/4/3 272/4/3 273/4/3
f 277/4/3 276/4/3 275/4/3
f 278/4/3 276/4/3 277/4/3
f 281/2/3 280/2/3 279/2/3
f 282/2/3 280/2/3 281/2/3
f 283/2/3 280/2/3 282/2/3
f 284/2/3 280/2/3 283/2/3
f 285/2/4 286/2/4 287/2/4
f 287/2/4 286/2/4 288/2/4
f 287/1/4 288/1/4 289/1/4
f 289/1/4 288/1/4 290/1/4
f 289/2/4 290/2/4 291/2/4
f 291/2/4 290/2/4 292/2/4
f 297/4/4 298/4/4 305/4/4
f 299/4/4 300/4/4 306/4/4
f 293/4/4 294/4/4 307/4/4
f 307/4/4 294/4/4 308/4/4
f 295/4/4 296/4/4 309/4/4
f 309/4/4 296/4/4 310/4/4
f 297/4/4 305/4/4 311/4/4
f 311/4/4 305/4/4 312/4/4
f 306/4/4 300/4/4 313/4/4
f 313/4/4 300/4/4 314/4/4
f 301/4/4 302/4/4 315/4/4
f 315/4/4 302/4/4 316/4/4
f 303/4/4 304/4/4 317/4/4
f 317/4/4 304/4/4 318/4/4
f 319/2/4 320/2/4 331/2/4
f 331/2/4 320/2/4 332/2/4
f 325/2/4 326/2/4 333/2/4
f 333/2/4 326/2/4 334/2/4
f 329/2/4 330/2/4 335/2/4
f 335/2/4 330/2/4 336/2/4
f 321/2/4 322/2/4 337/2/4
f 337/2/4 322/2/4 338/2/4
f 323/2/4 324/2/4 339/2/4
f 339/2/4 324/2/4 340/2/4
f 333/1/4 334/1/4 341/1/4
f 341/1/4 334/1/4 342/1/4
f 327/2/4 328/2/4 343/2/4
f 343/2/4 328/2/4 344/2/4
f 335/1/4 336/1/4 345/1/4
f 345/1/4 336/1/4 346/1/4
f 347/1/4 348/1/4 349/1/4
f 349/1/4 348/1/4 350/1/4
f 351/4/4 352/4/4 353/4/4
f 353/4/4 352/4/4 354/4/4
f 355/2/4 356/2/4 357/2/4
f 357/2/4 356/2/4 358/2/4
f 361/4/5 360/4/5 359/4/5
f 362/4/5 360/4/5 361/4/5
f 366/2/5 364/2/5 363/2/5
f 366/1/5 365/1/5 364/1/5
f 367/1/5 365/1/5 366/1/5
f 368/1/5 365/1/5 367/1/5
f 369/1/5 365/1/5 368/1/5
f 370/2/5 366/2/5 363/2/5
f 371/2/5 369/2/5 368/2/5
f 372/2/5 370/2/5 363/2/5
f 372/2/5 371/2/5 370/2/5
f 373/2/5 369/2/5 371/2/5
f 373/2/5 371/2/5 372/2/5
f 379/2/5 375/2/5 374/2/5
f 379/1/5 376/1/5 375/1/5
f 380/2/5 377/2/5 376/2/5
f 380/1/5 376/1/5 379/1/5
f 381/1/5 378/1/5 377/1/5
f 381/2/5 377/2/5 380/2/5
f 382/1/5 378/1/5 381/1/5
f 383/1/5 378/1/5 382/1/5
f 384/2/5 379/2/5 374/2/5
f 385/2/5 383/2/5 382/2/5
f 386/2/5 384/2/5 374/2/5
f 386/2/5 385/2/5 384/2/5
f 387/2/5 383/2/5 385/2/5
f 387/2/5 385/2/5 386/2/5
f 390/2/5 389/2/5 388/2/5
f 391/2/5 389/2/5 390/2/5
f 392/2/5 389/2/5 391/2/5
f 393/2/5 389/2/5 392/2/5
f 394/2/5 390/2/5 388/2/5
f 396/1/5 393/1/5 392/1/5
f 397/2/5 395/2/5 394/2/5
f 397/2/5 394/2/5 388/2/5
f 398/1/5 396/1/5 395/1/5
f 398/2/5 395/2/5 397/2/5
f 399/1/5 393/1/5 396/1/5
f 399/1/5 396/1/5 398/1/5
f 402/2/5 401/2/5 400/2/5
f 403/2/5 401/2/5 402/2/5
f 404/2/5 402/2/5 400/2/5
f 405/2/5 401/2/5 403/2/5
f 406/2/5 404/2/5 400/2/5
f 406/2/5 405/2/5 404/2/5
f 407/2/5 401/2/5 405/2/5
f 407/2/5 405/2/5 406/2/5
f 410/2/5 409/2/5 408/2/5
f 411/2/5 409/2/5 410/2/5
f 412/2/5 410/2/5 408/2/5
f 413/2/5 409/2/5 411/2/5
f 414/2/5 409/2/5 413/2/5
f 415/2/5 412/2/5 408/2/5
f 415/2/5 413/2/5 412/2/5
f 416/1/5 414/1/5 413/1/5
f 416/2/5 413/2/5 415/2/5
f 417/1/5 414/1/5 416/1/5
f 420/2/5 419/2/5 418/2/5
f 421/2/5 419/2/5 420/2/5
f 423/1/5 421/1/5 420/1/5
f 424/2/5 419/2/5 421/2/5
f 426/1/5 421/1/5 423/1/5
f 426/2/5 425/2/5 424/2/5
f 426/2/5 424/2/5 421/2/5
f 427/2/5 425/2/5 426/2/5
f 428/2/5 425/2/5 427/2/5
f 429/2/5 425/2/5 428/2/5
f 430/1/5 426/1/5 423/1/5
f 431/2/5 428/2/5 427/2/5
f 432/2/5 423/2/5 422/2/5
f 433/1/5 430/1/5 423/1/5
f 433/2/5 423/2/5 432/2/5
f 434/2/5 431/2/5 430/2/5
f 434/1/5 429/1/5 428/1/5
f 434/2/5 428/2/5 431/2/5
f 435/1/5 429/1/5 434/1/5
f 436/1/5 430/1/5 433/1/5
f 436/2/5 434/2/5 430/2/5
f 437/2/5 434/2/5 436/2/5
f 438/1/5 436/1/5 433/1/5
f 438/1/5 437/1/5 436/1/5
f 439/1/5 437/1/5 438/1/5
f 440/2/5 439/2/5 438/2/5
f 440/1/5 437/1/5 439/1/5
f 441/2/5 434/2/5 437/2/5
f 441/1/5 437/1/5 440/1/5
f 442/2/5 440/2/5 438/2/5
f 442/2/5 441/2/5 440/2/5
f 443/2/5 434/2/5 441/2/5
f 443/2/5 441/2/5 442/2/5
f 444/2/6 445/2/6 447/2/6
f 445/1/6 446/1/6 447/1/6
f 447/1/6 446/1/6 448/1/6
f 448/1/6 446/1/6 449/1/6
f 449/1/6 446/1/6 450/1/6
f 444/2/6 447/2/6 451/2/6
f 449/2/6 450/2/6 452/2/6
f 444/2/6 451/2/6 453/2/6
f 451/2/6 452/2/6 453/2/6
f 452/2/6 450/2/6 454/2/6
f 453/2/6 452/2/6 454/2/6
f 455/2/6 456/2/6 460/2/6
f 456/1/6 457/1/6 460/1/6
f 457/2/6 458/2/6 461/2/6
f 460/1/6 457/1/6 461/1/6
f 458/1/6 459/1/6 462/1/6
f 461/2/6 458/2/6 462/2/6
f 462/1/6 459/1/6 463/1/6
f 463/1/6 459/1/6 464/1/6
f 455/2/6 460/2/6 465/2/6
f 463/2/6 464/2/6 466/2/6
f 455/2/6 465/2/6 467/2/6
f 465/2/6 466/2/6 467/2/6
f 466/2/6 464/2/6 468/2/6
f 467/2/6 466/2/6 468/2/6
f 469/2/6 470/2/6 471/2/6
f 471/2/6 470/2/6 472/2/6
f 472/2/6 470/2/6 473/2/6
f 473/2/6 470/2/6 474/2/6
f 469/2/6 471/2/6 475/2/6
f 473/1/6 474/1/6 477/1/6
f 475/2/6 476/2/6 478/2/6
f 469/2/6 475/2/6 478/2/6
f 476/1/6 477/1/6 479/1/6
f 478/2/6 476/2/6 479/2/6
f 477/1/6 474/1/6 480/1/6
f 479/1/6 477/1/6 480/1/6
f 481/2/6 482/2/6 483/2/6
f 483/2/6 482/2/6 484/2/6
f 481/2/6 483/2/6 485/2/6
f 484/2/6 482/2/6 486/2/6
f 481/2/6 485/2/6 487/2/6
f 485/2/6 486/2/6 487/2/6
f 486/2/6 482/2/6 488/2/6
f 487/2/6 486/2/6 488/2/6
f 489/2/6 490/2/6 491/2/6
f 491/2/6 490/2/6 492/2/6
f 489/2/6 491/2/6 493/2/6
f 492/2/6 490/2/6 494/2/6
f 494/2/6 490/2/6 495/2/6
f 489/2/6 493/2/6 496/2/6
f 493/2/6 494/2/6 496/2/6
f 494/1/6 495/1/6 497/1/6
f 496/2/6 494/2/6 497/2/6
f 497/1/6 495/1/6 498/1/6
f 499/2/6 500/2/6 503/2/6
f 501/2/6 502/2/6 503/2/6
f 500/2/6 501/2/6 503/2/6
f 503/2/6 502/2/6 504/2/6
f 504/2/6 502/2/6 505/2/6
f 505/2/6 502/2/6 506/2/6
f 503/1/6 504/1/6 508/1/6
f 506/2/6 502/2/6 509/2/6
f 504/2/6 505/2/6 511/2/6
f 509/2/6 510/2/6 512/2/6
f 506/2/6 509/2/6 512/2/6
f 512/2/6 510/2/6 513/2/6
f 513/2/6 510/2/6 514/2/6
f 504/2/6 511/2/6 515/2/6
f 512/2/6 513/2/6 516/2/6
f 507/2/6 508/2/6 517/2/6
f 508/1/6 504/1/6 518/1/6
f 517/2/6 508/2/6 518/2/6
f 516/2/6 513/2/6 519/2/6
f 513/1/6 514/1/6 519/1/6
f 519/1/6 514/1/6 520/1/6
f 518/1/6 504/1/6 521/1/6
f 504/2/6 515/2/6 521/2/6
f 521/2/6 515/2/6 522/2/6
f 516/2/6 519/2/6 523/2/6
f 521/1/6 522/1/6 524/1/6
f 518/1/6 521/1/6 524/1/6
f 524/1/6 522/1/6 525/1/6
f 524/2/6 525/2/6 526/2/6
f 525/1/6 522/1/6 527/1/6
f 526/2/6 525/2/6 527/2/6
f 522/2/6 523/2/6 528/2/6
f 527/1/6 522/1/6 528/1/6
f 523/2/6 519/2/6 529/2/6
f 528/2/6 523/2/6 529/2/6
f 530/2/6 531/2/6 534/2/6
f 531/1/6 532/1/6 535/1/6
f 534/2/6 531/2/6 535/2/6
f 532/2/6 533/2/6 536/2/6
f 535/1/6 532/1/6 536/1/6
f 536/2/6 533/2/6 537/2/6
f 538/2/6 539/2/6 540/2/6
f 540/2/6 539/2/6 541/2/6
f 542/4/6 543/4/6 544/4/6
f 544/4/6 543/4/6 545/4/6
f 546/4/6 547/4/6 548/4/6
f 548/4/6 547/4/6 549/4/6
f 550/4/6 551/4/6 552/4/6
f 552/4/6 551/4/6 553/4/6
f 554/4/6 555/4/6 556/4/6
f 556/4/6 555/4/6 557/4/6
f 558/4/6 559/4/6 560/4/6
f 560/4/6 559/4/6 561/4/6
f 562/4/6 563/4/6 564/4/6
f 564/4/6 563/4/6 565/4/6
f 566/4/6 567/4/6 568/4/6
f 568/4/6 567/4/6 569/4/6
