# MagicaVoxel @ Ephtracy

# group
g Tile5

# material
mtllib Tile5.mtl
usemtl palette

# normals
vn -1 0 0
vn 1 0 0
vn 0 0 1
vn 0 0 -1
vn 0 -1 0
vn 0 1 0

# texcoords
vt 0.0292969 0.5
vt 0.0605469 0.5
vt 0.0917969 0.5
vt 0.166016 0.5

# verts
v -6 1 5
v -6 1 -5
v -6 2 -0
v -6 2 -1
v -6 3 4
v -6 3 3
v -6 4 -3
v -6 4 -4
v -6 5 5
v -6 5 4
v -6 5 3
v -6 5 -0
v -6 5 -1
v -6 5 -3
v -6 5 -4
v -6 5 -5
v -5 1 6
v -5 1 5
v -5 1 -5
v -5 1 -6
v -5 5 6
v -5 5 5
v -5 5 -5
v -5 5 -6
v 5 1 6
v 5 1 5
v 5 1 -5
v 5 1 -6
v 5 5 6
v 5 5 5
v 5 5 -5
v 5 5 -6
v 6 1 5
v 6 1 -5
v 6 2 -2
v 6 2 -3
v 6 3 2
v 6 3 1
v 6 5 5
v 6 5 2
v 6 5 1
v 6 5 -2
v 6 5 -3
v 6 5 -5
v -5 1 6
v -5 5 6
v -1 2 6
v -1 5 6
v 0 2 6
v 0 5 6
v 3 4 6
v 3 5 6
v 4 4 6
v 4 5 6
v 5 1 6
v 5 5 6
v -6 1 5
v -6 5 5
v -5 1 5
v -5 5 5
v 5 1 5
v 5 5 5
v 6 1 5
v 6 5 5
v -6 1 -5
v -6 5 -5
v -5 1 -5
v -5 5 -5
v 5 1 -5
v 5 5 -5
v 6 1 -5
v 6 5 -5
v -5 1 -6
v -5 5 -6
v -2 2 -6
v -2 5 -6
v -1 2 -6
v -1 5 -6
v 1 4 -6
v 1 5 -6
v 2 4 -6
v 2 5 -6
v 5 1 -6
v 5 5 -6
v -5 1 6
v 5 1 6
v -6 1 5
v -5 1 5
v 5 1 5
v 6 1 5
v -6 1 -5
v -5 1 -5
v 5 1 -5
v 6 1 -5
v -5 1 -6
v 5 1 -6
v -5 5 6
v -1 5 6
v 0 5 6
v 3 5 6
v 4 5 6
v 5 5 6
v -6 5 5
v -5 5 5
v -4 5 5
v -1 5 5
v 0 5 5
v 3 5 5
v 5 5 5
v 6 5 5
v -6 5 4
v -4 5 4
v -3 5 4
v 3 5 4
v 4 5 4
v 5 5 4
v -6 5 3
v -5 5 3
v -4 5 3
v -3 5 3
v -2 5 3
v 2 5 3
v 3 5 3
v 4 5 3
v -3 5 2
v -2 5 2
v 2 5 2
v 3 5 2
v 5 5 2
v 6 5 2
v -1 5 1
v 1 5 1
v 5 5 1
v 6 5 1
v -6 5 -0
v -5 5 -0
v -6 5 -1
v -5 5 -1
v -1 5 -1
v 1 5 -1
v -3 5 -2
v -2 5 -2
v 2 5 -2
v 3 5 -2
v 5 5 -2
v 6 5 -2
v -6 5 -3
v -5 5 -3
v -4 5 -3
v -3 5 -3
v -2 5 -3
v 2 5 -3
v 3 5 -3
v 4 5 -3
v 5 5 -3
v 6 5 -3
v -6 5 -4
v -4 5 -4
v -3 5 -4
v 3 5 -4
v 4 5 -4
v 5 5 -4
v -6 5 -5
v -5 5 -5
v -4 5 -5
v -2 5 -5
v -1 5 -5
v 1 5 -5
v 2 5 -5
v 4 5 -5
v 5 5 -5
v 6 5 -5
v -5 5 -6
v -2 5 -6
v -1 5 -6
v 1 5 -6
v 2 5 -6
v 5 5 -6

# faces
f 3/4/1 2/4/1 1/4/1
f 4/4/1 2/4/1 3/4/1
f 5/4/1 3/4/1 1/4/1
f 6/4/1 3/4/1 5/4/1
f 7/4/1 2/4/1 4/4/1
f 8/4/1 2/4/1 7/4/1
f 9/4/1 5/4/1 1/4/1
f 10/3/1 6/3/1 5/3/1
f 10/4/1 5/4/1 9/4/1
f 11/4/1 3/4/1 6/4/1
f 11/3/1 6/3/1 10/3/1
f 12/3/1 4/3/1 3/3/1
f 12/4/1 3/4/1 11/4/1
f 13/4/1 7/4/1 4/4/1
f 13/3/1 4/3/1 12/3/1
f 14/3/1 8/3/1 7/3/1
f 14/4/1 7/4/1 13/4/1
f 15/4/1 2/4/1 8/4/1
f 15/3/1 8/3/1 14/3/1
f 16/4/1 2/4/1 15/4/1
f 21/4/1 18/4/1 17/4/1
f 22/4/1 18/4/1 21/4/1
f 23/4/1 20/4/1 19/4/1
f 24/4/1 20/4/1 23/4/1
f 25/4/2 26/4/2 29/4/2
f 29/4/2 26/4/2 30/4/2
f 27/4/2 28/4/2 31/4/2
f 31/4/2 28/4/2 32/4/2
f 33/4/2 34/4/2 35/4/2
f 35/4/2 34/4/2 36/4/2
f 33/4/2 35/4/2 37/4/2
f 37/4/2 35/4/2 38/4/2
f 33/4/2 37/4/2 39/4/2
f 37/3/2 38/3/2 40/3/2
f 39/4/2 37/4/2 40/4/2
f 38/4/2 35/4/2 41/4/2
f 40/3/2 38/3/2 41/3/2
f 35/3/2 36/3/2 42/3/2
f 41/4/2 35/4/2 42/4/2
f 36/4/2 34/4/2 43/4/2
f 42/3/2 36/3/2 43/3/2
f 43/4/2 34/4/2 44/4/2
f 47/4/3 46/4/3 45/4/3
f 48/4/3 46/4/3 47/4/3
f 49/4/3 47/4/3 45/4/3
f 49/3/3 48/3/3 47/3/3
f 50/3/3 48/3/3 49/3/3
f 51/4/3 50/4/3 49/4/3
f 52/4/3 50/4/3 51/4/3
f 53/4/3 51/4/3 49/4/3
f 53/3/3 52/3/3 51/3/3
f 54/3/3 52/3/3 53/3/3
f 55/4/3 49/4/3 45/4/3
f 55/4/3 53/4/3 49/4/3
f 55/4/3 54/4/3 53/4/3
f 56/4/3 54/4/3 55/4/3
f 59/4/3 58/4/3 57/4/3
f 60/4/3 58/4/3 59/4/3
f 63/4/3 62/4/3 61/4/3
f 64/4/3 62/4/3 63/4/3
f 65/4/4 66/4/4 67/4/4
f 67/4/4 66/4/4 68/4/4
f 69/4/4 70/4/4 71/4/4
f 71/4/4 70/4/4 72/4/4
f 73/4/4 74/4/4 75/4/4
f 75/4/4 74/4/4 76/4/4
f 73/4/4 75/4/4 77/4/4
f 75/3/4 76/3/4 77/3/4
f 77/3/4 76/3/4 78/3/4
f 77/4/4 78/4/4 79/4/4
f 79/4/4 78/4/4 80/4/4
f 77/4/4 79/4/4 81/4/4
f 79/3/4 80/3/4 81/3/4
f 81/3/4 80/3/4 82/3/4
f 73/4/4 77/4/4 83/4/4
f 77/4/4 81/4/4 83/4/4
f 81/4/4 82/4/4 83/4/4
f 83/4/4 82/4/4 84/4/4
f 88/4/5 86/4/5 85/4/5
f 89/4/5 86/4/5 88/4/5
f 91/4/5 88/4/5 87/4/5
f 91/4/5 90/4/5 89/4/5
f 91/4/5 89/4/5 88/4/5
f 92/4/5 90/4/5 91/4/5
f 93/4/5 90/4/5 92/4/5
f 94/4/5 90/4/5 93/4/5
f 95/4/5 93/4/5 92/4/5
f 96/4/5 93/4/5 95/4/5
f 97/4/6 98/4/6 104/4/6
f 104/4/6 98/4/6 105/4/6
f 98/3/6 99/3/6 106/3/6
f 105/4/6 98/4/6 106/4/6
f 99/4/6 100/4/6 107/4/6
f 106/3/6 99/3/6 107/3/6
f 100/3/6 101/3/6 108/3/6
f 107/4/6 100/4/6 108/4/6
f 101/4/6 102/4/6 109/4/6
f 104/4/6 105/4/6 111/4/6
f 103/4/6 104/4/6 111/4/6
f 105/3/6 106/3/6 112/3/6
f 111/4/6 105/4/6 112/4/6
f 106/3/6 107/3/6 112/3/6
f 107/3/6 108/3/6 112/3/6
f 112/3/6 108/3/6 113/3/6
f 108/3/6 101/3/6 114/3/6
f 113/3/6 108/3/6 114/3/6
f 109/4/6 110/4/6 115/4/6
f 114/3/6 101/3/6 115/3/6
f 101/4/6 109/4/6 115/4/6
f 115/4/6 110/4/6 116/4/6
f 112/3/6 113/3/6 117/3/6
f 111/3/6 112/3/6 117/3/6
f 117/3/6 113/3/6 118/3/6
f 118/3/6 113/3/6 119/3/6
f 113/2/6 114/2/6 120/2/6
f 119/3/6 113/3/6 120/3/6
f 120/2/6 114/2/6 121/2/6
f 121/2/6 114/2/6 122/2/6
f 115/3/6 116/3/6 123/3/6
f 122/2/6 114/2/6 123/2/6
f 114/3/6 115/3/6 123/3/6
f 123/3/6 116/3/6 124/3/6
f 120/2/6 121/2/6 125/2/6
f 119/2/6 120/2/6 125/2/6
f 121/1/6 122/1/6 126/1/6
f 125/2/6 121/2/6 126/2/6
f 123/2/6 124/2/6 127/2/6
f 126/1/6 122/1/6 127/1/6
f 122/2/6 123/2/6 127/2/6
f 127/2/6 124/2/6 128/2/6
f 116/4/6 110/4/6 129/4/6
f 124/3/6 116/3/6 129/3/6
f 129/4/6 110/4/6 130/4/6
f 127/1/6 128/1/6 131/1/6
f 125/1/6 126/1/6 131/1/6
f 126/1/6 127/1/6 131/1/6
f 131/1/6 128/1/6 132/1/6
f 129/3/6 130/3/6 133/3/6
f 124/3/6 129/3/6 133/3/6
f 133/3/6 130/3/6 134/3/6
f 117/4/6 118/4/6 135/4/6
f 118/3/6 119/3/6 136/3/6
f 135/4/6 118/4/6 136/4/6
f 135/3/6 136/3/6 137/3/6
f 136/3/6 119/3/6 138/3/6
f 137/3/6 136/3/6 138/3/6
f 131/3/6 132/3/6 139/3/6
f 125/1/6 131/1/6 139/1/6
f 132/1/6 128/1/6 140/1/6
f 139/3/6 132/3/6 140/3/6
f 119/2/6 125/2/6 141/2/6
f 125/1/6 139/1/6 141/1/6
f 139/1/6 140/1/6 141/1/6
f 141/1/6 140/1/6 142/1/6
f 140/1/6 128/1/6 143/1/6
f 142/1/6 140/1/6 143/1/6
f 128/2/6 124/2/6 144/2/6
f 143/1/6 128/1/6 144/1/6
f 124/3/6 133/3/6 145/3/6
f 133/4/6 134/4/6 145/4/6
f 145/4/6 134/4/6 146/4/6
f 137/4/6 138/4/6 147/4/6
f 138/3/6 119/3/6 148/3/6
f 147/4/6 138/4/6 148/4/6
f 141/2/6 142/2/6 149/2/6
f 148/3/6 119/3/6 149/3/6
f 119/2/6 141/2/6 149/2/6
f 149/2/6 142/2/6 150/2/6
f 142/1/6 143/1/6 151/1/6
f 150/2/6 142/2/6 151/2/6
f 143/2/6 144/2/6 152/2/6
f 151/1/6 143/1/6 152/1/6
f 144/2/6 124/2/6 153/2/6
f 152/2/6 144/2/6 153/2/6
f 145/3/6 146/3/6 154/3/6
f 153/2/6 124/2/6 154/2/6
f 124/3/6 145/3/6 154/3/6
f 154/3/6 146/3/6 155/3/6
f 155/3/6 146/3/6 156/3/6
f 149/3/6 150/3/6 157/3/6
f 147/3/6 148/3/6 157/3/6
f 148/3/6 149/3/6 157/3/6
f 157/3/6 150/3/6 158/3/6
f 151/2/6 152/2/6 159/2/6
f 158/3/6 150/3/6 159/3/6
f 150/2/6 151/2/6 159/2/6
f 152/2/6 153/2/6 159/2/6
f 153/3/6 154/3/6 160/3/6
f 159/2/6 153/2/6 160/2/6
f 154/3/6 155/3/6 160/3/6
f 160/3/6 155/3/6 161/3/6
f 155/4/6 156/4/6 162/4/6
f 161/3/6 155/3/6 162/3/6
f 157/4/6 158/4/6 163/4/6
f 163/4/6 158/4/6 164/4/6
f 160/3/6 161/3/6 165/3/6
f 164/4/6 158/4/6 165/4/6
f 158/3/6 159/3/6 165/3/6
f 159/3/6 160/3/6 165/3/6
f 165/3/6 161/3/6 166/3/6
f 166/3/6 161/3/6 167/3/6
f 167/3/6 161/3/6 168/3/6
f 168/3/6 161/3/6 169/3/6
f 161/4/6 162/4/6 170/4/6
f 169/3/6 161/3/6 170/3/6
f 162/4/6 156/4/6 171/4/6
f 170/4/6 162/4/6 171/4/6
f 171/4/6 156/4/6 172/4/6
f 164/4/6 165/4/6 173/4/6
f 165/4/6 166/4/6 173/4/6
f 166/3/6 167/3/6 174/3/6
f 173/4/6 166/4/6 174/4/6
f 167/4/6 168/4/6 175/4/6
f 174/3/6 167/3/6 175/3/6
f 168/3/6 169/3/6 176/3/6
f 175/4/6 168/4/6 176/4/6
f 169/4/6 170/4/6 177/4/6
f 176/3/6 169/3/6 177/3/6
f 170/4/6 171/4/6 177/4/6
f 177/4/6 171/4/6 178/4/6
