# MagicaVoxel @ Ephtracy

# group
g Kid2

# material
mtllib Kid2.mtl
usemtl palette

# normals
vn -1 0 0
vn 1 0 0
vn 0 0 1
vn 0 0 -1
vn 0 -1 0
vn 0 1 0

# texcoords
vt 0.0332031 0.5
vt 0.0644531 0.5
vt 0.740234 0.5
vt 0.751953 0.5
vt 0.876953 0.5
vt 0.990234 0.5

# verts
v -16.5 16 2
v -16.5 16 -0
v -16.5 18 2
v -16.5 18 -0
v -9.5 25 2
v -9.5 25 -2
v -9.5 26 3
v -9.5 26 2
v -9.5 28 3
v -9.5 28 2
v -9.5 29 3
v -9.5 29 2
v -9.5 29 1
v -9.5 29 -2
v -9.5 30 3
v -9.5 30 1
v -8.5 24 3
v -8.5 24 -2
v -8.5 25 3
v -8.5 25 2
v -8.5 25 -2
v -8.5 29 1
v -8.5 29 -2
v -8.5 30 1
v -8.5 30 -2
v -7.5 22 2
v -7.5 22 -2
v -7.5 24 2
v -7.5 24 -2
v -7.5 30 2
v -7.5 30 -2
v -7.5 31 2
v -7.5 31 -2
v -6.5 5 2
v -6.5 5 -0
v -6.5 16 2
v -6.5 16 -0
v -6.5 21 2
v -6.5 21 -1
v -6.5 21 -2
v -6.5 22 2
v -6.5 22 -1
v -6.5 22 -2
v -6.5 28 3
v -6.5 28 2
v -6.5 29 3
v -6.5 29 2
v -6.5 31 3
v -6.5 31 2
v -6.5 31 1
v -6.5 32 3
v -6.5 32 1
v -5.5 0 2
v -5.5 0 -0
v -5.5 5 2
v -5.5 5 -0
v -5.5 20 2
v -5.5 20 -1
v -5.5 20 -2
v -5.5 21 2
v -5.5 21 -1
v -5.5 21 -2
v -5.5 31 1
v -5.5 31 -2
v -5.5 32 1
v -5.5 32 -2
v -4.5 32 2
v -4.5 32 -2
v -4.5 33 2
v -4.5 33 -2
v -2.5 29 3
v -2.5 29 2
v -2.5 30 3
v -2.5 30 2
v -2.5 32 2
v -2.5 32 -2
v -2.5 33 2
v -2.5 33 -2
v -0.5 18 1
v -0.5 18 -0
v -0.5 20 1
v -0.5 20 -0
v -0.5 33 2
v -0.5 33 -2
v -0.5 34 2
v -0.5 34 -2
v 2.5 32 2
v 2.5 32 -2
v 2.5 33 2
v 2.5 33 -2
v 3.5 0 2
v 3.5 0 -0
v 3.5 5 2
v 3.5 5 -0
v 4.5 29 3
v 4.5 29 2
v 4.5 30 3
v 4.5 30 2
v 5.5 25 3
v 5.5 25 2
v 5.5 27 2
v 5.5 28 3
v 5.5 28 2
v 5.5 30 3
v 5.5 30 2
v 5.5 31 3
v 5.5 31 2
v 6.5 23 3
v 6.5 23 2
v 6.5 25 3
v 6.5 25 2
v -7.5 24 3
v -7.5 24 2
v -7.5 25 3
v -7.5 25 2
v -6.5 26 3
v -6.5 26 2
v -6.5 28 3
v -6.5 28 2
v -4.5 29 3
v -4.5 29 2
v -4.5 30 3
v -4.5 30 2
v -3.5 0 2
v -3.5 0 -0
v -3.5 5 2
v -3.5 5 -0
v -3.5 32 2
v -3.5 32 -2
v -3.5 33 2
v -3.5 33 -2
v 0.5 18 1
v 0.5 18 -0
v 0.5 20 1
v 0.5 20 -0
v 0.5 33 2
v 0.5 33 -2
v 0.5 34 2
v 0.5 34 -2
v 1.5 32 2
v 1.5 32 -2
v 1.5 33 2
v 1.5 33 -2
v 3.5 29 3
v 3.5 29 2
v 3.5 30 3
v 3.5 30 2
v 4.5 20 2
v 4.5 20 -1
v 4.5 20 -2
v 4.5 21 2
v 4.5 21 -1
v 4.5 21 -2
v 4.5 32 2
v 4.5 32 -2
v 4.5 33 2
v 4.5 33 -2
v 5.5 0 2
v 5.5 0 -0
v 5.5 5 2
v 5.5 5 -0
v 5.5 21 2
v 5.5 21 -1
v 5.5 21 -2
v 5.5 23 2
v 5.5 23 -1
v 5.5 23 -2
v 5.5 31 3
v 5.5 31 -2
v 5.5 32 3
v 5.5 32 -2
v 6.5 5 2
v 6.5 5 -0
v 6.5 16 2
v 6.5 16 -0
v 7.5 23 3
v 7.5 23 -2
v 7.5 24 2
v 7.5 24 -2
v 7.5 30 2
v 7.5 30 -2
v 7.5 31 3
v 7.5 31 -2
v 8.5 24 2
v 8.5 24 -2
v 8.5 30 2
v 8.5 30 -2
v 16.5 16 2
v 16.5 16 -0
v 16.5 18 2
v 16.5 18 -0
v -9.5 26 3
v -9.5 28 3
v -9.5 29 3
v -9.5 30 3
v -8.5 24 3
v -8.5 25 3
v -7.5 24 3
v -7.5 25 3
v -6.5 26 3
v -6.5 28 3
v -6.5 29 3
v -6.5 31 3
v -6.5 32 3
v -4.5 29 3
v -4.5 30 3
v -2.5 29 3
v -2.5 30 3
v 3.5 29 3
v 3.5 30 3
v 4.5 29 3
v 4.5 30 3
v 5.5 25 3
v 5.5 28 3
v 5.5 30 3
v 5.5 31 3
v 5.5 32 3
v 6.5 23 3
v 6.5 25 3
v 7.5 23 3
v 7.5 31 3
v -16.5 16 2
v -16.5 18 2
v -14.5 16 2
v -14.5 18 2
v -9.5 25 2
v -9.5 26 2
v -9.5 28 2
v -9.5 29 2
v -8.5 25 2
v -7.5 22 2
v -7.5 24 2
v -7.5 25 2
v -7.5 30 2
v -7.5 31 2
v -6.5 5 2
v -6.5 16 2
v -6.5 21 2
v -6.5 22 2
v -6.5 26 2
v -6.5 28 2
v -6.5 29 2
v -6.5 31 2
v -5.5 0 2
v -5.5 5 2
v -5.5 20 2
v -5.5 21 2
v -5.5 26 2
v -5.5 28 2
v -4.5 24 2
v -4.5 25 2
v -4.5 29 2
v -4.5 30 2
v -4.5 32 2
v -4.5 33 2
v -3.5 0 2
v -3.5 5 2
v -3.5 7 2
v -3.5 16 2
v -3.5 32 2
v -3.5 33 2
v -2.5 16 2
v -2.5 18 2
v -2.5 21 2
v -2.5 22 2
v -2.5 29 2
v -2.5 30 2
v -2.5 32 2
v -2.5 33 2
v -1.5 24 2
v -1.5 25 2
v -0.5 33 2
v -0.5 34 2
v 0.5 24 2
v 0.5 25 2
v 0.5 33 2
v 0.5 34 2
v 1.5 21 2
v 1.5 22 2
v 1.5 32 2
v 1.5 33 2
v 2.5 15 2
v 2.5 16 2
v 2.5 18 2
v 2.5 32 2
v 2.5 33 2
v 3.5 0 2
v 3.5 5 2
v 3.5 7 2
v 3.5 15 2
v 3.5 24 2
v 3.5 25 2
v 3.5 29 2
v 3.5 30 2
v 4.5 20 2
v 4.5 21 2
v 4.5 27 2
v 4.5 28 2
v 4.5 29 2
v 4.5 30 2
v 4.5 32 2
v 4.5 33 2
v 5.5 0 2
v 5.5 5 2
v 5.5 21 2
v 5.5 23 2
v 5.5 25 2
v 5.5 27 2
v 5.5 28 2
v 5.5 30 2
v 5.5 31 2
v 6.5 5 2
v 6.5 16 2
v 6.5 23 2
v 6.5 25 2
v 7.5 24 2
v 7.5 30 2
v 8.5 24 2
v 8.5 30 2
v 14.5 16 2
v 14.5 18 2
v 16.5 16 2
v 16.5 18 2
v -0.5 18 1
v -0.5 20 1
v 0.5 18 1
v 0.5 20 1
v -9.5 29 1
v -9.5 30 1
v -8.5 29 1
v -8.5 30 1
v -6.5 31 1
v -6.5 32 1
v -5.5 31 1
v -5.5 32 1
v -16.5 16 -0
v -16.5 18 -0
v -14.5 16 -0
v -14.5 18 -0
v -6.5 5 -0
v -6.5 16 -0
v -5.5 0 -0
v -5.5 5 -0
v -3.5 0 -0
v -3.5 5 -0
v -3.5 7 -0
v -0.5 18 -0
v -0.5 20 -0
v 0.5 18 -0
v 0.5 20 -0
v 3.5 0 -0
v 3.5 5 -0
v 3.5 7 -0
v 5.5 0 -0
v 5.5 5 -0
v 6.5 5 -0
v 6.5 16 -0
v 14.5 16 -0
v 14.5 18 -0
v 16.5 16 -0
v 16.5 18 -0
v -9.5 25 -2
v -9.5 29 -2
v -8.5 24 -2
v -8.5 25 -2
v -8.5 29 -2
v -8.5 30 -2
v -7.5 22 -2
v -7.5 24 -2
v -7.5 30 -2
v -7.5 31 -2
v -6.5 21 -2
v -6.5 22 -2
v -5.5 20 -2
v -5.5 21 -2
v -5.5 31 -2
v -5.5 32 -2
v -4.5 32 -2
v -4.5 33 -2
v -3.5 32 -2
v -3.5 33 -2
v -2.5 32 -2
v -2.5 33 -2
v -0.5 33 -2
v -0.5 34 -2
v 0.5 33 -2
v 0.5 34 -2
v 1.5 32 -2
v 1.5 33 -2
v 2.5 32 -2
v 2.5 33 -2
v 4.5 20 -2
v 4.5 21 -2
v 4.5 32 -2
v 4.5 33 -2
v 5.5 21 -2
v 5.5 23 -2
v 5.5 31 -2
v 5.5 32 -2
v 7.5 23 -2
v 7.5 24 -2
v 7.5 30 -2
v 7.5 31 -2
v 8.5 24 -2
v 8.5 30 -2
v -5.5 0 2
v -3.5 0 2
v 3.5 0 2
v 5.5 0 2
v -5.5 0 -0
v -3.5 0 -0
v 3.5 0 -0
v 5.5 0 -0
v -6.5 5 2
v -5.5 5 2
v -3.5 5 2
v 3.5 5 2
v 5.5 5 2
v 6.5 5 2
v -6.5 5 -0
v -5.5 5 -0
v -3.5 5 -0
v 3.5 5 -0
v 5.5 5 -0
v 6.5 5 -0
v -16.5 16 2
v -14.5 16 2
v -6.5 16 2
v 6.5 16 2
v 14.5 16 2
v 16.5 16 2
v -16.5 16 -0
v -14.5 16 -0
v -6.5 16 -0
v 6.5 16 -0
v 14.5 16 -0
v 16.5 16 -0
v -5.5 20 2
v 4.5 20 2
v -0.5 20 1
v 0.5 20 1
v -0.5 20 -0
v 0.5 20 -0
v -5.5 20 -1
v 4.5 20 -1
v -5.5 20 -2
v 4.5 20 -2
v -6.5 21 2
v -5.5 21 2
v 4.5 21 2
v 5.5 21 2
v -6.5 21 -1
v -5.5 21 -1
v 4.5 21 -1
v 5.5 21 -1
v -6.5 21 -2
v -5.5 21 -2
v 4.5 21 -2
v 5.5 21 -2
v -7.5 22 2
v -6.5 22 2
v -6.5 22 -1
v -7.5 22 -2
v -6.5 22 -2
v 6.5 23 3
v 7.5 23 3
v 5.5 23 2
v 6.5 23 2
v 5.5 23 -1
v 5.5 23 -2
v 7.5 23 -2
v -8.5 24 3
v -7.5 24 3
v -7.5 24 2
v 7.5 24 2
v 8.5 24 2
v -8.5 24 -2
v -7.5 24 -2
v 7.5 24 -2
v 8.5 24 -2
v 5.5 25 3
v 6.5 25 3
v -9.5 25 2
v -8.5 25 2
v 5.5 25 2
v 6.5 25 2
v -9.5 25 -2
v -8.5 25 -2
v -9.5 26 3
v -6.5 26 3
v -9.5 26 2
v -6.5 26 2
v -6.5 28 3
v 5.5 28 3
v -6.5 28 2
v -5.5 28 2
v 4.5 28 2
v 5.5 28 2
v -9.5 29 3
v -6.5 29 3
v -9.5 29 2
v -6.5 29 2
v -6.5 31 3
v 5.5 31 3
v -6.5 31 2
v 5.5 31 2
v -16.5 18 2
v -14.5 18 2
v -2.5 18 2
v 2.5 18 2
v 14.5 18 2
v 16.5 18 2
v -2.5 18 1
v -0.5 18 1
v 0.5 18 1
v 2.5 18 1
v -16.5 18 -0
v -14.5 18 -0
v -0.5 18 -0
v 0.5 18 -0
v 14.5 18 -0
v 16.5 18 -0
v -8.5 25 3
v -7.5 25 3
v -8.5 25 2
v -7.5 25 2
v -9.5 28 3
v -6.5 28 3
v -9.5 28 2
v -6.5 28 2
v -4.5 29 3
v -2.5 29 3
v 3.5 29 3
v 4.5 29 3
v -4.5 29 2
v -2.5 29 2
v 3.5 29 2
v 4.5 29 2
v -9.5 29 1
v -8.5 29 1
v -9.5 29 -2
v -8.5 29 -2
v -9.5 30 3
v -4.5 30 3
v -2.5 30 3
v 3.5 30 3
v 4.5 30 3
v 5.5 30 3
v -7.5 30 2
v -4.5 30 2
v -2.5 30 2
v 3.5 30 2
v 4.5 30 2
v 5.5 30 2
v 7.5 30 2
v 8.5 30 2
v -9.5 30 1
v -8.5 30 1
v -8.5 30 -2
v -7.5 30 -2
v 7.5 30 -2
v 8.5 30 -2
v 5.5 31 3
v 7.5 31 3
v -7.5 31 2
v -6.5 31 2
v -6.5 31 1
v -5.5 31 1
v -7.5 31 -2
v -5.5 31 -2
v 5.5 31 -2
v 7.5 31 -2
v -6.5 32 3
v 5.5 32 3
v -4.5 32 2
v -3.5 32 2
v -2.5 32 2
v 1.5 32 2
v 2.5 32 2
v 4.5 32 2
v -6.5 32 1
v -5.5 32 1
v -5.5 32 -2
v -4.5 32 -2
v -3.5 32 -2
v -2.5 32 -2
v 1.5 32 -2
v 2.5 32 -2
v 4.5 32 -2
v 5.5 32 -2
v -4.5 33 2
v -3.5 33 2
v -2.5 33 2
v -0.5 33 2
v 0.5 33 2
v 1.5 33 2
v 2.5 33 2
v 4.5 33 2
v -4.5 33 -2
v -3.5 33 -2
v -2.5 33 -2
v -0.5 33 -2
v 0.5 33 -2
v 1.5 33 -2
v 2.5 33 -2
v 4.5 33 -2
v -0.5 34 2
v 0.5 34 2
v -0.5 34 -2
v 0.5 34 -2

# faces
f 3/1/1 2/1/1 1/1/1
f 4/1/1 2/1/1 3/1/1
f 8/2/1 6/2/1 5/2/1
f 9/2/1 8/2/1 7/2/1
f 10/2/1 6/2/1 8/2/1
f 10/2/1 8/2/1 9/2/1
f 12/2/1 6/2/1 10/2/1
f 13/2/1 6/2/1 12/2/1
f 14/2/1 6/2/1 13/2/1
f 15/2/1 12/2/1 11/2/1
f 15/2/1 13/2/1 12/2/1
f 16/2/1 13/2/1 15/2/1
f 19/2/1 18/2/1 17/2/1
f 20/2/1 18/2/1 19/2/1
f 21/2/1 18/2/1 20/2/1
f 24/2/1 23/2/1 22/2/1
f 25/2/1 23/2/1 24/2/1
f 28/2/1 27/2/1 26/2/1
f 29/2/1 27/2/1 28/2/1
f 32/2/1 31/2/1 30/2/1
f 33/2/1 31/2/1 32/2/1
f 36/4/1 35/4/1 34/4/1
f 37/4/1 35/4/1 36/4/1
f 41/1/1 39/1/1 38/1/1
f 42/2/1 40/2/1 39/2/1
f 42/1/1 39/1/1 41/1/1
f 43/2/1 40/2/1 42/2/1
f 46/2/1 45/2/1 44/2/1
f 47/2/1 45/2/1 46/2/1
f 51/2/1 49/2/1 48/2/1
f 51/2/1 50/2/1 49/2/1
f 52/2/1 50/2/1 51/2/1
f 55/6/1 54/6/1 53/6/1
f 56/6/1 54/6/1 55/6/1
f 60/1/1 58/1/1 57/1/1
f 61/2/1 59/2/1 58/2/1
f 61/1/1 58/1/1 60/1/1
f 62/2/1 59/2/1 61/2/1
f 65/2/1 64/2/1 63/2/1
f 66/2/1 64/2/1 65/2/1
f 69/2/1 68/2/1 67/2/1
f 70/2/1 68/2/1 69/2/1
f 73/2/1 72/2/1 71/2/1
f 74/2/1 72/2/1 73/2/1
f 77/2/1 76/2/1 75/2/1
f 78/2/1 76/2/1 77/2/1
f 81/1/1 80/1/1 79/1/1
f 82/1/1 80/1/1 81/1/1
f 85/2/1 84/2/1 83/2/1
f 86/2/1 84/2/1 85/2/1
f 89/2/1 88/2/1 87/2/1
f 90/2/1 88/2/1 89/2/1
f 93/6/1 92/6/1 91/6/1
f 94/6/1 92/6/1 93/6/1
f 97/2/1 96/2/1 95/2/1
f 98/2/1 96/2/1 97/2/1
f 101/2/1 100/2/1 99/2/1
f 102/2/1 101/2/1 99/2/1
f 103/2/1 101/2/1 102/2/1
f 106/2/1 105/2/1 104/2/1
f 107/2/1 105/2/1 106/2/1
f 110/2/1 109/2/1 108/2/1
f 111/2/1 109/2/1 110/2/1
f 112/2/2 113/2/2 114/2/2
f 114/2/2 113/2/2 115/2/2
f 116/2/2 117/2/2 118/2/2
f 118/2/2 117/2/2 119/2/2
f 120/2/2 121/2/2 122/2/2
f 122/2/2 121/2/2 123/2/2
f 124/6/2 125/6/2 126/6/2
f 126/6/2 125/6/2 127/6/2
f 128/2/2 129/2/2 130/2/2
f 130/2/2 129/2/2 131/2/2
f 132/1/2 133/1/2 134/1/2
f 134/1/2 133/1/2 135/1/2
f 136/2/2 137/2/2 138/2/2
f 138/2/2 137/2/2 139/2/2
f 140/2/2 141/2/2 142/2/2
f 142/2/2 141/2/2 143/2/2
f 144/2/2 145/2/2 146/2/2
f 146/2/2 145/2/2 147/2/2
f 148/1/2 149/1/2 151/1/2
f 149/2/2 150/2/2 152/2/2
f 151/1/2 149/1/2 152/1/2
f 152/2/2 150/2/2 153/2/2
f 154/2/2 155/2/2 156/2/2
f 156/2/2 155/2/2 157/2/2
f 158/6/2 159/6/2 160/6/2
f 160/6/2 159/6/2 161/6/2
f 162/1/2 163/1/2 165/1/2
f 163/2/2 164/2/2 166/2/2
f 165/1/2 163/1/2 166/1/2
f 166/2/2 164/2/2 167/2/2
f 168/2/2 169/2/2 170/2/2
f 170/2/2 169/2/2 171/2/2
f 172/4/2 173/4/2 174/4/2
f 174/4/2 173/4/2 175/4/2
f 176/2/2 177/2/2 178/2/2
f 178/2/2 177/2/2 179/2/2
f 176/2/2 178/2/2 180/2/2
f 176/2/2 180/2/2 182/2/2
f 180/2/2 181/2/2 182/2/2
f 182/2/2 181/2/2 183/2/2
f 184/2/2 185/2/2 186/2/2
f 186/2/2 185/2/2 187/2/2
f 188/1/2 189/1/2 190/1/2
f 190/1/2 189/1/2 191/1/2
f 198/2/3 197/2/3 196/2/3
f 199/2/3 197/2/3 198/2/3
f 200/2/3 193/2/3 192/2/3
f 201/2/3 193/2/3 200/2/3
f 202/2/3 195/2/3 194/2/3
f 205/2/3 195/2/3 202/2/3
f 205/2/3 202/2/3 201/2/3
f 206/2/3 195/2/3 205/2/3
f 207/2/3 205/2/3 201/2/3
f 209/2/3 207/2/3 201/2/3
f 209/2/3 208/2/3 207/2/3
f 210/2/3 208/2/3 209/2/3
f 211/2/3 209/2/3 201/2/3
f 214/2/3 211/2/3 201/2/3
f 214/2/3 212/2/3 211/2/3
f 215/2/3 212/2/3 214/2/3
f 216/2/3 204/2/3 203/2/3
f 217/2/3 204/2/3 216/2/3
f 219/2/3 215/2/3 214/2/3
f 219/2/3 214/2/3 213/2/3
f 219/2/3 216/2/3 215/2/3
f 220/2/3 219/2/3 218/2/3
f 221/2/3 216/2/3 219/2/3
f 221/2/3 219/2/3 220/2/3
f 224/1/3 223/1/3 222/1/3
f 225/1/3 223/1/3 224/1/3
f 230/2/3 227/2/3 226/2/3
f 233/2/3 227/2/3 230/2/3
f 237/4/3 225/4/3 224/4/3
f 239/2/3 232/2/3 231/2/3
f 239/2/3 233/2/3 232/2/3
f 240/2/3 227/2/3 233/2/3
f 240/2/3 233/2/3 239/2/3
f 241/2/3 229/2/3 228/2/3
f 242/2/3 229/2/3 241/2/3
f 243/2/3 235/2/3 234/2/3
f 245/4/3 237/4/3 236/4/3
f 247/1/3 240/1/3 239/1/3
f 247/1/3 239/1/3 238/1/3
f 248/2/3 241/2/3 240/2/3
f 248/1/3 240/1/3 247/1/3
f 249/2/3 241/2/3 248/2/3
f 250/1/3 247/1/3 246/1/3
f 250/1/3 248/1/3 247/1/3
f 250/1/3 249/1/3 248/1/3
f 251/1/3 249/1/3 250/1/3
f 253/2/3 243/2/3 234/2/3
f 256/6/3 245/6/3 244/6/3
f 257/4/3 237/4/3 245/4/3
f 257/6/3 245/6/3 256/6/3
f 258/4/3 237/4/3 257/4/3
f 259/4/3 225/4/3 237/4/3
f 259/4/3 237/4/3 258/4/3
f 260/2/3 255/2/3 254/2/3
f 261/2/3 255/2/3 260/2/3
f 262/4/3 225/4/3 259/4/3
f 262/3/3 259/3/3 258/3/3
f 263/4/3 225/4/3 262/4/3
f 264/1/3 250/1/3 246/1/3
f 265/1/3 250/1/3 264/1/3
f 266/2/3 253/2/3 252/2/3
f 267/2/3 243/2/3 253/2/3
f 267/2/3 253/2/3 266/2/3
f 270/1/3 250/1/3 265/1/3
f 270/5/3 251/5/3 250/5/3
f 271/1/3 249/1/3 251/1/3
f 271/5/3 251/5/3 270/5/3
f 272/2/3 269/2/3 268/2/3
f 274/1/3 270/1/3 265/1/3
f 274/1/3 271/1/3 270/1/3
f 275/1/3 249/1/3 271/1/3
f 275/1/3 271/1/3 274/1/3
f 276/2/3 272/2/3 268/2/3
f 276/2/3 273/2/3 272/2/3
f 277/2/3 273/2/3 276/2/3
f 278/1/3 264/1/3 246/1/3
f 278/5/3 265/5/3 264/5/3
f 279/1/3 274/1/3 265/1/3
f 279/5/3 265/5/3 278/5/3
f 280/2/3 276/2/3 268/2/3
f 281/2/3 276/2/3 280/2/3
f 282/3/3 262/3/3 258/3/3
f 283/1/3 263/1/3 262/1/3
f 283/3/3 262/3/3 282/3/3
f 284/1/3 263/1/3 283/1/3
f 288/6/3 258/6/3 257/6/3
f 289/3/3 282/3/3 258/3/3
f 289/6/3 258/6/3 288/6/3
f 290/4/3 283/4/3 282/4/3
f 290/3/3 282/3/3 289/3/3
f 290/4/3 284/4/3 283/4/3
f 291/5/3 275/5/3 274/5/3
f 291/1/3 274/1/3 279/1/3
f 291/1/3 279/1/3 278/1/3
f 292/1/3 249/1/3 275/1/3
f 292/5/3 275/5/3 291/5/3
f 294/2/3 243/2/3 267/2/3
f 295/1/3 278/1/3 246/1/3
f 295/1/3 291/1/3 278/1/3
f 295/1/3 292/1/3 291/1/3
f 296/1/3 292/1/3 295/1/3
f 297/1/3 249/1/3 292/1/3
f 297/1/3 292/1/3 296/1/3
f 298/1/3 249/1/3 297/1/3
f 299/2/3 294/2/3 293/2/3
f 300/2/3 243/2/3 294/2/3
f 300/2/3 294/2/3 299/2/3
f 301/2/3 286/2/3 285/2/3
f 302/2/3 286/2/3 301/2/3
f 303/6/3 288/6/3 287/6/3
f 304/4/3 290/4/3 289/4/3
f 304/6/3 288/6/3 303/6/3
f 304/4/3 289/4/3 288/4/3
f 305/1/3 297/1/3 296/1/3
f 306/1/3 297/1/3 305/1/3
f 307/1/3 297/1/3 306/1/3
f 308/2/3 298/2/3 297/2/3
f 308/1/3 297/1/3 307/1/3
f 309/2/3 298/2/3 308/2/3
f 310/2/3 243/2/3 300/2/3
f 311/2/3 243/2/3 310/2/3
f 312/4/3 290/4/3 304/4/3
f 313/4/3 284/4/3 290/4/3
f 313/4/3 290/4/3 312/4/3
f 314/2/3 307/2/3 306/2/3
f 315/2/3 307/2/3 314/2/3
f 318/2/3 317/2/3 316/2/3
f 319/2/3 317/2/3 318/2/3
f 320/4/3 284/4/3 313/4/3
f 321/4/3 284/4/3 320/4/3
f 322/1/3 321/1/3 320/1/3
f 323/1/3 321/1/3 322/1/3
f 326/1/3 325/1/3 324/1/3
f 327/1/3 325/1/3 326/1/3
f 328/2/4 329/2/4 330/2/4
f 330/2/4 329/2/4 331/2/4
f 332/2/4 333/2/4 334/2/4
f 334/2/4 333/2/4 335/2/4
f 336/1/4 337/1/4 338/1/4
f 338/1/4 337/1/4 339/1/4
f 338/4/4 339/4/4 341/4/4
f 340/4/4 341/4/4 343/4/4
f 342/6/4 343/6/4 344/6/4
f 343/4/4 341/4/4 345/4/4
f 344/6/4 343/6/4 345/6/4
f 345/4/4 341/4/4 346/4/4
f 341/4/4 339/4/4 347/4/4
f 346/4/4 341/4/4 347/4/4
f 346/4/4 347/4/4 349/4/4
f 347/1/4 348/1/4 349/1/4
f 349/1/4 348/1/4 350/1/4
f 345/6/4 346/6/4 352/6/4
f 346/4/4 349/4/4 353/4/4
f 352/6/4 346/6/4 353/6/4
f 351/6/4 352/6/4 354/6/4
f 352/4/4 353/4/4 355/4/4
f 354/6/4 352/6/4 355/6/4
f 355/4/4 353/4/4 356/4/4
f 353/4/4 349/4/4 357/4/4
f 356/4/4 353/4/4 357/4/4
f 357/4/4 349/4/4 358/4/4
f 358/4/4 349/4/4 359/4/4
f 358/1/4 359/1/4 360/1/4
f 360/1/4 359/1/4 361/1/4
f 362/2/4 363/2/4 365/2/4
f 365/2/4 363/2/4 366/2/4
f 364/2/4 365/2/4 369/2/4
f 366/2/4 367/2/4 369/2/4
f 365/2/4 366/2/4 369/2/4
f 369/2/4 367/2/4 370/2/4
f 368/2/4 369/2/4 373/2/4
f 370/2/4 371/2/4 373/2/4
f 369/2/4 370/2/4 373/2/4
f 372/2/4 373/2/4 375/2/4
f 373/2/4 371/2/4 376/2/4
f 375/2/4 373/2/4 376/2/4
f 374/2/4 375/2/4 378/2/4
f 376/2/4 377/2/4 378/2/4
f 375/2/4 376/2/4 378/2/4
f 374/2/4 378/2/4 380/2/4
f 378/2/4 379/2/4 380/2/4
f 380/2/4 379/2/4 381/2/4
f 374/2/4 380/2/4 382/2/4
f 382/2/4 383/2/4 384/2/4
f 382/2/4 384/2/4 386/2/4
f 384/2/4 385/2/4 386/2/4
f 386/2/4 385/2/4 387/2/4
f 374/2/4 382/2/4 388/2/4
f 382/2/4 386/2/4 388/2/4
f 388/2/4 386/2/4 389/2/4
f 374/2/4 388/2/4 390/2/4
f 374/2/4 390/2/4 392/2/4
f 390/2/4 391/2/4 392/2/4
f 392/2/4 391/2/4 393/2/4
f 393/2/4 391/2/4 394/2/4
f 394/2/4 391/2/4 395/2/4
f 393/2/4 394/2/4 396/2/4
f 396/2/4 394/2/4 397/2/4
f 397/2/4 394/2/4 398/2/4
f 398/2/4 394/2/4 399/2/4
f 397/2/4 398/2/4 400/2/4
f 400/2/4 398/2/4 401/2/4
f 401/2/4 398/2/4 402/2/4
f 402/2/4 398/2/4 403/2/4
f 401/2/4 402/2/4 404/2/4
f 404/2/4 402/2/4 405/2/4
f 410/6/5 407/6/5 406/6/5
f 411/6/5 407/6/5 410/6/5
f 412/6/5 409/6/5 408/6/5
f 413/6/5 409/6/5 412/6/5
f 420/4/5 415/4/5 414/4/5
f 421/4/5 415/4/5 420/4/5
f 422/6/5 417/6/5 416/6/5
f 423/6/5 417/6/5 422/6/5
f 424/4/5 419/4/5 418/4/5
f 425/4/5 419/4/5 424/4/5
f 432/1/5 427/1/5 426/1/5
f 433/4/5 428/4/5 427/4/5
f 433/1/5 427/1/5 432/1/5
f 434/4/5 428/4/5 433/4/5
f 435/4/5 430/4/5 429/4/5
f 436/1/5 431/1/5 430/1/5
f 436/4/5 430/4/5 435/4/5
f 437/1/5 431/1/5 436/1/5
f 440/1/5 439/1/5 438/1/5
f 441/1/5 439/1/5 440/1/5
f 442/1/5 440/1/5 438/1/5
f 443/1/5 439/1/5 441/1/5
f 444/1/5 442/1/5 438/1/5
f 444/1/5 443/1/5 442/1/5
f 445/1/5 439/1/5 443/1/5
f 445/1/5 443/1/5 444/1/5
f 446/2/5 445/2/5 444/2/5
f 447/2/5 445/2/5 446/2/5
f 452/1/5 449/1/5 448/1/5
f 453/1/5 449/1/5 452/1/5
f 454/1/5 451/1/5 450/1/5
f 455/1/5 451/1/5 454/1/5
f 456/2/5 453/2/5 452/2/5
f 457/2/5 453/2/5 456/2/5
f 458/2/5 455/2/5 454/2/5
f 459/2/5 455/2/5 458/2/5
f 462/2/5 461/2/5 460/2/5
f 463/2/5 462/2/5 460/2/5
f 464/2/5 462/2/5 463/2/5
f 468/2/5 466/2/5 465/2/5
f 469/2/5 468/2/5 467/2/5
f 470/2/5 468/2/5 469/2/5
f 471/2/5 466/2/5 468/2/5
f 471/2/5 468/2/5 470/2/5
f 474/2/5 473/2/5 472/2/5
f 477/2/5 474/2/5 472/2/5
f 478/2/5 474/2/5 477/2/5
f 479/2/5 476/2/5 475/2/5
f 480/2/5 476/2/5 479/2/5
f 485/2/5 482/2/5 481/2/5
f 486/2/5 482/2/5 485/2/5
f 487/2/5 484/2/5 483/2/5
f 488/2/5 484/2/5 487/2/5
f 491/2/5 490/2/5 489/2/5
f 492/2/5 490/2/5 491/2/5
f 495/2/5 494/2/5 493/2/5
f 496/2/5 494/2/5 495/2/5
f 497/2/5 494/2/5 496/2/5
f 498/2/5 494/2/5 497/2/5
f 501/2/5 500/2/5 499/2/5
f 502/2/5 500/2/5 501/2/5
f 505/2/5 504/2/5 503/2/5
f 506/2/5 504/2/5 505/2/5
f 508/4/6 509/4/6 513/4/6
f 509/1/6 510/1/6 513/1/6
f 513/1/6 510/1/6 514/1/6
f 514/1/6 510/1/6 515/1/6
f 510/4/6 511/4/6 516/4/6
f 515/1/6 510/1/6 516/1/6
f 507/1/6 508/1/6 517/1/6
f 508/4/6 513/4/6 518/4/6
f 517/1/6 508/1/6 518/1/6
f 513/4/6 514/4/6 518/4/6
f 518/4/6 514/4/6 519/4/6
f 515/4/6 516/4/6 520/4/6
f 516/4/6 511/4/6 521/4/6
f 520/4/6 516/4/6 521/4/6
f 511/1/6 512/1/6 521/1/6
f 521/1/6 512/1/6 522/1/6
f 523/2/6 524/2/6 525/2/6
f 525/2/6 524/2/6 526/2/6
f 527/2/6 528/2/6 529/2/6
f 529/2/6 528/2/6 530/2/6
f 531/2/6 532/2/6 535/2/6
f 535/2/6 532/2/6 536/2/6
f 533/2/6 534/2/6 537/2/6
f 537/2/6 534/2/6 538/2/6
f 539/2/6 540/2/6 541/2/6
f 541/2/6 540/2/6 542/2/6
f 543/2/6 544/2/6 549/2/6
f 549/2/6 544/2/6 550/2/6
f 545/2/6 546/2/6 551/2/6
f 551/2/6 546/2/6 552/2/6
f 547/2/6 548/2/6 553/2/6
f 553/2/6 548/2/6 554/2/6
f 543/2/6 549/2/6 557/2/6
f 557/2/6 549/2/6 558/2/6
f 558/2/6 549/2/6 559/2/6
f 559/2/6 549/2/6 560/2/6
f 555/2/6 556/2/6 561/2/6
f 561/2/6 556/2/6 562/2/6
f 565/2/6 566/2/6 567/2/6
f 565/2/6 567/2/6 569/2/6
f 567/2/6 568/2/6 569/2/6
f 569/2/6 568/2/6 570/2/6
f 563/2/6 564/2/6 571/2/6
f 571/2/6 564/2/6 572/2/6
f 573/2/6 574/2/6 575/2/6
f 575/2/6 574/2/6 576/2/6
f 576/2/6 574/2/6 577/2/6
f 577/2/6 574/2/6 578/2/6
f 578/2/6 574/2/6 579/2/6
f 579/2/6 574/2/6 580/2/6
f 573/2/6 575/2/6 581/2/6
f 581/2/6 575/2/6 582/2/6
f 582/2/6 575/2/6 583/2/6
f 583/2/6 575/2/6 584/2/6
f 576/2/6 577/2/6 585/2/6
f 585/2/6 577/2/6 586/2/6
f 578/2/6 579/2/6 587/2/6
f 587/2/6 579/2/6 588/2/6
f 580/2/6 574/2/6 589/2/6
f 589/2/6 574/2/6 590/2/6
f 591/2/6 592/2/6 599/2/6
f 599/2/6 592/2/6 600/2/6
f 593/2/6 594/2/6 601/2/6
f 601/2/6 594/2/6 602/2/6
f 595/2/6 596/2/6 603/2/6
f 603/2/6 596/2/6 604/2/6
f 597/2/6 598/2/6 605/2/6
f 605/2/6 598/2/6 606/2/6
f 607/2/6 608/2/6 609/2/6
f 609/2/6 608/2/6 610/2/6
