# MagicaVoxel @ Ephtracy

# group
g Bottle

# material
mtllib Bottle.mtl
usemtl palette

# normals
vn -1 0 0
vn 1 0 0
vn 0 0 1
vn 0 0 -1
vn 0 -1 0
vn 0 1 0

# texcoords
vt 0.306641 0.5
vt 0.892578 0.5
vt 0.958984 0.5

# verts
v -8 0 3
v -8 0 -5
v -8 2 5
v -8 2 3
v -8 2 -5
v -8 2 -7
v -8 4 3
v -8 4 -5
v -8 18 3
v -8 18 -5
v -8 20 5
v -8 20 3
v -8 20 -5
v -8 20 -7
v -8 22 3
v -8 22 -5
v -6 0 5
v -6 0 3
v -6 0 -5
v -6 0 -7
v -6 2 7
v -6 2 5
v -6 2 3
v -6 2 -5
v -6 2 -7
v -6 2 -9
v -6 4 3
v -6 4 -5
v -6 18 3
v -6 18 -5
v -6 20 7
v -6 20 5
v -6 20 3
v -6 20 -5
v -6 20 -7
v -6 20 -9
v -6 22 5
v -6 22 3
v -6 22 -5
v -6 22 -7
v -6 28 3
v -6 28 -5
v -6 30 3
v -6 30 -5
v -4 0 7
v -4 0 5
v -4 0 -7
v -4 0 -9
v -4 2 7
v -4 2 5
v -4 2 -7
v -4 2 -9
v -4 20 7
v -4 20 5
v -4 20 -7
v -4 20 -9
v -4 22 7
v -4 22 5
v -4 22 3
v -4 22 -6
v -4 22 -7
v -4 22 -9
v -4 28 5
v -4 28 3
v -4 28 -5
v -4 28 -6
v -4 28 -7
v -4 30 5
v -4 30 3
v -4 30 -5
v -4 30 -7
v 3 1 2
v 3 1 -5
v 3 4 -5
v 3 18 -5
v 3 22 2
v 3 22 -5
v 3 30 2
v 3 30 -5
v 4 4 7
v 4 4 5
v 4 4 -7
v 4 4 -9
v 4 18 7
v 4 18 5
v 4 18 -7
v 4 18 -9
v -4 4 7
v -4 4 5
v -4 4 -7
v -4 4 -9
v -4 18 7
v -4 18 5
v -4 18 -7
v -4 18 -9
v -3 1 2
v -3 1 -5
v -3 4 -5
v -3 18 -5
v -3 22 2
v -3 22 -5
v -3 30 2
v -3 30 -5
v 4 0 7
v 4 0 5
v 4 0 -7
v 4 0 -9
v 4 2 7
v 4 2 5
v 4 2 -7
v 4 2 -9
v 4 20 7
v 4 20 5
v 4 20 -7
v 4 20 -9
v 4 22 7
v 4 22 5
v 4 22 3
v 4 22 -6
v 4 22 -7
v 4 22 -9
v 4 28 5
v 4 28 3
v 4 28 -5
v 4 28 -6
v 4 28 -7
v 4 30 5
v 4 30 3
v 4 30 -5
v 4 30 -7
v 6 0 5
v 6 0 3
v 6 0 -5
v 6 0 -7
v 6 2 7
v 6 2 5
v 6 2 3
v 6 2 -5
v 6 2 -7
v 6 2 -9
v 6 4 3
v 6 4 -5
v 6 18 3
v 6 18 -5
v 6 20 7
v 6 20 5
v 6 20 3
v 6 20 -5
v 6 20 -7
v 6 20 -9
v 6 22 5
v 6 22 3
v 6 22 -5
v 6 22 -7
v 6 28 3
v 6 28 -5
v 6 30 3
v 6 30 -5
v 8 0 3
v 8 0 -5
v 8 2 5
v 8 2 3
v 8 2 -5
v 8 2 -7
v 8 4 3
v 8 4 -5
v 8 18 3
v 8 18 -5
v 8 20 5
v 8 20 3
v 8 20 -5
v 8 20 -7
v 8 22 3
v 8 22 -5
v -6 2 7
v -6 20 7
v -4 0 7
v -4 2 7
v -4 4 7
v -4 18 7
v -4 20 7
v -4 22 7
v 4 0 7
v 4 2 7
v 4 4 7
v 4 18 7
v 4 20 7
v 4 22 7
v 6 2 7
v 6 20 7
v -8 2 5
v -8 20 5
v -6 0 5
v -6 2 5
v -6 20 5
v -6 22 5
v -4 0 5
v -4 2 5
v -4 4 5
v -4 18 5
v -4 20 5
v -4 22 5
v -4 28 5
v -4 30 5
v 4 0 5
v 4 2 5
v 4 4 5
v 4 18 5
v 4 20 5
v 4 22 5
v 4 28 5
v 4 30 5
v 6 0 5
v 6 2 5
v 6 20 5
v 6 22 5
v 8 2 5
v 8 20 5
v -8 0 3
v -8 2 3
v -8 20 3
v -8 22 3
v -6 0 3
v -6 2 3
v -6 20 3
v -6 22 3
v -6 28 3
v -6 30 3
v -4 22 3
v -4 28 3
v -4 30 3
v 4 22 3
v 4 28 3
v 4 30 3
v 6 0 3
v 6 2 3
v 6 20 3
v 6 22 3
v 6 28 3
v 6 30 3
v 8 0 3
v 8 2 3
v 8 20 3
v 8 22 3
v -8 4 -5
v -8 18 -5
v -6 4 -5
v -6 18 -5
v -3 1 -5
v -3 4 -5
v -3 18 -5
v -3 22 -5
v -3 30 -5
v 3 1 -5
v 3 4 -5
v 3 18 -5
v 3 22 -5
v 3 30 -5
v 6 4 -5
v 6 18 -5
v 8 4 -5
v 8 18 -5
v -8 4 3
v -8 18 3
v -6 4 3
v -6 18 3
v 6 4 3
v 6 18 3
v 8 4 3
v 8 18 3
v -3 1 2
v -3 22 2
v -3 30 2
v 3 1 2
v 3 22 2
v 3 30 2
v -8 0 -5
v -8 2 -5
v -8 20 -5
v -8 22 -5
v -6 0 -5
v -6 2 -5
v -6 20 -5
v -6 22 -5
v -6 28 -5
v -6 30 -5
v -4 28 -5
v -4 30 -5
v 4 28 -5
v 4 30 -5
v 6 0 -5
v 6 2 -5
v 6 20 -5
v 6 22 -5
v 6 28 -5
v 6 30 -5
v 8 0 -5
v 8 2 -5
v 8 20 -5
v 8 22 -5
v -4 22 -6
v -4 28 -6
v 4 22 -6
v 4 28 -6
v -8 2 -7
v -8 20 -7
v -6 0 -7
v -6 2 -7
v -6 20 -7
v -6 22 -7
v -4 0 -7
v -4 2 -7
v -4 4 -7
v -4 18 -7
v -4 20 -7
v -4 22 -7
v -4 28 -7
v -4 30 -7
v 4 0 -7
v 4 2 -7
v 4 4 -7
v 4 18 -7
v 4 20 -7
v 4 22 -7
v 4 28 -7
v 4 30 -7
v 6 0 -7
v 6 2 -7
v 6 20 -7
v 6 22 -7
v 8 2 -7
v 8 20 -7
v -6 2 -9
v -6 20 -9
v -4 0 -9
v -4 2 -9
v -4 4 -9
v -4 18 -9
v -4 20 -9
v -4 22 -9
v 4 0 -9
v 4 2 -9
v 4 4 -9
v 4 18 -9
v 4 20 -9
v 4 22 -9
v 6 2 -9
v 6 20 -9
v -4 0 7
v 4 0 7
v -6 0 5
v -4 0 5
v 4 0 5
v 6 0 5
v -8 0 3
v -6 0 3
v 6 0 3
v 8 0 3
v -8 0 -5
v -6 0 -5
v 6 0 -5
v 8 0 -5
v -6 0 -7
v -4 0 -7
v 4 0 -7
v 6 0 -7
v -4 0 -9
v 4 0 -9
v -6 2 7
v -4 2 7
v 4 2 7
v 6 2 7
v -8 2 5
v -6 2 5
v -4 2 5
v 4 2 5
v 6 2 5
v 8 2 5
v -8 2 3
v -6 2 3
v 6 2 3
v 8 2 3
v -8 2 -5
v -6 2 -5
v 6 2 -5
v 8 2 -5
v -8 2 -7
v -6 2 -7
v -4 2 -7
v 4 2 -7
v 6 2 -7
v 8 2 -7
v -6 2 -9
v -4 2 -9
v 4 2 -9
v 6 2 -9
v -4 18 7
v 4 18 7
v -4 18 5
v 4 18 5
v -8 18 3
v -6 18 3
v 6 18 3
v 8 18 3
v -8 18 -5
v -6 18 -5
v 6 18 -5
v 8 18 -5
v -4 18 -7
v 4 18 -7
v -4 18 -9
v 4 18 -9
v -4 28 5
v 4 28 5
v -6 28 3
v -4 28 3
v 4 28 3
v 6 28 3
v -6 28 -5
v -4 28 -5
v 4 28 -5
v 6 28 -5
v -4 28 -6
v 4 28 -6
v -4 28 -7
v 4 28 -7
v -3 1 2
v 3 1 2
v -3 1 -5
v 3 1 -5
v -4 4 7
v 4 4 7
v -4 4 5
v 4 4 5
v -8 4 3
v -6 4 3
v 6 4 3
v 8 4 3
v -8 4 -5
v -6 4 -5
v 6 4 -5
v 8 4 -5
v -4 4 -7
v 4 4 -7
v -4 4 -9
v 4 4 -9
v -6 20 7
v -4 20 7
v 4 20 7
v 6 20 7
v -8 20 5
v -6 20 5
v -4 20 5
v 4 20 5
v 6 20 5
v 8 20 5
v -8 20 3
v -6 20 3
v 6 20 3
v 8 20 3
v -8 20 -5
v -6 20 -5
v 6 20 -5
v 8 20 -5
v -8 20 -7
v -6 20 -7
v -4 20 -7
v 4 20 -7
v 6 20 -7
v 8 20 -7
v -6 20 -9
v -4 20 -9
v 4 20 -9
v 6 20 -9
v -4 22 7
v 4 22 7
v -6 22 5
v -4 22 5
v 4 22 5
v 6 22 5
v -8 22 3
v -6 22 3
v -4 22 3
v 4 22 3
v 6 22 3
v 8 22 3
v -8 22 -5
v -6 22 -5
v 6 22 -5
v 8 22 -5
v -4 22 -6
v 4 22 -6
v -6 22 -7
v -4 22 -7
v 4 22 -7
v 6 22 -7
v -4 22 -9
v 4 22 -9
v -4 30 5
v 4 30 5
v -6 30 3
v -4 30 3
v 4 30 3
v 6 30 3
v -3 30 2
v 3 30 2
v -6 30 -5
v -4 30 -5
v -3 30 -5
v 3 30 -5
v 4 30 -5
v 6 30 -5
v -4 30 -7
v 4 30 -7

# faces
f 4/3/1 2/3/1 1/3/1
f 5/3/1 2/3/1 4/3/1
f 7/3/1 4/3/1 3/3/1
f 7/3/1 6/3/1 5/3/1
f 7/3/1 5/3/1 4/3/1
f 8/3/1 6/3/1 7/3/1
f 9/3/1 7/3/1 3/3/1
f 10/3/1 6/3/1 8/3/1
f 11/3/1 9/3/1 3/3/1
f 11/3/1 10/3/1 9/3/1
f 12/3/1 10/3/1 11/3/1
f 13/3/1 6/3/1 10/3/1
f 13/3/1 10/3/1 12/3/1
f 14/3/1 6/3/1 13/3/1
f 15/3/1 13/3/1 12/3/1
f 16/3/1 13/3/1 15/3/1
f 22/3/1 18/3/1 17/3/1
f 23/3/1 18/3/1 22/3/1
f 24/3/1 20/3/1 19/3/1
f 25/3/1 20/3/1 24/3/1
f 29/2/1 28/2/1 27/2/1
f 30/2/1 28/2/1 29/2/1
f 31/3/1 22/3/1 21/3/1
f 32/3/1 22/3/1 31/3/1
f 35/3/1 26/3/1 25/3/1
f 36/3/1 26/3/1 35/3/1
f 37/3/1 33/3/1 32/3/1
f 38/3/1 33/3/1 37/3/1
f 39/3/1 35/3/1 34/3/1
f 40/3/1 35/3/1 39/3/1
f 43/3/1 42/3/1 41/3/1
f 44/3/1 42/3/1 43/3/1
f 49/3/1 46/3/1 45/3/1
f 50/3/1 46/3/1 49/3/1
f 51/3/1 48/3/1 47/3/1
f 52/3/1 48/3/1 51/3/1
f 57/3/1 54/3/1 53/3/1
f 58/3/1 54/3/1 57/3/1
f 61/3/1 56/3/1 55/3/1
f 62/3/1 56/3/1 61/3/1
f 64/3/1 60/3/1 59/3/1
f 65/3/1 60/3/1 64/3/1
f 66/3/1 60/3/1 65/3/1
f 68/3/1 64/3/1 63/3/1
f 69/3/1 64/3/1 68/3/1
f 70/3/1 67/3/1 66/3/1
f 70/3/1 66/3/1 65/3/1
f 71/3/1 67/3/1 70/3/1
f 74/1/1 73/1/1 72/1/1
f 75/1/1 74/1/1 72/1/1
f 76/1/1 75/1/1 72/1/1
f 77/1/1 75/1/1 76/1/1
f 78/3/1 77/3/1 76/3/1
f 79/3/1 77/3/1 78/3/1
f 84/3/1 81/3/1 80/3/1
f 85/3/1 81/3/1 84/3/1
f 86/3/1 83/3/1 82/3/1
f 87/3/1 83/3/1 86/3/1
f 88/3/2 89/3/2 92/3/2
f 92/3/2 89/3/2 93/3/2
f 90/3/2 91/3/2 94/3/2
f 94/3/2 91/3/2 95/3/2
f 96/1/2 97/1/2 98/1/2
f 96/1/2 98/1/2 99/1/2
f 96/1/2 99/1/2 100/1/2
f 100/1/2 99/1/2 101/1/2
f 100/3/2 101/3/2 102/3/2
f 102/3/2 101/3/2 103/3/2
f 104/3/2 105/3/2 108/3/2
f 108/3/2 105/3/2 109/3/2
f 106/3/2 107/3/2 110/3/2
f 110/3/2 107/3/2 111/3/2
f 112/3/2 113/3/2 116/3/2
f 116/3/2 113/3/2 117/3/2
f 114/3/2 115/3/2 120/3/2
f 120/3/2 115/3/2 121/3/2
f 118/3/2 119/3/2 123/3/2
f 123/3/2 119/3/2 124/3/2
f 124/3/2 119/3/2 125/3/2
f 122/3/2 123/3/2 127/3/2
f 127/3/2 123/3/2 128/3/2
f 125/3/2 126/3/2 129/3/2
f 124/3/2 125/3/2 129/3/2
f 129/3/2 126/3/2 130/3/2
f 131/3/2 132/3/2 136/3/2
f 136/3/2 132/3/2 137/3/2
f 133/3/2 134/3/2 138/3/2
f 138/3/2 134/3/2 139/3/2
f 141/2/2 142/2/2 143/2/2
f 143/2/2 142/2/2 144/2/2
f 135/3/2 136/3/2 145/3/2
f 145/3/2 136/3/2 146/3/2
f 139/3/2 140/3/2 149/3/2
f 149/3/2 140/3/2 150/3/2
f 146/3/2 147/3/2 151/3/2
f 151/3/2 147/3/2 152/3/2
f 148/3/2 149/3/2 153/3/2
f 153/3/2 149/3/2 154/3/2
f 155/3/2 156/3/2 157/3/2
f 157/3/2 156/3/2 158/3/2
f 159/3/2 160/3/2 162/3/2
f 162/3/2 160/3/2 163/3/2
f 161/3/2 162/3/2 165/3/2
f 163/3/2 164/3/2 165/3/2
f 162/3/2 163/3/2 165/3/2
f 165/3/2 164/3/2 166/3/2
f 161/3/2 165/3/2 167/3/2
f 166/3/2 164/3/2 168/3/2
f 161/3/2 167/3/2 169/3/2
f 167/3/2 168/3/2 169/3/2
f 169/3/2 168/3/2 170/3/2
f 168/3/2 164/3/2 171/3/2
f 170/3/2 168/3/2 171/3/2
f 171/3/2 164/3/2 172/3/2
f 170/3/2 171/3/2 173/3/2
f 173/3/2 171/3/2 174/3/2
f 178/3/3 176/3/3 175/3/3
f 179/3/3 176/3/3 178/3/3
f 180/3/3 176/3/3 179/3/3
f 181/3/3 176/3/3 180/3/3
f 183/3/3 178/3/3 177/3/3
f 183/3/3 179/3/3 178/3/3
f 184/3/3 179/3/3 183/3/3
f 185/3/3 179/3/3 184/3/3
f 186/3/3 182/3/3 181/3/3
f 186/3/3 181/3/3 180/3/3
f 187/3/3 182/3/3 186/3/3
f 188/3/3 182/3/3 187/3/3
f 189/3/3 185/3/3 184/3/3
f 189/3/3 187/3/3 186/3/3
f 189/3/3 186/3/3 185/3/3
f 190/3/3 187/3/3 189/3/3
f 194/3/3 192/3/3 191/3/3
f 195/3/3 192/3/3 194/3/3
f 197/3/3 194/3/3 193/3/3
f 198/3/3 194/3/3 197/3/3
f 201/3/3 196/3/3 195/3/3
f 202/3/3 196/3/3 201/3/3
f 207/2/3 200/2/3 199/2/3
f 208/2/3 200/2/3 207/2/3
f 211/3/3 204/3/3 203/3/3
f 212/3/3 204/3/3 211/3/3
f 213/3/3 206/3/3 205/3/3
f 214/3/3 206/3/3 213/3/3
f 215/3/3 210/3/3 209/3/3
f 216/3/3 210/3/3 215/3/3
f 217/3/3 215/3/3 214/3/3
f 218/3/3 215/3/3 217/3/3
f 223/3/3 220/3/3 219/3/3
f 224/3/3 220/3/3 223/3/3
f 225/3/3 222/3/3 221/3/3
f 226/3/3 222/3/3 225/3/3
f 230/3/3 228/3/3 227/3/3
f 231/3/3 228/3/3 230/3/3
f 232/3/3 230/3/3 229/3/3
f 233/3/3 230/3/3 232/3/3
f 239/3/3 234/3/3 233/3/3
f 240/3/3 234/3/3 239/3/3
f 241/3/3 236/3/3 235/3/3
f 242/3/3 236/3/3 241/3/3
f 243/3/3 238/3/3 237/3/3
f 244/3/3 238/3/3 243/3/3
f 247/3/3 246/3/3 245/3/3
f 248/3/3 246/3/3 247/3/3
f 254/1/3 250/1/3 249/1/3
f 255/2/3 251/2/3 250/2/3
f 255/1/3 250/1/3 254/1/3
f 256/1/3 252/1/3 251/1/3
f 256/2/3 251/2/3 255/2/3
f 257/3/3 253/3/3 252/3/3
f 257/1/3 252/1/3 256/1/3
f 258/3/3 253/3/3 257/3/3
f 261/3/3 260/3/3 259/3/3
f 262/3/3 260/3/3 261/3/3
f 263/3/4 264/3/4 265/3/4
f 265/3/4 264/3/4 266/3/4
f 267/3/4 268/3/4 269/3/4
f 269/3/4 268/3/4 270/3/4
f 271/1/4 272/1/4 274/1/4
f 272/3/4 273/3/4 275/3/4
f 274/1/4 272/1/4 275/1/4
f 275/3/4 273/3/4 276/3/4
f 277/3/4 278/3/4 281/3/4
f 281/3/4 278/3/4 282/3/4
f 279/3/4 280/3/4 283/3/4
f 283/3/4 280/3/4 284/3/4
f 285/3/4 286/3/4 287/3/4
f 287/3/4 286/3/4 288/3/4
f 289/3/4 290/3/4 295/3/4
f 295/3/4 290/3/4 296/3/4
f 291/3/4 292/3/4 297/3/4
f 297/3/4 292/3/4 298/3/4
f 293/3/4 294/3/4 299/3/4
f 299/3/4 294/3/4 300/3/4
f 301/3/4 302/3/4 303/3/4
f 303/3/4 302/3/4 304/3/4
f 305/3/4 306/3/4 308/3/4
f 308/3/4 306/3/4 309/3/4
f 307/3/4 308/3/4 311/3/4
f 311/3/4 308/3/4 312/3/4
f 309/3/4 310/3/4 315/3/4
f 315/3/4 310/3/4 316/3/4
f 313/2/4 314/2/4 321/2/4
f 321/2/4 314/2/4 322/2/4
f 317/3/4 318/3/4 325/3/4
f 325/3/4 318/3/4 326/3/4
f 319/3/4 320/3/4 327/3/4
f 327/3/4 320/3/4 328/3/4
f 323/3/4 324/3/4 329/3/4
f 329/3/4 324/3/4 330/3/4
f 328/3/4 329/3/4 331/3/4
f 331/3/4 329/3/4 332/3/4
f 333/3/4 334/3/4 336/3/4
f 336/3/4 334/3/4 337/3/4
f 337/3/4 334/3/4 338/3/4
f 338/3/4 334/3/4 339/3/4
f 335/3/4 336/3/4 341/3/4
f 336/3/4 337/3/4 341/3/4
f 341/3/4 337/3/4 342/3/4
f 342/3/4 337/3/4 343/3/4
f 339/3/4 340/3/4 344/3/4
f 338/3/4 339/3/4 344/3/4
f 344/3/4 340/3/4 345/3/4
f 345/3/4 340/3/4 346/3/4
f 342/3/4 343/3/4 347/3/4
f 344/3/4 345/3/4 347/3/4
f 343/3/4 344/3/4 347/3/4
f 347/3/4 345/3/4 348/3/4
f 352/3/5 350/3/5 349/3/5
f 353/3/5 350/3/5 352/3/5
f 356/3/5 352/3/5 351/3/5
f 356/3/5 354/3/5 353/3/5
f 356/3/5 353/3/5 352/3/5
f 357/3/5 354/3/5 356/3/5
f 359/3/5 356/3/5 355/3/5
f 359/3/5 358/3/5 357/3/5
f 359/3/5 357/3/5 356/3/5
f 360/3/5 358/3/5 359/3/5
f 361/3/5 358/3/5 360/3/5
f 362/3/5 358/3/5 361/3/5
f 363/3/5 361/3/5 360/3/5
f 364/3/5 361/3/5 363/3/5
f 365/3/5 361/3/5 364/3/5
f 366/3/5 361/3/5 365/3/5
f 367/3/5 365/3/5 364/3/5
f 368/3/5 365/3/5 367/3/5
f 374/3/5 370/3/5 369/3/5
f 375/3/5 370/3/5 374/3/5
f 376/3/5 372/3/5 371/3/5
f 377/3/5 372/3/5 376/3/5
f 379/3/5 374/3/5 373/3/5
f 380/3/5 374/3/5 379/3/5
f 381/3/5 378/3/5 377/3/5
f 382/3/5 378/3/5 381/3/5
f 387/3/5 384/3/5 383/3/5
f 388/3/5 384/3/5 387/3/5
f 391/3/5 386/3/5 385/3/5
f 392/3/5 386/3/5 391/3/5
f 393/3/5 389/3/5 388/3/5
f 394/3/5 389/3/5 393/3/5
f 395/3/5 391/3/5 390/3/5
f 396/3/5 391/3/5 395/3/5
f 399/3/5 398/3/5 397/3/5
f 400/3/5 398/3/5 399/3/5
f 405/3/5 402/3/5 401/3/5
f 406/3/5 402/3/5 405/3/5
f 407/3/5 404/3/5 403/3/5
f 408/3/5 404/3/5 407/3/5
f 411/3/5 410/3/5 409/3/5
f 412/3/5 410/3/5 411/3/5
f 416/3/5 414/3/5 413/3/5
f 417/3/5 414/3/5 416/3/5
f 419/3/5 416/3/5 415/3/5
f 420/3/5 416/3/5 419/3/5
f 421/3/5 418/3/5 417/3/5
f 422/3/5 418/3/5 421/3/5
f 425/3/5 424/3/5 423/3/5
f 426/3/5 424/3/5 425/3/5
f 427/3/6 428/3/6 429/3/6
f 429/3/6 428/3/6 430/3/6
f 431/3/6 432/3/6 433/3/6
f 433/3/6 432/3/6 434/3/6
f 435/3/6 436/3/6 439/3/6
f 439/3/6 436/3/6 440/3/6
f 437/3/6 438/3/6 441/3/6
f 441/3/6 438/3/6 442/3/6
f 443/3/6 444/3/6 445/3/6
f 445/3/6 444/3/6 446/3/6
f 447/3/6 448/3/6 452/3/6
f 452/3/6 448/3/6 453/3/6
f 449/3/6 450/3/6 454/3/6
f 454/3/6 450/3/6 455/3/6
f 451/3/6 452/3/6 457/3/6
f 457/3/6 452/3/6 458/3/6
f 455/3/6 456/3/6 459/3/6
f 459/3/6 456/3/6 460/3/6
f 461/3/6 462/3/6 465/3/6
f 465/3/6 462/3/6 466/3/6
f 463/3/6 464/3/6 469/3/6
f 469/3/6 464/3/6 470/3/6
f 466/3/6 467/3/6 471/3/6
f 471/3/6 467/3/6 472/3/6
f 468/3/6 469/3/6 473/3/6
f 473/3/6 469/3/6 474/3/6
f 475/3/6 476/3/6 478/3/6
f 478/3/6 476/3/6 479/3/6
f 477/3/6 478/3/6 482/3/6
f 479/3/6 480/3/6 482/3/6
f 478/3/6 479/3/6 482/3/6
f 482/3/6 480/3/6 483/3/6
f 483/3/6 480/3/6 484/3/6
f 484/3/6 480/3/6 485/3/6
f 481/3/6 482/3/6 487/3/6
f 482/3/6 483/3/6 487/3/6
f 487/3/6 483/3/6 488/3/6
f 485/3/6 486/3/6 489/3/6
f 484/3/6 485/3/6 489/3/6
f 489/3/6 486/3/6 490/3/6
f 488/3/6 483/3/6 491/3/6
f 484/3/6 489/3/6 492/3/6
f 488/3/6 491/3/6 493/3/6
f 491/3/6 492/3/6 493/3/6
f 493/3/6 492/3/6 494/3/6
f 492/3/6 489/3/6 495/3/6
f 494/3/6 492/3/6 495/3/6
f 495/3/6 489/3/6 496/3/6
f 494/3/6 495/3/6 497/3/6
f 497/3/6 495/3/6 498/3/6
f 499/3/6 500/3/6 502/3/6
f 502/3/6 500/3/6 503/3/6
f 501/3/6 502/3/6 505/3/6
f 503/3/6 504/3/6 505/3/6
f 502/3/6 503/3/6 505/3/6
f 505/3/6 504/3/6 506/3/6
f 501/3/6 505/3/6 507/3/6
f 507/3/6 505/3/6 508/3/6
f 508/3/6 505/3/6 509/3/6
f 506/3/6 504/3/6 510/3/6
f 510/3/6 504/3/6 511/3/6
f 511/3/6 504/3/6 512/3/6
f 508/3/6 509/3/6 513/3/6
f 510/3/6 511/3/6 513/3/6
f 509/3/6 510/3/6 513/3/6
f 513/3/6 511/3/6 514/3/6
