# MagicaVoxel @ Ephtracy

# group
g Fox

# material
mtllib Fox.mtl
usemtl palette

# normals
vn -1 0 0
vn 1 0 0
vn 0 0 1
vn 0 0 -1
vn 0 -1 0
vn 0 1 0

# texcoords
vt 0.208984 0.5
vt 0.958984 0.5
vt 0.994141 0.5

# verts
v -7 10 13
v -7 10 -8
v -7 19 13
v -7 19 -8
v -6 0 12
v -6 0 8
v -6 0 -2
v -6 0 -6
v -6 2 12
v -6 2 11
v -6 2 -2
v -6 2 -3
v -6 6 11
v -6 6 8
v -6 7 -3
v -6 7 -6
v -6 10 11
v -6 10 8
v -6 10 -3
v -6 10 -6
v -6 20 20
v -6 20 17
v -6 24 20
v -6 24 17
v -5 12 23
v -5 12 13
v -5 14 13
v -5 15 23
v -5 15 13
v -5 19 13
v -5 20 20
v -5 20 17
v -5 22 23
v -5 22 20
v -5 22 17
v -5 22 13
v -5 24 20
v -5 24 17
v -5 25 20
v -5 25 17
v -4 13 24
v -4 13 23
v -4 15 24
v -4 15 23
v -4 18 24
v -4 18 23
v -4 25 20
v -4 25 17
v -4 26 20
v -4 26 17
v -2 14 29
v -2 14 24
v -2 15 29
v -2 15 24
v -2 16 -10
v -2 16 -15
v -2 17 29
v -2 17 24
v -2 17 -15
v -2 17 -23
v -2 19 -10
v -2 19 -23
v -2 20 -10
v -2 20 -15
v -2 21 -15
v -2 21 -23
v -1 17 -8
v -1 17 -10
v -1 18 -23
v -1 18 -26
v -1 19 -8
v -1 19 -10
v -1 19 -23
v -1 19 -26
v -1 20 -23
v -1 20 -26
v 3 0 12
v 3 0 8
v 3 0 -2
v 3 0 -6
v 3 2 12
v 3 2 11
v 3 2 -2
v 3 2 -3
v 3 6 11
v 3 6 8
v 3 7 -3
v 3 7 -6
v 3 10 11
v 3 10 8
v 3 10 -3
v 3 10 -6
v 3 22 20
v 3 22 17
v 3 24 20
v 3 24 17
v 3 26 20
v 3 26 17
v -3 0 12
v -3 0 8
v -3 0 -2
v -3 0 -6
v -3 2 12
v -3 2 11
v -3 2 -2
v -3 2 -3
v -3 6 11
v -3 6 8
v -3 7 -3
v -3 7 -6
v -3 10 11
v -3 10 8
v -3 10 -3
v -3 10 -6
v -3 22 20
v -3 22 17
v -3 24 20
v -3 24 17
v -3 26 20
v -3 26 17
v 1 17 -8
v 1 17 -10
v 1 18 -23
v 1 18 -26
v 1 19 -8
v 1 19 -10
v 1 19 -23
v 1 19 -26
v 1 20 -23
v 1 20 -26
v 2 14 29
v 2 14 24
v 2 15 29
v 2 15 24
v 2 16 -10
v 2 16 -15
v 2 17 29
v 2 17 24
v 2 17 -15
v 2 17 -23
v 2 19 -10
v 2 19 -23
v 2 20 -10
v 2 20 -15
v 2 21 -15
v 2 21 -23
v 4 13 24
v 4 13 23
v 4 15 24
v 4 15 23
v 4 18 24
v 4 18 23
v 4 25 20
v 4 25 17
v 4 26 20
v 4 26 17
v 5 12 23
v 5 12 13
v 5 14 13
v 5 15 23
v 5 15 13
v 5 19 13
v 5 20 20
v 5 20 17
v 5 22 23
v 5 22 20
v 5 22 17
v 5 22 13
v 5 24 20
v 5 24 17
v 5 25 20
v 5 25 17
v 6 0 12
v 6 0 8
v 6 0 -2
v 6 0 -6
v 6 2 12
v 6 2 11
v 6 2 -2
v 6 2 -3
v 6 6 11
v 6 6 8
v 6 7 -3
v 6 7 -6
v 6 10 11
v 6 10 8
v 6 10 -3
v 6 10 -6
v 6 20 20
v 6 20 17
v 6 24 20
v 6 24 17
v 7 10 13
v 7 10 -8
v 7 19 13
v 7 19 -8
v -2 14 29
v -2 15 29
v -2 17 29
v -1 15 29
v -1 17 29
v 1 15 29
v 1 17 29
v 2 14 29
v 2 15 29
v 2 17 29
v -4 13 24
v -4 15 24
v -4 18 24
v -2 14 24
v -2 15 24
v -2 17 24
v 2 14 24
v 2 15 24
v 2 17 24
v 4 13 24
v 4 15 24
v 4 18 24
v -5 12 23
v -5 15 23
v -5 22 23
v -4 13 23
v -4 15 23
v -4 18 23
v -3 18 23
v -3 21 23
v -2 19 23
v -2 20 23
v -1 18 23
v -1 19 23
v -1 20 23
v -1 21 23
v 1 18 23
v 1 19 23
v 1 20 23
v 1 21 23
v 2 19 23
v 2 20 23
v 3 18 23
v 3 21 23
v 4 13 23
v 4 15 23
v 4 18 23
v 5 12 23
v 5 15 23
v 5 22 23
v -6 20 20
v -6 24 20
v -5 20 20
v -5 22 20
v -5 24 20
v -5 25 20
v -4 22 20
v -4 24 20
v -4 25 20
v -4 26 20
v -3 22 20
v -3 24 20
v -3 26 20
v 3 22 20
v 3 24 20
v 3 26 20
v 4 22 20
v 4 24 20
v 4 25 20
v 4 26 20
v 5 20 20
v 5 22 20
v 5 24 20
v 5 25 20
v 6 20 20
v 6 24 20
v -7 10 13
v -7 19 13
v -6 10 13
v -6 14 13
v -5 12 13
v -5 14 13
v -5 15 13
v -5 19 13
v 5 12 13
v 5 14 13
v 5 15 13
v 5 19 13
v 6 10 13
v 6 14 13
v 7 10 13
v 7 19 13
v -6 0 12
v -6 2 12
v -3 0 12
v -3 2 12
v 3 0 12
v 3 2 12
v 6 0 12
v 6 2 12
v -6 2 11
v -6 6 11
v -6 10 11
v -3 2 11
v -3 6 11
v -3 10 11
v 3 2 11
v 3 6 11
v 3 10 11
v 6 2 11
v 6 6 11
v 6 10 11
v -6 0 -2
v -6 2 -2
v -3 0 -2
v -3 2 -2
v 3 0 -2
v 3 2 -2
v 6 0 -2
v 6 2 -2
v -6 2 -3
v -6 7 -3
v -6 10 -3
v -5 10 -3
v -3 2 -3
v -3 7 -3
v -3 10 -3
v 3 2 -3
v 3 7 -3
v 3 10 -3
v 5 10 -3
v 6 2 -3
v 6 7 -3
v 6 10 -3
v -2 16 -10
v -2 19 -10
v -2 20 -10
v -1 17 -10
v -1 19 -10
v 1 17 -10
v 1 19 -10
v 2 16 -10
v 2 19 -10
v 2 20 -10
v -2 20 -15
v -2 21 -15
v 2 20 -15
v 2 21 -15
v -6 20 17
v -6 24 17
v -5 20 17
v -5 22 17
v -5 24 17
v -5 25 17
v -4 25 17
v -4 26 17
v -3 22 17
v -3 24 17
v -3 26 17
v 3 22 17
v 3 24 17
v 3 26 17
v 4 25 17
v 4 26 17
v 5 20 17
v 5 22 17
v 5 24 17
v 5 25 17
v 6 20 17
v 6 24 17
v -5 19 13
v -5 22 13
v 5 19 13
v 5 22 13
v -6 0 8
v -6 6 8
v -6 10 8
v -5 10 8
v -3 0 8
v -3 6 8
v -3 10 8
v 3 0 8
v 3 6 8
v 3 10 8
v 5 10 8
v 6 0 8
v 6 6 8
v 6 10 8
v -6 0 -6
v -6 7 -6
v -6 10 -6
v -5 10 -6
v -3 0 -6
v -3 7 -6
v -3 10 -6
v 3 0 -6
v 3 7 -6
v 3 10 -6
v 5 10 -6
v 6 0 -6
v 6 7 -6
v 6 10 -6
v -7 10 -8
v -7 19 -8
v -6 10 -8
v -6 15 -8
v -5 15 -8
v -5 16 -8
v -4 16 -8
v -4 17 -8
v -3 17 -8
v -3 19 -8
v -1 17 -8
v -1 19 -8
v 1 17 -8
v 1 19 -8
v 3 17 -8
v 3 19 -8
v 4 16 -8
v 4 17 -8
v 5 15 -8
v 5 16 -8
v 6 10 -8
v 6 15 -8
v 7 10 -8
v 7 19 -8
v -2 16 -15
v -2 17 -15
v 2 16 -15
v 2 17 -15
v -2 17 -23
v -2 19 -23
v -2 21 -23
v -1 18 -23
v -1 19 -23
v -1 20 -23
v 1 18 -23
v 1 19 -23
v 1 20 -23
v 2 17 -23
v 2 19 -23
v 2 21 -23
v -1 18 -26
v -1 19 -26
v -1 20 -26
v 1 18 -26
v 1 19 -26
v 1 20 -26
v -6 0 12
v -3 0 12
v 3 0 12
v 6 0 12
v -6 0 8
v -3 0 8
v 3 0 8
v 6 0 8
v -6 0 -2
v -3 0 -2
v 3 0 -2
v 6 0 -2
v -6 0 -6
v -3 0 -6
v 3 0 -6
v 6 0 -6
v -7 10 13
v -6 10 13
v 6 10 13
v 7 10 13
v -6 10 11
v -3 10 11
v 3 10 11
v 6 10 11
v -6 10 8
v -5 10 8
v -3 10 8
v 3 10 8
v 5 10 8
v 6 10 8
v -6 10 6
v -5 10 6
v 5 10 6
v 6 10 6
v -6 10 -2
v -5 10 -2
v 5 10 -2
v 6 10 -2
v -6 10 -3
v -5 10 -3
v -3 10 -3
v 3 10 -3
v 5 10 -3
v 6 10 -3
v -6 10 -6
v -5 10 -6
v -3 10 -6
v 3 10 -6
v 5 10 -6
v 6 10 -6
v -6 10 -7
v -5 10 -7
v 5 10 -7
v 6 10 -7
v -7 10 -8
v -6 10 -8
v 6 10 -8
v 7 10 -8
v -5 12 23
v 5 12 23
v -5 12 13
v 5 12 13
v -4 13 24
v 4 13 24
v -4 13 23
v 4 13 23
v -2 14 29
v 2 14 29
v -2 14 24
v 2 14 24
v -2 16 -10
v 2 16 -10
v -2 16 -15
v 2 16 -15
v -1 17 -8
v 1 17 -8
v -1 17 -10
v 1 17 -10
v -2 17 -15
v 2 17 -15
v -2 17 -23
v 2 17 -23
v -1 18 -23
v 1 18 -23
v -1 18 -26
v 1 18 -26
v -6 20 20
v -5 20 20
v 5 20 20
v 6 20 20
v -6 20 17
v -5 20 17
v 5 20 17
v 6 20 17
v -6 2 12
v -3 2 12
v 3 2 12
v 6 2 12
v -6 2 11
v -3 2 11
v 3 2 11
v 6 2 11
v -6 2 -2
v -3 2 -2
v 3 2 -2
v 6 2 -2
v -6 2 -3
v -3 2 -3
v 3 2 -3
v 6 2 -3
v -2 17 29
v -1 17 29
v 1 17 29
v 2 17 29
v -1 17 28
v 1 17 28
v -2 17 24
v 2 17 24
v -4 18 24
v 4 18 24
v -4 18 23
v -3 18 23
v -1 18 23
v 1 18 23
v 3 18 23
v 4 18 23
v -7 19 13
v -5 19 13
v 5 19 13
v 7 19 13
v -3 19 -7
v 3 19 -7
v -7 19 -8
v -3 19 -8
v -1 19 -8
v 1 19 -8
v 3 19 -8
v 7 19 -8
v -1 19 -10
v 1 19 -10
v -2 20 -10
v 2 20 -10
v -2 20 -15
v 2 20 -15
v -1 20 -23
v 1 20 -23
v -1 20 -26
v 1 20 -26
v -2 21 -15
v 2 21 -15
v -2 21 -23
v 2 21 -23
v -5 22 23
v 5 22 23
v -5 22 20
v -4 22 20
v -3 22 20
v 3 22 20
v 4 22 20
v 5 22 20
v -5 22 17
v -3 22 17
v 3 22 17
v 5 22 17
v -5 22 13
v 5 22 13
v -6 24 20
v -5 24 20
v 5 24 20
v 6 24 20
v -6 24 17
v -5 24 17
v 5 24 17
v 6 24 17
v -5 25 20
v -4 25 20
v 4 25 20
v 5 25 20
v -5 25 17
v -4 25 17
v 4 25 17
v 5 25 17
v -4 26 20
v -3 26 20
v 3 26 20
v 4 26 20
v -4 26 17
v -3 26 17
v 3 26 17
v 4 26 17

# faces
f 3/1/1 2/1/1 1/1/1
f 4/1/1 2/1/1 3/1/1
f 9/3/1 6/3/1 5/3/1
f 10/3/1 6/3/1 9/3/1
f 11/3/1 8/3/1 7/3/1
f 12/3/1 8/3/1 11/3/1
f 13/3/1 6/3/1 10/3/1
f 14/3/1 6/3/1 13/3/1
f 15/3/1 8/3/1 12/3/1
f 16/3/1 8/3/1 15/3/1
f 17/1/1 14/1/1 13/1/1
f 18/1/1 14/1/1 17/1/1
f 19/1/1 16/1/1 15/1/1
f 20/1/1 16/1/1 19/1/1
f 23/1/1 22/1/1 21/1/1
f 24/1/1 22/1/1 23/1/1
f 27/2/1 26/2/1 25/2/1
f 28/2/1 27/2/1 25/2/1
f 29/2/1 27/2/1 28/2/1
f 30/1/1 29/1/1 28/1/1
f 31/1/1 30/1/1 28/1/1
f 32/1/1 30/1/1 31/1/1
f 33/1/1 31/1/1 28/1/1
f 34/1/1 31/1/1 33/1/1
f 35/1/1 30/1/1 32/1/1
f 36/1/1 30/1/1 35/1/1
f 39/3/1 38/3/1 37/3/1
f 40/3/1 38/3/1 39/3/1
f 43/2/1 42/2/1 41/2/1
f 44/2/1 42/2/1 43/2/1
f 45/1/1 44/1/1 43/1/1
f 46/1/1 44/1/1 45/1/1
f 49/3/1 48/3/1 47/3/1
f 50/3/1 48/3/1 49/3/1
f 53/2/1 52/2/1 51/2/1
f 54/2/1 52/2/1 53/2/1
f 57/1/1 54/1/1 53/1/1
f 58/1/1 54/1/1 57/1/1
f 59/2/1 56/2/1 55/2/1
f 61/2/1 60/2/1 59/2/1
f 61/2/1 59/2/1 55/2/1
f 62/2/1 60/2/1 61/2/1
f 63/1/1 62/1/1 61/1/1
f 64/1/1 62/1/1 63/1/1
f 65/1/1 62/1/1 64/1/1
f 66/1/1 62/1/1 65/1/1
f 71/2/1 68/2/1 67/2/1
f 72/2/1 68/2/1 71/2/1
f 73/2/1 70/2/1 69/2/1
f 74/2/1 70/2/1 73/2/1
f 75/1/1 74/1/1 73/1/1
f 76/1/1 74/1/1 75/1/1
f 81/3/1 78/3/1 77/3/1
f 82/3/1 78/3/1 81/3/1
f 83/3/1 80/3/1 79/3/1
f 84/3/1 80/3/1 83/3/1
f 85/3/1 78/3/1 82/3/1
f 86/3/1 78/3/1 85/3/1
f 87/3/1 80/3/1 84/3/1
f 88/3/1 80/3/1 87/3/1
f 89/1/1 86/1/1 85/1/1
f 90/1/1 86/1/1 89/1/1
f 91/1/1 88/1/1 87/1/1
f 92/1/1 88/1/1 91/1/1
f 95/1/1 94/1/1 93/1/1
f 96/1/1 94/1/1 95/1/1
f 97/3/1 96/3/1 95/3/1
f 98/3/1 96/3/1 97/3/1
f 99/3/2 100/3/2 103/3/2
f 103/3/2 100/3/2 104/3/2
f 101/3/2 102/3/2 105/3/2
f 105/3/2 102/3/2 106/3/2
f 104/3/2 100/3/2 107/3/2
f 107/3/2 100/3/2 108/3/2
f 106/3/2 102/3/2 109/3/2
f 109/3/2 102/3/2 110/3/2
f 107/1/2 108/1/2 111/1/2
f 111/1/2 108/1/2 112/1/2
f 109/1/2 110/1/2 113/1/2
f 113/1/2 110/1/2 114/1/2
f 115/1/2 116/1/2 117/1/2
f 117/1/2 116/1/2 118/1/2
f 117/3/2 118/3/2 119/3/2
f 119/3/2 118/3/2 120/3/2
f 121/2/2 122/2/2 125/2/2
f 125/2/2 122/2/2 126/2/2
f 123/2/2 124/2/2 127/2/2
f 127/2/2 124/2/2 128/2/2
f 127/1/2 128/1/2 129/1/2
f 129/1/2 128/1/2 130/1/2
f 131/2/2 132/2/2 133/2/2
f 133/2/2 132/2/2 134/2/2
f 133/1/2 134/1/2 137/1/2
f 137/1/2 134/1/2 138/1/2
f 135/2/2 136/2/2 139/2/2
f 139/2/2 140/2/2 141/2/2
f 135/2/2 139/2/2 141/2/2
f 141/2/2 140/2/2 142/2/2
f 141/1/2 142/1/2 143/1/2
f 143/1/2 142/1/2 144/1/2
f 144/1/2 142/1/2 145/1/2
f 145/1/2 142/1/2 146/1/2
f 147/2/2 148/2/2 149/2/2
f 149/2/2 148/2/2 150/2/2
f 149/1/2 150/1/2 151/1/2
f 151/1/2 150/1/2 152/1/2
f 153/3/2 154/3/2 155/3/2
f 155/3/2 154/3/2 156/3/2
f 157/2/2 158/2/2 159/2/2
f 157/2/2 159/2/2 160/2/2
f 160/2/2 159/2/2 161/2/2
f 160/1/2 161/1/2 162/1/2
f 160/1/2 162/1/2 163/1/2
f 163/1/2 162/1/2 164/1/2
f 160/1/2 163/1/2 165/1/2
f 165/1/2 163/1/2 166/1/2
f 164/1/2 162/1/2 167/1/2
f 167/1/2 162/1/2 168/1/2
f 169/3/2 170/3/2 171/3/2
f 171/3/2 170/3/2 172/3/2
f 173/3/2 174/3/2 177/3/2
f 177/3/2 174/3/2 178/3/2
f 175/3/2 176/3/2 179/3/2
f 179/3/2 176/3/2 180/3/2
f 178/3/2 174/3/2 181/3/2
f 181/3/2 174/3/2 182/3/2
f 180/3/2 176/3/2 183/3/2
f 183/3/2 176/3/2 184/3/2
f 181/1/2 182/1/2 185/1/2
f 185/1/2 182/1/2 186/1/2
f 183/1/2 184/1/2 187/1/2
f 187/1/2 184/1/2 188/1/2
f 189/1/2 190/1/2 191/1/2
f 191/1/2 190/1/2 192/1/2
f 193/1/2 194/1/2 195/1/2
f 195/1/2 194/1/2 196/1/2
f 200/2/3 198/2/3 197/2/3
f 200/1/3 199/1/3 198/1/3
f 201/1/3 199/1/3 200/1/3
f 202/2/3 200/2/3 197/2/3
f 202/3/3 201/3/3 200/3/3
f 203/3/3 201/3/3 202/3/3
f 204/2/3 202/2/3 197/2/3
f 205/1/3 203/1/3 202/1/3
f 205/2/3 202/2/3 204/2/3
f 206/1/3 203/1/3 205/1/3
f 210/2/3 208/2/3 207/2/3
f 211/1/3 209/1/3 208/1/3
f 211/2/3 208/2/3 210/2/3
f 212/1/3 209/1/3 211/1/3
f 213/2/3 210/2/3 207/2/3
f 215/1/3 209/1/3 212/1/3
f 216/2/3 214/2/3 213/2/3
f 216/2/3 213/2/3 207/2/3
f 217/1/3 215/1/3 214/1/3
f 217/2/3 214/2/3 216/2/3
f 218/1/3 209/1/3 215/1/3
f 218/1/3 215/1/3 217/1/3
f 222/2/3 220/2/3 219/2/3
f 223/1/3 221/1/3 220/1/3
f 223/2/3 220/2/3 222/2/3
f 224/1/3 221/1/3 223/1/3
f 225/1/3 221/1/3 224/1/3
f 226/1/3 221/1/3 225/1/3
f 227/3/3 226/3/3 225/3/3
f 228/3/3 226/3/3 227/3/3
f 229/3/3 227/3/3 225/3/3
f 230/2/3 228/2/3 227/2/3
f 230/3/3 227/3/3 229/3/3
f 231/3/3 226/3/3 228/3/3
f 231/2/3 228/2/3 230/2/3
f 232/1/3 221/1/3 226/1/3
f 232/3/3 226/3/3 231/3/3
f 233/1/3 231/1/3 230/1/3
f 233/1/3 230/1/3 229/1/3
f 233/1/3 232/1/3 231/1/3
f 234/1/3 232/1/3 233/1/3
f 235/1/3 232/1/3 234/1/3
f 236/1/3 221/1/3 232/1/3
f 236/1/3 232/1/3 235/1/3
f 237/2/3 235/2/3 234/2/3
f 237/3/3 234/3/3 233/3/3
f 238/3/3 236/3/3 235/3/3
f 238/2/3 235/2/3 237/2/3
f 239/3/3 237/3/3 233/3/3
f 239/3/3 238/3/3 237/3/3
f 240/1/3 221/1/3 236/1/3
f 240/3/3 238/3/3 239/3/3
f 240/3/3 236/3/3 238/3/3
f 241/2/3 222/2/3 219/2/3
f 243/1/3 240/1/3 239/1/3
f 244/2/3 242/2/3 241/2/3
f 244/2/3 241/2/3 219/2/3
f 245/1/3 243/1/3 242/1/3
f 245/2/3 242/2/3 244/2/3
f 246/1/3 221/1/3 240/1/3
f 246/1/3 243/1/3 245/1/3
f 246/1/3 240/1/3 243/1/3
f 249/1/3 248/1/3 247/1/3
f 250/1/3 248/1/3 249/1/3
f 251/1/3 248/1/3 250/1/3
f 253/3/3 252/3/3 251/3/3
f 253/3/3 251/3/3 250/3/3
f 254/3/3 252/3/3 253/3/3
f 255/3/3 252/3/3 254/3/3
f 257/1/3 254/1/3 253/1/3
f 258/3/3 256/3/3 255/3/3
f 258/1/3 254/1/3 257/1/3
f 258/3/3 255/3/3 254/3/3
f 259/3/3 256/3/3 258/3/3
f 263/1/3 261/1/3 260/1/3
f 264/3/3 262/3/3 261/3/3
f 264/1/3 261/1/3 263/1/3
f 265/3/3 262/3/3 264/3/3
f 266/3/3 262/3/3 265/3/3
f 268/3/3 264/3/3 263/3/3
f 268/3/3 265/3/3 264/3/3
f 269/3/3 265/3/3 268/3/3
f 270/3/3 265/3/3 269/3/3
f 271/1/3 268/1/3 267/1/3
f 271/1/3 269/1/3 268/1/3
f 272/1/3 269/1/3 271/1/3
f 275/1/3 274/1/3 273/1/3
f 276/1/3 274/1/3 275/1/3
f 277/2/3 276/2/3 275/2/3
f 278/1/3 274/1/3 276/1/3
f 278/2/3 276/2/3 277/2/3
f 279/1/3 274/1/3 278/1/3
f 280/1/3 274/1/3 279/1/3
f 281/2/3 277/2/3 275/2/3
f 285/2/3 281/2/3 275/2/3
f 285/2/3 282/2/3 281/2/3
f 286/1/3 284/1/3 283/1/3
f 286/2/3 282/2/3 285/2/3
f 286/1/3 283/1/3 282/1/3
f 287/1/3 286/1/3 285/1/3
f 288/1/3 284/1/3 286/1/3
f 288/1/3 286/1/3 287/1/3
f 291/3/3 290/3/3 289/3/3
f 292/3/3 290/3/3 291/3/3
f 295/3/3 294/3/3 293/3/3
f 296/3/3 294/3/3 295/3/3
f 300/3/3 298/3/3 297/3/3
f 301/1/3 299/1/3 298/1/3
f 301/3/3 298/3/3 300/3/3
f 302/1/3 299/1/3 301/1/3
f 306/3/3 304/3/3 303/3/3
f 307/1/3 305/1/3 304/1/3
f 307/3/3 304/3/3 306/3/3
f 308/1/3 305/1/3 307/1/3
f 311/3/3 310/3/3 309/3/3
f 312/3/3 310/3/3 311/3/3
f 315/3/3 314/3/3 313/3/3
f 316/3/3 314/3/3 315/3/3
f 320/1/3 319/1/3 318/1/3
f 321/3/3 318/3/3 317/3/3
f 322/1/3 320/1/3 318/1/3
f 322/3/3 318/3/3 321/3/3
f 323/1/3 320/1/3 322/1/3
f 327/1/3 326/1/3 325/1/3
f 328/3/3 325/3/3 324/3/3
f 329/1/3 327/1/3 325/1/3
f 329/3/3 325/3/3 328/3/3
f 330/1/3 327/1/3 329/1/3
f 334/2/3 332/2/3 331/2/3
f 335/1/3 333/1/3 332/1/3
f 335/2/3 332/2/3 334/2/3
f 336/2/3 334/2/3 331/2/3
f 337/1/3 333/1/3 335/1/3
f 338/2/3 336/2/3 331/2/3
f 338/2/3 337/2/3 336/2/3
f 339/1/3 333/1/3 337/1/3
f 339/2/3 337/2/3 338/2/3
f 340/1/3 333/1/3 339/1/3
f 343/1/3 342/1/3 341/1/3
f 344/1/3 342/1/3 343/1/3
f 345/1/4 346/1/4 347/1/4
f 347/1/4 346/1/4 348/1/4
f 348/1/4 346/1/4 349/1/4
f 349/3/4 350/3/4 351/3/4
f 348/1/4 349/1/4 353/1/4
f 351/3/4 352/3/4 354/3/4
f 353/1/4 349/1/4 354/1/4
f 349/3/4 351/3/4 354/3/4
f 354/3/4 352/3/4 355/3/4
f 357/3/4 358/3/4 359/3/4
f 359/3/4 358/3/4 360/3/4
f 356/1/4 357/1/4 362/1/4
f 357/3/4 359/3/4 363/3/4
f 362/1/4 357/1/4 363/1/4
f 363/3/4 359/3/4 364/3/4
f 361/1/4 362/1/4 365/1/4
f 362/1/4 363/1/4 365/1/4
f 365/1/4 363/1/4 366/1/4
f 367/1/4 368/1/4 369/1/4
f 369/1/4 368/1/4 370/1/4
f 372/1/4 373/1/4 374/1/4
f 371/3/4 372/3/4 375/3/4
f 372/1/4 374/1/4 376/1/4
f 375/3/4 372/3/4 376/3/4
f 376/1/4 374/1/4 377/1/4
f 379/1/4 380/1/4 381/1/4
f 378/3/4 379/3/4 382/3/4
f 379/1/4 381/1/4 383/1/4
f 382/3/4 379/3/4 383/3/4
f 383/1/4 381/1/4 384/1/4
f 386/1/4 387/1/4 388/1/4
f 385/3/4 386/3/4 389/3/4
f 386/1/4 388/1/4 390/1/4
f 389/3/4 386/3/4 390/3/4
f 390/1/4 388/1/4 391/1/4
f 393/1/4 394/1/4 395/1/4
f 392/3/4 393/3/4 396/3/4
f 393/1/4 395/1/4 397/1/4
f 396/3/4 393/3/4 397/3/4
f 397/1/4 395/1/4 398/1/4
f 399/1/4 400/1/4 401/1/4
f 401/1/4 400/1/4 402/1/4
f 401/2/4 402/2/4 403/2/4
f 402/1/4 400/1/4 403/1/4
f 403/1/4 400/1/4 404/1/4
f 403/2/4 404/2/4 405/2/4
f 404/1/4 400/1/4 405/1/4
f 405/1/4 400/1/4 406/1/4
f 405/2/4 406/2/4 407/2/4
f 406/1/4 400/1/4 407/1/4
f 407/1/4 400/1/4 408/1/4
f 405/2/4 407/2/4 409/2/4
f 407/2/4 408/2/4 409/2/4
f 409/2/4 408/2/4 410/2/4
f 405/2/4 409/2/4 411/2/4
f 405/2/4 411/2/4 413/2/4
f 411/2/4 412/2/4 413/2/4
f 413/2/4 412/2/4 414/2/4
f 403/2/4 405/2/4 415/2/4
f 405/2/4 413/2/4 415/2/4
f 413/1/4 414/1/4 416/1/4
f 415/2/4 413/2/4 416/2/4
f 401/2/4 403/2/4 417/2/4
f 403/2/4 415/2/4 417/2/4
f 415/1/4 416/1/4 418/1/4
f 417/2/4 415/2/4 418/2/4
f 401/2/4 417/2/4 419/2/4
f 417/1/4 418/1/4 420/1/4
f 419/2/4 417/2/4 420/2/4
f 419/1/4 420/1/4 421/1/4
f 416/1/4 414/1/4 422/1/4
f 421/1/4 420/1/4 422/1/4
f 418/1/4 416/1/4 422/1/4
f 420/1/4 418/1/4 422/1/4
f 423/2/4 424/2/4 425/2/4
f 425/2/4 424/2/4 426/2/4
f 427/2/4 428/2/4 430/2/4
f 428/1/4 429/1/4 431/1/4
f 430/2/4 428/2/4 431/2/4
f 431/1/4 429/1/4 432/1/4
f 427/2/4 430/2/4 433/2/4
f 432/1/4 429/1/4 435/1/4
f 433/2/4 434/2/4 436/2/4
f 427/2/4 433/2/4 436/2/4
f 434/1/4 435/1/4 437/1/4
f 436/2/4 434/2/4 437/2/4
f 435/1/4 429/1/4 438/1/4
f 437/1/4 435/1/4 438/1/4
f 439/2/4 440/2/4 442/2/4
f 440/1/4 441/1/4 443/1/4
f 442/2/4 440/2/4 443/2/4
f 443/1/4 441/1/4 444/1/4
f 449/3/5 446/3/5 445/3/5
f 450/3/5 446/3/5 449/3/5
f 451/3/5 448/3/5 447/3/5
f 452/3/5 448/3/5 451/3/5
f 457/3/5 454/3/5 453/3/5
f 458/3/5 454/3/5 457/3/5
f 459/3/5 456/3/5 455/3/5
f 460/3/5 456/3/5 459/3/5
f 465/1/5 462/1/5 461/1/5
f 465/2/5 463/2/5 462/2/5
f 466/2/5 463/2/5 465/2/5
f 467/2/5 463/2/5 466/2/5
f 468/1/5 464/1/5 463/1/5
f 468/2/5 463/2/5 467/2/5
f 469/1/5 465/1/5 461/1/5
f 471/2/5 467/2/5 466/2/5
f 472/2/5 467/2/5 471/2/5
f 474/1/5 464/1/5 468/1/5
f 475/1/5 470/1/5 469/1/5
f 475/1/5 469/1/5 461/1/5
f 476/2/5 473/2/5 472/2/5
f 476/1/5 470/1/5 475/1/5
f 476/2/5 471/2/5 470/2/5
f 476/2/5 472/2/5 471/2/5
f 477/1/5 474/1/5 473/1/5
f 477/2/5 473/2/5 476/2/5
f 478/1/5 464/1/5 474/1/5
f 478/1/5 474/1/5 477/1/5
f 479/2/5 476/2/5 475/2/5
f 479/1/5 475/1/5 461/1/5
f 479/2/5 478/2/5 477/2/5
f 479/2/5 477/2/5 476/2/5
f 480/2/5 478/2/5 479/2/5
f 481/2/5 478/2/5 480/2/5
f 482/1/5 464/1/5 478/1/5
f 482/2/5 478/2/5 481/2/5
f 483/1/5 479/1/5 461/1/5
f 483/1/5 480/1/5 479/1/5
f 484/2/5 481/2/5 480/2/5
f 484/1/5 480/1/5 483/1/5
f 485/2/5 481/2/5 484/2/5
f 486/2/5 481/2/5 485/2/5
f 487/1/5 482/1/5 481/1/5
f 487/2/5 481/2/5 486/2/5
f 488/1/5 464/1/5 482/1/5
f 488/1/5 482/1/5 487/1/5
f 489/1/5 483/1/5 461/1/5
f 491/2/5 486/2/5 485/2/5
f 492/2/5 486/2/5 491/2/5
f 494/1/5 464/1/5 488/1/5
f 495/1/5 490/1/5 489/1/5
f 495/1/5 489/1/5 461/1/5
f 496/2/5 493/2/5 492/2/5
f 496/1/5 490/1/5 495/1/5
f 496/2/5 491/2/5 490/2/5
f 496/2/5 492/2/5 491/2/5
f 497/1/5 494/1/5 493/1/5
f 497/2/5 493/2/5 496/2/5
f 498/1/5 464/1/5 494/1/5
f 498/1/5 494/1/5 497/1/5
f 499/1/5 495/1/5 461/1/5
f 500/2/5 496/2/5 495/2/5
f 500/1/5 495/1/5 499/1/5
f 500/2/5 497/2/5 496/2/5
f 500/2/5 498/2/5 497/2/5
f 501/1/5 464/1/5 498/1/5
f 501/2/5 498/2/5 500/2/5
f 502/1/5 464/1/5 501/1/5
f 505/2/5 504/2/5 503/2/5
f 506/2/5 504/2/5 505/2/5
f 509/2/5 508/2/5 507/2/5
f 510/2/5 508/2/5 509/2/5
f 513/2/5 512/2/5 511/2/5
f 514/2/5 512/2/5 513/2/5
f 517/2/5 516/2/5 515/2/5
f 518/2/5 516/2/5 517/2/5
f 521/2/5 520/2/5 519/2/5
f 522/2/5 520/2/5 521/2/5
f 525/2/5 524/2/5 523/2/5
f 526/2/5 524/2/5 525/2/5
f 529/2/5 528/2/5 527/2/5
f 530/2/5 528/2/5 529/2/5
f 535/1/5 532/1/5 531/1/5
f 536/1/5 532/1/5 535/1/5
f 537/1/5 534/1/5 533/1/5
f 538/1/5 534/1/5 537/1/5
f 539/3/6 540/3/6 543/3/6
f 543/3/6 540/3/6 544/3/6
f 541/3/6 542/3/6 545/3/6
f 545/3/6 542/3/6 546/3/6
f 547/3/6 548/3/6 551/3/6
f 551/3/6 548/3/6 552/3/6
f 549/3/6 550/3/6 553/3/6
f 553/3/6 550/3/6 554/3/6
f 555/1/6 556/1/6 559/1/6
f 556/3/6 557/3/6 559/3/6
f 557/1/6 558/1/6 560/1/6
f 559/3/6 557/3/6 560/3/6
f 555/1/6 559/1/6 561/1/6
f 559/1/6 560/1/6 561/1/6
f 560/1/6 558/1/6 562/1/6
f 561/1/6 560/1/6 562/1/6
f 563/1/6 564/1/6 565/1/6
f 565/1/6 564/1/6 566/1/6
f 566/1/6 564/1/6 567/1/6
f 567/1/6 564/1/6 568/1/6
f 568/1/6 564/1/6 569/1/6
f 569/1/6 564/1/6 570/1/6
f 571/1/6 572/1/6 575/1/6
f 573/1/6 574/1/6 575/1/6
f 572/1/6 573/1/6 575/1/6
f 575/1/6 574/1/6 576/1/6
f 571/1/6 575/1/6 577/1/6
f 575/2/6 576/2/6 578/2/6
f 577/1/6 575/1/6 578/1/6
f 578/2/6 576/2/6 579/2/6
f 579/2/6 576/2/6 580/2/6
f 576/1/6 574/1/6 581/1/6
f 580/2/6 576/2/6 581/2/6
f 581/1/6 574/1/6 582/1/6
f 579/2/6 580/2/6 583/2/6
f 583/2/6 580/2/6 584/2/6
f 585/1/6 586/1/6 587/1/6
f 587/1/6 586/1/6 588/1/6
f 589/1/6 590/1/6 591/1/6
f 591/1/6 590/1/6 592/1/6
f 593/1/6 594/1/6 595/1/6
f 595/1/6 594/1/6 596/1/6
f 597/1/6 598/1/6 599/1/6
f 599/1/6 598/1/6 600/1/6
f 600/1/6 598/1/6 601/1/6
f 601/1/6 598/1/6 602/1/6
f 602/1/6 598/1/6 603/1/6
f 603/1/6 598/1/6 604/1/6
f 601/1/6 602/1/6 606/1/6
f 606/1/6 602/1/6 607/1/6
f 605/1/6 606/1/6 609/1/6
f 607/1/6 608/1/6 609/1/6
f 606/1/6 607/1/6 609/1/6
f 609/1/6 608/1/6 610/1/6
f 611/1/6 612/1/6 615/1/6
f 615/1/6 612/1/6 616/1/6
f 613/1/6 614/1/6 617/1/6
f 617/1/6 614/1/6 618/1/6
f 619/3/6 620/3/6 623/3/6
f 623/3/6 620/3/6 624/3/6
f 621/3/6 622/3/6 625/3/6
f 625/3/6 622/3/6 626/3/6
f 627/3/6 628/3/6 631/3/6
f 631/3/6 628/3/6 632/3/6
f 629/3/6 630/3/6 633/3/6
f 633/3/6 630/3/6 634/3/6
