# MagicaVoxel @ Ephtracy

# group
g Coin2

# material
mtllib Coin2.mtl
usemtl palette

# normals
vn -1 0 0
vn 1 0 0
vn 0 0 1
vn 0 0 -1
vn 0 -1 0
vn 0 1 0

# texcoords
vt 0.0214844 0.5
vt 0.0410156 0.5
vt 0.0449219 0.5

# verts
v -9.5 7 3
v -9.5 7 -2
v -9.5 21 3
v -9.5 21 -2
v -8.5 5 3
v -8.5 5 -2
v -8.5 7 3
v -8.5 7 -2
v -8.5 21 3
v -8.5 21 -2
v -8.5 23 3
v -8.5 23 -2
v -7.5 3 3
v -7.5 3 -2
v -7.5 5 3
v -7.5 5 -2
v -7.5 23 3
v -7.5 23 -2
v -7.5 25 3
v -7.5 25 -2
v -6.5 2 3
v -6.5 2 -2
v -6.5 3 3
v -6.5 3 -2
v -6.5 25 3
v -6.5 25 -2
v -6.5 26 3
v -6.5 26 -2
v -4.5 1 3
v -4.5 1 -2
v -4.5 2 3
v -4.5 2 -2
v -4.5 26 3
v -4.5 26 -2
v -4.5 27 3
v -4.5 27 -2
v -2.5 0 3
v -2.5 0 -2
v -2.5 1 3
v -2.5 1 -2
v -2.5 9 3
v -2.5 9 2
v -2.5 9 -1
v -2.5 9 -2
v -2.5 10 3
v -2.5 10 2
v -2.5 10 -1
v -2.5 10 -2
v -2.5 14 3
v -2.5 14 2
v -2.5 14 -1
v -2.5 14 -2
v -2.5 19 3
v -2.5 19 2
v -2.5 19 -1
v -2.5 19 -2
v -2.5 27 3
v -2.5 27 -2
v -2.5 28 3
v -2.5 28 -2
v -0.5 7 3
v -0.5 7 2
v -0.5 7 -1
v -0.5 7 -2
v -0.5 9 3
v -0.5 9 2
v -0.5 9 -1
v -0.5 9 -2
v -0.5 10 3
v -0.5 10 2
v -0.5 10 -1
v -0.5 10 -2
v -0.5 14 3
v -0.5 14 2
v -0.5 14 -1
v -0.5 14 -2
v -0.5 15 3
v -0.5 15 2
v -0.5 15 -1
v -0.5 15 -2
v -0.5 18 3
v -0.5 18 2
v -0.5 18 -1
v -0.5 18 -2
v -0.5 19 3
v -0.5 19 2
v -0.5 19 -1
v -0.5 19 -2
v -0.5 21 3
v -0.5 21 2
v -0.5 21 -1
v -0.5 21 -2
v 1.5 10 3
v 1.5 10 2
v 1.5 10 -1
v 1.5 10 -2
v 1.5 14 3
v 1.5 14 2
v 1.5 14 -1
v 1.5 14 -2
v 2.5 6 3
v 2.5 6 2
v 2.5 6 -1
v 2.5 6 -2
v 2.5 7 3
v 2.5 7 2
v 2.5 7 -1
v 2.5 7 -2
v 2.5 21 3
v 2.5 21 2
v 2.5 21 -1
v 2.5 21 -2
v 2.5 22 3
v 2.5 22 2
v 2.5 22 -1
v 2.5 22 -2
v 4.5 7 3
v 4.5 7 2
v 4.5 7 -1
v 4.5 7 -2
v 4.5 9 3
v 4.5 9 2
v 4.5 9 -1
v 4.5 9 -2
v 4.5 19 3
v 4.5 19 2
v 4.5 19 -1
v 4.5 19 -2
v 4.5 21 3
v 4.5 21 2
v 4.5 21 -1
v 4.5 21 -2
v 5.5 9 3
v 5.5 9 2
v 5.5 9 -1
v 5.5 9 -2
v 5.5 19 3
v 5.5 19 2
v 5.5 19 -1
v 5.5 19 -2
v -5.5 10 3
v -5.5 10 2
v -5.5 10 -1
v -5.5 10 -2
v -5.5 18 3
v -5.5 18 2
v -5.5 18 -1
v -5.5 18 -2
v -4.5 7 3
v -4.5 7 2
v -4.5 7 -1
v -4.5 7 -2
v -4.5 10 3
v -4.5 10 2
v -4.5 10 -1
v -4.5 10 -2
v -4.5 18 3
v -4.5 18 2
v -4.5 18 -1
v -4.5 18 -2
v -4.5 21 3
v -4.5 21 2
v -4.5 21 -1
v -4.5 21 -2
v -2.5 6 3
v -2.5 6 2
v -2.5 6 -1
v -2.5 6 -2
v -2.5 7 3
v -2.5 7 2
v -2.5 7 -1
v -2.5 7 -2
v -2.5 21 3
v -2.5 21 2
v -2.5 21 -1
v -2.5 21 -2
v -2.5 22 3
v -2.5 22 2
v -2.5 22 -1
v -2.5 22 -2
v -1.5 15 3
v -1.5 15 2
v -1.5 15 -1
v -1.5 15 -2
v -1.5 18 3
v -1.5 18 2
v -1.5 18 -1
v -1.5 18 -2
v 0.5 7 3
v 0.5 7 2
v 0.5 7 -1
v 0.5 7 -2
v 0.5 9 3
v 0.5 9 2
v 0.5 9 -1
v 0.5 9 -2
v 0.5 10 3
v 0.5 10 2
v 0.5 10 -1
v 0.5 10 -2
v 0.5 14 3
v 0.5 14 2
v 0.5 14 -1
v 0.5 14 -2
v 0.5 15 3
v 0.5 15 2
v 0.5 15 -1
v 0.5 15 -2
v 0.5 18 3
v 0.5 18 2
v 0.5 18 -1
v 0.5 18 -2
v 0.5 19 3
v 0.5 19 2
v 0.5 19 -1
v 0.5 19 -2
v 0.5 21 3
v 0.5 21 2
v 0.5 21 -1
v 0.5 21 -2
v 2.5 0 3
v 2.5 0 -2
v 2.5 1 3
v 2.5 1 -2
v 2.5 9 3
v 2.5 9 2
v 2.5 9 -1
v 2.5 9 -2
v 2.5 15 3
v 2.5 15 2
v 2.5 15 -1
v 2.5 15 -2
v 2.5 18 3
v 2.5 18 2
v 2.5 18 -1
v 2.5 18 -2
v 2.5 19 3
v 2.5 19 2
v 2.5 19 -1
v 2.5 19 -2
v 2.5 27 3
v 2.5 27 -2
v 2.5 28 3
v 2.5 28 -2
v 4.5 1 3
v 4.5 1 -2
v 4.5 2 3
v 4.5 2 -2
v 4.5 26 3
v 4.5 26 -2
v 4.5 27 3
v 4.5 27 -2
v 6.5 2 3
v 6.5 2 -2
v 6.5 3 3
v 6.5 3 -2
v 6.5 25 3
v 6.5 25 -2
v 6.5 26 3
v 6.5 26 -2
v 7.5 3 3
v 7.5 3 -2
v 7.5 5 3
v 7.5 5 -2
v 7.5 23 3
v 7.5 23 -2
v 7.5 25 3
v 7.5 25 -2
v 8.5 5 3
v 8.5 5 -2
v 8.5 7 3
v 8.5 7 -2
v 8.5 21 3
v 8.5 21 -2
v 8.5 23 3
v 8.5 23 -2
v 9.5 7 3
v 9.5 7 -2
v 9.5 21 3
v 9.5 21 -2
v -9.5 7 3
v -9.5 21 3
v -8.5 5 3
v -8.5 7 3
v -8.5 21 3
v -8.5 23 3
v -7.5 3 3
v -7.5 5 3
v -7.5 23 3
v -7.5 25 3
v -6.5 2 3
v -6.5 3 3
v -6.5 25 3
v -6.5 26 3
v -5.5 10 3
v -5.5 18 3
v -4.5 1 3
v -4.5 2 3
v -4.5 7 3
v -4.5 10 3
v -4.5 18 3
v -4.5 21 3
v -4.5 26 3
v -4.5 27 3
v -2.5 0 3
v -2.5 1 3
v -2.5 6 3
v -2.5 7 3
v -2.5 9 3
v -2.5 10 3
v -2.5 14 3
v -2.5 19 3
v -2.5 21 3
v -2.5 22 3
v -2.5 27 3
v -2.5 28 3
v -1.5 15 3
v -1.5 18 3
v -0.5 7 3
v -0.5 9 3
v -0.5 10 3
v -0.5 14 3
v -0.5 15 3
v -0.5 18 3
v -0.5 19 3
v -0.5 21 3
v 0.5 7 3
v 0.5 9 3
v 0.5 10 3
v 0.5 14 3
v 0.5 15 3
v 0.5 18 3
v 0.5 19 3
v 0.5 21 3
v 1.5 10 3
v 1.5 14 3
v 2.5 0 3
v 2.5 1 3
v 2.5 6 3
v 2.5 7 3
v 2.5 9 3
v 2.5 15 3
v 2.5 18 3
v 2.5 19 3
v 2.5 21 3
v 2.5 22 3
v 2.5 27 3
v 2.5 28 3
v 4.5 1 3
v 4.5 2 3
v 4.5 7 3
v 4.5 9 3
v 4.5 19 3
v 4.5 21 3
v 4.5 26 3
v 4.5 27 3
v 5.5 9 3
v 5.5 19 3
v 6.5 2 3
v 6.5 3 3
v 6.5 25 3
v 6.5 26 3
v 7.5 3 3
v 7.5 5 3
v 7.5 23 3
v 7.5 25 3
v 8.5 5 3
v 8.5 7 3
v 8.5 21 3
v 8.5 23 3
v 9.5 7 3
v 9.5 21 3
v -5.5 10 2
v -5.5 18 2
v -4.5 7 2
v -4.5 10 2
v -4.5 18 2
v -4.5 21 2
v -2.5 6 2
v -2.5 7 2
v -2.5 9 2
v -2.5 10 2
v -2.5 14 2
v -2.5 19 2
v -2.5 21 2
v -2.5 22 2
v -1.5 15 2
v -1.5 18 2
v -0.5 7 2
v -0.5 9 2
v -0.5 10 2
v -0.5 14 2
v -0.5 15 2
v -0.5 18 2
v -0.5 19 2
v -0.5 21 2
v 0.5 7 2
v 0.5 9 2
v 0.5 10 2
v 0.5 14 2
v 0.5 15 2
v 0.5 18 2
v 0.5 19 2
v 0.5 21 2
v 1.5 10 2
v 1.5 14 2
v 2.5 6 2
v 2.5 7 2
v 2.5 9 2
v 2.5 15 2
v 2.5 18 2
v 2.5 19 2
v 2.5 21 2
v 2.5 22 2
v 4.5 7 2
v 4.5 9 2
v 4.5 19 2
v 4.5 21 2
v 5.5 9 2
v 5.5 19 2
v -5.5 10 -1
v -5.5 18 -1
v -4.5 7 -1
v -4.5 10 -1
v -4.5 18 -1
v -4.5 21 -1
v -2.5 6 -1
v -2.5 7 -1
v -2.5 9 -1
v -2.5 10 -1
v -2.5 14 -1
v -2.5 19 -1
v -2.5 21 -1
v -2.5 22 -1
v -1.5 15 -1
v -1.5 18 -1
v -0.5 7 -1
v -0.5 9 -1
v -0.5 10 -1
v -0.5 14 -1
v -0.5 15 -1
v -0.5 18 -1
v -0.5 19 -1
v -0.5 21 -1
v 0.5 7 -1
v 0.5 9 -1
v 0.5 10 -1
v 0.5 14 -1
v 0.5 15 -1
v 0.5 18 -1
v 0.5 19 -1
v 0.5 21 -1
v 1.5 10 -1
v 1.5 14 -1
v 2.5 6 -1
v 2.5 7 -1
v 2.5 9 -1
v 2.5 15 -1
v 2.5 18 -1
v 2.5 19 -1
v 2.5 21 -1
v 2.5 22 -1
v 4.5 7 -1
v 4.5 9 -1
v 4.5 19 -1
v 4.5 21 -1
v 5.5 9 -1
v 5.5 19 -1
v -9.5 7 -2
v -9.5 21 -2
v -8.5 5 -2
v -8.5 7 -2
v -8.5 21 -2
v -8.5 23 -2
v -7.5 3 -2
v -7.5 5 -2
v -7.5 23 -2
v -7.5 25 -2
v -6.5 2 -2
v -6.5 3 -2
v -6.5 25 -2
v -6.5 26 -2
v -5.5 10 -2
v -5.5 18 -2
v -4.5 1 -2
v -4.5 2 -2
v -4.5 7 -2
v -4.5 10 -2
v -4.5 18 -2
v -4.5 21 -2
v -4.5 26 -2
v -4.5 27 -2
v -2.5 0 -2
v -2.5 1 -2
v -2.5 6 -2
v -2.5 7 -2
v -2.5 9 -2
v -2.5 10 -2
v -2.5 14 -2
v -2.5 19 -2
v -2.5 21 -2
v -2.5 22 -2
v -2.5 27 -2
v -2.5 28 -2
v -1.5 15 -2
v -1.5 18 -2
v -0.5 7 -2
v -0.5 9 -2
v -0.5 10 -2
v -0.5 14 -2
v -0.5 15 -2
v -0.5 18 -2
v -0.5 19 -2
v -0.5 21 -2
v 0.5 7 -2
v 0.5 9 -2
v 0.5 10 -2
v 0.5 14 -2
v 0.5 15 -2
v 0.5 18 -2
v 0.5 19 -2
v 0.5 21 -2
v 1.5 10 -2
v 1.5 14 -2
v 2.5 0 -2
v 2.5 1 -2
v 2.5 6 -2
v 2.5 7 -2
v 2.5 9 -2
v 2.5 15 -2
v 2.5 18 -2
v 2.5 19 -2
v 2.5 21 -2
v 2.5 22 -2
v 2.5 27 -2
v 2.5 28 -2
v 4.5 1 -2
v 4.5 2 -2
v 4.5 7 -2
v 4.5 9 -2
v 4.5 19 -2
v 4.5 21 -2
v 4.5 26 -2
v 4.5 27 -2
v 5.5 9 -2
v 5.5 19 -2
v 6.5 2 -2
v 6.5 3 -2
v 6.5 25 -2
v 6.5 26 -2
v 7.5 3 -2
v 7.5 5 -2
v 7.5 23 -2
v 7.5 25 -2
v 8.5 5 -2
v 8.5 7 -2
v 8.5 21 -2
v 8.5 23 -2
v 9.5 7 -2
v 9.5 21 -2
v -2.5 0 3
v 2.5 0 3
v -2.5 0 -2
v 2.5 0 -2
v -4.5 1 3
v -2.5 1 3
v 2.5 1 3
v 4.5 1 3
v -4.5 1 -2
v -2.5 1 -2
v 2.5 1 -2
v 4.5 1 -2
v -6.5 2 3
v -4.5 2 3
v 4.5 2 3
v 6.5 2 3
v -6.5 2 -2
v -4.5 2 -2
v 4.5 2 -2
v 6.5 2 -2
v -7.5 3 3
v -6.5 3 3
v 6.5 3 3
v 7.5 3 3
v -7.5 3 -2
v -6.5 3 -2
v 6.5 3 -2
v 7.5 3 -2
v -8.5 5 3
v -7.5 5 3
v 7.5 5 3
v 8.5 5 3
v -8.5 5 -2
v -7.5 5 -2
v 7.5 5 -2
v 8.5 5 -2
v -9.5 7 3
v -8.5 7 3
v -0.5 7 3
v 0.5 7 3
v 8.5 7 3
v 9.5 7 3
v -0.5 7 2
v 0.5 7 2
v -0.5 7 -1
v 0.5 7 -1
v -9.5 7 -2
v -8.5 7 -2
v -0.5 7 -2
v 0.5 7 -2
v 8.5 7 -2
v 9.5 7 -2
v -2.5 9 3
v -0.5 9 3
v 0.5 9 3
v 2.5 9 3
v -2.5 9 2
v -0.5 9 2
v 0.5 9 2
v 2.5 9 2
v -2.5 9 -1
v -0.5 9 -1
v 0.5 9 -1
v 2.5 9 -1
v -2.5 9 -2
v -0.5 9 -2
v 0.5 9 -2
v 2.5 9 -2
v -2.5 14 3
v -0.5 14 3
v 0.5 14 3
v 1.5 14 3
v -2.5 14 2
v -0.5 14 2
v 0.5 14 2
v 1.5 14 2
v -2.5 14 -1
v -0.5 14 -1
v 0.5 14 -1
v 1.5 14 -1
v -2.5 14 -2
v -0.5 14 -2
v 0.5 14 -2
v 1.5 14 -2
v -5.5 18 3
v -4.5 18 3
v -1.5 18 3
v -0.5 18 3
v 0.5 18 3
v 2.5 18 3
v -5.5 18 2
v -4.5 18 2
v -1.5 18 2
v -0.5 18 2
v 0.5 18 2
v 2.5 18 2
v -5.5 18 -1
v -4.5 18 -1
v -1.5 18 -1
v -0.5 18 -1
v 0.5 18 -1
v 2.5 18 -1
v -5.5 18 -2
v -4.5 18 -2
v -1.5 18 -2
v -0.5 18 -2
v 0.5 18 -2
v 2.5 18 -2
v 4.5 19 3
v 5.5 19 3
v 4.5 19 2
v 5.5 19 2
v 4.5 19 -1
v 5.5 19 -1
v 4.5 19 -2
v 5.5 19 -2
v -4.5 21 3
v -2.5 21 3
v 2.5 21 3
v 4.5 21 3
v -4.5 21 2
v -2.5 21 2
v 2.5 21 2
v 4.5 21 2
v -4.5 21 -1
v -2.5 21 -1
v 2.5 21 -1
v 4.5 21 -1
v -4.5 21 -2
v -2.5 21 -2
v 2.5 21 -2
v 4.5 21 -2
v -2.5 22 3
v 2.5 22 3
v -2.5 22 2
v 2.5 22 2
v -2.5 22 -1
v 2.5 22 -1
v -2.5 22 -2
v 2.5 22 -2
v -2.5 6 3
v 2.5 6 3
v -2.5 6 2
v 2.5 6 2
v -2.5 6 -1
v 2.5 6 -1
v -2.5 6 -2
v 2.5 6 -2
v -4.5 7 3
v -2.5 7 3
v 2.5 7 3
v 4.5 7 3
v -4.5 7 2
v -2.5 7 2
v 2.5 7 2
v 4.5 7 2
v -4.5 7 -1
v -2.5 7 -1
v 2.5 7 -1
v 4.5 7 -1
v -4.5 7 -2
v -2.5 7 -2
v 2.5 7 -2
v 4.5 7 -2
v 4.5 9 3
v 5.5 9 3
v 4.5 9 2
v 5.5 9 2
v 4.5 9 -1
v 5.5 9 -1
v 4.5 9 -2
v 5.5 9 -2
v -5.5 10 3
v -4.5 10 3
v -2.5 10 3
v -0.5 10 3
v 0.5 10 3
v 1.5 10 3
v -5.5 10 2
v -4.5 10 2
v -2.5 10 2
v -0.5 10 2
v 0.5 10 2
v 1.5 10 2
v -5.5 10 -1
v -4.5 10 -1
v -2.5 10 -1
v -0.5 10 -1
v 0.5 10 -1
v 1.5 10 -1
v -5.5 10 -2
v -4.5 10 -2
v -2.5 10 -2
v -0.5 10 -2
v 0.5 10 -2
v 1.5 10 -2
v -1.5 15 3
v -0.5 15 3
v 0.5 15 3
v 2.5 15 3
v -1.5 15 2
v -0.5 15 2
v 0.5 15 2
v 2.5 15 2
v -1.5 15 -1
v -0.5 15 -1
v 0.5 15 -1
v 2.5 15 -1
v -1.5 15 -2
v -0.5 15 -2
v 0.5 15 -2
v 2.5 15 -2
v -2.5 19 3
v -0.5 19 3
v 0.5 19 3
v 2.5 19 3
v -2.5 19 2
v -0.5 19 2
v 0.5 19 2
v 2.5 19 2
v -2.5 19 -1
v -0.5 19 -1
v 0.5 19 -1
v 2.5 19 -1
v -2.5 19 -2
v -0.5 19 -2
v 0.5 19 -2
v 2.5 19 -2
v -9.5 21 3
v -8.5 21 3
v -0.5 21 3
v 0.5 21 3
v 8.5 21 3
v 9.5 21 3
v -0.5 21 2
v 0.5 21 2
v -0.5 21 -1
v 0.5 21 -1
v -9.5 21 -2
v -8.5 21 -2
v -0.5 21 -2
v 0.5 21 -2
v 8.5 21 -2
v 9.5 21 -2
v -8.5 23 3
v -7.5 23 3
v 7.5 23 3
v 8.5 23 3
v -8.5 23 -2
v -7.5 23 -2
v 7.5 23 -2
v 8.5 23 -2
v -7.5 25 3
v -6.5 25 3
v 6.5 25 3
v 7.5 25 3
v -7.5 25 -2
v -6.5 25 -2
v 6.5 25 -2
v 7.5 25 -2
v -6.5 26 3
v -4.5 26 3
v 4.5 26 3
v 6.5 26 3
v -6.5 26 -2
v -4.5 26 -2
v 4.5 26 -2
v 6.5 26 -2
v -4.5 27 3
v -2.5 27 3
v 2.5 27 3
v 4.5 27 3
v -4.5 27 -2
v -2.5 27 -2
v 2.5 27 -2
v 4.5 27 -2
v -2.5 28 3
v 2.5 28 3
v -2.5 28 -2
v 2.5 28 -2

# faces
f 3/2/1 2/2/1 1/2/1
f 4/2/1 2/2/1 3/2/1
f 7/2/1 6/2/1 5/2/1
f 8/2/1 6/2/1 7/2/1
f 11/2/1 10/2/1 9/2/1
f 12/2/1 10/2/1 11/2/1
f 15/2/1 14/2/1 13/2/1
f 16/2/1 14/2/1 15/2/1
f 19/2/1 18/2/1 17/2/1
f 20/2/1 18/2/1 19/2/1
f 23/2/1 22/2/1 21/2/1
f 24/2/1 22/2/1 23/2/1
f 27/2/1 26/2/1 25/2/1
f 28/2/1 26/2/1 27/2/1
f 31/2/1 30/2/1 29/2/1
f 32/2/1 30/2/1 31/2/1
f 35/2/1 34/2/1 33/2/1
f 36/2/1 34/2/1 35/2/1
f 39/2/1 38/2/1 37/2/1
f 40/2/1 38/2/1 39/2/1
f 45/3/1 42/3/1 41/3/1
f 46/3/1 42/3/1 45/3/1
f 47/3/1 44/3/1 43/3/1
f 48/3/1 44/3/1 47/3/1
f 53/3/1 50/3/1 49/3/1
f 54/3/1 50/3/1 53/3/1
f 55/3/1 52/3/1 51/3/1
f 56/3/1 52/3/1 55/3/1
f 59/2/1 58/2/1 57/2/1
f 60/2/1 58/2/1 59/2/1
f 65/3/1 62/3/1 61/3/1
f 66/3/1 62/3/1 65/3/1
f 67/3/1 64/3/1 63/3/1
f 68/3/1 64/3/1 67/3/1
f 73/3/1 70/3/1 69/3/1
f 74/3/1 70/3/1 73/3/1
f 75/3/1 72/3/1 71/3/1
f 76/3/1 72/3/1 75/3/1
f 81/3/1 78/3/1 77/3/1
f 82/3/1 78/3/1 81/3/1
f 83/3/1 80/3/1 79/3/1
f 84/3/1 80/3/1 83/3/1
f 89/3/1 86/3/1 85/3/1
f 90/3/1 86/3/1 89/3/1
f 91/3/1 88/3/1 87/3/1
f 92/3/1 88/3/1 91/3/1
f 97/3/1 94/3/1 93/3/1
f 98/3/1 94/3/1 97/3/1
f 99/3/1 96/3/1 95/3/1
f 100/3/1 96/3/1 99/3/1
f 105/2/1 102/2/1 101/2/1
f 106/2/1 102/2/1 105/2/1
f 107/2/1 104/2/1 103/2/1
f 108/2/1 104/2/1 107/2/1
f 113/2/1 110/2/1 109/2/1
f 114/2/1 110/2/1 113/2/1
f 115/2/1 112/2/1 111/2/1
f 116/2/1 112/2/1 115/2/1
f 121/2/1 118/2/1 117/2/1
f 122/2/1 118/2/1 121/2/1
f 123/2/1 120/2/1 119/2/1
f 124/2/1 120/2/1 123/2/1
f 129/2/1 126/2/1 125/2/1
f 130/2/1 126/2/1 129/2/1
f 131/2/1 128/2/1 127/2/1
f 132/2/1 128/2/1 131/2/1
f 137/2/1 134/2/1 133/2/1
f 138/2/1 134/2/1 137/2/1
f 139/2/1 136/2/1 135/2/1
f 140/2/1 136/2/1 139/2/1
f 141/2/2 142/2/2 145/2/2
f 145/2/2 142/2/2 146/2/2
f 143/2/2 144/2/2 147/2/2
f 147/2/2 144/2/2 148/2/2
f 149/2/2 150/2/2 153/2/2
f 153/2/2 150/2/2 154/2/2
f 151/2/2 152/2/2 155/2/2
f 155/2/2 152/2/2 156/2/2
f 157/2/2 158/2/2 161/2/2
f 161/2/2 158/2/2 162/2/2
f 159/2/2 160/2/2 163/2/2
f 163/2/2 160/2/2 164/2/2
f 165/2/2 166/2/2 169/2/2
f 169/2/2 166/2/2 170/2/2
f 167/2/2 168/2/2 171/2/2
f 171/2/2 168/2/2 172/2/2
f 173/2/2 174/2/2 177/2/2
f 177/2/2 174/2/2 178/2/2
f 175/2/2 176/2/2 179/2/2
f 179/2/2 176/2/2 180/2/2
f 181/3/2 182/3/2 185/3/2
f 185/3/2 182/3/2 186/3/2
f 183/3/2 184/3/2 187/3/2
f 187/3/2 184/3/2 188/3/2
f 189/3/2 190/3/2 193/3/2
f 193/3/2 190/3/2 194/3/2
f 191/3/2 192/3/2 195/3/2
f 195/3/2 192/3/2 196/3/2
f 197/3/2 198/3/2 201/3/2
f 201/3/2 198/3/2 202/3/2
f 199/3/2 200/3/2 203/3/2
f 203/3/2 200/3/2 204/3/2
f 205/3/2 206/3/2 209/3/2
f 209/3/2 206/3/2 210/3/2
f 207/3/2 208/3/2 211/3/2
f 211/3/2 208/3/2 212/3/2
f 213/3/2 214/3/2 217/3/2
f 217/3/2 214/3/2 218/3/2
f 215/3/2 216/3/2 219/3/2
f 219/3/2 216/3/2 220/3/2
f 221/2/2 222/2/2 223/2/2
f 223/2/2 222/2/2 224/2/2
f 225/3/2 226/3/2 229/3/2
f 229/3/2 226/3/2 230/3/2
f 227/3/2 228/3/2 231/3/2
f 231/3/2 228/3/2 232/3/2
f 233/3/2 234/3/2 237/3/2
f 237/3/2 234/3/2 238/3/2
f 235/3/2 236/3/2 239/3/2
f 239/3/2 236/3/2 240/3/2
f 241/2/2 242/2/2 243/2/2
f 243/2/2 242/2/2 244/2/2
f 245/2/2 246/2/2 247/2/2
f 247/2/2 246/2/2 248/2/2
f 249/2/2 250/2/2 251/2/2
f 251/2/2 250/2/2 252/2/2
f 253/2/2 254/2/2 255/2/2
f 255/2/2 254/2/2 256/2/2
f 257/2/2 258/2/2 259/2/2
f 259/2/2 258/2/2 260/2/2
f 261/2/2 262/2/2 263/2/2
f 263/2/2 262/2/2 264/2/2
f 265/2/2 266/2/2 267/2/2
f 267/2/2 266/2/2 268/2/2
f 269/2/2 270/2/2 271/2/2
f 271/2/2 270/2/2 272/2/2
f 273/2/2 274/2/2 275/2/2
f 275/2/2 274/2/2 276/2/2
f 277/2/2 278/2/2 279/2/2
f 279/2/2 278/2/2 280/2/2
f 284/2/3 282/2/3 281/2/3
f 285/2/3 282/2/3 284/2/3
f 288/2/3 284/2/3 283/2/3
f 288/2/3 286/2/3 285/2/3
f 288/2/3 285/2/3 284/2/3
f 289/2/3 286/2/3 288/2/3
f 292/2/3 288/2/3 287/2/3
f 292/2/3 290/2/3 289/2/3
f 292/2/3 289/2/3 288/2/3
f 293/2/3 290/2/3 292/2/3
f 295/2/3 292/2/3 291/2/3
f 295/2/3 294/2/3 293/2/3
f 295/2/3 293/2/3 292/2/3
f 296/2/3 294/2/3 295/2/3
f 298/2/3 295/2/3 291/2/3
f 299/2/3 295/2/3 298/2/3
f 300/2/3 295/2/3 299/2/3
f 301/2/3 294/2/3 296/2/3
f 302/2/3 294/2/3 301/2/3
f 303/2/3 294/2/3 302/2/3
f 306/2/3 298/2/3 297/2/3
f 306/2/3 299/2/3 298/2/3
f 307/2/3 299/2/3 306/2/3
f 308/2/3 299/2/3 307/2/3
f 313/2/3 304/2/3 303/2/3
f 313/2/3 303/2/3 302/2/3
f 314/2/3 304/2/3 313/2/3
f 315/2/3 304/2/3 314/2/3
f 317/3/3 312/3/3 311/3/3
f 318/3/3 312/3/3 317/3/3
f 320/3/3 310/3/3 309/3/3
f 321/3/3 310/3/3 320/3/3
f 322/3/3 317/3/3 311/3/3
f 323/3/3 317/3/3 322/3/3
f 324/3/3 312/3/3 318/3/3
f 325/3/3 312/3/3 324/3/3
f 327/3/3 323/3/3 322/3/3
f 327/3/3 326/3/3 325/3/3
f 327/3/3 325/3/3 324/3/3
f 327/3/3 324/3/3 323/3/3
f 327/3/3 321/3/3 320/3/3
f 327/3/3 322/3/3 321/3/3
f 327/3/3 320/3/3 319/3/3
f 328/3/3 326/3/3 327/3/3
f 329/3/3 326/3/3 328/3/3
f 330/3/3 326/3/3 329/3/3
f 331/3/3 326/3/3 330/3/3
f 332/3/3 326/3/3 331/3/3
f 333/3/3 326/3/3 332/3/3
f 334/3/3 326/3/3 333/3/3
f 335/3/3 329/3/3 328/3/3
f 336/3/3 331/3/3 330/3/3
f 337/2/3 306/2/3 305/2/3
f 337/2/3 307/2/3 306/2/3
f 338/2/3 307/2/3 337/2/3
f 339/2/3 307/2/3 338/2/3
f 341/3/3 336/3/3 335/3/3
f 341/3/3 335/3/3 328/3/3
f 342/3/3 331/3/3 336/3/3
f 342/3/3 336/3/3 341/3/3
f 343/3/3 333/3/3 332/3/3
f 344/3/3 333/3/3 343/3/3
f 346/2/3 316/2/3 315/2/3
f 346/2/3 315/2/3 314/2/3
f 347/2/3 316/2/3 346/2/3
f 348/2/3 316/2/3 347/2/3
f 349/2/3 340/2/3 339/2/3
f 349/2/3 339/2/3 338/2/3
f 350/2/3 340/2/3 349/2/3
f 351/2/3 340/2/3 350/2/3
f 354/2/3 347/2/3 346/2/3
f 354/2/3 346/2/3 345/2/3
f 355/2/3 347/2/3 354/2/3
f 356/2/3 347/2/3 355/2/3
f 357/2/3 352/2/3 351/2/3
f 357/2/3 351/2/3 350/2/3
f 358/2/3 355/2/3 354/2/3
f 358/2/3 354/2/3 353/2/3
f 359/2/3 357/2/3 350/2/3
f 359/2/3 358/2/3 357/2/3
f 360/2/3 358/2/3 359/2/3
f 361/2/3 355/2/3 358/2/3
f 361/2/3 358/2/3 360/2/3
f 362/2/3 355/2/3 361/2/3
f 363/2/3 361/2/3 360/2/3
f 364/2/3 361/2/3 363/2/3
f 365/2/3 361/2/3 364/2/3
f 366/2/3 361/2/3 365/2/3
f 367/2/3 365/2/3 364/2/3
f 368/2/3 365/2/3 367/2/3
f 369/2/3 365/2/3 368/2/3
f 370/2/3 365/2/3 369/2/3
f 371/2/3 369/2/3 368/2/3
f 372/2/3 369/2/3 371/2/3
f 376/1/3 374/1/3 373/1/3
f 377/1/3 374/1/3 376/1/3
f 380/1/3 376/1/3 375/1/3
f 380/1/3 378/1/3 377/1/3
f 380/1/3 377/1/3 376/1/3
f 381/1/3 378/1/3 380/1/3
f 382/1/3 378/1/3 381/1/3
f 383/1/3 378/1/3 382/1/3
f 384/1/3 378/1/3 383/1/3
f 385/1/3 378/1/3 384/1/3
f 389/1/3 380/1/3 379/1/3
f 389/1/3 381/1/3 380/1/3
f 390/1/3 381/1/3 389/1/3
f 391/1/3 383/1/3 382/1/3
f 392/1/3 383/1/3 391/1/3
f 393/1/3 388/1/3 387/1/3
f 394/1/3 388/1/3 393/1/3
f 395/1/3 385/1/3 384/1/3
f 395/1/3 386/1/3 385/1/3
f 396/1/3 386/1/3 395/1/3
f 397/1/3 389/1/3 379/1/3
f 404/1/3 386/1/3 396/1/3
f 405/1/3 400/1/3 399/1/3
f 406/1/3 400/1/3 405/1/3
f 407/1/3 397/1/3 379/1/3
f 407/1/3 398/1/3 397/1/3
f 408/1/3 398/1/3 407/1/3
f 409/1/3 398/1/3 408/1/3
f 410/1/3 402/1/3 401/1/3
f 411/1/3 402/1/3 410/1/3
f 412/1/3 404/1/3 403/1/3
f 413/1/3 386/1/3 404/1/3
f 413/1/3 404/1/3 412/1/3
f 414/1/3 386/1/3 413/1/3
f 415/1/3 409/1/3 408/1/3
f 415/1/3 413/1/3 412/1/3
f 415/1/3 411/1/3 410/1/3
f 415/1/3 410/1/3 409/1/3
f 415/1/3 412/1/3 411/1/3
f 416/1/3 413/1/3 415/1/3
f 417/1/3 413/1/3 416/1/3
f 418/1/3 413/1/3 417/1/3
f 419/1/3 417/1/3 416/1/3
f 420/1/3 417/1/3 419/1/3
f 421/1/4 422/1/4 424/1/4
f 424/1/4 422/1/4 425/1/4
f 423/1/4 424/1/4 428/1/4
f 425/1/4 426/1/4 428/1/4
f 424/1/4 425/1/4 428/1/4
f 428/1/4 426/1/4 429/1/4
f 429/1/4 426/1/4 430/1/4
f 430/1/4 426/1/4 431/1/4
f 431/1/4 426/1/4 432/1/4
f 432/1/4 426/1/4 433/1/4
f 427/1/4 428/1/4 437/1/4
f 428/1/4 429/1/4 437/1/4
f 437/1/4 429/1/4 438/1/4
f 430/1/4 431/1/4 439/1/4
f 439/1/4 431/1/4 440/1/4
f 435/1/4 436/1/4 441/1/4
f 441/1/4 436/1/4 442/1/4
f 432/1/4 433/1/4 443/1/4
f 433/1/4 434/1/4 443/1/4
f 443/1/4 434/1/4 444/1/4
f 427/1/4 437/1/4 445/1/4
f 444/1/4 434/1/4 452/1/4
f 447/1/4 448/1/4 453/1/4
f 453/1/4 448/1/4 454/1/4
f 427/1/4 445/1/4 455/1/4
f 445/1/4 446/1/4 455/1/4
f 455/1/4 446/1/4 456/1/4
f 456/1/4 446/1/4 457/1/4
f 449/1/4 450/1/4 458/1/4
f 458/1/4 450/1/4 459/1/4
f 451/1/4 452/1/4 460/1/4
f 452/1/4 434/1/4 461/1/4
f 460/1/4 452/1/4 461/1/4
f 461/1/4 434/1/4 462/1/4
f 456/1/4 457/1/4 463/1/4
f 460/1/4 461/1/4 463/1/4
f 458/1/4 459/1/4 463/1/4
f 457/1/4 458/1/4 463/1/4
f 459/1/4 460/1/4 463/1/4
f 463/1/4 461/1/4 464/1/4
f 464/1/4 461/1/4 465/1/4
f 465/1/4 461/1/4 466/1/4
f 464/1/4 465/1/4 467/1/4
f 467/1/4 465/1/4 468/1/4
f 469/2/4 470/2/4 472/2/4
f 472/2/4 470/2/4 473/2/4
f 471/2/4 472/2/4 476/2/4
f 473/2/4 474/2/4 476/2/4
f 472/2/4 473/2/4 476/2/4
f 476/2/4 474/2/4 477/2/4
f 475/2/4 476/2/4 480/2/4
f 477/2/4 478/2/4 480/2/4
f 476/2/4 477/2/4 480/2/4
f 480/2/4 478/2/4 481/2/4
f 479/2/4 480/2/4 483/2/4
f 481/2/4 482/2/4 483/2/4
f 480/2/4 481/2/4 483/2/4
f 483/2/4 482/2/4 484/2/4
f 479/2/4 483/2/4 486/2/4
f 486/2/4 483/2/4 487/2/4
f 487/2/4 483/2/4 488/2/4
f 484/2/4 482/2/4 489/2/4
f 489/2/4 482/2/4 490/2/4
f 490/2/4 482/2/4 491/2/4
f 485/2/4 486/2/4 494/2/4
f 486/2/4 487/2/4 494/2/4
f 494/2/4 487/2/4 495/2/4
f 495/2/4 487/2/4 496/2/4
f 491/2/4 492/2/4 501/2/4
f 490/2/4 491/2/4 501/2/4
f 501/2/4 492/2/4 502/2/4
f 502/2/4 492/2/4 503/2/4
f 499/3/4 500/3/4 505/3/4
f 505/3/4 500/3/4 506/3/4
f 497/3/4 498/3/4 508/3/4
f 508/3/4 498/3/4 509/3/4
f 499/3/4 505/3/4 510/3/4
f 510/3/4 505/3/4 511/3/4
f 506/3/4 500/3/4 512/3/4
f 512/3/4 500/3/4 513/3/4
f 510/3/4 511/3/4 515/3/4
f 513/3/4 514/3/4 515/3/4
f 512/3/4 513/3/4 515/3/4
f 511/3/4 512/3/4 515/3/4
f 508/3/4 509/3/4 515/3/4
f 509/3/4 510/3/4 515/3/4
f 507/3/4 508/3/4 515/3/4
f 515/3/4 514/3/4 516/3/4
f 516/3/4 514/3/4 517/3/4
f 517/3/4 514/3/4 518/3/4
f 518/3/4 514/3/4 519/3/4
f 519/3/4 514/3/4 520/3/4
f 520/3/4 514/3/4 521/3/4
f 521/3/4 514/3/4 522/3/4
f 516/3/4 517/3/4 523/3/4
f 518/3/4 519/3/4 524/3/4
f 493/2/4 494/2/4 525/2/4
f 494/2/4 495/2/4 525/2/4
f 525/2/4 495/2/4 526/2/4
f 526/2/4 495/2/4 527/2/4
f 523/3/4 524/3/4 529/3/4
f 516/3/4 523/3/4 529/3/4
f 524/3/4 519/3/4 530/3/4
f 529/3/4 524/3/4 530/3/4
f 520/3/4 521/3/4 531/3/4
f 531/3/4 521/3/4 532/3/4
f 503/2/4 504/2/4 534/2/4
f 502/2/4 503/2/4 534/2/4
f 534/2/4 504/2/4 535/2/4
f 535/2/4 504/2/4 536/2/4
f 527/2/4 528/2/4 537/2/4
f 526/2/4 527/2/4 537/2/4
f 537/2/4 528/2/4 538/2/4
f 538/2/4 528/2/4 539/2/4
f 534/2/4 535/2/4 542/2/4
f 533/2/4 534/2/4 542/2/4
f 542/2/4 535/2/4 543/2/4
f 543/2/4 535/2/4 544/2/4
f 539/2/4 540/2/4 545/2/4
f 538/2/4 539/2/4 545/2/4
f 542/2/4 543/2/4 546/2/4
f 541/2/4 542/2/4 546/2/4
f 538/2/4 545/2/4 547/2/4
f 545/2/4 546/2/4 547/2/4
f 547/2/4 546/2/4 548/2/4
f 546/2/4 543/2/4 549/2/4
f 548/2/4 546/2/4 549/2/4
f 549/2/4 543/2/4 550/2/4
f 548/2/4 549/2/4 551/2/4
f 551/2/4 549/2/4 552/2/4
f 552/2/4 549/2/4 553/2/4
f 553/2/4 549/2/4 554/2/4
f 552/2/4 553/2/4 555/2/4
f 555/2/4 553/2/4 556/2/4
f 556/2/4 553/2/4 557/2/4
f 557/2/4 553/2/4 558/2/4
f 556/2/4 557/2/4 559/2/4
f 559/2/4 557/2/4 560/2/4
f 563/2/5 562/2/5 561/2/5
f 564/2/5 562/2/5 563/2/5
f 569/2/5 566/2/5 565/2/5
f 570/2/5 566/2/5 569/2/5
f 571/2/5 568/2/5 567/2/5
f 572/2/5 568/2/5 571/2/5
f 577/2/5 574/2/5 573/2/5
f 578/2/5 574/2/5 577/2/5
f 579/2/5 576/2/5 575/2/5
f 580/2/5 576/2/5 579/2/5
f 585/2/5 582/2/5 581/2/5
f 586/2/5 582/2/5 585/2/5
f 587/2/5 584/2/5 583/2/5
f 588/2/5 584/2/5 587/2/5
f 593/2/5 590/2/5 589/2/5
f 594/2/5 590/2/5 593/2/5
f 595/2/5 592/2/5 591/2/5
f 596/2/5 592/2/5 595/2/5
f 603/3/5 600/3/5 599/3/5
f 604/3/5 600/3/5 603/3/5
f 607/2/5 598/2/5 597/2/5
f 608/2/5 598/2/5 607/2/5
f 609/3/5 606/3/5 605/3/5
f 610/3/5 606/3/5 609/3/5
f 611/2/5 602/2/5 601/2/5
f 612/2/5 602/2/5 611/2/5
f 617/3/5 614/3/5 613/3/5
f 618/3/5 614/3/5 617/3/5
f 619/3/5 616/3/5 615/3/5
f 620/3/5 616/3/5 619/3/5
f 625/3/5 622/3/5 621/3/5
f 626/3/5 622/3/5 625/3/5
f 627/3/5 624/3/5 623/3/5
f 628/3/5 624/3/5 627/3/5
f 633/3/5 630/3/5 629/3/5
f 634/3/5 630/3/5 633/3/5
f 635/3/5 632/3/5 631/3/5
f 636/3/5 632/3/5 635/3/5
f 641/3/5 638/3/5 637/3/5
f 642/3/5 638/3/5 641/3/5
f 643/3/5 640/3/5 639/3/5
f 644/3/5 640/3/5 643/3/5
f 651/2/5 646/2/5 645/2/5
f 652/2/5 646/2/5 651/2/5
f 653/3/5 648/3/5 647/3/5
f 654/3/5 648/3/5 653/3/5
f 655/3/5 650/3/5 649/3/5
f 656/3/5 650/3/5 655/3/5
f 663/2/5 658/2/5 657/2/5
f 664/2/5 658/2/5 663/2/5
f 665/3/5 660/3/5 659/3/5
f 666/3/5 660/3/5 665/3/5
f 667/3/5 662/3/5 661/3/5
f 668/3/5 662/3/5 667/3/5
f 671/2/5 670/2/5 669/2/5
f 672/2/5 670/2/5 671/2/5
f 675/2/5 674/2/5 673/2/5
f 676/2/5 674/2/5 675/2/5
f 681/2/5 678/2/5 677/2/5
f 682/2/5 678/2/5 681/2/5
f 683/2/5 680/2/5 679/2/5
f 684/2/5 680/2/5 683/2/5
f 689/2/5 686/2/5 685/2/5
f 690/2/5 686/2/5 689/2/5
f 691/2/5 688/2/5 687/2/5
f 692/2/5 688/2/5 691/2/5
f 695/2/5 694/2/5 693/2/5
f 696/2/5 694/2/5 695/2/5
f 699/2/5 698/2/5 697/2/5
f 700/2/5 698/2/5 699/2/5
f 701/2/6 702/2/6 703/2/6
f 703/2/6 702/2/6 704/2/6
f 705/2/6 706/2/6 707/2/6
f 707/2/6 706/2/6 708/2/6
f 709/2/6 710/2/6 713/2/6
f 713/2/6 710/2/6 714/2/6
f 711/2/6 712/2/6 715/2/6
f 715/2/6 712/2/6 716/2/6
f 717/2/6 718/2/6 721/2/6
f 721/2/6 718/2/6 722/2/6
f 719/2/6 720/2/6 723/2/6
f 723/2/6 720/2/6 724/2/6
f 725/2/6 726/2/6 727/2/6
f 727/2/6 726/2/6 728/2/6
f 729/2/6 730/2/6 731/2/6
f 731/2/6 730/2/6 732/2/6
f 733/2/6 734/2/6 739/2/6
f 739/2/6 734/2/6 740/2/6
f 735/3/6 736/3/6 741/3/6
f 741/3/6 736/3/6 742/3/6
f 737/3/6 738/3/6 743/3/6
f 743/3/6 738/3/6 744/3/6
f 745/2/6 746/2/6 751/2/6
f 751/2/6 746/2/6 752/2/6
f 747/3/6 748/3/6 753/3/6
f 753/3/6 748/3/6 754/3/6
f 749/3/6 750/3/6 755/3/6
f 755/3/6 750/3/6 756/3/6
f 757/3/6 758/3/6 761/3/6
f 761/3/6 758/3/6 762/3/6
f 759/3/6 760/3/6 763/3/6
f 763/3/6 760/3/6 764/3/6
f 765/3/6 766/3/6 769/3/6
f 769/3/6 766/3/6 770/3/6
f 767/3/6 768/3/6 771/3/6
f 771/3/6 768/3/6 772/3/6
f 773/3/6 774/3/6 777/3/6
f 777/3/6 774/3/6 778/3/6
f 775/3/6 776/3/6 779/3/6
f 779/3/6 776/3/6 780/3/6
f 781/3/6 782/3/6 785/3/6
f 785/3/6 782/3/6 786/3/6
f 783/3/6 784/3/6 787/3/6
f 787/3/6 784/3/6 788/3/6
f 791/3/6 792/3/6 795/3/6
f 795/3/6 792/3/6 796/3/6
f 789/2/6 790/2/6 799/2/6
f 799/2/6 790/2/6 800/2/6
f 797/3/6 798/3/6 801/3/6
f 801/3/6 798/3/6 802/3/6
f 793/2/6 794/2/6 803/2/6
f 803/2/6 794/2/6 804/2/6
f 805/2/6 806/2/6 809/2/6
f 809/2/6 806/2/6 810/2/6
f 807/2/6 808/2/6 811/2/6
f 811/2/6 808/2/6 812/2/6
f 813/2/6 814/2/6 817/2/6
f 817/2/6 814/2/6 818/2/6
f 815/2/6 816/2/6 819/2/6
f 819/2/6 816/2/6 820/2/6
f 821/2/6 822/2/6 825/2/6
f 825/2/6 822/2/6 826/2/6
f 823/2/6 824/2/6 827/2/6
f 827/2/6 824/2/6 828/2/6
f 829/2/6 830/2/6 833/2/6
f 833/2/6 830/2/6 834/2/6
f 831/2/6 832/2/6 835/2/6
f 835/2/6 832/2/6 836/2/6
f 837/2/6 838/2/6 839/2/6
f 839/2/6 838/2/6 840/2/6
