# MagicaVoxel @ Ephtracy

# group
g Arrow

# material
mtllib Arrow.mtl
usemtl palette

# normals
vn -1 0 0
vn 1 0 0
vn 0 0 1
vn 0 0 -1
vn 0 -1 0
vn 0 1 0

# texcoords
vt 0.146484 0.5
vt 0.310547 0.5
vt 0.962891 0.5

# verts
v -2 5 21
v -2 5 19
v -2 5 -19
v -2 5 -20
v -2 5 -22
v -2 5 -23
v -2 5 -25
v -2 5 -26
v -2 5 -28
v -2 5 -29
v -2 7 21
v -2 7 19
v -2 7 -19
v -2 7 -20
v -2 7 -22
v -2 7 -23
v -2 7 -25
v -2 7 -26
v -2 7 -28
v -2 7 -29
v -1 5 22
v -1 5 21
v -1 5 -18
v -1 5 -19
v -1 5 -21
v -1 5 -22
v -1 5 -24
v -1 5 -25
v -1 5 -27
v -1 5 -28
v -1 7 22
v -1 7 21
v -1 7 -18
v -1 7 -19
v -1 7 -21
v -1 7 -22
v -1 7 -24
v -1 7 -25
v -1 7 -27
v -1 7 -28
v 0 5 23
v 0 5 22
v 0 5 19
v 0 5 18
v 0 5 17
v 0 5 -17
v 0 5 -18
v 0 5 -20
v 0 5 -21
v 0 5 -23
v 0 5 -24
v 0 5 -26
v 0 5 -27
v 0 7 23
v 0 7 22
v 0 7 19
v 0 7 18
v 0 7 17
v 0 7 -17
v 0 7 -18
v 0 7 -20
v 0 7 -21
v 0 7 -23
v 0 7 -24
v 0 7 -26
v 0 7 -27
v 1 4 18
v 1 4 17
v 1 5 24
v 1 5 23
v 1 5 18
v 1 5 17
v 1 5 -17
v 1 5 -18
v 1 5 -20
v 1 5 -21
v 1 5 -23
v 1 5 -24
v 1 5 -26
v 1 7 24
v 1 7 23
v 1 7 18
v 1 7 17
v 1 7 -17
v 1 7 -18
v 1 7 -20
v 1 7 -21
v 1 7 -23
v 1 7 -24
v 1 7 -26
v 1 8 18
v 1 8 17
v 3 5 -18
v 3 5 -19
v 3 5 -21
v 3 5 -22
v 3 5 -24
v 3 5 -25
v 3 5 -27
v 3 5 -28
v 3 7 -18
v 3 7 -19
v 3 7 -21
v 3 7 -22
v 3 7 -24
v 3 7 -25
v 3 7 -27
v 3 7 -28
v 4 5 -19
v 4 5 -20
v 4 5 -22
v 4 5 -23
v 4 5 -25
v 4 5 -26
v 4 5 -28
v 4 5 -29
v 4 7 -19
v 4 7 -20
v 4 7 -22
v 4 7 -23
v 4 7 -25
v 4 7 -26
v 4 7 -28
v 4 7 -29
v -1 5 -19
v -1 5 -20
v -1 5 -22
v -1 5 -23
v -1 5 -25
v -1 5 -26
v -1 5 -28
v -1 5 -29
v -1 7 -19
v -1 7 -20
v -1 7 -22
v -1 7 -23
v -1 7 -25
v -1 7 -26
v -1 7 -28
v -1 7 -29
v 0 5 -18
v 0 5 -19
v 0 5 -21
v 0 5 -22
v 0 5 -24
v 0 5 -25
v 0 5 -27
v 0 5 -28
v 0 7 -18
v 0 7 -19
v 0 7 -21
v 0 7 -22
v 0 7 -24
v 0 7 -25
v 0 7 -27
v 0 7 -28
v 2 4 18
v 2 4 17
v 2 5 24
v 2 5 23
v 2 5 18
v 2 5 17
v 2 5 -17
v 2 5 -18
v 2 5 -20
v 2 5 -21
v 2 5 -23
v 2 5 -24
v 2 5 -26
v 2 7 24
v 2 7 23
v 2 7 18
v 2 7 17
v 2 7 -17
v 2 7 -18
v 2 7 -20
v 2 7 -21
v 2 7 -23
v 2 7 -24
v 2 7 -26
v 2 8 18
v 2 8 17
v 3 5 23
v 3 5 22
v 3 5 19
v 3 5 18
v 3 5 17
v 3 5 -17
v 3 5 -18
v 3 5 -20
v 3 5 -21
v 3 5 -23
v 3 5 -24
v 3 5 -26
v 3 5 -27
v 3 7 23
v 3 7 22
v 3 7 19
v 3 7 18
v 3 7 17
v 3 7 -17
v 3 7 -18
v 3 7 -20
v 3 7 -21
v 3 7 -23
v 3 7 -24
v 3 7 -26
v 3 7 -27
v 4 5 22
v 4 5 21
v 4 5 -18
v 4 5 -19
v 4 5 -21
v 4 5 -22
v 4 5 -24
v 4 5 -25
v 4 5 -27
v 4 5 -28
v 4 7 22
v 4 7 21
v 4 7 -18
v 4 7 -19
v 4 7 -21
v 4 7 -22
v 4 7 -24
v 4 7 -25
v 4 7 -27
v 4 7 -28
v 5 5 21
v 5 5 19
v 5 5 -19
v 5 5 -20
v 5 5 -22
v 5 5 -23
v 5 5 -25
v 5 5 -26
v 5 5 -28
v 5 5 -29
v 5 7 21
v 5 7 19
v 5 7 -19
v 5 7 -20
v 5 7 -22
v 5 7 -23
v 5 7 -25
v 5 7 -26
v 5 7 -28
v 5 7 -29
v 1 5 24
v 1 7 24
v 2 5 24
v 2 7 24
v 0 5 23
v 0 7 23
v 1 5 23
v 1 7 23
v 2 5 23
v 2 7 23
v 3 5 23
v 3 7 23
v -1 5 22
v -1 7 22
v 0 5 22
v 0 7 22
v 3 5 22
v 3 7 22
v 4 5 22
v 4 7 22
v -2 5 21
v -2 7 21
v -1 5 21
v -1 7 21
v 4 5 21
v 4 7 21
v 5 5 21
v 5 7 21
v 1 4 18
v 1 5 18
v 1 7 18
v 1 8 18
v 2 4 18
v 2 5 18
v 2 7 18
v 2 8 18
v 0 5 -17
v 0 7 -17
v 1 5 -17
v 1 7 -17
v 2 5 -17
v 2 7 -17
v 3 5 -17
v 3 7 -17
v -1 5 -18
v -1 7 -18
v 0 5 -18
v 0 7 -18
v 3 5 -18
v 3 7 -18
v 4 5 -18
v 4 7 -18
v -2 5 -19
v -2 7 -19
v -1 5 -19
v -1 7 -19
v 4 5 -19
v 4 7 -19
v 5 5 -19
v 5 7 -19
v 0 5 -20
v 0 7 -20
v 1 5 -20
v 1 7 -20
v 2 5 -20
v 2 7 -20
v 3 5 -20
v 3 7 -20
v -1 5 -21
v -1 7 -21
v 0 5 -21
v 0 7 -21
v 3 5 -21
v 3 7 -21
v 4 5 -21
v 4 7 -21
v -2 5 -22
v -2 7 -22
v -1 5 -22
v -1 7 -22
v 4 5 -22
v 4 7 -22
v 5 5 -22
v 5 7 -22
v 0 5 -23
v 0 7 -23
v 1 5 -23
v 1 7 -23
v 2 5 -23
v 2 7 -23
v 3 5 -23
v 3 7 -23
v -1 5 -24
v -1 7 -24
v 0 5 -24
v 0 7 -24
v 3 5 -24
v 3 7 -24
v 4 5 -24
v 4 7 -24
v -2 5 -25
v -2 7 -25
v -1 5 -25
v -1 7 -25
v 4 5 -25
v 4 7 -25
v 5 5 -25
v 5 7 -25
v 0 5 -26
v 0 7 -26
v 1 5 -26
v 1 7 -26
v 2 5 -26
v 2 7 -26
v 3 5 -26
v 3 7 -26
v -1 5 -27
v -1 7 -27
v 0 5 -27
v 0 7 -27
v 3 5 -27
v 3 7 -27
v 4 5 -27
v 4 7 -27
v -2 5 -28
v -2 7 -28
v -1 5 -28
v -1 7 -28
v 4 5 -28
v 4 7 -28
v 5 5 -28
v 5 7 -28
v -2 5 19
v -2 7 19
v 0 5 19
v 0 7 19
v 3 5 19
v 3 7 19
v 5 5 19
v 5 7 19
v 0 5 17
v 0 7 17
v 1 4 17
v 1 5 17
v 1 7 17
v 1 8 17
v 2 4 17
v 2 5 17
v 2 7 17
v 2 8 17
v 3 5 17
v 3 7 17
v 0 5 -18
v 0 7 -18
v 1 5 -18
v 1 7 -18
v 2 5 -18
v 2 7 -18
v 3 5 -18
v 3 7 -18
v -1 5 -19
v -1 7 -19
v 0 5 -19
v 0 7 -19
v 3 5 -19
v 3 7 -19
v 4 5 -19
v 4 7 -19
v -2 5 -20
v -2 7 -20
v -1 5 -20
v -1 7 -20
v 4 5 -20
v 4 7 -20
v 5 5 -20
v 5 7 -20
v 0 5 -21
v 0 7 -21
v 1 5 -21
v 1 7 -21
v 2 5 -21
v 2 7 -21
v 3 5 -21
v 3 7 -21
v -1 5 -22
v -1 7 -22
v 0 5 -22
v 0 7 -22
v 3 5 -22
v 3 7 -22
v 4 5 -22
v 4 7 -22
v -2 5 -23
v -2 7 -23
v -1 5 -23
v -1 7 -23
v 4 5 -23
v 4 7 -23
v 5 5 -23
v 5 7 -23
v 0 5 -24
v 0 7 -24
v 1 5 -24
v 1 7 -24
v 2 5 -24
v 2 7 -24
v 3 5 -24
v 3 7 -24
v -1 5 -25
v -1 7 -25
v 0 5 -25
v 0 7 -25
v 3 5 -25
v 3 7 -25
v 4 5 -25
v 4 7 -25
v -2 5 -26
v -2 7 -26
v -1 5 -26
v -1 7 -26
v 4 5 -26
v 4 7 -26
v 5 5 -26
v 5 7 -26
v 0 5 -27
v 0 7 -27
v 1 5 -27
v 1 7 -27
v 2 5 -27
v 2 7 -27
v 3 5 -27
v 3 7 -27
v -1 5 -28
v -1 7 -28
v 0 5 -28
v 0 7 -28
v 3 5 -28
v 3 7 -28
v 4 5 -28
v 4 7 -28
v -2 5 -29
v -2 7 -29
v -1 5 -29
v -1 7 -29
v 4 5 -29
v 4 7 -29
v 5 5 -29
v 5 7 -29
v 1 4 18
v 2 4 18
v 1 4 17
v 2 4 17
v 1 5 24
v 2 5 24
v 0 5 23
v 1 5 23
v 2 5 23
v 3 5 23
v -1 5 22
v 0 5 22
v 3 5 22
v 4 5 22
v -2 5 21
v -1 5 21
v 4 5 21
v 5 5 21
v -2 5 19
v 0 5 19
v 3 5 19
v 5 5 19
v 0 5 18
v 1 5 18
v 2 5 18
v 3 5 18
v 0 5 17
v 1 5 17
v 2 5 17
v 3 5 17
v 0 5 -17
v 1 5 -17
v 2 5 -17
v 3 5 -17
v -1 5 -18
v 0 5 -18
v 1 5 -18
v 2 5 -18
v 3 5 -18
v 4 5 -18
v -2 5 -19
v -1 5 -19
v 0 5 -19
v 3 5 -19
v 4 5 -19
v 5 5 -19
v -2 5 -20
v -1 5 -20
v 0 5 -20
v 1 5 -20
v 2 5 -20
v 3 5 -20
v 4 5 -20
v 5 5 -20
v -1 5 -21
v 0 5 -21
v 1 5 -21
v 2 5 -21
v 3 5 -21
v 4 5 -21
v -2 5 -22
v -1 5 -22
v 0 5 -22
v 3 5 -22
v 4 5 -22
v 5 5 -22
v -2 5 -23
v -1 5 -23
v 0 5 -23
v 1 5 -23
v 2 5 -23
v 3 5 -23
v 4 5 -23
v 5 5 -23
v -1 5 -24
v 0 5 -24
v 1 5 -24
v 2 5 -24
v 3 5 -24
v 4 5 -24
v -2 5 -25
v -1 5 -25
v 0 5 -25
v 3 5 -25
v 4 5 -25
v 5 5 -25
v -2 5 -26
v -1 5 -26
v 0 5 -26
v 1 5 -26
v 2 5 -26
v 3 5 -26
v 4 5 -26
v 5 5 -26
v -1 5 -27
v 0 5 -27
v 1 5 -27
v 2 5 -27
v 3 5 -27
v 4 5 -27
v -2 5 -28
v -1 5 -28
v 0 5 -28
v 3 5 -28
v 4 5 -28
v 5 5 -28
v -2 5 -29
v -1 5 -29
v 4 5 -29
v 5 5 -29
v 1 7 24
v 2 7 24
v 0 7 23
v 1 7 23
v 2 7 23
v 3 7 23
v -1 7 22
v 0 7 22
v 3 7 22
v 4 7 22
v -2 7 21
v -1 7 21
v 4 7 21
v 5 7 21
v -2 7 19
v 0 7 19
v 3 7 19
v 5 7 19
v 0 7 18
v 1 7 18
v 2 7 18
v 3 7 18
v 0 7 17
v 1 7 17
v 2 7 17
v 3 7 17
v 0 7 -17
v 1 7 -17
v 2 7 -17
v 3 7 -17
v -1 7 -18
v 0 7 -18
v 1 7 -18
v 2 7 -18
v 3 7 -18
v 4 7 -18
v -2 7 -19
v -1 7 -19
v 0 7 -19
v 3 7 -19
v 4 7 -19
v 5 7 -19
v -2 7 -20
v -1 7 -20
v 0 7 -20
v 1 7 -20
v 2 7 -20
v 3 7 -20
v 4 7 -20
v 5 7 -20
v -1 7 -21
v 0 7 -21
v 1 7 -21
v 2 7 -21
v 3 7 -21
v 4 7 -21
v -2 7 -22
v -1 7 -22
v 0 7 -22
v 3 7 -22
v 4 7 -22
v 5 7 -22
v -2 7 -23
v -1 7 -23
v 0 7 -23
v 1 7 -23
v 2 7 -23
v 3 7 -23
v 4 7 -23
v 5 7 -23
v -1 7 -24
v 0 7 -24
v 1 7 -24
v 2 7 -24
v 3 7 -24
v 4 7 -24
v -2 7 -25
v -1 7 -25
v 0 7 -25
v 3 7 -25
v 4 7 -25
v 5 7 -25
v -2 7 -26
v -1 7 -26
v 0 7 -26
v 1 7 -26
v 2 7 -26
v 3 7 -26
v 4 7 -26
v 5 7 -26
v -1 7 -27
v 0 7 -27
v 1 7 -27
v 2 7 -27
v 3 7 -27
v 4 7 -27
v -2 7 -28
v -1 7 -28
v 0 7 -28
v 3 7 -28
v 4 7 -28
v 5 7 -28
v -2 7 -29
v -1 7 -29
v 4 7 -29
v 5 7 -29
v 1 8 18
v 2 8 18
v 1 8 17
v 2 8 17

# faces
f 11/3/1 2/3/1 1/3/1
f 12/3/1 2/3/1 11/3/1
f 13/3/1 4/3/1 3/3/1
f 14/3/1 4/3/1 13/3/1
f 15/3/1 6/3/1 5/3/1
f 16/3/1 6/3/1 15/3/1
f 17/3/1 8/3/1 7/3/1
f 18/3/1 8/3/1 17/3/1
f 19/3/1 10/3/1 9/3/1
f 20/3/1 10/3/1 19/3/1
f 31/3/1 22/3/1 21/3/1
f 32/3/1 22/3/1 31/3/1
f 33/3/1 24/3/1 23/3/1
f 34/3/1 24/3/1 33/3/1
f 35/3/1 26/3/1 25/3/1
f 36/3/1 26/3/1 35/3/1
f 37/3/1 28/3/1 27/3/1
f 38/3/1 28/3/1 37/3/1
f 39/3/1 30/3/1 29/3/1
f 40/3/1 30/3/1 39/3/1
f 54/3/1 42/3/1 41/3/1
f 55/3/1 42/3/1 54/3/1
f 56/3/1 44/3/1 43/3/1
f 57/1/1 45/1/1 44/1/1
f 57/3/1 44/3/1 56/3/1
f 58/1/1 45/1/1 57/1/1
f 59/3/1 47/3/1 46/3/1
f 60/3/1 47/3/1 59/3/1
f 61/3/1 49/3/1 48/3/1
f 62/3/1 49/3/1 61/3/1
f 63/3/1 51/3/1 50/3/1
f 64/3/1 51/3/1 63/3/1
f 65/3/1 53/3/1 52/3/1
f 66/3/1 53/3/1 65/3/1
f 71/1/1 68/1/1 67/1/1
f 72/1/1 68/1/1 71/1/1
f 80/3/1 70/3/1 69/3/1
f 81/3/1 70/3/1 80/3/1
f 83/2/1 73/2/1 72/2/1
f 84/2/1 73/2/1 83/2/1
f 85/2/1 75/2/1 74/2/1
f 86/2/1 75/2/1 85/2/1
f 87/2/1 77/2/1 76/2/1
f 88/2/1 77/2/1 87/2/1
f 89/2/1 79/2/1 78/2/1
f 90/2/1 79/2/1 89/2/1
f 91/1/1 83/1/1 82/1/1
f 92/1/1 83/1/1 91/1/1
f 101/3/1 94/3/1 93/3/1
f 102/3/1 94/3/1 101/3/1
f 103/3/1 96/3/1 95/3/1
f 104/3/1 96/3/1 103/3/1
f 105/3/1 98/3/1 97/3/1
f 106/3/1 98/3/1 105/3/1
f 107/3/1 100/3/1 99/3/1
f 108/3/1 100/3/1 107/3/1
f 117/3/1 110/3/1 109/3/1
f 118/3/1 110/3/1 117/3/1
f 119/3/1 112/3/1 111/3/1
f 120/3/1 112/3/1 119/3/1
f 121/3/1 114/3/1 113/3/1
f 122/3/1 114/3/1 121/3/1
f 123/3/1 116/3/1 115/3/1
f 124/3/1 116/3/1 123/3/1
f 125/3/2 126/3/2 133/3/2
f 133/3/2 126/3/2 134/3/2
f 127/3/2 128/3/2 135/3/2
f 135/3/2 128/3/2 136/3/2
f 129/3/2 130/3/2 137/3/2
f 137/3/2 130/3/2 138/3/2
f 131/3/2 132/3/2 139/3/2
f 139/3/2 132/3/2 140/3/2
f 141/3/2 142/3/2 149/3/2
f 149/3/2 142/3/2 150/3/2
f 143/3/2 144/3/2 151/3/2
f 151/3/2 144/3/2 152/3/2
f 145/3/2 146/3/2 153/3/2
f 153/3/2 146/3/2 154/3/2
f 147/3/2 148/3/2 155/3/2
f 155/3/2 148/3/2 156/3/2
f 157/1/2 158/1/2 161/1/2
f 161/1/2 158/1/2 162/1/2
f 159/3/2 160/3/2 170/3/2
f 170/3/2 160/3/2 171/3/2
f 162/2/2 163/2/2 173/2/2
f 173/2/2 163/2/2 174/2/2
f 164/2/2 165/2/2 175/2/2
f 175/2/2 165/2/2 176/2/2
f 166/2/2 167/2/2 177/2/2
f 177/2/2 167/2/2 178/2/2
f 168/2/2 169/2/2 179/2/2
f 179/2/2 169/2/2 180/2/2
f 172/1/2 173/1/2 181/1/2
f 181/1/2 173/1/2 182/1/2
f 183/3/2 184/3/2 196/3/2
f 196/3/2 184/3/2 197/3/2
f 185/3/2 186/3/2 198/3/2
f 186/1/2 187/1/2 199/1/2
f 198/3/2 186/3/2 199/3/2
f 199/1/2 187/1/2 200/1/2
f 188/3/2 189/3/2 201/3/2
f 201/3/2 189/3/2 202/3/2
f 190/3/2 191/3/2 203/3/2
f 203/3/2 191/3/2 204/3/2
f 192/3/2 193/3/2 205/3/2
f 205/3/2 193/3/2 206/3/2
f 194/3/2 195/3/2 207/3/2
f 207/3/2 195/3/2 208/3/2
f 209/3/2 210/3/2 219/3/2
f 219/3/2 210/3/2 220/3/2
f 211/3/2 212/3/2 221/3/2
f 221/3/2 212/3/2 222/3/2
f 213/3/2 214/3/2 223/3/2
f 223/3/2 214/3/2 224/3/2
f 215/3/2 216/3/2 225/3/2
f 225/3/2 216/3/2 226/3/2
f 217/3/2 218/3/2 227/3/2
f 227/3/2 218/3/2 228/3/2
f 229/3/2 230/3/2 239/3/2
f 239/3/2 230/3/2 240/3/2
f 231/3/2 232/3/2 241/3/2
f 241/3/2 232/3/2 242/3/2
f 233/3/2 234/3/2 243/3/2
f 243/3/2 234/3/2 244/3/2
f 235/3/2 236/3/2 245/3/2
f 245/3/2 236/3/2 246/3/2
f 237/3/2 238/3/2 247/3/2
f 247/3/2 238/3/2 248/3/2
f 251/3/3 250/3/3 249/3/3
f 252/3/3 250/3/3 251/3/3
f 255/3/3 254/3/3 253/3/3
f 256/3/3 254/3/3 255/3/3
f 259/3/3 258/3/3 257/3/3
f 260/3/3 258/3/3 259/3/3
f 263/3/3 262/3/3 261/3/3
f 264/3/3 262/3/3 263/3/3
f 267/3/3 266/3/3 265/3/3
f 268/3/3 266/3/3 267/3/3
f 271/3/3 270/3/3 269/3/3
f 272/3/3 270/3/3 271/3/3
f 275/3/3 274/3/3 273/3/3
f 276/3/3 274/3/3 275/3/3
f 281/1/3 278/1/3 277/1/3
f 282/1/3 278/1/3 281/1/3
f 283/1/3 280/1/3 279/1/3
f 284/1/3 280/1/3 283/1/3
f 287/3/3 286/3/3 285/3/3
f 288/3/3 286/3/3 287/3/3
f 291/3/3 290/3/3 289/3/3
f 292/3/3 290/3/3 291/3/3
f 295/3/3 294/3/3 293/3/3
f 296/3/3 294/3/3 295/3/3
f 299/3/3 298/3/3 297/3/3
f 300/3/3 298/3/3 299/3/3
f 303/3/3 302/3/3 301/3/3
f 304/3/3 302/3/3 303/3/3
f 307/3/3 306/3/3 305/3/3
f 308/3/3 306/3/3 307/3/3
f 311/3/3 310/3/3 309/3/3
f 312/3/3 310/3/3 311/3/3
f 315/3/3 314/3/3 313/3/3
f 316/3/3 314/3/3 315/3/3
f 319/3/3 318/3/3 317/3/3
f 320/3/3 318/3/3 319/3/3
f 323/3/3 322/3/3 321/3/3
f 324/3/3 322/3/3 323/3/3
f 327/3/3 326/3/3 325/3/3
f 328/3/3 326/3/3 327/3/3
f 331/3/3 330/3/3 329/3/3
f 332/3/3 330/3/3 331/3/3
f 335/3/3 334/3/3 333/3/3
f 336/3/3 334/3/3 335/3/3
f 339/3/3 338/3/3 337/3/3
f 340/3/3 338/3/3 339/3/3
f 343/3/3 342/3/3 341/3/3
f 344/3/3 342/3/3 343/3/3
f 347/3/3 346/3/3 345/3/3
f 348/3/3 346/3/3 347/3/3
f 351/3/3 350/3/3 349/3/3
f 352/3/3 350/3/3 351/3/3
f 355/3/3 354/3/3 353/3/3
f 356/3/3 354/3/3 355/3/3
f 359/3/3 358/3/3 357/3/3
f 360/3/3 358/3/3 359/3/3
f 363/3/3 362/3/3 361/3/3
f 364/3/3 362/3/3 363/3/3
f 367/3/3 366/3/3 365/3/3
f 368/3/3 366/3/3 367/3/3
f 371/3/3 370/3/3 369/3/3
f 372/3/3 370/3/3 371/3/3
f 375/3/3 374/3/3 373/3/3
f 376/3/3 374/3/3 375/3/3
f 379/3/3 378/3/3 377/3/3
f 380/3/3 378/3/3 379/3/3
f 381/3/4 382/3/4 383/3/4
f 383/3/4 382/3/4 384/3/4
f 385/3/4 386/3/4 387/3/4
f 387/3/4 386/3/4 388/3/4
f 389/1/4 390/1/4 392/1/4
f 392/1/4 390/1/4 393/1/4
f 391/1/4 392/1/4 395/1/4
f 395/1/4 392/1/4 396/1/4
f 393/1/4 394/1/4 397/1/4
f 397/1/4 394/1/4 398/1/4
f 396/1/4 397/1/4 399/1/4
f 399/1/4 397/1/4 400/1/4
f 401/3/4 402/3/4 403/3/4
f 403/3/4 402/3/4 404/3/4
f 405/3/4 406/3/4 407/3/4
f 407/3/4 406/3/4 408/3/4
f 409/3/4 410/3/4 411/3/4
f 411/3/4 410/3/4 412/3/4
f 413/3/4 414/3/4 415/3/4
f 415/3/4 414/3/4 416/3/4
f 417/3/4 418/3/4 419/3/4
f 419/3/4 418/3/4 420/3/4
f 421/3/4 422/3/4 423/3/4
f 423/3/4 422/3/4 424/3/4
f 425/3/4 426/3/4 427/3/4
f 427/3/4 426/3/4 428/3/4
f 429/3/4 430/3/4 431/3/4
f 431/3/4 430/3/4 432/3/4
f 433/3/4 434/3/4 435/3/4
f 435/3/4 434/3/4 436/3/4
f 437/3/4 438/3/4 439/3/4
f 439/3/4 438/3/4 440/3/4
f 441/3/4 442/3/4 443/3/4
f 443/3/4 442/3/4 444/3/4
f 445/3/4 446/3/4 447/3/4
f 447/3/4 446/3/4 448/3/4
f 449/3/4 450/3/4 451/3/4
f 451/3/4 450/3/4 452/3/4
f 453/3/4 454/3/4 455/3/4
f 455/3/4 454/3/4 456/3/4
f 457/3/4 458/3/4 459/3/4
f 459/3/4 458/3/4 460/3/4
f 461/3/4 462/3/4 463/3/4
f 463/3/4 462/3/4 464/3/4
f 465/3/4 466/3/4 467/3/4
f 467/3/4 466/3/4 468/3/4
f 469/3/4 470/3/4 471/3/4
f 471/3/4 470/3/4 472/3/4
f 473/3/4 474/3/4 475/3/4
f 475/3/4 474/3/4 476/3/4
f 475/2/4 476/2/4 477/2/4
f 477/2/4 476/2/4 478/2/4
f 477/3/4 478/3/4 479/3/4
f 479/3/4 478/3/4 480/3/4
f 481/3/4 482/3/4 483/3/4
f 483/3/4 482/3/4 484/3/4
f 485/3/4 486/3/4 487/3/4
f 487/3/4 486/3/4 488/3/4
f 489/3/4 490/3/4 491/3/4
f 491/3/4 490/3/4 492/3/4
f 493/3/4 494/3/4 495/3/4
f 495/3/4 494/3/4 496/3/4
f 499/1/5 498/1/5 497/1/5
f 500/1/5 498/1/5 499/1/5
f 504/3/5 502/3/5 501/3/5
f 505/3/5 502/3/5 504/3/5
f 508/3/5 504/3/5 503/3/5
f 508/3/5 506/3/5 505/3/5
f 508/3/5 505/3/5 504/3/5
f 509/3/5 506/3/5 508/3/5
f 512/3/5 508/3/5 507/3/5
f 512/3/5 510/3/5 509/3/5
f 512/3/5 509/3/5 508/3/5
f 513/3/5 510/3/5 512/3/5
f 515/3/5 512/3/5 511/3/5
f 515/3/5 514/3/5 513/3/5
f 515/3/5 513/3/5 512/3/5
f 516/3/5 514/3/5 515/3/5
f 517/3/5 514/3/5 516/3/5
f 518/3/5 514/3/5 517/3/5
f 519/3/5 517/3/5 516/3/5
f 520/3/5 517/3/5 519/3/5
f 521/3/5 517/3/5 520/3/5
f 522/3/5 517/3/5 521/3/5
f 523/1/5 520/1/5 519/1/5
f 524/1/5 520/1/5 523/1/5
f 525/1/5 522/1/5 521/1/5
f 526/1/5 522/1/5 525/1/5
f 528/2/5 525/2/5 524/2/5
f 529/2/5 525/2/5 528/2/5
f 532/3/5 528/3/5 527/3/5
f 533/2/5 529/2/5 528/2/5
f 533/3/5 528/3/5 532/3/5
f 534/3/5 530/3/5 529/3/5
f 534/2/5 529/2/5 533/2/5
f 535/3/5 530/3/5 534/3/5
f 538/3/5 532/3/5 531/3/5
f 539/3/5 532/3/5 538/3/5
f 540/3/5 536/3/5 535/3/5
f 541/3/5 536/3/5 540/3/5
f 543/3/5 538/3/5 537/3/5
f 544/3/5 538/3/5 543/3/5
f 546/2/5 534/2/5 533/2/5
f 547/2/5 534/2/5 546/2/5
f 549/3/5 542/3/5 541/3/5
f 550/3/5 542/3/5 549/3/5
f 552/3/5 546/3/5 545/3/5
f 553/2/5 547/2/5 546/2/5
f 553/3/5 546/3/5 552/3/5
f 554/3/5 548/3/5 547/3/5
f 554/2/5 547/2/5 553/2/5
f 555/3/5 548/3/5 554/3/5
f 558/3/5 552/3/5 551/3/5
f 559/3/5 552/3/5 558/3/5
f 560/3/5 556/3/5 555/3/5
f 561/3/5 556/3/5 560/3/5
f 563/3/5 558/3/5 557/3/5
f 564/3/5 558/3/5 563/3/5
f 566/2/5 554/2/5 553/2/5
f 567/2/5 554/2/5 566/2/5
f 569/3/5 562/3/5 561/3/5
f 570/3/5 562/3/5 569/3/5
f 572/3/5 566/3/5 565/3/5
f 573/2/5 567/2/5 566/2/5
f 573/3/5 566/3/5 572/3/5
f 574/3/5 568/3/5 567/3/5
f 574/2/5 567/2/5 573/2/5
f 575/3/5 568/3/5 574/3/5
f 578/3/5 572/3/5 571/3/5
f 579/3/5 572/3/5 578/3/5
f 580/3/5 576/3/5 575/3/5
f 581/3/5 576/3/5 580/3/5
f 583/3/5 578/3/5 577/3/5
f 584/3/5 578/3/5 583/3/5
f 586/2/5 574/2/5 573/2/5
f 587/2/5 574/2/5 586/2/5
f 589/3/5 582/3/5 581/3/5
f 590/3/5 582/3/5 589/3/5
f 592/3/5 586/3/5 585/3/5
f 593/2/5 587/2/5 586/2/5
f 593/3/5 586/3/5 592/3/5
f 594/3/5 588/3/5 587/3/5
f 594/2/5 587/2/5 593/2/5
f 595/3/5 588/3/5 594/3/5
f 598/3/5 592/3/5 591/3/5
f 599/3/5 592/3/5 598/3/5
f 600/3/5 596/3/5 595/3/5
f 601/3/5 596/3/5 600/3/5
f 603/3/5 598/3/5 597/3/5
f 604/3/5 598/3/5 603/3/5
f 605/3/5 602/3/5 601/3/5
f 606/3/5 602/3/5 605/3/5
f 607/3/6 608/3/6 610/3/6
f 610/3/6 608/3/6 611/3/6
f 609/3/6 610/3/6 614/3/6
f 611/3/6 612/3/6 614/3/6
f 610/3/6 611/3/6 614/3/6
f 614/3/6 612/3/6 615/3/6
f 613/3/6 614/3/6 618/3/6
f 615/3/6 616/3/6 618/3/6
f 614/3/6 615/3/6 618/3/6
f 618/3/6 616/3/6 619/3/6
f 617/3/6 618/3/6 621/3/6
f 619/3/6 620/3/6 621/3/6
f 618/3/6 619/3/6 621/3/6
f 621/3/6 620/3/6 622/3/6
f 622/3/6 620/3/6 623/3/6
f 623/3/6 620/3/6 624/3/6
f 622/3/6 623/3/6 625/3/6
f 625/3/6 623/3/6 626/3/6
f 626/3/6 623/3/6 627/3/6
f 627/3/6 623/3/6 628/3/6
f 625/1/6 626/1/6 629/1/6
f 629/1/6 626/1/6 630/1/6
f 627/1/6 628/1/6 631/1/6
f 631/1/6 628/1/6 632/1/6
f 630/2/6 631/2/6 634/2/6
f 634/2/6 631/2/6 635/2/6
f 633/3/6 634/3/6 638/3/6
f 634/2/6 635/2/6 639/2/6
f 638/3/6 634/3/6 639/3/6
f 635/3/6 636/3/6 640/3/6
f 639/2/6 635/2/6 640/2/6
f 640/3/6 636/3/6 641/3/6
f 637/3/6 638/3/6 644/3/6
f 644/3/6 638/3/6 645/3/6
f 641/3/6 642/3/6 646/3/6
f 646/3/6 642/3/6 647/3/6
f 643/3/6 644/3/6 649/3/6
f 649/3/6 644/3/6 650/3/6
f 639/2/6 640/2/6 652/2/6
f 652/2/6 640/2/6 653/2/6
f 647/3/6 648/3/6 655/3/6
f 655/3/6 648/3/6 656/3/6
f 651/3/6 652/3/6 658/3/6
f 652/2/6 653/2/6 659/2/6
f 658/3/6 652/3/6 659/3/6
f 653/3/6 654/3/6 660/3/6
f 659/2/6 653/2/6 660/2/6
f 660/3/6 654/3/6 661/3/6
f 657/3/6 658/3/6 664/3/6
f 664/3/6 658/3/6 665/3/6
f 661/3/6 662/3/6 666/3/6
f 666/3/6 662/3/6 667/3/6
f 663/3/6 664/3/6 669/3/6
f 669/3/6 664/3/6 670/3/6
f 659/2/6 660/2/6 672/2/6
f 672/2/6 660/2/6 673/2/6
f 667/3/6 668/3/6 675/3/6
f 675/3/6 668/3/6 676/3/6
f 671/3/6 672/3/6 678/3/6
f 672/2/6 673/2/6 679/2/6
f 678/3/6 672/3/6 679/3/6
f 673/3/6 674/3/6 680/3/6
f 679/2/6 673/2/6 680/2/6
f 680/3/6 674/3/6 681/3/6
f 677/3/6 678/3/6 684/3/6
f 684/3/6 678/3/6 685/3/6
f 681/3/6 682/3/6 686/3/6
f 686/3/6 682/3/6 687/3/6
f 683/3/6 684/3/6 689/3/6
f 689/3/6 684/3/6 690/3/6
f 679/2/6 680/2/6 692/2/6
f 692/2/6 680/2/6 693/2/6
f 687/3/6 688/3/6 695/3/6
f 695/3/6 688/3/6 696/3/6
f 691/3/6 692/3/6 698/3/6
f 692/2/6 693/2/6 699/2/6
f 698/3/6 692/3/6 699/3/6
f 693/3/6 694/3/6 700/3/6
f 699/2/6 693/2/6 700/2/6
f 700/3/6 694/3/6 701/3/6
f 697/3/6 698/3/6 704/3/6
f 704/3/6 698/3/6 705/3/6
f 701/3/6 702/3/6 706/3/6
f 706/3/6 702/3/6 707/3/6
f 703/3/6 704/3/6 709/3/6
f 709/3/6 704/3/6 710/3/6
f 707/3/6 708/3/6 711/3/6
f 711/3/6 708/3/6 712/3/6
f 713/1/6 714/1/6 715/1/6
f 715/1/6 714/1/6 716/1/6
