# MagicaVoxel @ Ephtracy

# group
g Kid1

# material
mtllib Kid1.mtl
usemtl palette

# normals
vn -1 0 0
vn 1 0 0
vn 0 0 1
vn 0 0 -1
vn 0 -1 0
vn 0 1 0

# texcoords
vt 0.0332031 0.5
vt 0.255859 0.5
vt 0.751953 0.5
vt 0.986328 0.5

# verts
v -15.5 15 3
v -15.5 15 -0
v -15.5 18 3
v -15.5 18 -0
v -9.5 26 5
v -9.5 26 -0
v -9.5 28 -0
v -9.5 28 -2
v -9.5 30 5
v -9.5 30 4
v -9.5 33 4
v -9.5 33 -2
v -8.5 24 4
v -8.5 24 -2
v -8.5 26 4
v -8.5 26 -0
v -8.5 28 -0
v -8.5 28 -2
v -8.5 31 6
v -8.5 31 4
v -8.5 32 6
v -8.5 32 4
v -7.5 20 4
v -7.5 20 -1
v -7.5 20 -2
v -7.5 24 4
v -7.5 24 -1
v -7.5 24 -2
v -6.5 7 3
v -6.5 7 -0
v -6.5 15 3
v -6.5 15 -0
v -6.5 32 5
v -6.5 32 4
v -6.5 33 5
v -6.5 33 4
v -6.5 33 -2
v -6.5 34 5
v -6.5 34 4
v -6.5 35 5
v -6.5 35 -2
v -5.5 0 2
v -5.5 0 -0
v -5.5 1 2
v -5.5 1 -0
v -5.5 7 2
v -5.5 7 -0
v -5.5 29 6
v -5.5 29 5
v -5.5 30 6
v -5.5 30 5
v -5.5 30 4
v -5.5 31 5
v -5.5 31 4
v -4.5 33 5
v -4.5 33 4
v -4.5 34 5
v -4.5 34 4
v -1.5 18 2
v -1.5 18 1
v -1.5 20 2
v -1.5 20 1
v 2.5 0 2
v 2.5 0 -0
v 2.5 1 2
v 2.5 1 -0
v 2.5 7 2
v 2.5 7 -0
v 7.5 26 5
v 7.5 26 4
v 7.5 29 5
v 7.5 29 4
v -8.5 26 5
v -8.5 26 4
v -8.5 28 5
v -8.5 28 4
v -2.5 0 2
v -2.5 0 -0
v -2.5 1 2
v -2.5 1 -0
v -2.5 7 2
v -2.5 7 -0
v 1.5 18 2
v 1.5 18 1
v 1.5 20 2
v 1.5 20 1
v 1.5 31 6
v 1.5 31 5
v 1.5 32 6
v 1.5 32 5
v 1.5 34 5
v 1.5 34 4
v 1.5 35 5
v 1.5 35 4
v 2.5 28 5
v 2.5 28 4
v 2.5 29 6
v 2.5 29 5
v 2.5 29 4
v 2.5 30 6
v 2.5 30 5
v 3.5 33 5
v 3.5 33 4
v 3.5 34 5
v 3.5 34 4
v 4.5 31 5
v 4.5 31 4
v 4.5 32 5
v 4.5 32 4
v 5.5 0 2
v 5.5 0 -0
v 5.5 1 2
v 5.5 1 -0
v 5.5 7 2
v 5.5 7 -0
v 5.5 33 4
v 5.5 33 -2
v 5.5 35 4
v 5.5 35 -2
v 6.5 7 3
v 6.5 7 -0
v 6.5 15 3
v 6.5 15 -0
v 6.5 20 -1
v 6.5 20 -2
v 6.5 22 -1
v 6.5 22 -2
v 7.5 20 4
v 7.5 20 -1
v 7.5 22 -1
v 7.5 24 4
v 7.5 24 -1
v 8.5 22 -1
v 8.5 22 -2
v 8.5 24 4
v 8.5 24 -1
v 8.5 26 5
v 8.5 26 4
v 8.5 31 5
v 8.5 31 4
v 8.5 32 5
v 8.5 32 4
v 8.5 33 5
v 8.5 33 -2
v 15.5 15 3
v 15.5 15 -0
v 15.5 18 3
v 15.5 18 -0
v -8.5 31 6
v -8.5 32 6
v -5.5 29 6
v -5.5 30 6
v 1.5 31 6
v 1.5 32 6
v 2.5 29 6
v 2.5 30 6
v -9.5 26 5
v -9.5 30 5
v -8.5 26 5
v -8.5 28 5
v -6.5 32 5
v -6.5 33 5
v -6.5 34 5
v -6.5 35 5
v -5.5 29 5
v -5.5 30 5
v -5.5 31 5
v -4.5 33 5
v -4.5 34 5
v 1.5 31 5
v 1.5 32 5
v 1.5 34 5
v 1.5 35 5
v 2.5 28 5
v 2.5 29 5
v 2.5 30 5
v 3.5 33 5
v 3.5 34 5
v 4.5 31 5
v 4.5 32 5
v 7.5 26 5
v 7.5 29 5
v 8.5 26 5
v 8.5 31 5
v 8.5 32 5
v 8.5 33 5
v -9.5 30 4
v -9.5 33 4
v -8.5 24 4
v -8.5 26 4
v -8.5 28 4
v -8.5 31 4
v -8.5 32 4
v -7.5 20 4
v -7.5 24 4
v -7.5 28 4
v -6.5 32 4
v -6.5 33 4
v -6.5 34 4
v -5.5 30 4
v -5.5 31 4
v -4.5 33 4
v -4.5 34 4
v -3.5 24 4
v -3.5 27 4
v -2.5 21 4
v -2.5 22 4
v -2.5 24 4
v -2.5 27 4
v -1.5 21 4
v -1.5 22 4
v 1.5 24 4
v 1.5 27 4
v 1.5 34 4
v 1.5 35 4
v 2.5 24 4
v 2.5 27 4
v 2.5 28 4
v 2.5 29 4
v 3.5 33 4
v 3.5 34 4
v 4.5 31 4
v 4.5 32 4
v 5.5 28 4
v 5.5 29 4
v 5.5 33 4
v 5.5 35 4
v 6.5 25 4
v 6.5 28 4
v 7.5 20 4
v 7.5 24 4
v 7.5 25 4
v 7.5 26 4
v 7.5 29 4
v 8.5 24 4
v 8.5 26 4
v 8.5 31 4
v 8.5 32 4
v -15.5 15 3
v -15.5 18 3
v -9.5 15 3
v -9.5 18 3
v -8.5 15 3
v -8.5 18 3
v -6.5 7 3
v -6.5 15 3
v -3.5 17 3
v -3.5 18 3
v -2.5 16 3
v -2.5 17 3
v 2.5 16 3
v 2.5 17 3
v 3.5 17 3
v 3.5 18 3
v 6.5 7 3
v 6.5 15 3
v 8.5 15 3
v 8.5 18 3
v 9.5 15 3
v 9.5 18 3
v 15.5 15 3
v 15.5 18 3
v -5.5 0 2
v -5.5 1 2
v -5.5 7 2
v -2.5 0 2
v -2.5 1 2
v -2.5 7 2
v -1.5 18 2
v -1.5 20 2
v 1.5 18 2
v 1.5 20 2
v 2.5 0 2
v 2.5 1 2
v 2.5 7 2
v 5.5 0 2
v 5.5 1 2
v 5.5 7 2
v 7.5 22 -1
v 7.5 24 -1
v 8.5 22 -1
v 8.5 24 -1
v -1.5 18 1
v -1.5 20 1
v 1.5 18 1
v 1.5 20 1
v -15.5 15 -0
v -15.5 18 -0
v -9.5 15 -0
v -9.5 18 -0
v -9.5 26 -0
v -9.5 28 -0
v -8.5 15 -0
v -8.5 18 -0
v -8.5 26 -0
v -8.5 28 -0
v -6.5 7 -0
v -6.5 15 -0
v -5.5 0 -0
v -5.5 1 -0
v -5.5 7 -0
v -2.5 0 -0
v -2.5 1 -0
v -2.5 7 -0
v 2.5 0 -0
v 2.5 1 -0
v 2.5 7 -0
v 5.5 0 -0
v 5.5 1 -0
v 5.5 7 -0
v 6.5 7 -0
v 6.5 15 -0
v 8.5 15 -0
v 8.5 18 -0
v 9.5 15 -0
v 9.5 18 -0
v 15.5 15 -0
v 15.5 18 -0
v 6.5 20 -1
v 6.5 22 -1
v 7.5 20 -1
v 7.5 22 -1
v -9.5 28 -2
v -9.5 33 -2
v -8.5 24 -2
v -8.5 28 -2
v -7.5 20 -2
v -7.5 24 -2
v -6.5 33 -2
v -6.5 35 -2
v 5.5 33 -2
v 5.5 35 -2
v 6.5 20 -2
v 6.5 22 -2
v 8.5 22 -2
v 8.5 33 -2
v -5.5 0 2
v -2.5 0 2
v 2.5 0 2
v 5.5 0 2
v -5.5 0 -0
v -2.5 0 -0
v 2.5 0 -0
v 5.5 0 -0
v -6.5 7 3
v 6.5 7 3
v -5.5 7 2
v -2.5 7 2
v 2.5 7 2
v 5.5 7 2
v -6.5 7 -0
v -5.5 7 -0
v -2.5 7 -0
v 2.5 7 -0
v 5.5 7 -0
v 6.5 7 -0
v -15.5 15 3
v -9.5 15 3
v -8.5 15 3
v -6.5 15 3
v 6.5 15 3
v 8.5 15 3
v 9.5 15 3
v 15.5 15 3
v -15.5 15 -0
v -9.5 15 -0
v -8.5 15 -0
v -6.5 15 -0
v 6.5 15 -0
v 8.5 15 -0
v 9.5 15 -0
v 15.5 15 -0
v -7.5 20 4
v 7.5 20 4
v -1.5 20 2
v 1.5 20 2
v -1.5 20 1
v 1.5 20 1
v -7.5 20 -1
v 6.5 20 -1
v 7.5 20 -1
v -7.5 20 -2
v 6.5 20 -2
v 6.5 22 -1
v 7.5 22 -1
v 8.5 22 -1
v 6.5 22 -2
v 8.5 22 -2
v -8.5 24 4
v -7.5 24 4
v 7.5 24 4
v 8.5 24 4
v -7.5 24 -1
v 7.5 24 -1
v 8.5 24 -1
v -8.5 24 -2
v -7.5 24 -2
v -9.5 26 5
v -8.5 26 5
v 7.5 26 5
v 8.5 26 5
v -8.5 26 4
v 7.5 26 4
v 8.5 26 4
v -9.5 26 -0
v -8.5 26 -0
v -8.5 28 5
v 2.5 28 5
v -8.5 28 4
v -7.5 28 4
v 2.5 28 4
v -9.5 28 -0
v -8.5 28 -0
v -9.5 28 -2
v -8.5 28 -2
v -5.5 29 6
v 2.5 29 6
v -5.5 29 5
v 2.5 29 5
v 7.5 29 5
v 2.5 29 4
v 5.5 29 4
v 7.5 29 4
v -8.5 31 6
v 1.5 31 6
v -5.5 31 5
v 1.5 31 5
v -8.5 31 4
v -5.5 31 4
v 4.5 32 5
v 8.5 32 5
v 4.5 32 4
v 8.5 32 4
v -6.5 34 5
v -4.5 34 5
v -6.5 34 4
v -4.5 34 4
v -15.5 18 3
v -9.5 18 3
v -8.5 18 3
v -3.5 18 3
v 3.5 18 3
v 8.5 18 3
v 9.5 18 3
v 15.5 18 3
v -1.5 18 2
v 1.5 18 2
v -3.5 18 1
v -1.5 18 1
v 1.5 18 1
v 3.5 18 1
v -15.5 18 -0
v -9.5 18 -0
v -8.5 18 -0
v 8.5 18 -0
v 9.5 18 -0
v 15.5 18 -0
v -5.5 30 6
v 2.5 30 6
v -9.5 30 5
v -5.5 30 5
v 2.5 30 5
v -9.5 30 4
v -5.5 30 4
v 4.5 31 5
v 8.5 31 5
v 4.5 31 4
v 8.5 31 4
v -8.5 32 6
v 1.5 32 6
v -6.5 32 5
v 1.5 32 5
v -8.5 32 4
v -6.5 32 4
v -6.5 33 5
v -4.5 33 5
v 3.5 33 5
v 8.5 33 5
v -9.5 33 4
v -6.5 33 4
v -4.5 33 4
v 3.5 33 4
v 5.5 33 4
v -9.5 33 -2
v -6.5 33 -2
v 5.5 33 -2
v 8.5 33 -2
v 1.5 34 5
v 3.5 34 5
v 1.5 34 4
v 3.5 34 4
v -6.5 35 5
v 1.5 35 5
v 1.5 35 4
v 5.5 35 4
v -6.5 35 -2
v 5.5 35 -2

# faces
f 3/1/1 2/1/1 1/1/1
f 4/1/1 2/1/1 3/1/1
f 7/4/1 6/4/1 5/4/1
f 9/4/1 7/4/1 5/4/1
f 9/4/1 8/4/1 7/4/1
f 10/4/1 8/4/1 9/4/1
f 11/4/1 8/4/1 10/4/1
f 12/4/1 8/4/1 11/4/1
f 15/4/1 14/4/1 13/4/1
f 16/4/1 14/4/1 15/4/1
f 17/4/1 14/4/1 16/4/1
f 18/4/1 14/4/1 17/4/1
f 21/4/1 20/4/1 19/4/1
f 22/4/1 20/4/1 21/4/1
f 26/1/1 24/1/1 23/1/1
f 27/4/1 25/4/1 24/4/1
f 27/1/1 24/1/1 26/1/1
f 28/4/1 25/4/1 27/4/1
f 31/3/1 30/3/1 29/3/1
f 32/3/1 30/3/1 31/3/1
f 35/4/1 34/4/1 33/4/1
f 36/4/1 34/4/1 35/4/1
f 39/4/1 37/4/1 36/4/1
f 40/4/1 39/4/1 38/4/1
f 41/4/1 37/4/1 39/4/1
f 41/4/1 39/4/1 40/4/1
f 44/1/1 43/1/1 42/1/1
f 45/1/1 43/1/1 44/1/1
f 46/2/1 45/2/1 44/2/1
f 47/2/1 45/2/1 46/2/1
f 50/4/1 49/4/1 48/4/1
f 51/4/1 49/4/1 50/4/1
f 53/4/1 52/4/1 51/4/1
f 54/4/1 52/4/1 53/4/1
f 57/4/1 56/4/1 55/4/1
f 58/4/1 56/4/1 57/4/1
f 61/1/1 60/1/1 59/1/1
f 62/1/1 60/1/1 61/1/1
f 65/1/1 64/1/1 63/1/1
f 66/1/1 64/1/1 65/1/1
f 67/2/1 66/2/1 65/2/1
f 68/2/1 66/2/1 67/2/1
f 71/4/1 70/4/1 69/4/1
f 72/4/1 70/4/1 71/4/1
f 73/4/2 74/4/2 75/4/2
f 75/4/2 74/4/2 76/4/2
f 77/1/2 78/1/2 79/1/2
f 79/1/2 78/1/2 80/1/2
f 79/2/2 80/2/2 81/2/2
f 81/2/2 80/2/2 82/2/2
f 83/1/2 84/1/2 85/1/2
f 85/1/2 84/1/2 86/1/2
f 87/4/2 88/4/2 89/4/2
f 89/4/2 88/4/2 90/4/2
f 91/4/2 92/4/2 93/4/2
f 93/4/2 92/4/2 94/4/2
f 95/4/2 96/4/2 98/4/2
f 98/4/2 96/4/2 99/4/2
f 97/4/2 98/4/2 100/4/2
f 100/4/2 98/4/2 101/4/2
f 102/4/2 103/4/2 104/4/2
f 104/4/2 103/4/2 105/4/2
f 106/4/2 107/4/2 108/4/2
f 108/4/2 107/4/2 109/4/2
f 110/1/2 111/1/2 112/1/2
f 112/1/2 111/1/2 113/1/2
f 112/2/2 113/2/2 114/2/2
f 114/2/2 113/2/2 115/2/2
f 116/4/2 117/4/2 118/4/2
f 118/4/2 117/4/2 119/4/2
f 120/3/2 121/3/2 122/3/2
f 122/3/2 121/3/2 123/3/2
f 124/4/2 125/4/2 126/4/2
f 126/4/2 125/4/2 127/4/2
f 128/1/2 129/1/2 130/1/2
f 128/1/2 130/1/2 131/1/2
f 131/1/2 130/1/2 132/1/2
f 133/4/2 134/4/2 136/4/2
f 135/4/2 136/4/2 138/4/2
f 137/4/2 138/4/2 139/4/2
f 138/4/2 136/4/2 140/4/2
f 139/4/2 138/4/2 140/4/2
f 140/4/2 136/4/2 142/4/2
f 141/4/2 142/4/2 143/4/2
f 136/4/2 134/4/2 144/4/2
f 143/4/2 142/4/2 144/4/2
f 142/4/2 136/4/2 144/4/2
f 145/1/2 146/1/2 147/1/2
f 147/1/2 146/1/2 148/1/2
f 153/4/3 150/4/3 149/4/3
f 154/4/3 150/4/3 153/4/3
f 155/4/3 152/4/3 151/4/3
f 156/4/3 152/4/3 155/4/3
f 159/4/3 158/4/3 157/4/3
f 160/4/3 158/4/3 159/4/3
f 165/4/3 158/4/3 160/4/3
f 166/4/3 158/4/3 165/4/3
f 168/4/3 162/4/3 161/4/3
f 169/4/3 164/4/3 163/4/3
f 170/4/3 167/4/3 166/4/3
f 171/4/3 168/4/3 161/4/3
f 171/4/3 169/4/3 168/4/3
f 172/4/3 164/4/3 169/4/3
f 172/4/3 169/4/3 171/4/3
f 173/4/3 164/4/3 172/4/3
f 174/4/3 165/4/3 160/4/3
f 175/4/3 165/4/3 174/4/3
f 176/4/3 170/4/3 166/4/3
f 176/4/3 171/4/3 170/4/3
f 176/4/3 172/4/3 171/4/3
f 177/4/3 176/4/3 175/4/3
f 177/4/3 172/4/3 176/4/3
f 178/4/3 172/4/3 177/4/3
f 179/4/3 177/4/3 175/4/3
f 180/4/3 177/4/3 179/4/3
f 182/4/3 179/4/3 175/4/3
f 183/4/3 182/4/3 181/4/3
f 184/4/3 179/4/3 182/4/3
f 184/4/3 182/4/3 183/4/3
f 185/4/3 177/4/3 180/4/3
f 186/4/3 177/4/3 185/4/3
f 192/4/3 188/4/3 187/4/3
f 193/4/3 188/4/3 192/4/3
f 195/4/3 191/4/3 190/4/3
f 195/4/3 190/4/3 189/4/3
f 196/4/3 191/4/3 195/4/3
f 197/4/3 188/4/3 193/4/3
f 198/4/3 188/4/3 197/4/3
f 200/4/3 192/4/3 187/4/3
f 201/4/3 192/4/3 200/4/3
f 202/4/3 199/4/3 198/4/3
f 203/4/3 199/4/3 202/4/3
f 204/1/3 196/1/3 195/1/3
f 204/1/3 195/1/3 194/1/3
f 205/1/3 196/1/3 204/1/3
f 206/1/3 204/1/3 194/1/3
f 207/1/3 204/1/3 206/1/3
f 208/4/3 205/4/3 204/4/3
f 208/1/3 204/1/3 207/1/3
f 209/1/3 196/1/3 205/1/3
f 209/4/3 205/4/3 208/4/3
f 210/4/3 207/4/3 206/4/3
f 210/1/3 206/1/3 194/1/3
f 211/1/3 208/1/3 207/1/3
f 211/4/3 207/4/3 210/4/3
f 211/1/3 209/1/3 208/1/3
f 212/1/3 211/1/3 210/1/3
f 212/1/3 209/1/3 211/1/3
f 213/1/3 196/1/3 209/1/3
f 213/1/3 209/1/3 212/1/3
f 216/1/3 212/1/3 210/1/3
f 216/4/3 213/4/3 212/4/3
f 217/1/3 196/1/3 213/1/3
f 217/4/3 213/4/3 216/4/3
f 218/1/3 196/1/3 217/1/3
f 221/4/3 215/4/3 214/4/3
f 224/1/3 219/1/3 218/1/3
f 224/1/3 217/1/3 216/1/3
f 224/1/3 218/1/3 217/1/3
f 225/1/3 219/1/3 224/1/3
f 226/4/3 221/4/3 220/4/3
f 227/4/3 215/4/3 221/4/3
f 227/4/3 221/4/3 226/4/3
f 228/1/3 224/1/3 216/1/3
f 229/4/3 225/4/3 224/4/3
f 229/1/3 224/1/3 228/1/3
f 230/1/3 216/1/3 210/1/3
f 230/1/3 210/1/3 194/1/3
f 230/1/3 228/1/3 216/1/3
f 231/1/3 228/1/3 230/1/3
f 232/4/3 229/4/3 228/4/3
f 232/1/3 228/1/3 231/1/3
f 233/4/3 229/4/3 232/4/3
f 234/4/3 225/4/3 229/4/3
f 234/4/3 229/4/3 233/4/3
f 235/4/3 233/4/3 232/4/3
f 235/4/3 232/4/3 231/4/3
f 236/4/3 233/4/3 235/4/3
f 237/4/3 223/4/3 222/4/3
f 238/4/3 223/4/3 237/4/3
f 241/1/3 240/1/3 239/1/3
f 242/1/3 240/1/3 241/1/3
f 243/2/3 242/2/3 241/2/3
f 244/2/3 242/2/3 243/2/3
f 246/3/3 244/3/3 243/3/3
f 247/3/3 244/3/3 246/3/3
f 247/3/3 246/3/3 245/3/3
f 248/3/3 244/3/3 247/3/3
f 249/3/3 247/3/3 245/3/3
f 250/1/3 248/1/3 247/1/3
f 250/3/3 247/3/3 249/3/3
f 251/3/3 249/3/3 245/3/3
f 251/1/3 250/1/3 249/1/3
f 252/1/3 248/1/3 250/1/3
f 252/1/3 250/1/3 251/1/3
f 253/3/3 252/3/3 251/3/3
f 253/1/3 248/1/3 252/1/3
f 254/1/3 248/1/3 253/1/3
f 255/3/3 251/3/3 245/3/3
f 255/3/3 253/3/3 251/3/3
f 255/3/3 254/3/3 253/3/3
f 256/3/3 254/3/3 255/3/3
f 257/3/3 254/3/3 256/3/3
f 258/3/3 254/3/3 257/3/3
f 259/2/3 258/2/3 257/2/3
f 260/2/3 258/2/3 259/2/3
f 261/1/3 260/1/3 259/1/3
f 262/1/3 260/1/3 261/1/3
f 266/1/3 264/1/3 263/1/3
f 267/2/3 265/2/3 264/2/3
f 267/1/3 264/1/3 266/1/3
f 268/2/3 265/2/3 267/2/3
f 271/1/3 270/1/3 269/1/3
f 272/1/3 270/1/3 271/1/3
f 276/1/3 274/1/3 273/1/3
f 277/2/3 275/2/3 274/2/3
f 277/1/3 274/1/3 276/1/3
f 278/2/3 275/2/3 277/2/3
f 281/4/3 280/4/3 279/4/3
f 282/4/3 280/4/3 281/4/3
f 283/1/4 284/1/4 285/1/4
f 285/1/4 284/1/4 286/1/4
f 287/1/4 288/1/4 289/1/4
f 289/1/4 288/1/4 290/1/4
f 289/2/4 290/2/4 293/2/4
f 293/2/4 290/2/4 294/2/4
f 291/4/4 292/4/4 295/4/4
f 295/4/4 292/4/4 296/4/4
f 293/3/4 294/3/4 298/3/4
f 297/3/4 298/3/4 301/3/4
f 299/1/4 300/1/4 302/1/4
f 300/2/4 301/2/4 303/2/4
f 302/1/4 300/1/4 303/1/4
f 301/3/4 298/3/4 304/3/4
f 303/2/4 301/2/4 304/2/4
f 304/3/4 298/3/4 307/3/4
f 305/1/4 306/1/4 308/1/4
f 306/2/4 307/2/4 309/2/4
f 308/1/4 306/1/4 309/1/4
f 307/3/4 298/3/4 310/3/4
f 309/2/4 307/2/4 310/2/4
f 310/3/4 298/3/4 311/3/4
f 298/3/4 294/3/4 312/3/4
f 311/3/4 298/3/4 312/3/4
f 312/3/4 294/3/4 313/3/4
f 313/3/4 294/3/4 314/3/4
f 313/2/4 314/2/4 315/2/4
f 315/2/4 314/2/4 316/2/4
f 315/1/4 316/1/4 317/1/4
f 317/1/4 316/1/4 318/1/4
f 319/1/4 320/1/4 321/1/4
f 321/1/4 320/1/4 322/1/4
f 323/4/4 324/4/4 326/4/4
f 325/4/4 326/4/4 328/4/4
f 326/4/4 324/4/4 329/4/4
f 327/4/4 328/4/4 329/4/4
f 328/4/4 326/4/4 329/4/4
f 327/4/4 329/4/4 331/4/4
f 329/4/4 330/4/4 331/4/4
f 331/4/4 330/4/4 332/4/4
f 327/4/4 331/4/4 333/4/4
f 333/4/4 331/4/4 334/4/4
f 334/4/4 331/4/4 335/4/4
f 335/4/4 331/4/4 336/4/4
f 341/1/5 338/1/5 337/1/5
f 342/1/5 338/1/5 341/1/5
f 343/1/5 340/1/5 339/1/5
f 344/1/5 340/1/5 343/1/5
f 347/3/5 346/3/5 345/3/5
f 348/3/5 346/3/5 347/3/5
f 349/3/5 346/3/5 348/3/5
f 350/3/5 346/3/5 349/3/5
f 351/3/5 347/3/5 345/3/5
f 352/3/5 347/3/5 351/3/5
f 353/3/5 349/3/5 348/3/5
f 354/3/5 349/3/5 353/3/5
f 355/3/5 346/3/5 350/3/5
f 356/3/5 346/3/5 355/3/5
f 365/1/5 358/1/5 357/1/5
f 366/2/5 359/2/5 358/2/5
f 366/1/5 358/1/5 365/1/5
f 367/3/5 360/3/5 359/3/5
f 367/2/5 359/2/5 366/2/5
f 368/3/5 360/3/5 367/3/5
f 369/3/5 362/3/5 361/3/5
f 370/2/5 363/2/5 362/2/5
f 370/3/5 362/3/5 369/3/5
f 371/1/5 364/1/5 363/1/5
f 371/2/5 363/2/5 370/2/5
f 372/1/5 364/1/5 371/1/5
f 375/1/5 374/1/5 373/1/5
f 376/1/5 374/1/5 375/1/5
f 377/1/5 375/1/5 373/1/5
f 378/1/5 374/1/5 376/1/5
f 379/1/5 377/1/5 373/1/5
f 379/1/5 378/1/5 377/1/5
f 380/1/5 374/1/5 378/1/5
f 380/1/5 378/1/5 379/1/5
f 381/1/5 374/1/5 380/1/5
f 382/4/5 380/4/5 379/4/5
f 383/4/5 380/4/5 382/4/5
f 387/4/5 385/4/5 384/4/5
f 387/4/5 386/4/5 385/4/5
f 388/4/5 386/4/5 387/4/5
f 393/4/5 390/4/5 389/4/5
f 394/4/5 392/4/5 391/4/5
f 395/4/5 392/4/5 394/4/5
f 396/4/5 393/4/5 389/4/5
f 397/4/5 393/4/5 396/4/5
f 402/4/5 399/4/5 398/4/5
f 403/4/5 401/4/5 400/4/5
f 404/4/5 401/4/5 403/4/5
f 405/4/5 402/4/5 398/4/5
f 406/4/5 402/4/5 405/4/5
f 409/4/5 408/4/5 407/4/5
f 410/4/5 408/4/5 409/4/5
f 411/4/5 408/4/5 410/4/5
f 414/4/5 413/4/5 412/4/5
f 415/4/5 413/4/5 414/4/5
f 418/4/5 417/4/5 416/4/5
f 419/4/5 417/4/5 418/4/5
f 421/4/5 420/4/5 419/4/5
f 422/4/5 420/4/5 421/4/5
f 423/4/5 420/4/5 422/4/5
f 426/4/5 425/4/5 424/4/5
f 427/4/5 425/4/5 426/4/5
f 428/4/5 426/4/5 424/4/5
f 429/4/5 426/4/5 428/4/5
f 432/4/5 431/4/5 430/4/5
f 433/4/5 431/4/5 432/4/5
f 436/4/5 435/4/5 434/4/5
f 437/4/5 435/4/5 436/4/5
f 441/1/6 442/1/6 446/1/6
f 446/1/6 442/1/6 447/1/6
f 440/3/6 441/3/6 448/3/6
f 441/1/6 446/1/6 448/1/6
f 448/1/6 446/1/6 449/1/6
f 447/1/6 442/1/6 450/1/6
f 442/3/6 443/3/6 451/3/6
f 450/1/6 442/1/6 451/1/6
f 438/1/6 439/1/6 452/1/6
f 439/2/6 440/2/6 453/2/6
f 452/1/6 439/1/6 453/1/6
f 448/3/6 449/3/6 454/3/6
f 453/2/6 440/2/6 454/2/6
f 449/3/6 450/3/6 454/3/6
f 450/3/6 451/3/6 454/3/6
f 440/3/6 448/3/6 454/3/6
f 451/3/6 443/3/6 455/3/6
f 454/3/6 451/3/6 455/3/6
f 443/2/6 444/2/6 455/2/6
f 444/1/6 445/1/6 456/1/6
f 455/2/6 444/2/6 456/2/6
f 456/1/6 445/1/6 457/1/6
f 458/4/6 459/4/6 461/4/6
f 461/4/6 459/4/6 462/4/6
f 460/4/6 461/4/6 463/4/6
f 463/4/6 461/4/6 464/4/6
f 465/4/6 466/4/6 467/4/6
f 467/4/6 466/4/6 468/4/6
f 469/4/6 470/4/6 471/4/6
f 471/4/6 470/4/6 472/4/6
f 469/4/6 471/4/6 473/4/6
f 473/4/6 471/4/6 474/4/6
f 475/4/6 476/4/6 480/4/6
f 480/4/6 476/4/6 481/4/6
f 477/4/6 478/4/6 482/4/6
f 482/4/6 478/4/6 483/4/6
f 479/4/6 480/4/6 484/4/6
f 484/4/6 480/4/6 485/4/6
f 483/4/6 478/4/6 486/4/6
f 486/4/6 478/4/6 487/4/6
f 488/4/6 489/4/6 490/4/6
f 490/4/6 489/4/6 491/4/6
f 492/4/6 493/4/6 494/4/6
f 492/4/6 494/4/6 496/4/6
f 494/4/6 495/4/6 496/4/6
f 496/4/6 495/4/6 497/4/6
