# MagicaVoxel @ Ephtracy

# group
g C

# material
mtllib C.mtl
usemtl palette

# normals
vn -1 0 0
vn 1 0 0
vn 0 0 1
vn 0 0 -1
vn 0 -1 0
vn 0 1 0

# texcoords
vt 0.830078 0.5

# verts
v -16 14 5
v -16 14 -5
v -16 26 5
v -16 26 -5
v -15 11 5
v -15 11 -5
v -15 14 5
v -15 14 -5
v -15 26 5
v -15 26 -5
v -15 29 5
v -15 29 -5
v -14 9 5
v -14 9 -5
v -14 11 5
v -14 11 -5
v -14 29 5
v -14 29 -5
v -14 31 5
v -14 31 -5
v -13 7 5
v -13 7 -5
v -13 9 5
v -13 9 -5
v -13 31 5
v -13 31 -5
v -13 33 5
v -13 33 -5
v -12 6 5
v -12 6 -5
v -12 7 5
v -12 7 -5
v -12 33 5
v -12 33 -5
v -12 34 5
v -12 34 -5
v -11 5 5
v -11 5 -5
v -11 6 5
v -11 6 -5
v -11 34 5
v -11 34 -5
v -11 35 5
v -11 35 -5
v -10 4 5
v -10 4 -5
v -10 5 5
v -10 5 -5
v -10 35 5
v -10 35 -5
v -10 36 5
v -10 36 -5
v -8 3 5
v -8 3 -5
v -8 4 5
v -8 4 -5
v -8 36 5
v -8 36 -5
v -8 37 5
v -8 37 -5
v -6 2 5
v -6 2 -5
v -6 3 5
v -6 3 -5
v -6 37 5
v -6 37 -5
v -6 38 5
v -6 38 -5
v -4 1 5
v -4 1 -5
v -4 2 5
v -4 2 -5
v -4 38 5
v -4 38 -5
v -4 39 5
v -4 39 -5
v -2 0 5
v -2 0 -5
v -2 1 5
v -2 1 -5
v -2 39 5
v -2 39 -5
v -2 40 5
v -2 40 -5
v -2 18 5
v -2 18 -5
v -2 22 5
v -2 22 -5
v -1 16 5
v -1 16 -5
v -1 18 5
v -1 18 -5
v -1 22 5
v -1 22 -5
v -1 24 5
v -1 24 -5
v 0 15 5
v 0 15 -5
v 0 16 5
v 0 16 -5
v 0 24 5
v 0 24 -5
v 0 25 5
v 0 25 -5
v 1 14 5
v 1 14 -5
v 1 15 5
v 1 15 -5
v 1 25 5
v 1 25 -5
v 1 26 5
v 1 26 -5
v 4 13 5
v 4 13 -5
v 4 14 5
v 4 14 -5
v 4 26 5
v 4 26 -5
v 4 27 5
v 4 27 -5
v 9 0 5
v 9 0 -5
v 9 1 5
v 9 1 -5
v 9 39 5
v 9 39 -5
v 9 40 5
v 9 40 -5
v 14 1 5
v 14 1 -5
v 14 13 5
v 14 13 -5
v 14 27 5
v 14 27 -5
v 14 39 5
v 14 39 -5
v -16 14 5
v -16 26 5
v -15 11 5
v -15 14 5
v -15 26 5
v -15 29 5
v -14 9 5
v -14 11 5
v -14 29 5
v -14 31 5
v -13 7 5
v -13 9 5
v -13 31 5
v -13 33 5
v -12 6 5
v -12 7 5
v -12 33 5
v -12 34 5
v -11 5 5
v -11 6 5
v -11 34 5
v -11 35 5
v -10 4 5
v -10 5 5
v -10 35 5
v -10 36 5
v -8 3 5
v -8 4 5
v -8 36 5
v -8 37 5
v -6 2 5
v -6 3 5
v -6 37 5
v -6 38 5
v -4 1 5
v -4 2 5
v -4 38 5
v -4 39 5
v -2 0 5
v -2 1 5
v -2 18 5
v -2 22 5
v -2 39 5
v -2 40 5
v -1 16 5
v -1 18 5
v -1 22 5
v -1 24 5
v 0 15 5
v 0 16 5
v 0 24 5
v 0 25 5
v 1 14 5
v 1 15 5
v 1 25 5
v 1 26 5
v 4 13 5
v 4 14 5
v 4 26 5
v 4 27 5
v 9 0 5
v 9 1 5
v 9 39 5
v 9 40 5
v 14 1 5
v 14 13 5
v 14 27 5
v 14 39 5
v -16 14 -5
v -16 26 -5
v -15 11 -5
v -15 14 -5
v -15 26 -5
v -15 29 -5
v -14 9 -5
v -14 11 -5
v -14 29 -5
v -14 31 -5
v -13 7 -5
v -13 9 -5
v -13 31 -5
v -13 33 -5
v -12 6 -5
v -12 7 -5
v -12 33 -5
v -12 34 -5
v -11 5 -5
v -11 6 -5
v -11 34 -5
v -11 35 -5
v -10 4 -5
v -10 5 -5
v -10 35 -5
v -10 36 -5
v -8 3 -5
v -8 4 -5
v -8 36 -5
v -8 37 -5
v -6 2 -5
v -6 3 -5
v -6 37 -5
v -6 38 -5
v -4 1 -5
v -4 2 -5
v -4 38 -5
v -4 39 -5
v -2 0 -5
v -2 1 -5
v -2 18 -5
v -2 22 -5
v -2 39 -5
v -2 40 -5
v -1 16 -5
v -1 18 -5
v -1 22 -5
v -1 24 -5
v 0 15 -5
v 0 16 -5
v 0 24 -5
v 0 25 -5
v 1 14 -5
v 1 15 -5
v 1 25 -5
v 1 26 -5
v 4 13 -5
v 4 14 -5
v 4 26 -5
v 4 27 -5
v 9 0 -5
v 9 1 -5
v 9 39 -5
v 9 40 -5
v 14 1 -5
v 14 13 -5
v 14 27 -5
v 14 39 -5
v -2 0 5
v 9 0 5
v -2 0 -5
v 9 0 -5
v -4 1 5
v -2 1 5
v 9 1 5
v 14 1 5
v -4 1 -5
v -2 1 -5
v 9 1 -5
v 14 1 -5
v -6 2 5
v -4 2 5
v -6 2 -5
v -4 2 -5
v -8 3 5
v -6 3 5
v -8 3 -5
v -6 3 -5
v -10 4 5
v -8 4 5
v -10 4 -5
v -8 4 -5
v -11 5 5
v -10 5 5
v -11 5 -5
v -10 5 -5
v -12 6 5
v -11 6 5
v -12 6 -5
v -11 6 -5
v -13 7 5
v -12 7 5
v -13 7 -5
v -12 7 -5
v -14 9 5
v -13 9 5
v -14 9 -5
v -13 9 -5
v -15 11 5
v -14 11 5
v -15 11 -5
v -14 11 -5
v -16 14 5
v -15 14 5
v -16 14 -5
v -15 14 -5
v -2 22 5
v -1 22 5
v -2 22 -5
v -1 22 -5
v -1 24 5
v 0 24 5
v -1 24 -5
v 0 24 -5
v 0 25 5
v 1 25 5
v 0 25 -5
v 1 25 -5
v 1 26 5
v 4 26 5
v 1 26 -5
v 4 26 -5
v 4 27 5
v 14 27 5
v 4 27 -5
v 14 27 -5
v 4 13 5
v 14 13 5
v 4 13 -5
v 14 13 -5
v 1 14 5
v 4 14 5
v 1 14 -5
v 4 14 -5
v 0 15 5
v 1 15 5
v 0 15 -5
v 1 15 -5
v -1 16 5
v 0 16 5
v -1 16 -5
v 0 16 -5
v -2 18 5
v -1 18 5
v -2 18 -5
v -1 18 -5
v -16 26 5
v -15 26 5
v -16 26 -5
v -15 26 -5
v -15 29 5
v -14 29 5
v -15 29 -5
v -14 29 -5
v -14 31 5
v -13 31 5
v -14 31 -5
v -13 31 -5
v -13 33 5
v -12 33 5
v -13 33 -5
v -12 33 -5
v -12 34 5
v -11 34 5
v -12 34 -5
v -11 34 -5
v -11 35 5
v -10 35 5
v -11 35 -5
v -10 35 -5
v -10 36 5
v -8 36 5
v -10 36 -5
v -8 36 -5
v -8 37 5
v -6 37 5
v -8 37 -5
v -6 37 -5
v -6 38 5
v -4 38 5
v -6 38 -5
v -4 38 -5
v -4 39 5
v -2 39 5
v 9 39 5
v 14 39 5
v -4 39 -5
v -2 39 -5
v 9 39 -5
v 14 39 -5
v -2 40 5
v 9 40 5
v -2 40 -5
v 9 40 -5

# faces
f 3/1/1 2/1/1 1/1/1
f 4/1/1 2/1/1 3/1/1
f 7/1/1 6/1/1 5/1/1
f 8/1/1 6/1/1 7/1/1
f 11/1/1 10/1/1 9/1/1
f 12/1/1 10/1/1 11/1/1
f 15/1/1 14/1/1 13/1/1
f 16/1/1 14/1/1 15/1/1
f 19/1/1 18/1/1 17/1/1
f 20/1/1 18/1/1 19/1/1
f 23/1/1 22/1/1 21/1/1
f 24/1/1 22/1/1 23/1/1
f 27/1/1 26/1/1 25/1/1
f 28/1/1 26/1/1 27/1/1
f 31/1/1 30/1/1 29/1/1
f 32/1/1 30/1/1 31/1/1
f 35/1/1 34/1/1 33/1/1
f 36/1/1 34/1/1 35/1/1
f 39/1/1 38/1/1 37/1/1
f 40/1/1 38/1/1 39/1/1
f 43/1/1 42/1/1 41/1/1
f 44/1/1 42/1/1 43/1/1
f 47/1/1 46/1/1 45/1/1
f 48/1/1 46/1/1 47/1/1
f 51/1/1 50/1/1 49/1/1
f 52/1/1 50/1/1 51/1/1
f 55/1/1 54/1/1 53/1/1
f 56/1/1 54/1/1 55/1/1
f 59/1/1 58/1/1 57/1/1
f 60/1/1 58/1/1 59/1/1
f 63/1/1 62/1/1 61/1/1
f 64/1/1 62/1/1 63/1/1
f 67/1/1 66/1/1 65/1/1
f 68/1/1 66/1/1 67/1/1
f 71/1/1 70/1/1 69/1/1
f 72/1/1 70/1/1 71/1/1
f 75/1/1 74/1/1 73/1/1
f 76/1/1 74/1/1 75/1/1
f 79/1/1 78/1/1 77/1/1
f 80/1/1 78/1/1 79/1/1
f 83/1/1 82/1/1 81/1/1
f 84/1/1 82/1/1 83/1/1
f 85/1/2 86/1/2 87/1/2
f 87/1/2 86/1/2 88/1/2
f 89/1/2 90/1/2 91/1/2
f 91/1/2 90/1/2 92/1/2
f 93/1/2 94/1/2 95/1/2
f 95/1/2 94/1/2 96/1/2
f 97/1/2 98/1/2 99/1/2
f 99/1/2 98/1/2 100/1/2
f 101/1/2 102/1/2 103/1/2
f 103/1/2 102/1/2 104/1/2
f 105/1/2 106/1/2 107/1/2
f 107/1/2 106/1/2 108/1/2
f 109/1/2 110/1/2 111/1/2
f 111/1/2 110/1/2 112/1/2
f 113/1/2 114/1/2 115/1/2
f 115/1/2 114/1/2 116/1/2
f 117/1/2 118/1/2 119/1/2
f 119/1/2 118/1/2 120/1/2
f 121/1/2 122/1/2 123/1/2
f 123/1/2 122/1/2 124/1/2
f 125/1/2 126/1/2 127/1/2
f 127/1/2 126/1/2 128/1/2
f 129/1/2 130/1/2 131/1/2
f 131/1/2 130/1/2 132/1/2
f 133/1/2 134/1/2 135/1/2
f 135/1/2 134/1/2 136/1/2
f 140/1/3 138/1/3 137/1/3
f 141/1/3 138/1/3 140/1/3
f 144/1/3 140/1/3 139/1/3
f 144/1/3 142/1/3 141/1/3
f 144/1/3 141/1/3 140/1/3
f 145/1/3 142/1/3 144/1/3
f 148/1/3 144/1/3 143/1/3
f 148/1/3 146/1/3 145/1/3
f 148/1/3 145/1/3 144/1/3
f 149/1/3 146/1/3 148/1/3
f 152/1/3 148/1/3 147/1/3
f 152/1/3 150/1/3 149/1/3
f 152/1/3 149/1/3 148/1/3
f 153/1/3 150/1/3 152/1/3
f 156/1/3 152/1/3 151/1/3
f 156/1/3 154/1/3 153/1/3
f 156/1/3 153/1/3 152/1/3
f 157/1/3 154/1/3 156/1/3
f 160/1/3 156/1/3 155/1/3
f 160/1/3 158/1/3 157/1/3
f 160/1/3 157/1/3 156/1/3
f 161/1/3 158/1/3 160/1/3
f 164/1/3 160/1/3 159/1/3
f 164/1/3 162/1/3 161/1/3
f 164/1/3 161/1/3 160/1/3
f 165/1/3 162/1/3 164/1/3
f 168/1/3 164/1/3 163/1/3
f 168/1/3 166/1/3 165/1/3
f 168/1/3 165/1/3 164/1/3
f 169/1/3 166/1/3 168/1/3
f 172/1/3 168/1/3 167/1/3
f 172/1/3 170/1/3 169/1/3
f 172/1/3 169/1/3 168/1/3
f 173/1/3 170/1/3 172/1/3
f 176/1/3 172/1/3 171/1/3
f 176/1/3 174/1/3 173/1/3
f 176/1/3 173/1/3 172/1/3
f 177/1/3 174/1/3 176/1/3
f 178/1/3 174/1/3 177/1/3
f 179/1/3 174/1/3 178/1/3
f 181/1/3 176/1/3 175/1/3
f 181/1/3 177/1/3 176/1/3
f 182/1/3 177/1/3 181/1/3
f 183/1/3 180/1/3 179/1/3
f 183/1/3 179/1/3 178/1/3
f 184/1/3 180/1/3 183/1/3
f 185/1/3 181/1/3 175/1/3
f 186/1/3 181/1/3 185/1/3
f 187/1/3 180/1/3 184/1/3
f 188/1/3 180/1/3 187/1/3
f 189/1/3 185/1/3 175/1/3
f 190/1/3 185/1/3 189/1/3
f 191/1/3 180/1/3 188/1/3
f 192/1/3 180/1/3 191/1/3
f 193/1/3 189/1/3 175/1/3
f 194/1/3 189/1/3 193/1/3
f 195/1/3 180/1/3 192/1/3
f 196/1/3 180/1/3 195/1/3
f 197/1/3 193/1/3 175/1/3
f 198/1/3 193/1/3 197/1/3
f 199/1/3 180/1/3 196/1/3
f 200/1/3 180/1/3 199/1/3
f 201/1/3 193/1/3 198/1/3
f 202/1/3 193/1/3 201/1/3
f 203/1/3 199/1/3 196/1/3
f 204/1/3 199/1/3 203/1/3
f 205/1/4 206/1/4 208/1/4
f 208/1/4 206/1/4 209/1/4
f 207/1/4 208/1/4 212/1/4
f 209/1/4 210/1/4 212/1/4
f 208/1/4 209/1/4 212/1/4
f 212/1/4 210/1/4 213/1/4
f 211/1/4 212/1/4 216/1/4
f 213/1/4 214/1/4 216/1/4
f 212/1/4 213/1/4 216/1/4
f 216/1/4 214/1/4 217/1/4
f 215/1/4 216/1/4 220/1/4
f 217/1/4 218/1/4 220/1/4
f 216/1/4 217/1/4 220/1/4
f 220/1/4 218/1/4 221/1/4
f 219/1/4 220/1/4 224/1/4
f 221/1/4 222/1/4 224/1/4
f 220/1/4 221/1/4 224/1/4
f 224/1/4 222/1/4 225/1/4
f 223/1/4 224/1/4 228/1/4
f 225/1/4 226/1/4 228/1/4
f 224/1/4 225/1/4 228/1/4
f 228/1/4 226/1/4 229/1/4
f 227/1/4 228/1/4 232/1/4
f 229/1/4 230/1/4 232/1/4
f 228/1/4 229/1/4 232/1/4
f 232/1/4 230/1/4 233/1/4
f 231/1/4 232/1/4 236/1/4
f 233/1/4 234/1/4 236/1/4
f 232/1/4 233/1/4 236/1/4
f 236/1/4 234/1/4 237/1/4
f 235/1/4 236/1/4 240/1/4
f 237/1/4 238/1/4 240/1/4
f 236/1/4 237/1/4 240/1/4
f 240/1/4 238/1/4 241/1/4
f 239/1/4 240/1/4 244/1/4
f 241/1/4 242/1/4 244/1/4
f 240/1/4 241/1/4 244/1/4
f 244/1/4 242/1/4 245/1/4
f 245/1/4 242/1/4 246/1/4
f 246/1/4 242/1/4 247/1/4
f 243/1/4 244/1/4 249/1/4
f 244/1/4 245/1/4 249/1/4
f 249/1/4 245/1/4 250/1/4
f 247/1/4 248/1/4 251/1/4
f 246/1/4 247/1/4 251/1/4
f 251/1/4 248/1/4 252/1/4
f 243/1/4 249/1/4 253/1/4
f 253/1/4 249/1/4 254/1/4
f 252/1/4 248/1/4 255/1/4
f 255/1/4 248/1/4 256/1/4
f 243/1/4 253/1/4 257/1/4
f 257/1/4 253/1/4 258/1/4
f 256/1/4 248/1/4 259/1/4
f 259/1/4 248/1/4 260/1/4
f 243/1/4 257/1/4 261/1/4
f 261/1/4 257/1/4 262/1/4
f 260/1/4 248/1/4 263/1/4
f 263/1/4 248/1/4 264/1/4
f 243/1/4 261/1/4 265/1/4
f 265/1/4 261/1/4 266/1/4
f 264/1/4 248/1/4 267/1/4
f 267/1/4 248/1/4 268/1/4
f 266/1/4 261/1/4 269/1/4
f 269/1/4 261/1/4 270/1/4
f 264/1/4 267/1/4 271/1/4
f 271/1/4 267/1/4 272/1/4
f 275/1/5 274/1/5 273/1/5
f 276/1/5 274/1/5 275/1/5
f 281/1/5 278/1/5 277/1/5
f 282/1/5 278/1/5 281/1/5
f 283/1/5 280/1/5 279/1/5
f 284/1/5 280/1/5 283/1/5
f 287/1/5 286/1/5 285/1/5
f 288/1/5 286/1/5 287/1/5
f 291/1/5 290/1/5 289/1/5
f 292/1/5 290/1/5 291/1/5
f 295/1/5 294/1/5 293/1/5
f 296/1/5 294/1/5 295/1/5
f 299/1/5 298/1/5 297/1/5
f 300/1/5 298/1/5 299/1/5
f 303/1/5 302/1/5 301/1/5
f 304/1/5 302/1/5 303/1/5
f 307/1/5 306/1/5 305/1/5
f 308/1/5 306/1/5 307/1/5
f 311/1/5 310/1/5 309/1/5
f 312/1/5 310/1/5 311/1/5
f 315/1/5 314/1/5 313/1/5
f 316/1/5 314/1/5 315/1/5
f 319/1/5 318/1/5 317/1/5
f 320/1/5 318/1/5 319/1/5
f 323/1/5 322/1/5 321/1/5
f 324/1/5 322/1/5 323/1/5
f 327/1/5 326/1/5 325/1/5
f 328/1/5 326/1/5 327/1/5
f 331/1/5 330/1/5 329/1/5
f 332/1/5 330/1/5 331/1/5
f 335/1/5 334/1/5 333/1/5
f 336/1/5 334/1/5 335/1/5
f 339/1/5 338/1/5 337/1/5
f 340/1/5 338/1/5 339/1/5
f 341/1/6 342/1/6 343/1/6
f 343/1/6 342/1/6 344/1/6
f 345/1/6 346/1/6 347/1/6
f 347/1/6 346/1/6 348/1/6
f 349/1/6 350/1/6 351/1/6
f 351/1/6 350/1/6 352/1/6
f 353/1/6 354/1/6 355/1/6
f 355/1/6 354/1/6 356/1/6
f 357/1/6 358/1/6 359/1/6
f 359/1/6 358/1/6 360/1/6
f 361/1/6 362/1/6 363/1/6
f 363/1/6 362/1/6 364/1/6
f 365/1/6 366/1/6 367/1/6
f 367/1/6 366/1/6 368/1/6
f 369/1/6 370/1/6 371/1/6
f 371/1/6 370/1/6 372/1/6
f 373/1/6 374/1/6 375/1/6
f 375/1/6 374/1/6 376/1/6
f 377/1/6 378/1/6 379/1/6
f 379/1/6 378/1/6 380/1/6
f 381/1/6 382/1/6 383/1/6
f 383/1/6 382/1/6 384/1/6
f 385/1/6 386/1/6 387/1/6
f 387/1/6 386/1/6 388/1/6
f 389/1/6 390/1/6 391/1/6
f 391/1/6 390/1/6 392/1/6
f 393/1/6 394/1/6 395/1/6
f 395/1/6 394/1/6 396/1/6
f 397/1/6 398/1/6 401/1/6
f 401/1/6 398/1/6 402/1/6
f 399/1/6 400/1/6 403/1/6
f 403/1/6 400/1/6 404/1/6
f 405/1/6 406/1/6 407/1/6
f 407/1/6 406/1/6 408/1/6
