# MagicaVoxel @ Ephtracy

# group
g Tile1

# material
mtllib Tile1.mtl
usemtl palette

# normals
vn -1 0 0
vn 1 0 0
vn 0 0 1
vn 0 0 -1
vn 0 -1 0
vn 0 1 0

# texcoords
vt 0.138672 0.5
vt 0.173828 0.5
vt 0.255859 0.5

# verts
v -11 7 8
v -11 7 -8
v -11 11 8
v -11 11 -8
v -9 7 9
v -9 7 8
v -9 7 -8
v -9 7 -9
v -9 11 9
v -9 11 8
v -9 11 -8
v -9 11 -9
v -8 7 11
v -8 7 9
v -8 7 -9
v -8 7 -11
v -8 11 11
v -8 11 9
v -8 11 -9
v -8 11 -11
v 8 7 11
v 8 7 9
v 8 7 -9
v 8 7 -11
v 8 11 11
v 8 11 9
v 8 11 -9
v 8 11 -11
v 9 7 9
v 9 7 8
v 9 7 -8
v 9 7 -9
v 9 11 9
v 9 11 8
v 9 11 -8
v 9 11 -9
v 11 7 8
v 11 7 -8
v 11 11 8
v 11 11 -8
v -8 7 11
v -8 11 11
v 8 7 11
v 8 11 11
v -9 7 9
v -9 11 9
v -8 7 9
v -8 11 9
v 8 7 9
v 8 11 9
v 9 7 9
v 9 11 9
v -11 7 8
v -11 11 8
v -9 7 8
v -9 11 8
v 9 7 8
v 9 11 8
v 11 7 8
v 11 11 8
v -11 7 -8
v -11 11 -8
v -9 7 -8
v -9 11 -8
v 9 7 -8
v 9 11 -8
v 11 7 -8
v 11 11 -8
v -9 7 -9
v -9 11 -9
v -8 7 -9
v -8 11 -9
v 8 7 -9
v 8 11 -9
v 9 7 -9
v 9 11 -9
v -8 7 -11
v -8 11 -11
v 8 7 -11
v 8 11 -11
v -8 7 11
v 8 7 11
v -9 7 9
v -8 7 9
v -7 7 9
v 7 7 9
v 8 7 9
v 9 7 9
v -11 7 8
v -9 7 8
v -8 7 8
v -7 7 8
v 7 7 8
v 8 7 8
v 9 7 8
v 11 7 8
v -10 7 7
v -8 7 7
v 8 7 7
v 10 7 7
v -10 7 -7
v -8 7 -7
v 8 7 -7
v 10 7 -7
v -11 7 -8
v -9 7 -8
v -8 7 -8
v -7 7 -8
v 7 7 -8
v 8 7 -8
v 9 7 -8
v 11 7 -8
v -9 7 -9
v -8 7 -9
v 8 7 -9
v 9 7 -9
v -7 7 -10
v 7 7 -10
v -8 7 -11
v 8 7 -11
v -8 11 11
v 8 11 11
v -9 11 9
v -8 11 9
v -7 11 9
v 7 11 9
v 8 11 9
v 9 11 9
v -11 11 8
v -9 11 8
v -8 11 8
v -7 11 8
v 7 11 8
v 8 11 8
v 9 11 8
v 11 11 8
v -10 11 7
v -8 11 7
v 8 11 7
v 10 11 7
v 0 11 6
v 1 11 6
v -6 11 5
v -4 11 5
v 0 11 5
v 1 11 5
v -6 11 3
v -4 11 3
v 2 11 2
v 5 11 2
v -9 11 -0
v -8 11 -0
v -9 11 -1
v -8 11 -1
v -3 11 -2
v -1 11 -2
v 2 11 -2
v 5 11 -2
v -3 11 -4
v -1 11 -4
v 7 11 -4
v 8 11 -4
v 0 11 -5
v 1 11 -5
v 7 11 -5
v 8 11 -5
v 0 11 -6
v 1 11 -6
v -10 11 -7
v -8 11 -7
v -5 11 -7
v -4 11 -7
v 8 11 -7
v 10 11 -7
v -11 11 -8
v -9 11 -8
v -8 11 -8
v -7 11 -8
v -5 11 -8
v -4 11 -8
v 7 11 -8
v 8 11 -8
v 9 11 -8
v 11 11 -8
v -9 11 -9
v -8 11 -9
v 8 11 -9
v 9 11 -9
v -7 11 -10
v 7 11 -10
v -8 11 -11
v 8 11 -11

# faces
f 3/2/1 2/2/1 1/2/1
f 4/2/1 2/2/1 3/2/1
f 9/2/1 6/2/1 5/2/1
f 10/2/1 6/2/1 9/2/1
f 11/2/1 8/2/1 7/2/1
f 12/2/1 8/2/1 11/2/1
f 17/2/1 14/2/1 13/2/1
f 18/2/1 14/2/1 17/2/1
f 19/2/1 16/2/1 15/2/1
f 20/2/1 16/2/1 19/2/1
f 21/2/2 22/2/2 25/2/2
f 25/2/2 22/2/2 26/2/2
f 23/2/2 24/2/2 27/2/2
f 27/2/2 24/2/2 28/2/2
f 29/2/2 30/2/2 33/2/2
f 33/2/2 30/2/2 34/2/2
f 31/2/2 32/2/2 35/2/2
f 35/2/2 32/2/2 36/2/2
f 37/2/2 38/2/2 39/2/2
f 39/2/2 38/2/2 40/2/2
f 43/2/3 42/2/3 41/2/3
f 44/2/3 42/2/3 43/2/3
f 47/2/3 46/2/3 45/2/3
f 48/2/3 46/2/3 47/2/3
f 51/2/3 50/2/3 49/2/3
f 52/2/3 50/2/3 51/2/3
f 55/2/3 54/2/3 53/2/3
f 56/2/3 54/2/3 55/2/3
f 59/2/3 58/2/3 57/2/3
f 60/2/3 58/2/3 59/2/3
f 61/2/4 62/2/4 63/2/4
f 63/2/4 62/2/4 64/2/4
f 65/2/4 66/2/4 67/2/4
f 67/2/4 66/2/4 68/2/4
f 69/2/4 70/2/4 71/2/4
f 71/2/4 70/2/4 72/2/4
f 73/2/4 74/2/4 75/2/4
f 75/2/4 74/2/4 76/2/4
f 77/2/4 78/2/4 79/2/4
f 79/2/4 78/2/4 80/2/4
f 84/2/5 82/2/5 81/2/5
f 85/2/5 82/2/5 84/2/5
f 86/2/5 82/2/5 85/2/5
f 87/2/5 82/2/5 86/2/5
f 90/2/5 84/2/5 83/2/5
f 90/2/5 85/2/5 84/2/5
f 91/2/5 85/2/5 90/2/5
f 92/3/5 86/3/5 85/3/5
f 92/2/5 85/2/5 91/2/5
f 93/2/5 88/2/5 87/2/5
f 93/3/5 86/3/5 92/3/5
f 93/2/5 87/2/5 86/2/5
f 94/2/5 88/2/5 93/2/5
f 95/2/5 88/2/5 94/2/5
f 97/2/5 90/2/5 89/2/5
f 97/2/5 91/2/5 90/2/5
f 98/3/5 92/3/5 91/3/5
f 98/2/5 91/2/5 97/2/5
f 98/3/5 93/3/5 92/3/5
f 98/3/5 94/3/5 93/3/5
f 99/2/5 96/2/5 95/2/5
f 99/3/5 94/3/5 98/3/5
f 99/2/5 95/2/5 94/2/5
f 100/2/5 96/2/5 99/2/5
f 101/2/5 97/2/5 89/2/5
f 101/3/5 98/3/5 97/3/5
f 101/3/5 100/3/5 99/3/5
f 101/3/5 99/3/5 98/3/5
f 102/3/5 100/3/5 101/3/5
f 103/3/5 100/3/5 102/3/5
f 104/2/5 96/2/5 100/2/5
f 104/3/5 100/3/5 103/3/5
f 105/2/5 101/2/5 89/2/5
f 105/2/5 102/2/5 101/2/5
f 106/2/5 102/2/5 105/2/5
f 107/3/5 103/3/5 102/3/5
f 107/2/5 102/2/5 106/2/5
f 108/3/5 103/3/5 107/3/5
f 109/3/5 103/3/5 108/3/5
f 110/2/5 104/2/5 103/2/5
f 110/3/5 103/3/5 109/3/5
f 111/2/5 104/2/5 110/2/5
f 112/2/5 96/2/5 104/2/5
f 112/2/5 104/2/5 111/2/5
f 113/2/5 107/2/5 106/2/5
f 113/2/5 108/2/5 107/2/5
f 114/2/5 108/2/5 113/2/5
f 115/2/5 111/2/5 110/2/5
f 115/2/5 110/2/5 109/2/5
f 116/2/5 111/2/5 115/2/5
f 117/2/5 108/2/5 114/2/5
f 117/3/5 109/3/5 108/3/5
f 118/2/5 115/2/5 109/2/5
f 118/3/5 109/3/5 117/3/5
f 119/2/5 117/2/5 114/2/5
f 119/2/5 118/2/5 117/2/5
f 120/2/5 115/2/5 118/2/5
f 120/2/5 118/2/5 119/2/5
f 121/2/6 122/2/6 124/2/6
f 124/2/6 122/2/6 125/2/6
f 125/2/6 122/2/6 126/2/6
f 126/2/6 122/2/6 127/2/6
f 123/2/6 124/2/6 130/2/6
f 124/2/6 125/2/6 130/2/6
f 130/2/6 125/2/6 131/2/6
f 125/3/6 126/3/6 132/3/6
f 131/2/6 125/2/6 132/2/6
f 127/2/6 128/2/6 133/2/6
f 132/3/6 126/3/6 133/3/6
f 126/2/6 127/2/6 133/2/6
f 133/2/6 128/2/6 134/2/6
f 134/2/6 128/2/6 135/2/6
f 129/2/6 130/2/6 137/2/6
f 130/2/6 131/2/6 137/2/6
f 131/3/6 132/3/6 138/3/6
f 137/2/6 131/2/6 138/2/6
f 132/3/6 133/3/6 138/3/6
f 133/3/6 134/3/6 138/3/6
f 135/2/6 136/2/6 139/2/6
f 138/3/6 134/3/6 139/3/6
f 134/2/6 135/2/6 139/2/6
f 139/2/6 136/2/6 140/2/6
f 137/3/6 138/3/6 141/3/6
f 138/3/6 139/3/6 141/3/6
f 139/3/6 140/3/6 141/3/6
f 141/3/6 140/3/6 142/3/6
f 137/3/6 141/3/6 143/3/6
f 143/3/6 141/3/6 144/3/6
f 141/1/6 142/1/6 145/1/6
f 144/3/6 141/3/6 145/3/6
f 142/3/6 140/3/6 146/3/6
f 145/1/6 142/1/6 146/1/6
f 143/1/6 144/1/6 147/1/6
f 137/3/6 143/3/6 147/3/6
f 144/3/6 145/3/6 148/3/6
f 147/1/6 144/1/6 148/1/6
f 145/3/6 146/3/6 148/3/6
f 146/3/6 140/3/6 149/3/6
f 148/3/6 146/3/6 149/3/6
f 147/3/6 148/3/6 149/3/6
f 149/3/6 140/3/6 150/3/6
f 137/3/6 147/3/6 151/3/6
f 147/3/6 149/3/6 151/3/6
f 151/3/6 149/3/6 152/3/6
f 137/3/6 151/3/6 153/3/6
f 151/1/6 152/1/6 153/1/6
f 152/3/6 149/3/6 154/3/6
f 153/1/6 152/1/6 154/1/6
f 153/3/6 154/3/6 155/3/6
f 154/3/6 149/3/6 155/3/6
f 155/3/6 149/3/6 156/3/6
f 149/1/6 150/1/6 157/1/6
f 156/3/6 149/3/6 157/3/6
f 150/3/6 140/3/6 158/3/6
f 157/1/6 150/1/6 158/1/6
f 155/1/6 156/1/6 159/1/6
f 153/3/6 155/3/6 159/3/6
f 156/3/6 157/3/6 160/3/6
f 159/1/6 156/1/6 160/1/6
f 157/3/6 158/3/6 160/3/6
f 158/3/6 140/3/6 161/3/6
f 160/3/6 158/3/6 161/3/6
f 161/3/6 140/3/6 162/3/6
f 159/3/6 160/3/6 163/3/6
f 160/3/6 161/3/6 163/3/6
f 163/3/6 161/3/6 164/3/6
f 161/1/6 162/1/6 165/1/6
f 164/3/6 161/3/6 165/3/6
f 162/3/6 140/3/6 166/3/6
f 165/1/6 162/1/6 166/1/6
f 163/1/6 164/1/6 167/1/6
f 159/3/6 163/3/6 167/3/6
f 164/3/6 165/3/6 168/3/6
f 167/1/6 164/1/6 168/1/6
f 165/3/6 166/3/6 168/3/6
f 129/2/6 137/2/6 169/2/6
f 153/3/6 159/3/6 169/3/6
f 167/3/6 168/3/6 169/3/6
f 159/3/6 167/3/6 169/3/6
f 137/3/6 153/3/6 169/3/6
f 169/3/6 168/3/6 170/3/6
f 170/3/6 168/3/6 171/3/6
f 171/3/6 168/3/6 172/3/6
f 168/3/6 166/3/6 173/3/6
f 172/3/6 168/3/6 173/3/6
f 166/3/6 140/3/6 173/3/6
f 140/2/6 136/2/6 174/2/6
f 173/3/6 140/3/6 174/3/6
f 129/2/6 169/2/6 175/2/6
f 169/2/6 170/2/6 175/2/6
f 175/2/6 170/2/6 176/2/6
f 170/3/6 171/3/6 177/3/6
f 176/2/6 170/2/6 177/2/6
f 177/3/6 171/3/6 178/3/6
f 171/1/6 172/1/6 179/1/6
f 178/3/6 171/3/6 179/3/6
f 172/3/6 173/3/6 180/3/6
f 179/1/6 172/1/6 180/1/6
f 180/3/6 173/3/6 181/3/6
f 173/2/6 174/2/6 182/2/6
f 181/3/6 173/3/6 182/3/6
f 182/2/6 174/2/6 183/2/6
f 174/2/6 136/2/6 184/2/6
f 183/2/6 174/2/6 184/2/6
f 177/2/6 178/2/6 185/2/6
f 176/2/6 177/2/6 185/2/6
f 185/2/6 178/2/6 186/2/6
f 181/2/6 182/2/6 187/2/6
f 182/2/6 183/2/6 187/2/6
f 187/2/6 183/2/6 188/2/6
f 178/3/6 179/3/6 189/3/6
f 186/2/6 178/2/6 189/2/6
f 180/3/6 181/3/6 189/3/6
f 179/3/6 180/3/6 189/3/6
f 181/2/6 187/2/6 190/2/6
f 189/3/6 181/3/6 190/3/6
f 186/2/6 189/2/6 191/2/6
f 189/2/6 190/2/6 191/2/6
f 190/2/6 187/2/6 192/2/6
f 191/2/6 190/2/6 192/2/6
