# MagicaVoxel @ Ephtracy

# group
g Gun4

# material
mtllib Gun4.mtl
usemtl palette

# normals
vn -1 0 0
vn 1 0 0
vn 0 0 1
vn 0 0 -1
vn 0 -1 0
vn 0 1 0

# texcoords
vt 0.638672 0.5
vt 0.650391 0.5
vt 0.662109 0.5
vt 0.673828 0.5
vt 0.759766 0.5
vt 0.986328 0.5
vt 0.990234 0.5

# verts
v -28.5 0 7
v -28.5 0 -0
v -28.5 14 7
v -28.5 14 -0
v -25.5 14 7
v -25.5 14 -0
v -25.5 20 7
v -25.5 20 -0
v -24.5 24 7
v -24.5 24 -0
v -24.5 38 7
v -24.5 38 -0
v -22.5 20 7
v -22.5 20 -0
v -22.5 24 7
v -22.5 24 -0
v -1.5 16 7
v -1.5 16 -0
v -1.5 22 7
v -1.5 22 -0
v 3.5 17 7
v 3.5 17 -0
v 3.5 19 7
v 3.5 19 -0
v 5.5 11 7
v 5.5 11 -0
v 5.5 17 7
v 5.5 17 -0
v 16.5 38 7
v 16.5 38 -0
v 16.5 41 7
v 16.5 41 -0
v -11.5 0 7
v -11.5 0 -0
v -11.5 3 7
v -11.5 3 -0
v -9.5 3 7
v -9.5 3 -0
v -9.5 13 7
v -9.5 13 -0
v -9.5 16 7
v -9.5 16 -0
v -9.5 19 7
v -9.5 19 -0
v -6.5 19 7
v -6.5 19 -0
v -6.5 22 7
v -6.5 22 -0
v 1.5 13 7
v 1.5 13 -0
v 1.5 19 7
v 1.5 19 -0
v 20.5 19 7
v 20.5 19 -0
v 20.5 22 7
v 20.5 22 -0
v 22.5 38 7
v 22.5 38 -0
v 22.5 41 7
v 22.5 41 -0
v 25.5 11 7
v 25.5 11 -0
v 25.5 19 7
v 25.5 19 -0
v 25.5 22 7
v 25.5 22 -0
v 25.5 29 7
v 25.5 29 -0
v 25.5 35 7
v 25.5 35 -0
v 25.5 38 7
v 25.5 38 -0
v 28.5 29 7
v 28.5 29 -0
v 28.5 35 7
v 28.5 35 -0
v -28.5 0 7
v -28.5 14 7
v -25.5 3 7
v -25.5 11 7
v -25.5 14 7
v -25.5 20 7
v -24.5 24 7
v -24.5 38 7
v -22.5 11 7
v -22.5 17 7
v -22.5 20 7
v -22.5 24 7
v -20.5 27 7
v -20.5 32 7
v -20.5 35 7
v -19.5 17 7
v -19.5 24 7
v -17.5 3 7
v -17.5 13 7
v -15.5 13 7
v -15.5 21 7
v -14.5 3 7
v -14.5 12 7
v -12.5 12 7
v -12.5 21 7
v -11.5 0 7
v -11.5 3 7
v -9.5 3 7
v -9.5 13 7
v -9.5 16 7
v -9.5 19 7
v -9.5 21 7
v -9.5 24 7
v -9.5 29 7
v -9.5 32 7
v -9.5 35 7
v -6.5 19 7
v -6.5 22 7
v -6.5 27 7
v -6.5 29 7
v -6.5 32 7
v -6.5 35 7
v -1.5 16 7
v -1.5 22 7
v 1.5 13 7
v 1.5 19 7
v 1.5 32 7
v 1.5 35 7
v 3.5 17 7
v 3.5 19 7
v 4.5 25 7
v 4.5 27 7
v 4.5 30 7
v 4.5 33 7
v 4.5 35 7
v 5.5 11 7
v 5.5 17 7
v 13.5 17 7
v 13.5 22 7
v 16.5 14 7
v 16.5 17 7
v 16.5 38 7
v 16.5 41 7
v 17.5 16 7
v 17.5 22 7
v 19.5 25 7
v 19.5 27 7
v 20.5 19 7
v 20.5 22 7
v 22.5 14 7
v 22.5 16 7
v 22.5 30 7
v 22.5 33 7
v 22.5 35 7
v 22.5 38 7
v 22.5 41 7
v 25.5 11 7
v 25.5 19 7
v 25.5 22 7
v 25.5 29 7
v 25.5 35 7
v 25.5 38 7
v 28.5 29 7
v 28.5 35 7
v -28.5 0 -0
v -28.5 14 -0
v -25.5 3 -0
v -25.5 11 -0
v -25.5 14 -0
v -25.5 20 -0
v -24.5 24 -0
v -24.5 38 -0
v -22.5 11 -0
v -22.5 17 -0
v -22.5 20 -0
v -22.5 24 -0
v -20.5 27 -0
v -20.5 32 -0
v -20.5 35 -0
v -19.5 17 -0
v -19.5 24 -0
v -17.5 3 -0
v -17.5 13 -0
v -15.5 13 -0
v -15.5 21 -0
v -14.5 3 -0
v -14.5 12 -0
v -12.5 12 -0
v -12.5 21 -0
v -11.5 0 -0
v -11.5 3 -0
v -9.5 3 -0
v -9.5 13 -0
v -9.5 16 -0
v -9.5 19 -0
v -9.5 21 -0
v -9.5 24 -0
v -9.5 29 -0
v -9.5 32 -0
v -9.5 35 -0
v -6.5 19 -0
v -6.5 22 -0
v -6.5 27 -0
v -6.5 29 -0
v -6.5 32 -0
v -6.5 35 -0
v -1.5 16 -0
v -1.5 22 -0
v 1.5 13 -0
v 1.5 19 -0
v 1.5 32 -0
v 1.5 35 -0
v 3.5 17 -0
v 3.5 19 -0
v 4.5 25 -0
v 4.5 27 -0
v 4.5 30 -0
v 4.5 33 -0
v 4.5 35 -0
v 5.5 11 -0
v 5.5 17 -0
v 13.5 17 -0
v 13.5 22 -0
v 16.5 14 -0
v 16.5 17 -0
v 16.5 38 -0
v 16.5 41 -0
v 17.5 16 -0
v 17.5 22 -0
v 19.5 25 -0
v 19.5 27 -0
v 20.5 19 -0
v 20.5 22 -0
v 22.5 14 -0
v 22.5 16 -0
v 22.5 30 -0
v 22.5 33 -0
v 22.5 35 -0
v 22.5 38 -0
v 22.5 41 -0
v 25.5 11 -0
v 25.5 19 -0
v 25.5 22 -0
v 25.5 29 -0
v 25.5 35 -0
v 25.5 38 -0
v 28.5 29 -0
v 28.5 35 -0
v -28.5 0 7
v -11.5 0 7
v -28.5 0 -0
v -11.5 0 -0
v -11.5 3 7
v -9.5 3 7
v -11.5 3 -0
v -9.5 3 -0
v 5.5 11 7
v 25.5 11 7
v 5.5 11 -0
v 25.5 11 -0
v -9.5 13 7
v 1.5 13 7
v -9.5 13 -0
v 1.5 13 -0
v 3.5 17 7
v 5.5 17 7
v 3.5 17 -0
v 5.5 17 -0
v -9.5 19 7
v -6.5 19 7
v 1.5 19 7
v 3.5 19 7
v -9.5 19 -0
v -6.5 19 -0
v 1.5 19 -0
v 3.5 19 -0
v -6.5 22 7
v -1.5 22 7
v 20.5 22 7
v 25.5 22 7
v -6.5 22 -0
v -1.5 22 -0
v 20.5 22 -0
v 25.5 22 -0
v -24.5 24 7
v -22.5 24 7
v -24.5 24 -0
v -22.5 24 -0
v 25.5 29 7
v 28.5 29 7
v 25.5 29 -0
v 28.5 29 -0
v -28.5 14 7
v -25.5 14 7
v -28.5 14 -0
v -25.5 14 -0
v -9.5 16 7
v -1.5 16 7
v -9.5 16 -0
v -1.5 16 -0
v 20.5 19 7
v 25.5 19 7
v 20.5 19 -0
v 25.5 19 -0
v -25.5 20 7
v -22.5 20 7
v -25.5 20 -0
v -22.5 20 -0
v 25.5 35 7
v 28.5 35 7
v 25.5 35 -0
v 28.5 35 -0
v -24.5 38 7
v 16.5 38 7
v 22.5 38 7
v 25.5 38 7
v -24.5 38 -0
v 16.5 38 -0
v 22.5 38 -0
v 25.5 38 -0
v 16.5 41 7
v 22.5 41 7
v 16.5 41 -0
v 22.5 41 -0

# faces
f 3/5/1 2/5/1 1/5/1
f 4/5/1 2/5/1 3/5/1
f 7/5/1 6/5/1 5/5/1
f 8/5/1 6/5/1 7/5/1
f 11/5/1 10/5/1 9/5/1
f 12/5/1 10/5/1 11/5/1
f 15/5/1 14/5/1 13/5/1
f 16/5/1 14/5/1 15/5/1
f 19/5/1 18/5/1 17/5/1
f 20/5/1 18/5/1 19/5/1
f 23/5/1 22/5/1 21/5/1
f 24/5/1 22/5/1 23/5/1
f 27/5/1 26/5/1 25/5/1
f 28/5/1 26/5/1 27/5/1
f 31/5/1 30/5/1 29/5/1
f 32/5/1 30/5/1 31/5/1
f 33/5/2 34/5/2 35/5/2
f 35/5/2 34/5/2 36/5/2
f 37/5/2 38/5/2 39/5/2
f 39/5/2 38/5/2 40/5/2
f 41/5/2 42/5/2 43/5/2
f 43/5/2 42/5/2 44/5/2
f 45/5/2 46/5/2 47/5/2
f 47/5/2 46/5/2 48/5/2
f 49/5/2 50/5/2 51/5/2
f 51/5/2 50/5/2 52/5/2
f 53/5/2 54/5/2 55/5/2
f 55/5/2 54/5/2 56/5/2
f 57/5/2 58/5/2 59/5/2
f 59/5/2 58/5/2 60/5/2
f 61/5/2 62/5/2 63/5/2
f 63/5/2 62/5/2 64/5/2
f 65/5/2 66/5/2 67/5/2
f 67/5/2 66/5/2 68/5/2
f 69/5/2 70/5/2 71/5/2
f 71/5/2 70/5/2 72/5/2
f 73/5/2 74/5/2 75/5/2
f 75/5/2 74/5/2 76/5/2
f 79/5/3 78/5/3 77/5/3
f 80/5/3 78/5/3 79/5/3
f 81/5/3 78/5/3 80/5/3
f 85/7/3 80/7/3 79/7/3
f 85/5/3 81/5/3 80/5/3
f 85/5/3 82/5/3 81/5/3
f 86/5/3 82/5/3 85/5/3
f 87/5/3 82/5/3 86/5/3
f 88/5/3 84/5/3 83/5/3
f 89/5/3 87/5/3 86/5/3
f 89/5/3 88/5/3 87/5/3
f 89/5/3 84/5/3 88/5/3
f 90/5/3 84/5/3 89/5/3
f 91/5/3 84/5/3 90/5/3
f 92/7/3 86/7/3 85/7/3
f 92/5/3 89/5/3 86/5/3
f 93/5/3 89/5/3 92/5/3
f 94/5/3 79/5/3 77/5/3
f 94/7/3 85/7/3 79/7/3
f 94/7/3 93/7/3 92/7/3
f 94/7/3 92/7/3 85/7/3
f 95/7/3 93/7/3 94/7/3
f 96/6/3 95/6/3 94/6/3
f 96/7/3 93/7/3 95/7/3
f 97/7/3 93/7/3 96/7/3
f 98/5/3 94/5/3 77/5/3
f 98/6/3 96/6/3 94/6/3
f 98/6/3 97/6/3 96/6/3
f 99/6/3 97/6/3 98/6/3
f 100/5/3 99/5/3 98/5/3
f 100/6/3 97/6/3 99/6/3
f 101/7/3 93/7/3 97/7/3
f 101/6/3 97/6/3 100/6/3
f 102/5/3 100/5/3 98/5/3
f 102/5/3 98/5/3 77/5/3
f 102/5/3 101/5/3 100/5/3
f 103/5/3 101/5/3 102/5/3
f 104/5/3 101/5/3 103/5/3
f 105/5/3 101/5/3 104/5/3
f 106/5/3 101/5/3 105/5/3
f 107/5/3 101/5/3 106/5/3
f 108/7/3 93/7/3 101/7/3
f 108/5/3 101/5/3 107/5/3
f 109/5/3 89/5/3 93/5/3
f 109/7/3 93/7/3 108/7/3
f 110/7/3 90/7/3 89/7/3
f 111/6/3 91/6/3 90/6/3
f 111/7/3 90/7/3 110/7/3
f 112/5/3 84/5/3 91/5/3
f 112/6/3 91/6/3 111/6/3
f 113/5/3 108/5/3 107/5/3
f 113/5/3 109/5/3 108/5/3
f 114/5/3 109/5/3 113/5/3
f 115/5/3 89/5/3 109/5/3
f 115/5/3 109/5/3 114/5/3
f 115/7/3 110/7/3 89/7/3
f 116/5/3 111/5/3 110/5/3
f 116/7/3 110/7/3 115/7/3
f 116/5/3 112/5/3 111/5/3
f 117/5/3 112/5/3 116/5/3
f 118/5/3 84/5/3 112/5/3
f 118/5/3 112/5/3 117/5/3
f 119/5/3 106/5/3 105/5/3
f 120/5/3 117/5/3 116/5/3
f 120/5/3 115/5/3 114/5/3
f 120/5/3 116/5/3 115/5/3
f 121/5/3 119/5/3 105/5/3
f 121/5/3 120/5/3 119/5/3
f 122/5/3 120/5/3 121/5/3
f 123/5/3 117/5/3 120/5/3
f 123/5/3 120/5/3 122/5/3
f 123/6/3 118/6/3 117/6/3
f 124/5/3 84/5/3 118/5/3
f 124/6/3 118/6/3 123/6/3
f 126/5/3 123/5/3 122/5/3
f 126/5/3 124/5/3 123/5/3
f 127/5/3 124/5/3 126/5/3
f 127/5/3 126/5/3 125/5/3
f 128/5/3 124/5/3 127/5/3
f 129/5/3 124/5/3 128/5/3
f 130/5/3 124/5/3 129/5/3
f 131/5/3 84/5/3 124/5/3
f 131/5/3 124/5/3 130/5/3
f 133/5/3 127/5/3 125/5/3
f 134/5/3 127/5/3 133/5/3
f 134/5/3 133/5/3 132/5/3
f 135/5/3 127/5/3 134/5/3
f 136/5/3 134/5/3 132/5/3
f 137/7/3 135/7/3 134/7/3
f 137/5/3 134/5/3 136/5/3
f 138/5/3 84/5/3 131/5/3
f 140/7/3 137/7/3 136/7/3
f 141/7/3 135/7/3 137/7/3
f 141/7/3 137/7/3 140/7/3
f 141/5/3 127/5/3 135/5/3
f 142/6/3 128/6/3 127/6/3
f 142/5/3 127/5/3 141/5/3
f 142/5/3 141/5/3 140/5/3
f 143/5/3 129/5/3 128/5/3
f 143/6/3 128/6/3 142/6/3
f 144/5/3 142/5/3 140/5/3
f 144/5/3 143/5/3 142/5/3
f 145/5/3 143/5/3 144/5/3
f 146/7/3 140/7/3 136/7/3
f 146/5/3 136/5/3 132/5/3
f 147/5/3 144/5/3 140/5/3
f 147/7/3 140/7/3 146/7/3
f 148/7/3 130/7/3 129/7/3
f 148/5/3 143/5/3 145/5/3
f 148/5/3 129/5/3 143/5/3
f 149/6/3 131/6/3 130/6/3
f 149/7/3 130/7/3 148/7/3
f 150/5/3 139/5/3 138/5/3
f 150/6/3 131/6/3 149/6/3
f 150/5/3 138/5/3 131/5/3
f 151/5/3 139/5/3 150/5/3
f 152/5/3 139/5/3 151/5/3
f 153/5/3 147/5/3 146/5/3
f 153/5/3 146/5/3 132/5/3
f 154/5/3 144/5/3 147/5/3
f 154/5/3 147/5/3 153/5/3
f 155/5/3 149/5/3 148/5/3
f 155/5/3 151/5/3 150/5/3
f 155/5/3 150/5/3 149/5/3
f 155/5/3 148/5/3 145/5/3
f 156/5/3 151/5/3 155/5/3
f 157/5/3 151/5/3 156/5/3
f 158/5/3 151/5/3 157/5/3
f 159/5/3 157/5/3 156/5/3
f 160/5/3 157/5/3 159/5/3
f 161/5/4 162/5/4 163/5/4
f 163/5/4 162/5/4 164/5/4
f 164/5/4 162/5/4 165/5/4
f 163/2/4 164/2/4 169/2/4
f 164/5/4 165/5/4 169/5/4
f 165/5/4 166/5/4 169/5/4
f 169/5/4 166/5/4 170/5/4
f 170/5/4 166/5/4 171/5/4
f 167/5/4 168/5/4 172/5/4
f 170/5/4 171/5/4 173/5/4
f 171/5/4 172/5/4 173/5/4
f 172/5/4 168/5/4 173/5/4
f 173/5/4 168/5/4 174/5/4
f 174/5/4 168/5/4 175/5/4
f 169/2/4 170/2/4 176/2/4
f 170/5/4 173/5/4 176/5/4
f 176/5/4 173/5/4 177/5/4
f 161/5/4 163/5/4 178/5/4
f 163/2/4 169/2/4 178/2/4
f 176/2/4 177/2/4 178/2/4
f 169/2/4 176/2/4 178/2/4
f 178/2/4 177/2/4 179/2/4
f 178/4/4 179/4/4 180/4/4
f 179/2/4 177/2/4 180/2/4
f 180/2/4 177/2/4 181/2/4
f 161/5/4 178/5/4 182/5/4
f 178/4/4 180/4/4 182/4/4
f 180/4/4 181/4/4 182/4/4
f 182/4/4 181/4/4 183/4/4
f 182/5/4 183/5/4 184/5/4
f 183/4/4 181/4/4 184/4/4
f 181/2/4 177/2/4 185/2/4
f 184/4/4 181/4/4 185/4/4
f 182/5/4 184/5/4 186/5/4
f 161/5/4 182/5/4 186/5/4
f 184/5/4 185/5/4 186/5/4
f 186/5/4 185/5/4 187/5/4
f 187/5/4 185/5/4 188/5/4
f 188/5/4 185/5/4 189/5/4
f 189/5/4 185/5/4 190/5/4
f 190/5/4 185/5/4 191/5/4
f 185/2/4 177/2/4 192/2/4
f 191/5/4 185/5/4 192/5/4
f 177/5/4 173/5/4 193/5/4
f 192/2/4 177/2/4 193/2/4
f 173/2/4 174/2/4 194/2/4
f 174/4/4 175/4/4 195/4/4
f 194/2/4 174/2/4 195/2/4
f 175/5/4 168/5/4 196/5/4
f 195/4/4 175/4/4 196/4/4
f 191/5/4 192/5/4 197/5/4
f 192/5/4 193/5/4 197/5/4
f 197/5/4 193/5/4 198/5/4
f 193/5/4 173/5/4 199/5/4
f 198/5/4 193/5/4 199/5/4
f 173/2/4 194/2/4 199/2/4
f 194/5/4 195/5/4 200/5/4
f 199/2/4 194/2/4 200/2/4
f 195/5/4 196/5/4 200/5/4
f 200/5/4 196/5/4 201/5/4
f 196/5/4 168/5/4 202/5/4
f 201/5/4 196/5/4 202/5/4
f 189/5/4 190/5/4 203/5/4
f 200/5/4 201/5/4 204/5/4
f 198/5/4 199/5/4 204/5/4
f 199/5/4 200/5/4 204/5/4
f 189/5/4 203/5/4 205/5/4
f 203/5/4 204/5/4 205/5/4
f 205/5/4 204/5/4 206/5/4
f 204/5/4 201/5/4 207/5/4
f 206/5/4 204/5/4 207/5/4
f 201/1/4 202/1/4 207/1/4
f 202/5/4 168/5/4 208/5/4
f 207/1/4 202/1/4 208/1/4
f 206/5/4 207/5/4 210/5/4
f 207/5/4 208/5/4 210/5/4
f 210/5/4 208/5/4 211/5/4
f 209/5/4 210/5/4 211/5/4
f 211/5/4 208/5/4 212/5/4
f 212/5/4 208/5/4 213/5/4
f 213/5/4 208/5/4 214/5/4
f 208/5/4 168/5/4 215/5/4
f 214/5/4 208/5/4 215/5/4
f 209/5/4 211/5/4 217/5/4
f 217/5/4 211/5/4 218/5/4
f 216/5/4 217/5/4 218/5/4
f 218/5/4 211/5/4 219/5/4
f 216/5/4 218/5/4 220/5/4
f 218/2/4 219/2/4 221/2/4
f 220/5/4 218/5/4 221/5/4
f 215/5/4 168/5/4 222/5/4
f 220/2/4 221/2/4 224/2/4
f 221/2/4 219/2/4 225/2/4
f 224/2/4 221/2/4 225/2/4
f 219/5/4 211/5/4 225/5/4
f 211/3/4 212/3/4 226/3/4
f 225/5/4 211/5/4 226/5/4
f 224/5/4 225/5/4 226/5/4
f 212/5/4 213/5/4 227/5/4
f 226/3/4 212/3/4 227/3/4
f 224/5/4 226/5/4 228/5/4
f 226/5/4 227/5/4 228/5/4
f 228/5/4 227/5/4 229/5/4
f 220/2/4 224/2/4 230/2/4
f 216/5/4 220/5/4 230/5/4
f 224/5/4 228/5/4 231/5/4
f 230/2/4 224/2/4 231/2/4
f 213/2/4 214/2/4 232/2/4
f 229/5/4 227/5/4 232/5/4
f 227/5/4 213/5/4 232/5/4
f 214/1/4 215/1/4 233/1/4
f 232/2/4 214/2/4 233/2/4
f 222/5/4 223/5/4 234/5/4
f 233/1/4 215/1/4 234/1/4
f 215/5/4 222/5/4 234/5/4
f 234/5/4 223/5/4 235/5/4
f 235/5/4 223/5/4 236/5/4
f 230/5/4 231/5/4 237/5/4
f 216/5/4 230/5/4 237/5/4
f 231/5/4 228/5/4 238/5/4
f 237/5/4 231/5/4 238/5/4
f 232/5/4 233/5/4 239/5/4
f 234/5/4 235/5/4 239/5/4
f 233/5/4 234/5/4 239/5/4
f 229/5/4 232/5/4 239/5/4
f 239/5/4 235/5/4 240/5/4
f 240/5/4 235/5/4 241/5/4
f 241/5/4 235/5/4 242/5/4
f 240/5/4 241/5/4 243/5/4
f 243/5/4 241/5/4 244/5/4
f 247/5/5 246/5/5 245/5/5
f 248/5/5 246/5/5 247/5/5
f 251/5/5 250/5/5 249/5/5
f 252/5/5 250/5/5 251/5/5
f 255/5/5 254/5/5 253/5/5
f 256/5/5 254/5/5 255/5/5
f 259/5/5 258/5/5 257/5/5
f 260/5/5 258/5/5 259/5/5
f 263/5/5 262/5/5 261/5/5
f 264/5/5 262/5/5 263/5/5
f 269/5/5 266/5/5 265/5/5
f 270/5/5 266/5/5 269/5/5
f 271/5/5 268/5/5 267/5/5
f 272/5/5 268/5/5 271/5/5
f 277/5/5 274/5/5 273/5/5
f 278/5/5 274/5/5 277/5/5
f 279/5/5 276/5/5 275/5/5
f 280/5/5 276/5/5 279/5/5
f 283/5/5 282/5/5 281/5/5
f 284/5/5 282/5/5 283/5/5
f 287/5/5 286/5/5 285/5/5
f 288/5/5 286/5/5 287/5/5
f 289/5/6 290/5/6 291/5/6
f 291/5/6 290/5/6 292/5/6
f 293/5/6 294/5/6 295/5/6
f 295/5/6 294/5/6 296/5/6
f 297/5/6 298/5/6 299/5/6
f 299/5/6 298/5/6 300/5/6
f 301/5/6 302/5/6 303/5/6
f 303/5/6 302/5/6 304/5/6
f 305/5/6 306/5/6 307/5/6
f 307/5/6 306/5/6 308/5/6
f 309/5/6 310/5/6 313/5/6
f 313/5/6 310/5/6 314/5/6
f 311/5/6 312/5/6 315/5/6
f 315/5/6 312/5/6 316/5/6
f 317/5/6 318/5/6 319/5/6
f 319/5/6 318/5/6 320/5/6
