# MagicaVoxel @ Ephtracy

# group
g Shark

# material
mtllib Shark.mtl
usemtl palette

# normals
vn -1 0 0
vn 1 0 0
vn 0 0 1
vn 0 0 -1
vn 0 -1 0
vn 0 1 0

# texcoords
vt 0.755859 0.5
vt 0.958984 0.5
vt 0.978516 0.5
vt 0.994141 0.5

# verts
v -16 11 13
v -16 11 4
v -16 13 13
v -16 13 4
v -8 10 21
v -8 10 19
v -8 10 18
v -8 10 -24
v -8 10 -32
v -8 12 -24
v -8 12 -32
v -8 14 21
v -8 14 19
v -8 16 21
v -8 16 18
v -7 5 23
v -7 5 -0
v -7 6 23
v -7 6 16
v -7 8 23
v -7 8 16
v -7 10 21
v -7 10 19
v -7 10 18
v -7 11 13
v -7 11 4
v -7 13 13
v -7 13 4
v -7 14 21
v -7 16 21
v -7 16 18
v -7 17 23
v -7 17 -0
v -6 6 -0
v -6 6 -7
v -6 16 -0
v -6 16 -7
v -5 7 -7
v -5 7 -12
v -5 10 -22
v -5 10 -24
v -5 12 -22
v -5 12 -24
v -5 15 -7
v -5 15 -12
v -4 8 -12
v -4 8 -16
v -4 14 -12
v -4 14 -16
v -3 9 -16
v -3 9 -19
v -3 13 -16
v -3 13 -19
v -2 10 -19
v -2 10 -22
v -2 12 -19
v -2 12 -22
v -2 17 12
v -2 17 5
v -2 18 12
v -2 18 5
v 1 17 12
v 1 17 5
v 1 18 12
v 1 18 5
v 2 10 -24
v 2 10 -27
v 2 12 -24
v 2 12 -27
v 3 10 -27
v 3 10 -28
v 3 12 -27
v 3 12 -28
v 4 10 -28
v 4 10 -29
v 4 12 -28
v 4 12 -29
v 5 10 -29
v 5 10 -30
v 5 12 -29
v 5 12 -30
v 6 10 -30
v 6 10 -31
v 6 12 -30
v 6 12 -31
v 7 10 -31
v 7 10 -32
v 7 12 -31
v 7 12 -32
v -7 10 -31
v -7 10 -32
v -7 12 -31
v -7 12 -32
v -6 10 -30
v -6 10 -31
v -6 12 -30
v -6 12 -31
v -5 10 -29
v -5 10 -30
v -5 12 -29
v -5 12 -30
v -4 10 -28
v -4 10 -29
v -4 12 -28
v -4 12 -29
v -3 10 -27
v -3 10 -28
v -3 12 -27
v -3 12 -28
v -2 10 -24
v -2 10 -27
v -2 12 -24
v -2 12 -27
v -1 17 12
v -1 17 5
v -1 18 12
v -1 18 5
v 2 10 -19
v 2 10 -22
v 2 12 -19
v 2 12 -22
v 2 17 12
v 2 17 5
v 2 18 12
v 2 18 5
v 3 9 -16
v 3 9 -19
v 3 13 -16
v 3 13 -19
v 4 8 -12
v 4 8 -16
v 4 14 -12
v 4 14 -16
v 5 7 -7
v 5 7 -12
v 5 10 -22
v 5 10 -24
v 5 12 -22
v 5 12 -24
v 5 15 -7
v 5 15 -12
v 6 6 -0
v 6 6 -7
v 6 16 -0
v 6 16 -7
v 7 5 23
v 7 5 -0
v 7 6 23
v 7 6 16
v 7 8 23
v 7 8 16
v 7 10 21
v 7 10 19
v 7 10 18
v 7 11 13
v 7 11 4
v 7 13 13
v 7 13 4
v 7 14 21
v 7 16 21
v 7 16 18
v 7 17 23
v 7 17 -0
v 8 10 21
v 8 10 19
v 8 10 18
v 8 10 -24
v 8 10 -32
v 8 12 -24
v 8 12 -32
v 8 14 21
v 8 14 19
v 8 16 21
v 8 16 18
v 16 11 13
v 16 11 4
v 16 13 13
v 16 13 4
v -7 5 23
v -7 6 23
v -7 8 23
v -7 17 23
v -4 11 23
v -4 12 23
v -3 11 23
v -3 12 23
v 3 11 23
v 3 12 23
v 4 11 23
v 4 12 23
v 7 5 23
v 7 6 23
v 7 8 23
v 7 17 23
v -8 10 21
v -8 14 21
v -8 16 21
v -7 10 21
v -7 14 21
v -7 16 21
v 7 10 21
v 7 14 21
v 7 16 21
v 8 10 21
v 8 14 21
v 8 16 21
v -7 6 16
v -7 8 16
v 7 6 16
v 7 8 16
v -16 11 13
v -16 13 13
v -7 11 13
v -7 13 13
v 7 11 13
v 7 13 13
v 16 11 13
v 16 13 13
v -2 17 12
v -2 18 12
v -1 17 12
v -1 18 12
v 1 17 12
v 1 18 12
v 2 17 12
v 2 18 12
v -5 10 -22
v -5 12 -22
v -2 10 -22
v -2 12 -22
v 2 10 -22
v 2 12 -22
v 5 10 -22
v 5 12 -22
v -8 10 -24
v -8 12 -24
v -5 10 -24
v -5 12 -24
v 5 10 -24
v 5 12 -24
v 8 10 -24
v 8 12 -24
v -8 10 18
v -8 16 18
v -7 10 18
v -7 16 18
v 7 10 18
v 7 16 18
v 8 10 18
v 8 16 18
v -2 17 5
v -2 18 5
v -1 17 5
v -1 18 5
v 1 17 5
v 1 18 5
v 2 17 5
v 2 18 5
v -16 11 4
v -16 13 4
v -7 11 4
v -7 13 4
v 7 11 4
v 7 13 4
v 16 11 4
v 16 13 4
v -7 5 -0
v -7 17 -0
v -6 6 -0
v -6 16 -0
v 6 6 -0
v 6 16 -0
v 7 5 -0
v 7 17 -0
v -6 6 -7
v -6 16 -7
v -5 7 -7
v -5 15 -7
v 5 7 -7
v 5 15 -7
v 6 6 -7
v 6 16 -7
v -5 7 -12
v -5 15 -12
v -4 8 -12
v -4 14 -12
v 4 8 -12
v 4 14 -12
v 5 7 -12
v 5 15 -12
v -4 8 -16
v -4 14 -16
v -3 9 -16
v -3 13 -16
v 3 9 -16
v 3 13 -16
v 4 8 -16
v 4 14 -16
v -3 9 -19
v -3 13 -19
v -2 10 -19
v -2 12 -19
v 2 10 -19
v 2 12 -19
v 3 9 -19
v 3 13 -19
v -2 10 -24
v -2 12 -24
v 2 10 -24
v 2 12 -24
v -3 10 -27
v -3 12 -27
v -2 10 -27
v -2 12 -27
v 2 10 -27
v 2 12 -27
v 3 10 -27
v 3 12 -27
v -4 10 -28
v -4 12 -28
v -3 10 -28
v -3 12 -28
v 3 10 -28
v 3 12 -28
v 4 10 -28
v 4 12 -28
v -5 10 -29
v -5 12 -29
v -4 10 -29
v -4 12 -29
v 4 10 -29
v 4 12 -29
v 5 10 -29
v 5 12 -29
v -6 10 -30
v -6 12 -30
v -5 10 -30
v -5 12 -30
v 5 10 -30
v 5 12 -30
v 6 10 -30
v 6 12 -30
v -7 10 -31
v -7 12 -31
v -6 10 -31
v -6 12 -31
v 6 10 -31
v 6 12 -31
v 7 10 -31
v 7 12 -31
v -8 10 -32
v -8 12 -32
v -7 10 -32
v -7 12 -32
v 7 10 -32
v 7 12 -32
v 8 10 -32
v 8 12 -32
v -7 5 23
v 7 5 23
v -7 5 -0
v 7 5 -0
v -6 6 -0
v 6 6 -0
v -6 6 -7
v 6 6 -7
v -5 7 -7
v 5 7 -7
v -5 7 -12
v 5 7 -12
v -7 8 23
v 7 8 23
v -7 8 16
v 7 8 16
v -4 8 -12
v 4 8 -12
v -4 8 -16
v 4 8 -16
v -3 9 -16
v 3 9 -16
v -3 9 -19
v 3 9 -19
v -8 10 21
v -7 10 21
v 7 10 21
v 8 10 21
v -8 10 19
v -7 10 19
v 7 10 19
v 8 10 19
v -8 10 18
v -7 10 18
v 7 10 18
v 8 10 18
v -2 10 -19
v 2 10 -19
v -5 10 -22
v -2 10 -22
v 2 10 -22
v 5 10 -22
v -8 10 -24
v -5 10 -24
v -2 10 -24
v 2 10 -24
v 5 10 -24
v 8 10 -24
v -3 10 -27
v -2 10 -27
v 2 10 -27
v 3 10 -27
v -4 10 -28
v -3 10 -28
v 3 10 -28
v 4 10 -28
v -5 10 -29
v -4 10 -29
v 4 10 -29
v 5 10 -29
v -6 10 -30
v -5 10 -30
v 5 10 -30
v 6 10 -30
v -7 10 -31
v -6 10 -31
v 6 10 -31
v 7 10 -31
v -8 10 -32
v -7 10 -32
v 7 10 -32
v 8 10 -32
v -16 11 13
v -7 11 13
v 7 11 13
v 16 11 13
v -16 11 4
v -7 11 4
v 7 11 4
v 16 11 4
v -7 6 23
v 7 6 23
v -7 6 16
v 7 6 16
v -2 12 -19
v 2 12 -19
v -5 12 -22
v -2 12 -22
v 2 12 -22
v 5 12 -22
v -8 12 -24
v -5 12 -24
v -2 12 -24
v 2 12 -24
v 5 12 -24
v 8 12 -24
v -3 12 -27
v -2 12 -27
v 2 12 -27
v 3 12 -27
v -4 12 -28
v -3 12 -28
v 3 12 -28
v 4 12 -28
v -5 12 -29
v -4 12 -29
v 4 12 -29
v 5 12 -29
v -6 12 -30
v -5 12 -30
v 5 12 -30
v 6 12 -30
v -7 12 -31
v -6 12 -31
v 6 12 -31
v 7 12 -31
v -8 12 -32
v -7 12 -32
v 7 12 -32
v 8 12 -32
v -16 13 13
v -7 13 13
v 7 13 13
v 16 13 13
v -16 13 4
v -7 13 4
v 7 13 4
v 16 13 4
v -3 13 -16
v 3 13 -16
v -3 13 -19
v 3 13 -19
v -4 14 -12
v 4 14 -12
v -4 14 -16
v 4 14 -16
v -5 15 -7
v 5 15 -7
v -5 15 -12
v 5 15 -12
v -8 16 21
v -7 16 21
v 7 16 21
v 8 16 21
v -8 16 18
v -7 16 18
v 7 16 18
v 8 16 18
v -6 16 -0
v 6 16 -0
v -6 16 -7
v 6 16 -7
v -7 17 23
v 7 17 23
v -2 17 12
v -1 17 12
v 1 17 12
v 2 17 12
v -2 17 5
v -1 17 5
v 1 17 5
v 2 17 5
v -7 17 -0
v 7 17 -0
v -2 18 12
v -1 18 12
v 1 18 12
v 2 18 12
v -2 18 5
v -1 18 5
v 1 18 5
v 2 18 5

# faces
f 3/3/1 2/3/1 1/3/1
f 4/3/1 2/3/1 3/3/1
f 10/3/1 9/3/1 8/3/1
f 11/3/1 9/3/1 10/3/1
f 12/4/1 6/4/1 5/4/1
f 13/2/1 7/2/1 6/2/1
f 13/4/1 6/4/1 12/4/1
f 14/2/1 13/2/1 12/2/1
f 15/2/1 7/2/1 13/2/1
f 15/2/1 13/2/1 14/2/1
f 18/3/1 17/3/1 16/3/1
f 19/3/1 17/3/1 18/3/1
f 21/3/1 17/3/1 19/3/1
f 22/3/1 21/3/1 20/3/1
f 23/3/1 21/3/1 22/3/1
f 24/3/1 21/3/1 23/3/1
f 25/3/1 17/3/1 21/3/1
f 25/3/1 21/3/1 24/3/1
f 26/3/1 17/3/1 25/3/1
f 27/3/1 25/3/1 24/3/1
f 28/3/1 17/3/1 26/3/1
f 29/3/1 22/3/1 20/3/1
f 30/3/1 29/3/1 20/3/1
f 31/3/1 28/3/1 27/3/1
f 31/3/1 27/3/1 24/3/1
f 32/3/1 30/3/1 20/3/1
f 32/3/1 31/3/1 30/3/1
f 33/3/1 28/3/1 31/3/1
f 33/3/1 31/3/1 32/3/1
f 33/3/1 17/3/1 28/3/1
f 36/3/1 35/3/1 34/3/1
f 37/3/1 35/3/1 36/3/1
f 42/3/1 41/3/1 40/3/1
f 43/3/1 41/3/1 42/3/1
f 44/3/1 39/3/1 38/3/1
f 45/3/1 39/3/1 44/3/1
f 48/3/1 47/3/1 46/3/1
f 49/3/1 47/3/1 48/3/1
f 52/3/1 51/3/1 50/3/1
f 53/3/1 51/3/1 52/3/1
f 56/3/1 55/3/1 54/3/1
f 57/3/1 55/3/1 56/3/1
f 60/3/1 59/3/1 58/3/1
f 61/3/1 59/3/1 60/3/1
f 64/3/1 63/3/1 62/3/1
f 65/3/1 63/3/1 64/3/1
f 68/3/1 67/3/1 66/3/1
f 69/3/1 67/3/1 68/3/1
f 72/3/1 71/3/1 70/3/1
f 73/3/1 71/3/1 72/3/1
f 76/3/1 75/3/1 74/3/1
f 77/3/1 75/3/1 76/3/1
f 80/3/1 79/3/1 78/3/1
f 81/3/1 79/3/1 80/3/1
f 84/3/1 83/3/1 82/3/1
f 85/3/1 83/3/1 84/3/1
f 88/3/1 87/3/1 86/3/1
f 89/3/1 87/3/1 88/3/1
f 90/3/2 91/3/2 92/3/2
f 92/3/2 91/3/2 93/3/2
f 94/3/2 95/3/2 96/3/2
f 96/3/2 95/3/2 97/3/2
f 98/3/2 99/3/2 100/3/2
f 100/3/2 99/3/2 101/3/2
f 102/3/2 103/3/2 104/3/2
f 104/3/2 103/3/2 105/3/2
f 106/3/2 107/3/2 108/3/2
f 108/3/2 107/3/2 109/3/2
f 110/3/2 111/3/2 112/3/2
f 112/3/2 111/3/2 113/3/2
f 114/3/2 115/3/2 116/3/2
f 116/3/2 115/3/2 117/3/2
f 118/3/2 119/3/2 120/3/2
f 120/3/2 119/3/2 121/3/2
f 122/3/2 123/3/2 124/3/2
f 124/3/2 123/3/2 125/3/2
f 126/3/2 127/3/2 128/3/2
f 128/3/2 127/3/2 129/3/2
f 130/3/2 131/3/2 132/3/2
f 132/3/2 131/3/2 133/3/2
f 136/3/2 137/3/2 138/3/2
f 138/3/2 137/3/2 139/3/2
f 134/3/2 135/3/2 140/3/2
f 140/3/2 135/3/2 141/3/2
f 142/3/2 143/3/2 144/3/2
f 144/3/2 143/3/2 145/3/2
f 146/3/2 147/3/2 148/3/2
f 148/3/2 147/3/2 149/3/2
f 149/3/2 147/3/2 151/3/2
f 150/3/2 151/3/2 152/3/2
f 152/3/2 151/3/2 153/3/2
f 153/3/2 151/3/2 154/3/2
f 151/3/2 147/3/2 155/3/2
f 154/3/2 151/3/2 155/3/2
f 155/3/2 147/3/2 156/3/2
f 154/3/2 155/3/2 157/3/2
f 156/3/2 147/3/2 158/3/2
f 150/3/2 152/3/2 159/3/2
f 150/3/2 159/3/2 160/3/2
f 157/3/2 158/3/2 161/3/2
f 154/3/2 157/3/2 161/3/2
f 150/3/2 160/3/2 162/3/2
f 160/3/2 161/3/2 162/3/2
f 161/3/2 158/3/2 163/3/2
f 162/3/2 161/3/2 163/3/2
f 158/3/2 147/3/2 163/3/2
f 167/3/2 168/3/2 169/3/2
f 169/3/2 168/3/2 170/3/2
f 164/4/2 165/4/2 171/4/2
f 165/2/2 166/2/2 172/2/2
f 171/4/2 165/4/2 172/4/2
f 171/2/2 172/2/2 173/2/2
f 172/2/2 166/2/2 174/2/2
f 173/2/2 172/2/2 174/2/2
f 175/3/2 176/3/2 177/3/2
f 177/3/2 176/3/2 178/3/2
f 183/3/3 182/3/3 181/3/3
f 184/3/3 182/3/3 183/3/3
f 185/3/3 183/3/3 181/3/3
f 185/4/3 184/4/3 183/4/3
f 186/3/3 182/3/3 184/3/3
f 186/4/3 184/4/3 185/4/3
f 187/3/3 185/3/3 181/3/3
f 187/3/3 186/3/3 185/3/3
f 188/3/3 182/3/3 186/3/3
f 188/3/3 186/3/3 187/3/3
f 189/3/3 187/3/3 181/3/3
f 189/4/3 188/4/3 187/4/3
f 190/3/3 182/3/3 188/3/3
f 190/4/3 188/4/3 189/4/3
f 191/3/3 180/3/3 179/3/3
f 192/3/3 180/3/3 191/3/3
f 193/3/3 189/3/3 181/3/3
f 193/3/3 190/3/3 189/3/3
f 194/3/3 182/3/3 190/3/3
f 194/3/3 190/3/3 193/3/3
f 198/4/3 196/4/3 195/4/3
f 199/2/3 197/2/3 196/2/3
f 199/4/3 196/4/3 198/4/3
f 200/2/3 197/2/3 199/2/3
f 204/4/3 202/4/3 201/4/3
f 205/2/3 203/2/3 202/2/3
f 205/4/3 202/4/3 204/4/3
f 206/2/3 203/2/3 205/2/3
f 209/3/3 208/3/3 207/3/3
f 210/3/3 208/3/3 209/3/3
f 213/3/3 212/3/3 211/3/3
f 214/3/3 212/3/3 213/3/3
f 217/3/3 216/3/3 215/3/3
f 218/3/3 216/3/3 217/3/3
f 221/3/3 220/3/3 219/3/3
f 222/3/3 220/3/3 221/3/3
f 225/3/3 224/3/3 223/3/3
f 226/3/3 224/3/3 225/3/3
f 229/3/3 228/3/3 227/3/3
f 230/3/3 228/3/3 229/3/3
f 233/3/3 232/3/3 231/3/3
f 234/3/3 232/3/3 233/3/3
f 237/3/3 236/3/3 235/3/3
f 238/3/3 236/3/3 237/3/3
f 241/3/3 240/3/3 239/3/3
f 242/3/3 240/3/3 241/3/3
f 243/2/4 244/2/4 245/2/4
f 245/2/4 244/2/4 246/2/4
f 247/2/4 248/2/4 249/2/4
f 249/2/4 248/2/4 250/2/4
f 251/3/4 252/3/4 253/3/4
f 253/3/4 252/3/4 254/3/4
f 255/3/4 256/3/4 257/3/4
f 257/3/4 256/3/4 258/3/4
f 259/3/4 260/3/4 261/3/4
f 261/3/4 260/3/4 262/3/4
f 263/3/4 264/3/4 265/3/4
f 265/3/4 264/3/4 266/3/4
f 267/3/4 268/3/4 269/3/4
f 269/3/4 268/3/4 270/3/4
f 267/3/4 269/3/4 271/3/4
f 270/3/4 268/3/4 272/3/4
f 267/3/4 271/3/4 273/3/4
f 271/3/4 272/3/4 273/3/4
f 272/3/4 268/3/4 274/3/4
f 273/3/4 272/3/4 274/3/4
f 275/3/4 276/3/4 277/3/4
f 277/3/4 276/3/4 278/3/4
f 275/3/4 277/3/4 279/3/4
f 278/3/4 276/3/4 280/3/4
f 275/3/4 279/3/4 281/3/4
f 279/3/4 280/3/4 281/3/4
f 280/3/4 276/3/4 282/3/4
f 281/3/4 280/3/4 282/3/4
f 283/3/4 284/3/4 285/3/4
f 285/3/4 284/3/4 286/3/4
f 283/3/4 285/3/4 287/3/4
f 286/3/4 284/3/4 288/3/4
f 283/3/4 287/3/4 289/3/4
f 287/3/4 288/3/4 289/3/4
f 288/3/4 284/3/4 290/3/4
f 289/3/4 288/3/4 290/3/4
f 291/3/4 292/3/4 293/3/4
f 293/3/4 292/3/4 294/3/4
f 291/3/4 293/3/4 295/3/4
f 294/3/4 292/3/4 296/3/4
f 291/3/4 295/3/4 297/3/4
f 295/3/4 296/3/4 297/3/4
f 296/3/4 292/3/4 298/3/4
f 297/3/4 296/3/4 298/3/4
f 299/3/4 300/3/4 301/3/4
f 301/3/4 300/3/4 302/3/4
f 299/3/4 301/3/4 303/3/4
f 302/3/4 300/3/4 304/3/4
f 299/3/4 303/3/4 305/3/4
f 303/3/4 304/3/4 305/3/4
f 304/3/4 300/3/4 306/3/4
f 305/3/4 304/3/4 306/3/4
f 307/3/4 308/3/4 309/3/4
f 309/3/4 308/3/4 310/3/4
f 311/3/4 312/3/4 313/3/4
f 313/3/4 312/3/4 314/3/4
f 315/3/4 316/3/4 317/3/4
f 317/3/4 316/3/4 318/3/4
f 319/3/4 320/3/4 321/3/4
f 321/3/4 320/3/4 322/3/4
f 323/3/4 324/3/4 325/3/4
f 325/3/4 324/3/4 326/3/4
f 327/3/4 328/3/4 329/3/4
f 329/3/4 328/3/4 330/3/4
f 331/3/4 332/3/4 333/3/4
f 333/3/4 332/3/4 334/3/4
f 335/3/4 336/3/4 337/3/4
f 337/3/4 336/3/4 338/3/4
f 339/3/4 340/3/4 341/3/4
f 341/3/4 340/3/4 342/3/4
f 343/3/4 344/3/4 345/3/4
f 345/3/4 344/3/4 346/3/4
f 347/3/4 348/3/4 349/3/4
f 349/3/4 348/3/4 350/3/4
f 351/3/4 352/3/4 353/3/4
f 353/3/4 352/3/4 354/3/4
f 355/3/4 356/3/4 357/3/4
f 357/3/4 356/3/4 358/3/4
f 361/3/5 360/3/5 359/3/5
f 362/3/5 360/3/5 361/3/5
f 365/3/5 364/3/5 363/3/5
f 366/3/5 364/3/5 365/3/5
f 369/3/5 368/3/5 367/3/5
f 370/3/5 368/3/5 369/3/5
f 373/3/5 372/3/5 371/3/5
f 374/3/5 372/3/5 373/3/5
f 377/3/5 376/3/5 375/3/5
f 378/3/5 376/3/5 377/3/5
f 381/3/5 380/3/5 379/3/5
f 382/3/5 380/3/5 381/3/5
f 387/4/5 384/4/5 383/4/5
f 388/4/5 384/4/5 387/4/5
f 389/4/5 386/4/5 385/4/5
f 390/4/5 386/4/5 389/4/5
f 391/2/5 388/2/5 387/2/5
f 392/2/5 388/2/5 391/2/5
f 393/2/5 390/2/5 389/2/5
f 394/2/5 390/2/5 393/2/5
f 398/3/5 396/3/5 395/3/5
f 399/3/5 396/3/5 398/3/5
f 402/3/5 398/3/5 397/3/5
f 402/3/5 400/3/5 399/3/5
f 402/3/5 399/3/5 398/3/5
f 403/3/5 400/3/5 402/3/5
f 404/3/5 400/3/5 403/3/5
f 405/3/5 400/3/5 404/3/5
f 407/3/5 402/3/5 401/3/5
f 407/3/5 403/3/5 402/3/5
f 408/3/5 403/3/5 407/3/5
f 409/3/5 406/3/5 405/3/5
f 409/3/5 405/3/5 404/3/5
f 410/3/5 406/3/5 409/3/5
f 411/3/5 407/3/5 401/3/5
f 412/3/5 407/3/5 411/3/5
f 413/3/5 406/3/5 410/3/5
f 414/3/5 406/3/5 413/3/5
f 415/3/5 411/3/5 401/3/5
f 416/3/5 411/3/5 415/3/5
f 417/3/5 406/3/5 414/3/5
f 418/3/5 406/3/5 417/3/5
f 419/3/5 415/3/5 401/3/5
f 420/3/5 415/3/5 419/3/5
f 421/3/5 406/3/5 418/3/5
f 422/3/5 406/3/5 421/3/5
f 423/3/5 419/3/5 401/3/5
f 424/3/5 419/3/5 423/3/5
f 425/3/5 406/3/5 422/3/5
f 426/3/5 406/3/5 425/3/5
f 427/3/5 423/3/5 401/3/5
f 428/3/5 423/3/5 427/3/5
f 429/3/5 406/3/5 426/3/5
f 430/3/5 406/3/5 429/3/5
f 435/3/5 432/3/5 431/3/5
f 436/3/5 432/3/5 435/3/5
f 437/3/5 434/3/5 433/3/5
f 438/3/5 434/3/5 437/3/5
f 439/3/6 440/3/6 441/3/6
f 441/3/6 440/3/6 442/3/6
f 443/3/6 444/3/6 446/3/6
f 446/3/6 444/3/6 447/3/6
f 445/3/6 446/3/6 450/3/6
f 447/3/6 448/3/6 450/3/6
f 446/3/6 447/3/6 450/3/6
f 450/3/6 448/3/6 451/3/6
f 451/3/6 448/3/6 452/3/6
f 452/3/6 448/3/6 453/3/6
f 449/3/6 450/3/6 455/3/6
f 450/3/6 451/3/6 455/3/6
f 455/3/6 451/3/6 456/3/6
f 453/3/6 454/3/6 457/3/6
f 452/3/6 453/3/6 457/3/6
f 457/3/6 454/3/6 458/3/6
f 449/3/6 455/3/6 459/3/6
f 459/3/6 455/3/6 460/3/6
f 458/3/6 454/3/6 461/3/6
f 461/3/6 454/3/6 462/3/6
f 449/3/6 459/3/6 463/3/6
f 463/3/6 459/3/6 464/3/6
f 462/3/6 454/3/6 465/3/6
f 465/3/6 454/3/6 466/3/6
f 449/3/6 463/3/6 467/3/6
f 467/3/6 463/3/6 468/3/6
f 466/3/6 454/3/6 469/3/6
f 469/3/6 454/3/6 470/3/6
f 449/3/6 467/3/6 471/3/6
f 471/3/6 467/3/6 472/3/6
f 470/3/6 454/3/6 473/3/6
f 473/3/6 454/3/6 474/3/6
f 449/3/6 471/3/6 475/3/6
f 475/3/6 471/3/6 476/3/6
f 474/3/6 454/3/6 477/3/6
f 477/3/6 454/3/6 478/3/6
f 479/3/6 480/3/6 483/3/6
f 483/3/6 480/3/6 484/3/6
f 481/3/6 482/3/6 485/3/6
f 485/3/6 482/3/6 486/3/6
f 487/3/6 488/3/6 489/3/6
f 489/3/6 488/3/6 490/3/6
f 491/3/6 492/3/6 493/3/6
f 493/3/6 492/3/6 494/3/6
f 495/3/6 496/3/6 497/3/6
f 497/3/6 496/3/6 498/3/6
f 499/2/6 500/2/6 503/2/6
f 503/2/6 500/2/6 504/2/6
f 501/2/6 502/2/6 505/2/6
f 505/2/6 502/2/6 506/2/6
f 507/3/6 508/3/6 509/3/6
f 509/3/6 508/3/6 510/3/6
f 511/3/6 512/3/6 513/3/6
f 513/3/6 512/3/6 514/3/6
f 514/3/6 512/3/6 515/3/6
f 515/3/6 512/3/6 516/3/6
f 511/3/6 513/3/6 517/3/6
f 514/3/6 515/3/6 518/3/6
f 518/3/6 515/3/6 519/3/6
f 516/3/6 512/3/6 520/3/6
f 518/3/6 519/3/6 521/3/6
f 519/3/6 520/3/6 521/3/6
f 511/3/6 517/3/6 521/3/6
f 517/3/6 518/3/6 521/3/6
f 520/3/6 512/3/6 522/3/6
f 521/3/6 520/3/6 522/3/6
f 523/3/6 524/3/6 527/3/6
f 527/3/6 524/3/6 528/3/6
f 525/3/6 526/3/6 529/3/6
f 529/3/6 526/3/6 530/3/6
