# MagicaVoxel @ Ephtracy

# group
g Tile7

# material
mtllib Tile7.mtl
usemtl palette

# normals
vn -1 0 0
vn 1 0 0
vn 0 0 1
vn 0 0 -1
vn 0 -1 0
vn 0 1 0

# texcoords
vt 0.494141 0.5
vt 0.498047 0.5
vt 0.525391 0.5

# verts
v -6 1 6
v -6 1 -6
v -6 2 6
v -6 2 -6
v -6 4 6
v -6 4 -6
v -6 5 6
v -6 5 -6
v 5 4 5
v 5 4 2
v 5 4 1
v 5 4 -5
v 5 5 5
v 5 5 -5
v -5 4 5
v -5 4 -5
v -5 5 5
v -5 5 -5
v 6 1 6
v 6 1 -6
v 6 2 6
v 6 2 -6
v 6 4 6
v 6 4 -6
v 6 5 6
v 6 5 -6
v -6 1 6
v -6 2 6
v -6 4 6
v -6 5 6
v 6 1 6
v 6 2 6
v 6 4 6
v 6 5 6
v -5 4 -5
v -5 5 -5
v 5 4 -5
v 5 5 -5
v -5 4 5
v -5 5 5
v 2 4 5
v 3 4 5
v 5 4 5
v 5 5 5
v -6 1 -6
v -6 2 -6
v -6 4 -6
v -6 5 -6
v 6 1 -6
v 6 2 -6
v 6 4 -6
v 6 5 -6
v -6 1 6
v 6 1 6
v -6 1 -6
v 6 1 -6
v -5 4 5
v 2 4 5
v 3 4 5
v 5 4 5
v 2 4 4
v 3 4 4
v -2 4 3
v -1 4 3
v -2 4 2
v -1 4 2
v 4 4 2
v 5 4 2
v 1 4 1
v 2 4 1
v 4 4 1
v 5 4 1
v -4 4 -0
v -3 4 -0
v 1 4 -0
v 2 4 -0
v -4 4 -1
v -3 4 -1
v -2 4 -2
v -1 4 -2
v 3 4 -2
v 4 4 -2
v -2 4 -3
v -1 4 -3
v 3 4 -3
v 4 4 -3
v -5 4 -5
v 5 4 -5
v -6 5 6
v 6 5 6
v -5 5 5
v 5 5 5
v -5 5 -5
v 5 5 -5
v -6 5 -6
v 6 5 -6

# faces
f 3/3/1 2/3/1 1/3/1
f 4/3/1 2/3/1 3/3/1
f 5/2/1 4/2/1 3/2/1
f 6/2/1 4/2/1 5/2/1
f 7/1/1 6/1/1 5/1/1
f 8/1/1 6/1/1 7/1/1
f 13/1/1 10/1/1 9/1/1
f 13/1/1 12/1/1 11/1/1
f 13/1/1 11/1/1 10/1/1
f 14/1/1 12/1/1 13/1/1
f 15/1/2 16/1/2 17/1/2
f 17/1/2 16/1/2 18/1/2
f 19/3/2 20/3/2 21/3/2
f 21/3/2 20/3/2 22/3/2
f 21/2/2 22/2/2 23/2/2
f 23/2/2 22/2/2 24/2/2
f 23/1/2 24/1/2 25/1/2
f 25/1/2 24/1/2 26/1/2
f 31/3/3 28/3/3 27/3/3
f 32/2/3 29/2/3 28/2/3
f 32/3/3 28/3/3 31/3/3
f 33/1/3 30/1/3 29/1/3
f 33/2/3 29/2/3 32/2/3
f 34/1/3 30/1/3 33/1/3
f 37/1/3 36/1/3 35/1/3
f 38/1/3 36/1/3 37/1/3
f 39/1/4 40/1/4 41/1/4
f 41/1/4 40/1/4 42/1/4
f 42/1/4 40/1/4 43/1/4
f 43/1/4 40/1/4 44/1/4
f 45/3/4 46/3/4 49/3/4
f 46/2/4 47/2/4 50/2/4
f 49/3/4 46/3/4 50/3/4
f 47/1/4 48/1/4 51/1/4
f 50/2/4 47/2/4 51/2/4
f 51/1/4 48/1/4 52/1/4
f 55/3/5 54/3/5 53/3/5
f 56/3/5 54/3/5 55/3/5
f 57/2/6 58/2/6 61/2/6
f 58/3/6 59/3/6 61/3/6
f 59/2/6 60/2/6 62/2/6
f 61/3/6 59/3/6 62/3/6
f 57/2/6 61/2/6 63/2/6
f 61/2/6 62/2/6 63/2/6
f 63/2/6 62/2/6 64/2/6
f 57/2/6 63/2/6 65/2/6
f 63/3/6 64/3/6 65/3/6
f 64/2/6 62/2/6 66/2/6
f 65/3/6 64/3/6 66/3/6
f 62/2/6 60/2/6 67/2/6
f 66/2/6 62/2/6 67/2/6
f 67/2/6 60/2/6 68/2/6
f 65/2/6 66/2/6 69/2/6
f 66/2/6 67/2/6 69/2/6
f 69/2/6 67/2/6 70/2/6
f 67/3/6 68/3/6 71/3/6
f 70/2/6 67/2/6 71/2/6
f 71/3/6 68/3/6 72/3/6
f 57/2/6 65/2/6 73/2/6
f 65/2/6 69/2/6 73/2/6
f 73/2/6 69/2/6 74/2/6
f 69/3/6 70/3/6 75/3/6
f 74/2/6 69/2/6 75/2/6
f 71/2/6 72/2/6 76/2/6
f 75/3/6 70/3/6 76/3/6
f 70/2/6 71/2/6 76/2/6
f 73/3/6 74/3/6 77/3/6
f 57/2/6 73/2/6 77/2/6
f 74/2/6 75/2/6 78/2/6
f 77/3/6 74/3/6 78/3/6
f 75/2/6 76/2/6 78/2/6
f 77/2/6 78/2/6 79/2/6
f 78/2/6 76/2/6 79/2/6
f 79/2/6 76/2/6 80/2/6
f 76/2/6 72/2/6 81/2/6
f 80/2/6 76/2/6 81/2/6
f 81/2/6 72/2/6 82/2/6
f 79/3/6 80/3/6 83/3/6
f 77/2/6 79/2/6 83/2/6
f 80/2/6 81/2/6 84/2/6
f 83/3/6 80/3/6 84/3/6
f 81/3/6 82/3/6 85/3/6
f 84/2/6 81/2/6 85/2/6
f 82/2/6 72/2/6 86/2/6
f 85/3/6 82/3/6 86/3/6
f 84/2/6 85/2/6 87/2/6
f 57/2/6 77/2/6 87/2/6
f 85/2/6 86/2/6 87/2/6
f 77/2/6 83/2/6 87/2/6
f 83/2/6 84/2/6 87/2/6
f 86/2/6 72/2/6 88/2/6
f 87/2/6 86/2/6 88/2/6
f 89/1/6 90/1/6 91/1/6
f 91/1/6 90/1/6 92/1/6
f 89/1/6 91/1/6 93/1/6
f 92/1/6 90/1/6 94/1/6
f 89/1/6 93/1/6 95/1/6
f 93/1/6 94/1/6 95/1/6
f 94/1/6 90/1/6 96/1/6
f 95/1/6 94/1/6 96/1/6
