# MagicaVoxel @ Ephtracy

# group
g Tile8

# material
mtllib Tile8.mtl
usemtl palette

# normals
vn -1 0 0
vn 1 0 0
vn 0 0 1
vn 0 0 -1
vn 0 -1 0
vn 0 1 0

# texcoords
vt 0.583984 0.5
vt 0.587891 0.5
vt 0.755859 0.5

# verts
v -20 0 20
v -20 0 -20
v -20 1 20
v -20 1 -20
v -13 1 6
v -13 1 5
v -13 2 6
v -13 2 5
v -11 1 1
v -11 1 -0
v -11 2 1
v -11 2 -0
v -10 1 6
v -10 1 5
v -10 1 4
v -10 1 3
v -10 2 6
v -10 2 5
v -10 2 4
v -10 2 3
v -9 1 5
v -9 1 4
v -9 2 5
v -9 2 4
v -9 2 3
v -9 9 9
v -9 9 5
v -9 9 3
v -9 9 -8
v -9 16 5
v -9 16 3
v -9 17 9
v -9 17 5
v -9 17 3
v -9 17 -8
v -8 17 -2
v -8 17 -3
v -8 18 -2
v -8 18 -3
v -7 17 8
v -7 17 7
v -7 18 8
v -7 18 7
v -6 17 -0
v -6 17 -1
v -6 17 -5
v -6 17 -6
v -6 18 -0
v -6 18 -1
v -6 18 -5
v -6 18 -6
v -5 1 -7
v -5 1 -8
v -5 1 -10
v -5 1 -11
v -5 2 -7
v -5 2 -8
v -5 2 -10
v -5 2 -11
v -3 1 -7
v -3 1 -8
v -3 9 -7
v -3 9 -8
v -2 17 7
v -2 17 6
v -2 18 7
v -2 18 6
v -1 1 9
v -1 1 8
v -1 2 9
v -1 2 8
v -1 16 5
v -1 16 -1
v -1 16 -3
v -1 16 -8
v -1 17 5
v -1 17 -1
v -1 17 -3
v -1 17 -8
v 0 17 -6
v 0 17 -7
v 0 18 -6
v 0 18 -7
v 1 4 9
v 1 4 8
v 1 9 9
v 1 9 8
v 1 17 1
v 1 17 -0
v 1 18 1
v 1 18 -0
v 2 1 8
v 2 1 7
v 2 2 8
v 2 2 7
v 3 1 10
v 3 1 9
v 3 2 10
v 3 2 9
v 3 16 9
v 3 16 5
v 3 17 9
v 3 17 5
v 4 17 2
v 4 17 1
v 4 17 -5
v 4 17 -6
v 4 18 2
v 4 18 1
v 4 18 -5
v 4 18 -6
v 5 17 8
v 5 17 7
v 5 18 8
v 5 18 7
v 7 3 5
v 7 3 3
v 7 7 -1
v 7 7 -3
v 7 9 5
v 7 9 3
v 7 9 -1
v 7 9 -3
v 15 1 6
v 15 1 5
v 15 2 6
v 15 2 5
v -12 1 6
v -12 1 5
v -12 2 6
v -12 2 5
v -10 1 1
v -10 1 -0
v -10 2 1
v -10 2 -0
v -9 1 6
v -9 1 5
v -9 2 6
v -9 2 5
v -8 1 5
v -8 1 3
v -8 9 5
v -8 9 3
v -7 17 -2
v -7 17 -3
v -7 18 -2
v -7 18 -3
v -6 17 8
v -6 17 7
v -6 18 8
v -6 18 7
v -5 17 -0
v -5 17 -1
v -5 17 -5
v -5 17 -6
v -5 18 -0
v -5 18 -1
v -5 18 -5
v -5 18 -6
v -4 1 -7
v -4 1 -8
v -4 1 -10
v -4 1 -11
v -4 2 -7
v -4 2 -8
v -4 2 -10
v -4 2 -11
v -3 16 3
v -3 16 -8
v -3 17 3
v -3 17 -8
v -1 1 -7
v -1 1 -8
v -1 9 -7
v -1 9 -8
v -1 17 7
v -1 17 6
v -1 18 7
v -1 18 6
v 0 1 9
v 0 1 8
v 0 2 9
v 0 2 8
v 1 16 9
v 1 16 3
v 1 17 9
v 1 17 3
v 1 17 -6
v 1 17 -7
v 1 18 -6
v 1 18 -7
v 2 17 1
v 2 17 -0
v 2 18 1
v 2 18 -0
v 3 1 8
v 3 1 7
v 3 2 8
v 3 2 7
v 3 4 9
v 3 4 8
v 3 9 9
v 3 9 8
v 4 1 10
v 4 1 9
v 4 2 10
v 4 2 9
v 5 17 2
v 5 17 1
v 5 17 -5
v 5 17 -6
v 5 18 2
v 5 18 1
v 5 18 -5
v 5 18 -6
v 6 17 8
v 6 17 7
v 6 18 8
v 6 18 7
v 8 3 5
v 8 3 3
v 8 7 -1
v 8 7 -3
v 8 9 9
v 8 9 5
v 8 9 3
v 8 9 -1
v 8 9 -3
v 8 9 -8
v 8 16 5
v 8 16 3
v 8 16 -1
v 8 16 -3
v 8 17 9
v 8 17 5
v 8 17 3
v 8 17 -1
v 8 17 -3
v 8 17 -8
v 16 1 6
v 16 1 5
v 16 2 6
v 16 2 5
v 20 0 20
v 20 0 -20
v 20 1 20
v 20 1 -20
v -20 0 20
v -20 1 20
v 20 0 20
v 20 1 20
v 3 1 10
v 3 2 10
v 4 1 10
v 4 2 10
v -9 9 9
v -9 17 9
v -1 1 9
v -1 2 9
v 0 1 9
v 0 2 9
v 1 4 9
v 1 9 9
v 1 16 9
v 1 17 9
v 3 4 9
v 3 9 9
v 3 16 9
v 3 17 9
v 8 9 9
v 8 17 9
v -7 17 8
v -7 18 8
v -6 17 8
v -6 18 8
v 2 1 8
v 2 2 8
v 3 1 8
v 3 2 8
v 5 17 8
v 5 18 8
v 6 17 8
v 6 18 8
v -2 17 7
v -2 18 7
v -1 17 7
v -1 18 7
v -13 1 6
v -13 2 6
v -12 1 6
v -12 2 6
v -10 1 6
v -10 2 6
v -9 1 6
v -9 2 6
v 15 1 6
v 15 2 6
v 16 1 6
v 16 2 6
v -9 1 5
v -9 2 5
v -9 9 5
v -8 1 5
v -8 9 5
v 7 3 5
v 7 9 5
v 8 3 5
v 8 9 5
v -10 1 4
v -10 2 4
v -9 1 4
v -9 2 4
v -9 16 3
v -9 17 3
v -3 16 3
v -3 17 3
v 1 16 3
v 1 17 3
v 8 16 3
v 8 17 3
v 4 17 2
v 4 18 2
v 5 17 2
v 5 18 2
v -11 1 1
v -11 2 1
v -10 1 1
v -10 2 1
v 1 17 1
v 1 18 1
v 2 17 1
v 2 18 1
v -6 17 -0
v -6 18 -0
v -5 17 -0
v -5 18 -0
v 7 7 -1
v 7 9 -1
v 8 7 -1
v 8 9 -1
v -8 17 -2
v -8 18 -2
v -7 17 -2
v -7 18 -2
v -1 16 -3
v -1 17 -3
v 8 16 -3
v 8 17 -3
v -6 17 -5
v -6 18 -5
v -5 17 -5
v -5 18 -5
v 4 17 -5
v 4 18 -5
v 5 17 -5
v 5 18 -5
v 0 17 -6
v 0 18 -6
v 1 17 -6
v 1 18 -6
v -5 1 -7
v -5 2 -7
v -4 1 -7
v -4 2 -7
v -3 1 -7
v -3 9 -7
v -1 1 -7
v -1 9 -7
v -5 1 -10
v -5 2 -10
v -4 1 -10
v -4 2 -10
v 3 1 9
v 3 2 9
v 4 1 9
v 4 2 9
v -1 1 8
v -1 2 8
v 0 1 8
v 0 2 8
v 1 4 8
v 1 9 8
v 3 4 8
v 3 9 8
v -7 17 7
v -7 18 7
v -6 17 7
v -6 18 7
v 2 1 7
v 2 2 7
v 3 1 7
v 3 2 7
v 5 17 7
v 5 18 7
v 6 17 7
v 6 18 7
v -2 17 6
v -2 18 6
v -1 17 6
v -1 18 6
v -13 1 5
v -13 2 5
v -12 1 5
v -12 2 5
v -10 1 5
v -10 2 5
v -9 1 5
v -9 2 5
v -9 16 5
v -9 17 5
v -1 16 5
v -1 17 5
v 3 16 5
v 3 17 5
v 8 16 5
v 8 17 5
v 15 1 5
v 15 2 5
v 16 1 5
v 16 2 5
v -10 1 3
v -10 2 3
v -9 2 3
v -9 9 3
v -8 1 3
v -8 9 3
v 7 3 3
v 7 9 3
v 8 3 3
v 8 9 3
v 4 17 1
v 4 18 1
v 5 17 1
v 5 18 1
v -11 1 -0
v -11 2 -0
v -10 1 -0
v -10 2 -0
v 1 17 -0
v 1 18 -0
v 2 17 -0
v 2 18 -0
v -6 17 -1
v -6 18 -1
v -5 17 -1
v -5 18 -1
v -1 16 -1
v -1 17 -1
v 8 16 -1
v 8 17 -1
v -8 17 -3
v -8 18 -3
v -7 17 -3
v -7 18 -3
v 7 7 -3
v 7 9 -3
v 8 7 -3
v 8 9 -3
v -6 17 -6
v -6 18 -6
v -5 17 -6
v -5 18 -6
v 4 17 -6
v 4 18 -6
v 5 17 -6
v 5 18 -6
v 0 17 -7
v 0 18 -7
v 1 17 -7
v 1 18 -7
v -9 9 -8
v -9 17 -8
v -5 1 -8
v -5 2 -8
v -4 1 -8
v -4 2 -8
v -3 1 -8
v -3 9 -8
v -3 16 -8
v -3 17 -8
v -1 1 -8
v -1 9 -8
v -1 16 -8
v -1 17 -8
v 8 9 -8
v 8 17 -8
v -5 1 -11
v -5 2 -11
v -4 1 -11
v -4 2 -11
v -20 0 -20
v -20 1 -20
v 20 0 -20
v 20 1 -20
v -20 0 20
v 20 0 20
v -20 0 -20
v 20 0 -20
v 7 3 5
v 8 3 5
v 7 3 3
v 8 3 3
v 1 4 9
v 3 4 9
v 1 4 8
v 3 4 8
v 7 7 -1
v 8 7 -1
v 7 7 -3
v 8 7 -3
v -9 9 9
v 1 9 9
v 3 9 9
v 8 9 9
v 1 9 8
v 3 9 8
v -9 9 5
v -8 9 5
v 7 9 5
v 8 9 5
v -9 9 3
v -8 9 3
v 7 9 3
v 8 9 3
v 7 9 -1
v 8 9 -1
v 7 9 -3
v 8 9 -3
v -3 9 -7
v -1 9 -7
v -9 9 -8
v -3 9 -8
v -1 9 -8
v 8 9 -8
v -20 1 20
v 20 1 20
v 3 1 10
v 4 1 10
v -1 1 9
v 0 1 9
v 3 1 9
v 4 1 9
v -1 1 8
v 0 1 8
v 2 1 8
v 3 1 8
v 2 1 7
v 3 1 7
v -13 1 6
v -12 1 6
v -10 1 6
v -9 1 6
v 15 1 6
v 16 1 6
v -13 1 5
v -12 1 5
v -10 1 5
v -9 1 5
v -8 1 5
v 15 1 5
v 16 1 5
v -10 1 4
v -9 1 4
v -10 1 3
v -8 1 3
v -11 1 1
v -10 1 1
v -11 1 -0
v -10 1 -0
v -5 1 -7
v -4 1 -7
v -3 1 -7
v -1 1 -7
v -5 1 -8
v -4 1 -8
v -3 1 -8
v -1 1 -8
v -5 1 -10
v -4 1 -10
v -5 1 -11
v -4 1 -11
v -20 1 -20
v 20 1 -20
v 3 2 10
v 4 2 10
v -1 2 9
v 0 2 9
v 3 2 9
v 4 2 9
v -1 2 8
v 0 2 8
v 2 2 8
v 3 2 8
v 2 2 7
v 3 2 7
v -13 2 6
v -12 2 6
v -10 2 6
v -9 2 6
v 15 2 6
v 16 2 6
v -13 2 5
v -12 2 5
v -10 2 5
v -9 2 5
v 15 2 5
v 16 2 5
v -10 2 4
v -9 2 4
v -10 2 3
v -9 2 3
v -11 2 1
v -10 2 1
v -11 2 -0
v -10 2 -0
v -5 2 -7
v -4 2 -7
v -5 2 -8
v -4 2 -8
v -5 2 -10
v -4 2 -10
v -5 2 -11
v -4 2 -11
v 1 16 9
v 3 16 9
v -9 16 5
v -1 16 5
v 3 16 5
v 8 16 5
v -9 16 3
v -3 16 3
v 1 16 3
v 8 16 3
v -1 16 -1
v 8 16 -1
v -1 16 -3
v 8 16 -3
v -3 16 -8
v -1 16 -8
v -9 17 9
v 1 17 9
v 3 17 9
v 8 17 9
v -7 17 8
v -6 17 8
v 5 17 8
v 6 17 8
v -7 17 7
v -6 17 7
v -2 17 7
v -1 17 7
v 5 17 7
v 6 17 7
v -2 17 6
v -1 17 6
v -9 17 5
v -1 17 5
v 3 17 5
v 8 17 5
v -9 17 3
v -3 17 3
v 1 17 3
v 8 17 3
v 4 17 2
v 5 17 2
v 1 17 1
v 2 17 1
v 4 17 1
v 5 17 1
v -6 17 -0
v -5 17 -0
v 1 17 -0
v 2 17 -0
v -6 17 -1
v -5 17 -1
v -1 17 -1
v 8 17 -1
v -8 17 -2
v -7 17 -2
v -8 17 -3
v -7 17 -3
v -1 17 -3
v 8 17 -3
v -6 17 -5
v -5 17 -5
v 4 17 -5
v 5 17 -5
v -6 17 -6
v -5 17 -6
v 0 17 -6
v 1 17 -6
v 4 17 -6
v 5 17 -6
v 0 17 -7
v 1 17 -7
v -9 17 -8
v -3 17 -8
v -1 17 -8
v 8 17 -8
v -7 18 8
v -6 18 8
v 5 18 8
v 6 18 8
v -7 18 7
v -6 18 7
v -2 18 7
v -1 18 7
v 5 18 7
v 6 18 7
v -2 18 6
v -1 18 6
v 4 18 2
v 5 18 2
v 1 18 1
v 2 18 1
v 4 18 1
v 5 18 1
v -6 18 -0
v -5 18 -0
v 1 18 -0
v 2 18 -0
v -6 18 -1
v -5 18 -1
v -8 18 -2
v -7 18 -2
v -8 18 -3
v -7 18 -3
v -6 18 -5
v -5 18 -5
v 4 18 -5
v 5 18 -5
v -6 18 -6
v -5 18 -6
v 0 18 -6
v 1 18 -6
v 4 18 -6
v 5 18 -6
v 0 18 -7
v 1 18 -7

# faces
f 3/3/1 2/3/1 1/3/1
f 4/3/1 2/3/1 3/3/1
f 7/3/1 6/3/1 5/3/1
f 8/3/1 6/3/1 7/3/1
f 11/3/1 10/3/1 9/3/1
f 12/3/1 10/3/1 11/3/1
f 17/3/1 14/3/1 13/3/1
f 18/3/1 14/3/1 17/3/1
f 19/3/1 16/3/1 15/3/1
f 20/3/1 16/3/1 19/3/1
f 23/3/1 22/3/1 21/3/1
f 24/3/1 22/3/1 23/3/1
f 27/3/1 24/3/1 23/3/1
f 27/3/1 25/3/1 24/3/1
f 28/3/1 25/3/1 27/3/1
f 30/1/1 27/1/1 26/1/1
f 30/3/1 28/3/1 27/3/1
f 31/1/1 29/1/1 28/1/1
f 31/3/1 28/3/1 30/3/1
f 32/1/1 30/1/1 26/1/1
f 33/1/1 30/1/1 32/1/1
f 34/1/1 29/1/1 31/1/1
f 35/1/1 29/1/1 34/1/1
f 38/2/1 37/2/1 36/2/1
f 39/2/1 37/2/1 38/2/1
f 42/2/1 41/2/1 40/2/1
f 43/2/1 41/2/1 42/2/1
f 48/2/1 45/2/1 44/2/1
f 49/2/1 45/2/1 48/2/1
f 50/2/1 47/2/1 46/2/1
f 51/2/1 47/2/1 50/2/1
f 56/3/1 53/3/1 52/3/1
f 57/3/1 53/3/1 56/3/1
f 58/3/1 55/3/1 54/3/1
f 59/3/1 55/3/1 58/3/1
f 62/3/1 61/3/1 60/3/1
f 63/3/1 61/3/1 62/3/1
f 66/2/1 65/2/1 64/2/1
f 67/2/1 65/2/1 66/2/1
f 70/3/1 69/3/1 68/3/1
f 71/3/1 69/3/1 70/3/1
f 76/1/1 73/1/1 72/1/1
f 77/1/1 73/1/1 76/1/1
f 78/1/1 75/1/1 74/1/1
f 79/1/1 75/1/1 78/1/1
f 82/2/1 81/2/1 80/2/1
f 83/2/1 81/2/1 82/2/1
f 86/3/1 85/3/1 84/3/1
f 87/3/1 85/3/1 86/3/1
f 90/2/1 89/2/1 88/2/1
f 91/2/1 89/2/1 90/2/1
f 94/3/1 93/3/1 92/3/1
f 95/3/1 93/3/1 94/3/1
f 98/3/1 97/3/1 96/3/1
f 99/3/1 97/3/1 98/3/1
f 102/1/1 101/1/1 100/1/1
f 103/1/1 101/1/1 102/1/1
f 108/2/1 105/2/1 104/2/1
f 109/2/1 105/2/1 108/2/1
f 110/2/1 107/2/1 106/2/1
f 111/2/1 107/2/1 110/2/1
f 114/2/1 113/2/1 112/2/1
f 115/2/1 113/2/1 114/2/1
f 120/3/1 117/3/1 116/3/1
f 121/3/1 117/3/1 120/3/1
f 122/3/1 119/3/1 118/3/1
f 123/3/1 119/3/1 122/3/1
f 126/3/1 125/3/1 124/3/1
f 127/3/1 125/3/1 126/3/1
f 128/3/2 129/3/2 130/3/2
f 130/3/2 129/3/2 131/3/2
f 132/3/2 133/3/2 134/3/2
f 134/3/2 133/3/2 135/3/2
f 136/3/2 137/3/2 138/3/2
f 138/3/2 137/3/2 139/3/2
f 140/3/2 141/3/2 142/3/2
f 142/3/2 141/3/2 143/3/2
f 144/2/2 145/2/2 146/2/2
f 146/2/2 145/2/2 147/2/2
f 148/2/2 149/2/2 150/2/2
f 150/2/2 149/2/2 151/2/2
f 152/2/2 153/2/2 156/2/2
f 156/2/2 153/2/2 157/2/2
f 154/2/2 155/2/2 158/2/2
f 158/2/2 155/2/2 159/2/2
f 160/3/2 161/3/2 164/3/2
f 164/3/2 161/3/2 165/3/2
f 162/3/2 163/3/2 166/3/2
f 166/3/2 163/3/2 167/3/2
f 168/1/2 169/1/2 170/1/2
f 170/1/2 169/1/2 171/1/2
f 172/3/2 173/3/2 174/3/2
f 174/3/2 173/3/2 175/3/2
f 176/2/2 177/2/2 178/2/2
f 178/2/2 177/2/2 179/2/2
f 180/3/2 181/3/2 182/3/2
f 182/3/2 181/3/2 183/3/2
f 184/1/2 185/1/2 186/1/2
f 186/1/2 185/1/2 187/1/2
f 188/2/2 189/2/2 190/2/2
f 190/2/2 189/2/2 191/2/2
f 192/2/2 193/2/2 194/2/2
f 194/2/2 193/2/2 195/2/2
f 196/3/2 197/3/2 198/3/2
f 198/3/2 197/3/2 199/3/2
f 200/3/2 201/3/2 202/3/2
f 202/3/2 201/3/2 203/3/2
f 204/3/2 205/3/2 206/3/2
f 206/3/2 205/3/2 207/3/2
f 208/2/2 209/2/2 212/2/2
f 212/2/2 209/2/2 213/2/2
f 210/2/2 211/2/2 214/2/2
f 214/2/2 211/2/2 215/2/2
f 216/2/2 217/2/2 218/2/2
f 218/2/2 217/2/2 219/2/2
f 220/3/2 221/3/2 225/3/2
f 225/3/2 221/3/2 226/3/2
f 222/3/2 223/3/2 227/3/2
f 227/3/2 223/3/2 228/3/2
f 225/3/2 226/3/2 230/3/2
f 224/1/2 225/1/2 230/1/2
f 226/1/2 227/1/2 231/1/2
f 230/3/2 226/3/2 231/3/2
f 227/3/2 228/3/2 232/3/2
f 231/1/2 227/1/2 232/1/2
f 228/1/2 229/1/2 233/1/2
f 232/3/2 228/3/2 233/3/2
f 224/1/2 230/1/2 234/1/2
f 234/1/2 230/1/2 235/1/2
f 231/1/2 232/1/2 236/1/2
f 236/1/2 232/1/2 237/1/2
f 233/1/2 229/1/2 238/1/2
f 238/1/2 229/1/2 239/1/2
f 240/3/2 241/3/2 242/3/2
f 242/3/2 241/3/2 243/3/2
f 244/3/2 245/3/2 246/3/2
f 246/3/2 245/3/2 247/3/2
f 250/3/3 249/3/3 248/3/3
f 251/3/3 249/3/3 250/3/3
f 254/3/3 253/3/3 252/3/3
f 255/3/3 253/3/3 254/3/3
f 260/3/3 259/3/3 258/3/3
f 261/3/3 259/3/3 260/3/3
f 263/1/3 257/1/3 256/1/3
f 264/1/3 257/1/3 263/1/3
f 265/1/3 257/1/3 264/1/3
f 266/3/3 263/3/3 262/3/3
f 266/3/3 264/3/3 263/3/3
f 267/3/3 264/3/3 266/3/3
f 268/3/3 264/3/3 267/3/3
f 270/1/3 269/1/3 268/1/3
f 270/1/3 268/1/3 267/1/3
f 271/1/3 269/1/3 270/1/3
f 274/2/3 273/2/3 272/2/3
f 275/2/3 273/2/3 274/2/3
f 278/3/3 277/3/3 276/3/3
f 279/3/3 277/3/3 278/3/3
f 282/2/3 281/2/3 280/2/3
f 283/2/3 281/2/3 282/2/3
f 286/2/3 285/2/3 284/2/3
f 287/2/3 285/2/3 286/2/3
f 290/3/3 289/3/3 288/3/3
f 291/3/3 289/3/3 290/3/3
f 294/3/3 293/3/3 292/3/3
f 295/3/3 293/3/3 294/3/3
f 298/3/3 297/3/3 296/3/3
f 299/3/3 297/3/3 298/3/3
f 303/3/3 301/3/3 300/3/3
f 303/3/3 302/3/3 301/3/3
f 304/3/3 302/3/3 303/3/3
f 307/3/3 306/3/3 305/3/3
f 308/3/3 306/3/3 307/3/3
f 311/3/3 310/3/3 309/3/3
f 312/3/3 310/3/3 311/3/3
f 315/1/3 314/1/3 313/1/3
f 316/1/3 314/1/3 315/1/3
f 319/1/3 318/1/3 317/1/3
f 320/1/3 318/1/3 319/1/3
f 323/2/3 322/2/3 321/2/3
f 324/2/3 322/2/3 323/2/3
f 327/3/3 326/3/3 325/3/3
f 328/3/3 326/3/3 327/3/3
f 331/2/3 330/2/3 329/2/3
f 332/2/3 330/2/3 331/2/3
f 335/2/3 334/2/3 333/2/3
f 336/2/3 334/2/3 335/2/3
f 339/3/3 338/3/3 337/3/3
f 340/3/3 338/3/3 339/3/3
f 343/2/3 342/2/3 341/2/3
f 344/2/3 342/2/3 343/2/3
f 347/1/3 346/1/3 345/1/3
f 348/1/3 346/1/3 347/1/3
f 351/2/3 350/2/3 349/2/3
f 352/2/3 350/2/3 351/2/3
f 355/2/3 354/2/3 353/2/3
f 356/2/3 354/2/3 355/2/3
f 359/2/3 358/2/3 357/2/3
f 360/2/3 358/2/3 359/2/3
f 363/3/3 362/3/3 361/3/3
f 364/3/3 362/3/3 363/3/3
f 367/3/3 366/3/3 365/3/3
f 368/3/3 366/3/3 367/3/3
f 371/3/3 370/3/3 369/3/3
f 372/3/3 370/3/3 371/3/3
f 373/3/4 374/3/4 375/3/4
f 375/3/4 374/3/4 376/3/4
f 377/3/4 378/3/4 379/3/4
f 379/3/4 378/3/4 380/3/4
f 381/3/4 382/3/4 383/3/4
f 383/3/4 382/3/4 384/3/4
f 385/2/4 386/2/4 387/2/4
f 387/2/4 386/2/4 388/2/4
f 389/3/4 390/3/4 391/3/4
f 391/3/4 390/3/4 392/3/4
f 393/2/4 394/2/4 395/2/4
f 395/2/4 394/2/4 396/2/4
f 397/2/4 398/2/4 399/2/4
f 399/2/4 398/2/4 400/2/4
f 401/3/4 402/3/4 403/3/4
f 403/3/4 402/3/4 404/3/4
f 405/3/4 406/3/4 407/3/4
f 407/3/4 406/3/4 408/3/4
f 409/1/4 410/1/4 411/1/4
f 411/1/4 410/1/4 412/1/4
f 413/1/4 414/1/4 415/1/4
f 415/1/4 414/1/4 416/1/4
f 417/3/4 418/3/4 419/3/4
f 419/3/4 418/3/4 420/3/4
f 421/3/4 422/3/4 423/3/4
f 421/3/4 423/3/4 425/3/4
f 423/3/4 424/3/4 425/3/4
f 425/3/4 424/3/4 426/3/4
f 427/3/4 428/3/4 429/3/4
f 429/3/4 428/3/4 430/3/4
f 431/2/4 432/2/4 433/2/4
f 433/2/4 432/2/4 434/2/4
f 435/3/4 436/3/4 437/3/4
f 437/3/4 436/3/4 438/3/4
f 439/2/4 440/2/4 441/2/4
f 441/2/4 440/2/4 442/2/4
f 443/2/4 444/2/4 445/2/4
f 445/2/4 444/2/4 446/2/4
f 447/1/4 448/1/4 449/1/4
f 449/1/4 448/1/4 450/1/4
f 451/2/4 452/2/4 453/2/4
f 453/2/4 452/2/4 454/2/4
f 455/3/4 456/3/4 457/3/4
f 457/3/4 456/3/4 458/3/4
f 459/2/4 460/2/4 461/2/4
f 461/2/4 460/2/4 462/2/4
f 463/2/4 464/2/4 465/2/4
f 465/2/4 464/2/4 466/2/4
f 467/2/4 468/2/4 469/2/4
f 469/2/4 468/2/4 470/2/4
f 473/3/4 474/3/4 475/3/4
f 475/3/4 474/3/4 476/3/4
f 471/1/4 472/1/4 478/1/4
f 478/1/4 472/1/4 479/1/4
f 479/1/4 472/1/4 480/1/4
f 477/3/4 478/3/4 481/3/4
f 478/3/4 479/3/4 481/3/4
f 481/3/4 479/3/4 482/3/4
f 482/3/4 479/3/4 483/3/4
f 483/1/4 484/1/4 485/1/4
f 482/1/4 483/1/4 485/1/4
f 485/1/4 484/1/4 486/1/4
f 487/3/4 488/3/4 489/3/4
f 489/3/4 488/3/4 490/3/4
f 491/3/4 492/3/4 493/3/4
f 493/3/4 492/3/4 494/3/4
f 497/3/5 496/3/5 495/3/5
f 498/3/5 496/3/5 497/3/5
f 501/3/5 500/3/5 499/3/5
f 502/3/5 500/3/5 501/3/5
f 505/3/5 504/3/5 503/3/5
f 506/3/5 504/3/5 505/3/5
f 509/3/5 508/3/5 507/3/5
f 510/3/5 508/3/5 509/3/5
f 515/1/5 512/1/5 511/1/5
f 516/1/5 514/1/5 513/1/5
f 517/1/5 515/1/5 511/1/5
f 517/1/5 516/1/5 515/1/5
f 518/1/5 516/1/5 517/1/5
f 519/1/5 514/1/5 516/1/5
f 519/1/5 516/1/5 518/1/5
f 520/1/5 514/1/5 519/1/5
f 522/1/5 519/1/5 518/1/5
f 523/1/5 519/1/5 522/1/5
f 525/1/5 522/1/5 521/1/5
f 525/1/5 524/1/5 523/1/5
f 525/1/5 523/1/5 522/1/5
f 526/1/5 524/1/5 525/1/5
f 527/1/5 525/1/5 521/1/5
f 529/1/5 527/1/5 521/1/5
f 529/1/5 528/1/5 527/1/5
f 530/1/5 528/1/5 529/1/5
f 531/1/5 529/1/5 521/1/5
f 532/1/5 529/1/5 531/1/5
f 533/1/5 528/1/5 530/1/5
f 534/1/5 528/1/5 533/1/5
f 535/3/6 536/3/6 537/3/6
f 537/3/6 536/3/6 538/3/6
f 535/3/6 537/3/6 539/3/6
f 539/3/6 537/3/6 540/3/6
f 540/3/6 537/3/6 541/3/6
f 538/3/6 536/3/6 542/3/6
f 535/3/6 539/3/6 543/3/6
f 540/3/6 541/3/6 544/3/6
f 541/3/6 542/3/6 544/3/6
f 544/3/6 542/3/6 545/3/6
f 545/3/6 542/3/6 546/3/6
f 543/3/6 544/3/6 547/3/6
f 544/3/6 545/3/6 547/3/6
f 546/3/6 542/3/6 548/3/6
f 535/3/6 543/3/6 549/3/6
f 547/3/6 548/3/6 549/3/6
f 543/3/6 547/3/6 549/3/6
f 549/3/6 548/3/6 550/3/6
f 550/3/6 548/3/6 551/3/6
f 551/3/6 548/3/6 552/3/6
f 548/3/6 542/3/6 553/3/6
f 552/3/6 548/3/6 553/3/6
f 542/3/6 536/3/6 553/3/6
f 553/3/6 536/3/6 554/3/6
f 535/3/6 549/3/6 555/3/6
f 550/3/6 551/3/6 556/3/6
f 556/3/6 551/3/6 557/3/6
f 552/3/6 553/3/6 558/3/6
f 558/3/6 553/3/6 559/3/6
f 559/3/6 553/3/6 560/3/6
f 554/3/6 536/3/6 561/3/6
f 556/3/6 557/3/6 562/3/6
f 555/3/6 556/3/6 562/3/6
f 557/3/6 558/3/6 562/3/6
f 562/3/6 558/3/6 563/3/6
f 555/3/6 562/3/6 564/3/6
f 559/3/6 560/3/6 565/3/6
f 560/3/6 561/3/6 565/3/6
f 555/3/6 564/3/6 566/3/6
f 564/3/6 565/3/6 566/3/6
f 566/3/6 565/3/6 567/3/6
f 555/3/6 566/3/6 568/3/6
f 567/3/6 565/3/6 569/3/6
f 565/3/6 561/3/6 570/3/6
f 568/3/6 569/3/6 570/3/6
f 569/3/6 565/3/6 570/3/6
f 570/3/6 561/3/6 571/3/6
f 571/3/6 561/3/6 572/3/6
f 572/3/6 561/3/6 573/3/6
f 568/3/6 570/3/6 574/3/6
f 571/3/6 572/3/6 575/3/6
f 575/3/6 572/3/6 576/3/6
f 573/3/6 561/3/6 577/3/6
f 575/3/6 576/3/6 578/3/6
f 576/3/6 577/3/6 578/3/6
f 568/3/6 574/3/6 578/3/6
f 574/3/6 575/3/6 578/3/6
f 578/3/6 577/3/6 579/3/6
f 568/3/6 578/3/6 580/3/6
f 579/3/6 577/3/6 581/3/6
f 535/3/6 555/3/6 582/3/6
f 580/3/6 581/3/6 582/3/6
f 555/3/6 568/3/6 582/3/6
f 568/3/6 580/3/6 582/3/6
f 581/3/6 577/3/6 583/3/6
f 582/3/6 581/3/6 583/3/6
f 561/3/6 536/3/6 583/3/6
f 577/3/6 561/3/6 583/3/6
f 584/3/6 585/3/6 588/3/6
f 588/3/6 585/3/6 589/3/6
f 586/3/6 587/3/6 590/3/6
f 590/3/6 587/3/6 591/3/6
f 592/3/6 593/3/6 594/3/6
f 594/3/6 593/3/6 595/3/6
f 596/3/6 597/3/6 602/3/6
f 602/3/6 597/3/6 603/3/6
f 598/3/6 599/3/6 604/3/6
f 604/3/6 599/3/6 605/3/6
f 600/3/6 601/3/6 606/3/6
f 606/3/6 601/3/6 607/3/6
f 608/3/6 609/3/6 610/3/6
f 610/3/6 609/3/6 611/3/6
f 612/3/6 613/3/6 614/3/6
f 614/3/6 613/3/6 615/3/6
f 616/3/6 617/3/6 618/3/6
f 618/3/6 617/3/6 619/3/6
f 620/3/6 621/3/6 622/3/6
f 622/3/6 621/3/6 623/3/6
f 624/3/6 625/3/6 628/3/6
f 626/3/6 627/3/6 630/3/6
f 630/3/6 627/3/6 631/3/6
f 628/3/6 629/3/6 632/3/6
f 624/3/6 628/3/6 632/3/6
f 632/3/6 629/3/6 633/3/6
f 631/3/6 627/3/6 634/3/6
f 631/3/6 634/3/6 636/3/6
f 634/3/6 635/3/6 636/3/6
f 636/3/6 635/3/6 637/3/6
f 631/3/6 636/3/6 638/3/6
f 638/3/6 636/3/6 639/3/6
f 640/1/6 641/1/6 644/1/6
f 644/1/6 641/1/6 645/1/6
f 642/1/6 643/1/6 646/1/6
f 646/1/6 643/1/6 647/1/6
f 640/1/6 644/1/6 648/1/6
f 645/1/6 641/1/6 649/1/6
f 649/1/6 641/1/6 650/1/6
f 650/1/6 641/1/6 651/1/6
f 642/1/6 646/1/6 652/1/6
f 647/1/6 643/1/6 653/1/6
f 648/1/6 649/1/6 654/1/6
f 649/1/6 650/1/6 654/1/6
f 651/1/6 641/1/6 655/1/6
f 640/1/6 648/1/6 656/1/6
f 654/1/6 655/1/6 656/1/6
f 648/1/6 654/1/6 656/1/6
f 655/1/6 641/1/6 657/1/6
f 656/1/6 655/1/6 657/1/6
f 642/1/6 652/1/6 658/1/6
f 652/1/6 653/1/6 658/1/6
f 653/1/6 643/1/6 659/1/6
f 658/1/6 653/1/6 659/1/6
f 657/1/6 641/1/6 662/1/6
f 662/1/6 663/1/6 664/1/6
f 664/1/6 663/1/6 665/1/6
f 657/1/6 662/1/6 666/1/6
f 662/1/6 664/1/6 666/1/6
f 666/1/6 664/1/6 667/1/6
f 667/1/6 664/1/6 668/1/6
f 665/1/6 663/1/6 669/1/6
f 660/1/6 661/1/6 670/1/6
f 670/1/6 661/1/6 671/1/6
f 657/1/6 666/1/6 672/1/6
f 668/1/6 669/1/6 673/1/6
f 667/1/6 668/1/6 673/1/6
f 660/1/6 670/1/6 674/1/6
f 671/1/6 661/1/6 675/1/6
f 657/1/6 672/1/6 676/1/6
f 672/1/6 673/1/6 676/1/6
f 669/1/6 663/1/6 677/1/6
f 676/1/6 673/1/6 677/1/6
f 673/1/6 669/1/6 677/1/6
f 674/1/6 675/1/6 678/1/6
f 660/1/6 674/1/6 678/1/6
f 678/1/6 675/1/6 679/1/6
f 660/1/6 678/1/6 680/1/6
f 679/1/6 675/1/6 681/1/6
f 681/1/6 675/1/6 684/1/6
f 680/1/6 681/1/6 684/1/6
f 675/1/6 661/1/6 685/1/6
f 684/1/6 675/1/6 685/1/6
f 682/1/6 683/1/6 686/1/6
f 686/1/6 683/1/6 687/1/6
f 680/1/6 684/1/6 688/1/6
f 685/1/6 661/1/6 689/1/6
f 682/1/6 686/1/6 690/1/6
f 690/1/6 686/1/6 691/1/6
f 691/1/6 686/1/6 692/1/6
f 687/1/6 683/1/6 693/1/6
f 682/1/6 690/1/6 694/1/6
f 691/1/6 692/1/6 695/1/6
f 692/1/6 693/1/6 695/1/6
f 660/1/6 680/1/6 696/1/6
f 680/1/6 688/1/6 696/1/6
f 688/1/6 689/1/6 696/1/6
f 689/1/6 661/1/6 697/1/6
f 696/1/6 689/1/6 697/1/6
f 682/1/6 694/1/6 698/1/6
f 694/1/6 695/1/6 698/1/6
f 693/1/6 683/1/6 699/1/6
f 698/1/6 695/1/6 699/1/6
f 695/1/6 693/1/6 699/1/6
f 700/2/6 701/2/6 704/2/6
f 704/2/6 701/2/6 705/2/6
f 702/2/6 703/2/6 708/2/6
f 708/2/6 703/2/6 709/2/6
f 706/2/6 707/2/6 710/2/6
f 710/2/6 707/2/6 711/2/6
f 712/2/6 713/2/6 716/2/6
f 716/2/6 713/2/6 717/2/6
f 714/2/6 715/2/6 720/2/6
f 720/2/6 715/2/6 721/2/6
f 718/2/6 719/2/6 722/2/6
f 722/2/6 719/2/6 723/2/6
f 724/2/6 725/2/6 726/2/6
f 726/2/6 725/2/6 727/2/6
f 728/2/6 729/2/6 732/2/6
f 732/2/6 729/2/6 733/2/6
f 730/2/6 731/2/6 736/2/6
f 736/2/6 731/2/6 737/2/6
f 734/2/6 735/2/6 738/2/6
f 738/2/6 735/2/6 739/2/6
