# MagicaVoxel @ Ephtracy

# group
g Car2

# material
mtllib Car2.mtl
usemtl palette

# normals
vn -1 0 0
vn 1 0 0
vn 0 0 1
vn 0 0 -1
vn 0 -1 0
vn 0 1 0

# texcoords
vt 0.0410156 0.5
vt 0.306641 0.5
vt 0.533203 0.5
vt 0.841797 0.5
vt 0.990234 0.5
vt 0.994141 0.5

# verts
v -21 0 10
v -21 0 4
v -21 0 -16
v -21 0 -22
v -21 2 12
v -21 2 10
v -21 2 4
v -21 2 2
v -21 2 -14
v -21 2 -16
v -21 2 -22
v -21 2 -24
v -21 4 14
v -21 4 12
v -21 4 2
v -21 4 -0
v -21 4 -12
v -21 4 -14
v -21 4 -24
v -21 4 -26
v -21 10 36
v -21 10 16
v -21 10 14
v -21 10 12
v -21 10 2
v -21 10 -0
v -21 10 -2
v -21 10 -10
v -21 10 -12
v -21 10 -14
v -21 10 -24
v -21 10 -26
v -21 10 -28
v -21 10 -36
v -21 12 16
v -21 12 14
v -21 12 12
v -21 12 10
v -21 12 4
v -21 12 2
v -21 12 -0
v -21 12 -2
v -21 12 -10
v -21 12 -12
v -21 12 -14
v -21 12 -16
v -21 12 -22
v -21 12 -24
v -21 12 -26
v -21 12 -28
v -21 14 14
v -21 14 12
v -21 14 10
v -21 14 4
v -21 14 2
v -21 14 -0
v -21 14 -12
v -21 14 -14
v -21 14 -16
v -21 14 -22
v -21 14 -24
v -21 14 -26
v -21 16 12
v -21 16 2
v -21 16 -14
v -21 16 -24
v -21 20 36
v -21 20 4
v -21 20 -24
v -21 20 -36
v -21 50 4
v -21 50 -24
v 13 41 4
v 13 41 3
v 13 48 4
v 13 48 3
v 17 0 10
v 17 0 4
v 17 0 -16
v 17 0 -22
v 17 2 12
v 17 2 10
v 17 2 4
v 17 2 2
v 17 2 -14
v 17 2 -16
v 17 2 -22
v 17 2 -24
v 17 4 14
v 17 4 12
v 17 4 2
v 17 4 -0
v 17 4 -12
v 17 4 -14
v 17 4 -24
v 17 4 -26
v 17 10 14
v 17 10 12
v 17 10 2
v 17 10 -0
v 17 10 -12
v 17 10 -14
v 17 10 -24
v 17 10 -26
v 17 12 12
v 17 12 10
v 17 12 4
v 17 12 2
v 17 12 -14
v 17 12 -16
v 17 12 -22
v 17 12 -24
v 17 14 10
v 17 14 4
v 17 14 -16
v 17 14 -22
v -17 0 10
v -17 0 4
v -17 0 -16
v -17 0 -22
v -17 2 12
v -17 2 10
v -17 2 4
v -17 2 2
v -17 2 -14
v -17 2 -16
v -17 2 -22
v -17 2 -24
v -17 4 14
v -17 4 12
v -17 4 2
v -17 4 -0
v -17 4 -12
v -17 4 -14
v -17 4 -24
v -17 4 -26
v -17 10 14
v -17 10 12
v -17 10 2
v -17 10 -0
v -17 10 -12
v -17 10 -14
v -17 10 -24
v -17 10 -26
v -17 12 12
v -17 12 10
v -17 12 4
v -17 12 2
v -17 12 -14
v -17 12 -16
v -17 12 -22
v -17 12 -24
v -17 14 10
v -17 14 4
v -17 14 -16
v -17 14 -22
v -14 41 4
v -14 41 3
v -14 48 4
v -14 48 3
v 21 0 10
v 21 0 4
v 21 0 -16
v 21 0 -22
v 21 2 12
v 21 2 10
v 21 2 4
v 21 2 2
v 21 2 -14
v 21 2 -16
v 21 2 -22
v 21 2 -24
v 21 4 14
v 21 4 12
v 21 4 2
v 21 4 -0
v 21 4 -12
v 21 4 -14
v 21 4 -24
v 21 4 -26
v 21 10 36
v 21 10 16
v 21 10 14
v 21 10 12
v 21 10 2
v 21 10 -0
v 21 10 -2
v 21 10 -10
v 21 10 -12
v 21 10 -14
v 21 10 -24
v 21 10 -26
v 21 10 -28
v 21 10 -36
v 21 12 16
v 21 12 14
v 21 12 12
v 21 12 10
v 21 12 4
v 21 12 2
v 21 12 -0
v 21 12 -2
v 21 12 -10
v 21 12 -12
v 21 12 -14
v 21 12 -16
v 21 12 -22
v 21 12 -24
v 21 12 -26
v 21 12 -28
v 21 14 14
v 21 14 12
v 21 14 10
v 21 14 4
v 21 14 2
v 21 14 -0
v 21 14 -12
v 21 14 -14
v 21 14 -16
v 21 14 -22
v 21 14 -24
v 21 14 -26
v 21 16 12
v 21 16 2
v 21 16 -14
v 21 16 -24
v 21 20 36
v 21 20 4
v 21 20 -24
v 21 20 -36
v 21 50 4
v 21 50 -24
v -21 10 36
v -21 20 36
v -17 12 36
v -17 18 36
v -9 12 36
v -9 18 36
v 9 12 36
v 9 18 36
v 17 12 36
v 17 18 36
v 21 10 36
v 21 20 36
v -21 4 14
v -21 10 14
v -17 4 14
v -17 10 14
v 17 4 14
v 17 10 14
v 21 4 14
v 21 10 14
v -21 2 12
v -21 4 12
v -21 10 12
v -21 12 12
v -17 2 12
v -17 4 12
v -17 10 12
v -17 12 12
v 17 2 12
v 17 4 12
v 17 10 12
v 17 12 12
v 21 2 12
v 21 4 12
v 21 10 12
v 21 12 12
v -21 0 10
v -21 2 10
v -21 12 10
v -21 14 10
v -17 0 10
v -17 2 10
v -17 12 10
v -17 14 10
v 17 0 10
v 17 2 10
v 17 12 10
v 17 14 10
v 21 0 10
v 21 2 10
v 21 12 10
v 21 14 10
v -21 20 4
v -21 50 4
v -17 22 4
v -17 36 4
v -15 40 4
v -15 49 4
v -14 41 4
v -14 48 4
v 13 41 4
v 13 48 4
v 14 40 4
v 14 49 4
v 17 22 4
v 17 36 4
v 21 20 4
v 21 50 4
v -14 41 3
v -14 48 3
v -13 46 3
v -13 47 3
v -11 42 3
v -11 46 3
v -10 42 3
v -10 46 3
v -8 46 3
v -8 47 3
v -7 42 3
v -7 47 3
v -6 42 3
v -6 44 3
v -6 45 3
v -6 46 3
v -3 42 3
v -3 44 3
v -3 45 3
v -3 46 3
v -2 42 3
v -2 47 3
v -1 42 3
v -1 43 3
v -1 46 3
v -1 47 3
v 0 42 3
v 0 43 3
v 0 44 3
v 0 45 3
v 0 46 3
v 0 47 3
v 1 43 3
v 1 44 3
v 1 45 3
v 1 46 3
v 2 43 3
v 2 44 3
v 2 45 3
v 2 46 3
v 3 42 3
v 3 43 3
v 3 44 3
v 3 45 3
v 3 46 3
v 3 47 3
v 4 42 3
v 4 43 3
v 4 46 3
v 4 47 3
v 5 42 3
v 5 43 3
v 5 46 3
v 5 47 3
v 7 43 3
v 7 46 3
v 8 43 3
v 8 46 3
v 10 42 3
v 10 43 3
v 10 46 3
v 10 47 3
v 13 41 3
v 13 48 3
v -21 14 2
v -21 16 2
v 21 14 2
v 21 16 2
v -21 12 -0
v -21 14 -0
v 21 12 -0
v 21 14 -0
v -21 10 -2
v -21 12 -2
v 21 10 -2
v 21 12 -2
v -21 4 -12
v -21 10 -12
v -17 4 -12
v -17 10 -12
v 17 4 -12
v 17 10 -12
v 21 4 -12
v 21 10 -12
v -21 2 -14
v -21 4 -14
v -21 10 -14
v -21 12 -14
v -17 2 -14
v -17 4 -14
v -17 10 -14
v -17 12 -14
v 17 2 -14
v 17 4 -14
v 17 10 -14
v 17 12 -14
v 21 2 -14
v 21 4 -14
v 21 10 -14
v 21 12 -14
v -21 0 -16
v -21 2 -16
v -21 12 -16
v -21 14 -16
v -17 0 -16
v -17 2 -16
v -17 12 -16
v -17 14 -16
v 17 0 -16
v 17 2 -16
v 17 12 -16
v 17 14 -16
v 21 0 -16
v 21 2 -16
v 21 12 -16
v 21 14 -16
v -21 14 -24
v -21 16 -24
v 21 14 -24
v 21 16 -24
v -21 12 -26
v -21 14 -26
v 21 12 -26
v 21 14 -26
v -21 10 -28
v -21 12 -28
v 21 10 -28
v 21 12 -28
v -21 10 16
v -21 12 16
v 21 10 16
v 21 12 16
v -21 12 14
v -21 14 14
v 21 12 14
v 21 14 14
v -21 14 12
v -21 16 12
v 21 14 12
v 21 16 12
v -21 0 4
v -21 2 4
v -21 12 4
v -21 14 4
v -17 0 4
v -17 2 4
v -17 12 4
v -17 14 4
v 17 0 4
v 17 2 4
v 17 12 4
v 17 14 4
v 21 0 4
v 21 2 4
v 21 12 4
v 21 14 4
v -21 2 2
v -21 4 2
v -21 10 2
v -21 12 2
v -17 2 2
v -17 4 2
v -17 10 2
v -17 12 2
v 17 2 2
v 17 4 2
v 17 10 2
v 17 12 2
v 21 2 2
v 21 4 2
v 21 10 2
v 21 12 2
v -21 4 -0
v -21 10 -0
v -17 4 -0
v -17 10 -0
v 17 4 -0
v 17 10 -0
v 21 4 -0
v 21 10 -0
v -21 10 -10
v -21 12 -10
v 21 10 -10
v 21 12 -10
v -21 12 -12
v -21 14 -12
v 21 12 -12
v 21 14 -12
v -21 14 -14
v -21 16 -14
v 21 14 -14
v 21 16 -14
v -21 0 -22
v -21 2 -22
v -21 12 -22
v -21 14 -22
v -17 0 -22
v -17 2 -22
v -17 12 -22
v -17 14 -22
v 17 0 -22
v 17 2 -22
v 17 12 -22
v 17 14 -22
v 21 0 -22
v 21 2 -22
v 21 12 -22
v 21 14 -22
v -21 2 -24
v -21 4 -24
v -21 10 -24
v -21 12 -24
v -21 20 -24
v -21 50 -24
v -17 2 -24
v -17 4 -24
v -17 10 -24
v -17 12 -24
v 17 2 -24
v 17 4 -24
v 17 10 -24
v 17 12 -24
v 21 2 -24
v 21 4 -24
v 21 10 -24
v 21 12 -24
v 21 20 -24
v 21 50 -24
v -21 4 -26
v -21 10 -26
v -17 4 -26
v -17 10 -26
v 17 4 -26
v 17 10 -26
v 21 4 -26
v 21 10 -26
v -21 10 -36
v -21 20 -36
v 21 10 -36
v 21 20 -36
v -21 0 10
v -17 0 10
v 17 0 10
v 21 0 10
v -21 0 4
v -17 0 4
v 17 0 4
v 21 0 4
v -21 0 -16
v -17 0 -16
v 17 0 -16
v 21 0 -16
v -21 0 -22
v -17 0 -22
v 17 0 -22
v 21 0 -22
v -21 2 12
v -17 2 12
v 17 2 12
v 21 2 12
v -21 2 10
v -17 2 10
v 17 2 10
v 21 2 10
v -21 2 4
v -17 2 4
v 17 2 4
v 21 2 4
v -21 2 2
v -17 2 2
v 17 2 2
v 21 2 2
v -21 2 -14
v -17 2 -14
v 17 2 -14
v 21 2 -14
v -21 2 -16
v -17 2 -16
v 17 2 -16
v 21 2 -16
v -21 2 -22
v -17 2 -22
v 17 2 -22
v 21 2 -22
v -21 2 -24
v -17 2 -24
v 17 2 -24
v 21 2 -24
v -21 4 14
v -17 4 14
v 17 4 14
v 21 4 14
v -21 4 12
v -17 4 12
v 17 4 12
v 21 4 12
v -21 4 2
v -17 4 2
v 17 4 2
v 21 4 2
v -21 4 -0
v -17 4 -0
v 17 4 -0
v 21 4 -0
v -21 4 -12
v -17 4 -12
v 17 4 -12
v 21 4 -12
v -21 4 -14
v -17 4 -14
v 17 4 -14
v 21 4 -14
v -21 4 -24
v -17 4 -24
v 17 4 -24
v 21 4 -24
v -21 4 -26
v -17 4 -26
v 17 4 -26
v 21 4 -26
v -21 10 36
v 21 10 36
v -21 10 16
v 21 10 16
v -21 10 -2
v 21 10 -2
v -21 10 -10
v 21 10 -10
v -21 10 -28
v 21 10 -28
v -21 10 -36
v 21 10 -36
v -21 12 16
v 21 12 16
v -21 12 14
v 21 12 14
v -21 12 -0
v 21 12 -0
v -21 12 -2
v 21 12 -2
v -21 12 -10
v 21 12 -10
v -21 12 -12
v 21 12 -12
v -21 12 -26
v 21 12 -26
v -21 12 -28
v 21 12 -28
v -21 14 14
v 21 14 14
v -21 14 12
v 21 14 12
v -21 14 2
v 21 14 2
v -21 14 -0
v 21 14 -0
v -21 14 -12
v 21 14 -12
v -21 14 -14
v 21 14 -14
v -21 14 -24
v 21 14 -24
v -21 14 -26
v 21 14 -26
v -21 16 12
v 21 16 12
v -21 16 2
v 21 16 2
v -21 16 -14
v 21 16 -14
v -21 16 -24
v 21 16 -24
v -14 48 4
v 13 48 4
v -14 48 3
v 13 48 3
v -21 10 14
v -17 10 14
v 17 10 14
v 21 10 14
v -21 10 12
v -17 10 12
v 17 10 12
v 21 10 12
v -21 10 2
v -17 10 2
v 17 10 2
v 21 10 2
v -21 10 -0
v -17 10 -0
v 17 10 -0
v 21 10 -0
v -21 10 -12
v -17 10 -12
v 17 10 -12
v 21 10 -12
v -21 10 -14
v -17 10 -14
v 17 10 -14
v 21 10 -14
v -21 10 -24
v -17 10 -24
v 17 10 -24
v 21 10 -24
v -21 10 -26
v -17 10 -26
v 17 10 -26
v 21 10 -26
v -21 12 12
v -17 12 12
v 17 12 12
v 21 12 12
v -21 12 10
v -17 12 10
v 17 12 10
v 21 12 10
v -21 12 4
v -17 12 4
v 17 12 4
v 21 12 4
v -21 12 2
v -17 12 2
v 17 12 2
v 21 12 2
v -21 12 -14
v -17 12 -14
v 17 12 -14
v 21 12 -14
v -21 12 -16
v -17 12 -16
v 17 12 -16
v 21 12 -16
v -21 12 -22
v -17 12 -22
v 17 12 -22
v 21 12 -22
v -21 12 -24
v -17 12 -24
v 17 12 -24
v 21 12 -24
v -21 14 10
v -17 14 10
v 17 14 10
v 21 14 10
v -21 14 4
v -17 14 4
v 17 14 4
v 21 14 4
v -21 14 -16
v -17 14 -16
v 17 14 -16
v 21 14 -16
v -21 14 -22
v -17 14 -22
v 17 14 -22
v 21 14 -22
v -21 20 36
v 21 20 36
v -21 20 4
v 21 20 4
v -21 20 -24
v 21 20 -24
v -21 20 -36
v 21 20 -36
v -14 41 4
v 13 41 4
v -14 41 3
v 13 41 3
v -21 50 4
v 21 50 4
v -21 50 -24
v 21 50 -24

# faces
f 6/5/1 2/5/1 1/5/1
f 7/5/1 2/5/1 6/5/1
f 10/5/1 4/5/1 3/5/1
f 11/5/1 4/5/1 10/5/1
f 14/5/1 8/5/1 7/5/1
f 14/5/1 6/5/1 5/5/1
f 14/5/1 7/5/1 6/5/1
f 15/5/1 8/5/1 14/5/1
f 18/5/1 12/5/1 11/5/1
f 18/5/1 11/5/1 10/5/1
f 18/5/1 10/5/1 9/5/1
f 19/5/1 12/5/1 18/5/1
f 23/5/1 16/5/1 15/5/1
f 23/5/1 15/5/1 14/5/1
f 23/5/1 14/5/1 13/5/1
f 24/5/1 16/5/1 23/5/1
f 25/5/1 16/5/1 24/5/1
f 26/5/1 16/5/1 25/5/1
f 29/5/1 20/5/1 19/5/1
f 29/5/1 19/5/1 18/5/1
f 29/5/1 18/5/1 17/5/1
f 30/5/1 20/5/1 29/5/1
f 31/5/1 20/5/1 30/5/1
f 32/5/1 20/5/1 31/5/1
f 35/1/1 22/1/1 21/1/1
f 37/5/1 25/5/1 24/5/1
f 38/5/1 25/5/1 37/5/1
f 39/5/1 25/5/1 38/5/1
f 40/5/1 25/5/1 39/5/1
f 42/1/1 28/1/1 27/1/1
f 43/1/1 28/1/1 42/1/1
f 45/5/1 31/5/1 30/5/1
f 46/5/1 31/5/1 45/5/1
f 47/5/1 31/5/1 46/5/1
f 48/5/1 31/5/1 47/5/1
f 50/1/1 34/1/1 33/1/1
f 51/1/1 36/1/1 35/1/1
f 53/5/1 39/5/1 38/5/1
f 54/5/1 39/5/1 53/5/1
f 56/1/1 44/1/1 43/1/1
f 56/1/1 42/1/1 41/1/1
f 56/1/1 43/1/1 42/1/1
f 57/1/1 44/1/1 56/1/1
f 59/5/1 47/5/1 46/5/1
f 60/5/1 47/5/1 59/5/1
f 62/1/1 50/1/1 49/1/1
f 63/1/1 52/1/1 51/1/1
f 64/1/1 58/1/1 57/1/1
f 64/1/1 56/1/1 55/1/1
f 64/1/1 57/1/1 56/1/1
f 65/1/1 58/1/1 64/1/1
f 66/1/1 62/1/1 61/1/1
f 67/1/1 65/1/1 64/1/1
f 67/1/1 66/1/1 65/1/1
f 67/1/1 35/1/1 21/1/1
f 67/1/1 63/1/1 51/1/1
f 67/1/1 64/1/1 63/1/1
f 67/1/1 51/1/1 35/1/1
f 68/1/1 66/1/1 67/1/1
f 69/1/1 62/1/1 66/1/1
f 69/1/1 66/1/1 68/1/1
f 70/1/1 34/1/1 50/1/1
f 70/1/1 62/1/1 69/1/1
f 70/1/1 50/1/1 62/1/1
f 71/1/1 69/1/1 68/1/1
f 72/1/1 69/1/1 71/1/1
f 75/6/1 74/6/1 73/6/1
f 76/6/1 74/6/1 75/6/1
f 82/5/1 78/5/1 77/5/1
f 83/5/1 78/5/1 82/5/1
f 86/5/1 80/5/1 79/5/1
f 87/5/1 80/5/1 86/5/1
f 90/5/1 84/5/1 83/5/1
f 90/5/1 82/5/1 81/5/1
f 90/5/1 83/5/1 82/5/1
f 91/5/1 84/5/1 90/5/1
f 94/5/1 88/5/1 87/5/1
f 94/5/1 87/5/1 86/5/1
f 94/5/1 86/5/1 85/5/1
f 95/5/1 88/5/1 94/5/1
f 97/5/1 92/5/1 91/5/1
f 97/5/1 91/5/1 90/5/1
f 97/5/1 90/5/1 89/5/1
f 98/5/1 92/5/1 97/5/1
f 99/5/1 92/5/1 98/5/1
f 100/5/1 92/5/1 99/5/1
f 101/5/1 96/5/1 95/5/1
f 101/5/1 95/5/1 94/5/1
f 101/5/1 94/5/1 93/5/1
f 102/5/1 96/5/1 101/5/1
f 103/5/1 96/5/1 102/5/1
f 104/5/1 96/5/1 103/5/1
f 105/5/1 99/5/1 98/5/1
f 106/5/1 99/5/1 105/5/1
f 107/5/1 99/5/1 106/5/1
f 108/5/1 99/5/1 107/5/1
f 109/5/1 103/5/1 102/5/1
f 110/5/1 103/5/1 109/5/1
f 111/5/1 103/5/1 110/5/1
f 112/5/1 103/5/1 111/5/1
f 113/5/1 107/5/1 106/5/1
f 114/5/1 107/5/1 113/5/1
f 115/5/1 111/5/1 110/5/1
f 116/5/1 111/5/1 115/5/1
f 117/5/2 118/5/2 122/5/2
f 122/5/2 118/5/2 123/5/2
f 119/5/2 120/5/2 126/5/2
f 126/5/2 120/5/2 127/5/2
f 123/5/2 124/5/2 130/5/2
f 121/5/2 122/5/2 130/5/2
f 122/5/2 123/5/2 130/5/2
f 130/5/2 124/5/2 131/5/2
f 127/5/2 128/5/2 134/5/2
f 126/5/2 127/5/2 134/5/2
f 125/5/2 126/5/2 134/5/2
f 134/5/2 128/5/2 135/5/2
f 131/5/2 132/5/2 137/5/2
f 130/5/2 131/5/2 137/5/2
f 129/5/2 130/5/2 137/5/2
f 137/5/2 132/5/2 138/5/2
f 138/5/2 132/5/2 139/5/2
f 139/5/2 132/5/2 140/5/2
f 135/5/2 136/5/2 141/5/2
f 134/5/2 135/5/2 141/5/2
f 133/5/2 134/5/2 141/5/2
f 141/5/2 136/5/2 142/5/2
f 142/5/2 136/5/2 143/5/2
f 143/5/2 136/5/2 144/5/2
f 138/5/2 139/5/2 145/5/2
f 145/5/2 139/5/2 146/5/2
f 146/5/2 139/5/2 147/5/2
f 147/5/2 139/5/2 148/5/2
f 142/5/2 143/5/2 149/5/2
f 149/5/2 143/5/2 150/5/2
f 150/5/2 143/5/2 151/5/2
f 151/5/2 143/5/2 152/5/2
f 146/5/2 147/5/2 153/5/2
f 153/5/2 147/5/2 154/5/2
f 150/5/2 151/5/2 155/5/2
f 155/5/2 151/5/2 156/5/2
f 157/6/2 158/6/2 159/6/2
f 159/6/2 158/6/2 160/6/2
f 161/5/2 162/5/2 166/5/2
f 166/5/2 162/5/2 167/5/2
f 163/5/2 164/5/2 170/5/2
f 170/5/2 164/5/2 171/5/2
f 167/5/2 168/5/2 174/5/2
f 165/5/2 166/5/2 174/5/2
f 166/5/2 167/5/2 174/5/2
f 174/5/2 168/5/2 175/5/2
f 171/5/2 172/5/2 178/5/2
f 170/5/2 171/5/2 178/5/2
f 169/5/2 170/5/2 178/5/2
f 178/5/2 172/5/2 179/5/2
f 175/5/2 176/5/2 183/5/2
f 174/5/2 175/5/2 183/5/2
f 173/5/2 174/5/2 183/5/2
f 183/5/2 176/5/2 184/5/2
f 184/5/2 176/5/2 185/5/2
f 185/5/2 176/5/2 186/5/2
f 179/5/2 180/5/2 189/5/2
f 178/5/2 179/5/2 189/5/2
f 177/5/2 178/5/2 189/5/2
f 189/5/2 180/5/2 190/5/2
f 190/5/2 180/5/2 191/5/2
f 191/5/2 180/5/2 192/5/2
f 181/1/2 182/1/2 195/1/2
f 184/5/2 185/5/2 197/5/2
f 197/5/2 185/5/2 198/5/2
f 198/5/2 185/5/2 199/5/2
f 199/5/2 185/5/2 200/5/2
f 187/1/2 188/1/2 202/1/2
f 202/1/2 188/1/2 203/1/2
f 190/5/2 191/5/2 205/5/2
f 205/5/2 191/5/2 206/5/2
f 206/5/2 191/5/2 207/5/2
f 207/5/2 191/5/2 208/5/2
f 193/1/2 194/1/2 210/1/2
f 195/1/2 196/1/2 211/1/2
f 198/5/2 199/5/2 213/5/2
f 213/5/2 199/5/2 214/5/2
f 203/1/2 204/1/2 216/1/2
f 201/1/2 202/1/2 216/1/2
f 202/1/2 203/1/2 216/1/2
f 216/1/2 204/1/2 217/1/2
f 206/5/2 207/5/2 219/5/2
f 219/5/2 207/5/2 220/5/2
f 209/1/2 210/1/2 222/1/2
f 211/1/2 212/1/2 223/1/2
f 217/1/2 218/1/2 224/1/2
f 215/1/2 216/1/2 224/1/2
f 216/1/2 217/1/2 224/1/2
f 224/1/2 218/1/2 225/1/2
f 221/1/2 222/1/2 226/1/2
f 224/1/2 225/1/2 227/1/2
f 225/1/2 226/1/2 227/1/2
f 181/1/2 195/1/2 227/1/2
f 211/1/2 223/1/2 227/1/2
f 223/1/2 224/1/2 227/1/2
f 195/1/2 211/1/2 227/1/2
f 227/1/2 226/1/2 228/1/2
f 226/1/2 222/1/2 229/1/2
f 228/1/2 226/1/2 229/1/2
f 210/1/2 194/1/2 230/1/2
f 229/1/2 222/1/2 230/1/2
f 222/1/2 210/1/2 230/1/2
f 228/1/2 229/1/2 231/1/2
f 231/1/2 229/1/2 232/1/2
f 235/1/3 234/1/3 233/1/3
f 236/1/3 234/1/3 235/1/3
f 237/1/3 235/1/3 233/1/3
f 237/6/3 236/6/3 235/6/3
f 238/1/3 234/1/3 236/1/3
f 238/6/3 236/6/3 237/6/3
f 239/1/3 237/1/3 233/1/3
f 239/1/3 238/1/3 237/1/3
f 240/1/3 234/1/3 238/1/3
f 240/1/3 238/1/3 239/1/3
f 241/1/3 239/1/3 233/1/3
f 241/6/3 240/6/3 239/6/3
f 242/1/3 234/1/3 240/1/3
f 242/6/3 240/6/3 241/6/3
f 243/1/3 241/1/3 233/1/3
f 243/1/3 242/1/3 241/1/3
f 244/1/3 234/1/3 242/1/3
f 244/1/3 242/1/3 243/1/3
f 247/5/3 246/5/3 245/5/3
f 248/5/3 246/5/3 247/5/3
f 251/5/3 250/5/3 249/5/3
f 252/5/3 250/5/3 251/5/3
f 257/5/3 254/5/3 253/5/3
f 258/5/3 254/5/3 257/5/3
f 259/5/3 256/5/3 255/5/3
f 260/5/3 256/5/3 259/5/3
f 265/5/3 262/5/3 261/5/3
f 266/5/3 262/5/3 265/5/3
f 267/5/3 264/5/3 263/5/3
f 268/5/3 264/5/3 267/5/3
f 273/5/3 270/5/3 269/5/3
f 274/5/3 270/5/3 273/5/3
f 275/5/3 272/5/3 271/5/3
f 276/5/3 272/5/3 275/5/3
f 281/5/3 278/5/3 277/5/3
f 282/5/3 278/5/3 281/5/3
f 283/5/3 280/5/3 279/5/3
f 284/5/3 280/5/3 283/5/3
f 287/1/3 286/1/3 285/1/3
f 288/1/3 286/1/3 287/1/3
f 289/1/3 286/1/3 288/1/3
f 290/1/3 286/1/3 289/1/3
f 291/6/3 290/6/3 289/6/3
f 292/6/3 290/6/3 291/6/3
f 293/6/3 291/6/3 289/6/3
f 294/6/3 290/6/3 292/6/3
f 295/1/3 289/1/3 288/1/3
f 295/6/3 294/6/3 293/6/3
f 295/6/3 293/6/3 289/6/3
f 296/6/3 290/6/3 294/6/3
f 296/6/3 294/6/3 295/6/3
f 296/1/3 286/1/3 290/1/3
f 297/1/3 287/1/3 285/1/3
f 297/6/3 288/6/3 287/6/3
f 298/1/3 296/1/3 295/1/3
f 298/6/3 288/6/3 297/6/3
f 298/1/3 295/1/3 288/1/3
f 299/1/3 297/1/3 285/1/3
f 299/1/3 298/1/3 297/1/3
f 300/1/3 286/1/3 296/1/3
f 300/1/3 298/1/3 299/1/3
f 300/1/3 296/1/3 298/1/3
f 303/1/3 302/1/3 301/1/3
f 304/1/3 302/1/3 303/1/3
f 305/1/3 303/1/3 301/1/3
f 306/6/3 304/6/3 303/6/3
f 306/1/3 303/1/3 305/1/3
f 307/1/3 305/1/3 301/1/3
f 307/6/3 306/6/3 305/6/3
f 308/6/3 304/6/3 306/6/3
f 308/6/3 306/6/3 307/6/3
f 309/1/3 308/1/3 307/1/3
f 309/6/3 304/6/3 308/6/3
f 310/1/3 302/1/3 304/1/3
f 310/6/3 304/6/3 309/6/3
f 311/1/3 309/1/3 307/1/3
f 311/1/3 307/1/3 301/1/3
f 311/1/3 310/1/3 309/1/3
f 312/1/3 302/1/3 310/1/3
f 312/1/3 310/1/3 311/1/3
f 313/1/3 311/1/3 301/1/3
f 313/6/3 312/6/3 311/6/3
f 314/6/3 312/6/3 313/6/3
f 315/6/3 312/6/3 314/6/3
f 316/6/3 312/6/3 315/6/3
f 317/1/3 313/1/3 301/1/3
f 317/1/3 314/1/3 313/1/3
f 318/6/3 315/6/3 314/6/3
f 318/1/3 314/1/3 317/1/3
f 319/1/3 316/1/3 315/1/3
f 319/6/3 315/6/3 318/6/3
f 320/6/3 312/6/3 316/6/3
f 320/1/3 316/1/3 319/1/3
f 321/6/3 319/6/3 318/6/3
f 321/6/3 318/6/3 317/6/3
f 321/6/3 320/6/3 319/6/3
f 321/1/3 317/1/3 301/1/3
f 322/1/3 302/1/3 312/1/3
f 322/6/3 320/6/3 321/6/3
f 322/6/3 312/6/3 320/6/3
f 323/1/3 321/1/3 301/1/3
f 323/1/3 322/1/3 321/1/3
f 324/1/3 322/1/3 323/1/3
f 325/1/3 322/1/3 324/1/3
f 326/1/3 302/1/3 322/1/3
f 326/1/3 322/1/3 325/1/3
f 327/1/3 323/1/3 301/1/3
f 327/6/3 324/6/3 323/6/3
f 328/1/3 325/1/3 324/1/3
f 328/6/3 324/6/3 327/6/3
f 329/1/3 325/1/3 328/1/3
f 330/1/3 325/1/3 329/1/3
f 331/6/3 326/6/3 325/6/3
f 331/1/3 325/1/3 330/1/3
f 332/1/3 302/1/3 326/1/3
f 332/6/3 326/6/3 331/6/3
f 333/1/3 328/1/3 327/1/3
f 333/6/3 329/6/3 328/6/3
f 334/1/3 330/1/3 329/1/3
f 334/6/3 329/6/3 333/6/3
f 335/6/3 331/6/3 330/6/3
f 335/1/3 330/1/3 334/1/3
f 336/1/3 332/1/3 331/1/3
f 336/6/3 331/6/3 335/6/3
f 337/1/3 334/1/3 333/1/3
f 337/1/3 333/1/3 327/1/3
f 338/6/3 335/6/3 334/6/3
f 338/1/3 334/1/3 337/1/3
f 339/1/3 336/1/3 335/1/3
f 339/6/3 335/6/3 338/6/3
f 340/1/3 332/1/3 336/1/3
f 340/1/3 336/1/3 339/1/3
f 341/1/3 327/1/3 301/1/3
f 341/1/3 337/1/3 327/1/3
f 342/6/3 338/6/3 337/6/3
f 342/1/3 337/1/3 341/1/3
f 343/1/3 339/1/3 338/1/3
f 343/6/3 338/6/3 342/6/3
f 344/6/3 340/6/3 339/6/3
f 344/1/3 339/1/3 343/1/3
f 345/1/3 332/1/3 340/1/3
f 345/6/3 340/6/3 344/6/3
f 346/1/3 302/1/3 332/1/3
f 346/1/3 332/1/3 345/1/3
f 347/6/3 342/6/3 341/6/3
f 347/1/3 341/1/3 301/1/3
f 348/1/3 344/1/3 343/1/3
f 348/6/3 342/6/3 347/6/3
f 348/1/3 345/1/3 344/1/3
f 348/1/3 343/1/3 342/1/3
f 349/6/3 346/6/3 345/6/3
f 349/1/3 345/1/3 348/1/3
f 350/1/3 302/1/3 346/1/3
f 350/6/3 346/6/3 349/6/3
f 351/1/3 347/1/3 301/1/3
f 351/1/3 349/1/3 348/1/3
f 351/1/3 350/1/3 349/1/3
f 351/1/3 348/1/3 347/1/3
f 352/1/3 350/1/3 351/1/3
f 353/1/3 350/1/3 352/1/3
f 354/1/3 302/1/3 350/1/3
f 354/1/3 350/1/3 353/1/3
f 355/1/3 353/1/3 352/1/3
f 355/6/3 352/6/3 351/6/3
f 356/6/3 354/6/3 353/6/3
f 356/1/3 353/1/3 355/1/3
f 357/6/3 355/6/3 351/6/3
f 357/6/3 356/6/3 355/6/3
f 358/6/3 354/6/3 356/6/3
f 358/6/3 356/6/3 357/6/3
f 359/1/3 351/1/3 301/1/3
f 359/6/3 357/6/3 351/6/3
f 360/1/3 358/1/3 357/1/3
f 360/6/3 357/6/3 359/6/3
f 361/6/3 354/6/3 358/6/3
f 361/1/3 358/1/3 360/1/3
f 362/1/3 302/1/3 354/1/3
f 362/6/3 354/6/3 361/6/3
f 363/1/3 361/1/3 360/1/3
f 363/1/3 360/1/3 359/1/3
f 363/1/3 362/1/3 361/1/3
f 363/1/3 359/1/3 301/1/3
f 364/1/3 302/1/3 362/1/3
f 364/1/3 362/1/3 363/1/3
f 367/1/3 366/1/3 365/1/3
f 368/1/3 366/1/3 367/1/3
f 371/1/3 370/1/3 369/1/3
f 372/1/3 370/1/3 371/1/3
f 375/1/3 374/1/3 373/1/3
f 376/1/3 374/1/3 375/1/3
f 379/5/3 378/5/3 377/5/3
f 380/5/3 378/5/3 379/5/3
f 383/5/3 382/5/3 381/5/3
f 384/5/3 382/5/3 383/5/3
f 389/5/3 386/5/3 385/5/3
f 390/5/3 386/5/3 389/5/3
f 391/5/3 388/5/3 387/5/3
f 392/5/3 388/5/3 391/5/3
f 397/5/3 394/5/3 393/5/3
f 398/5/3 394/5/3 397/5/3
f 399/5/3 396/5/3 395/5/3
f 400/5/3 396/5/3 399/5/3
f 405/5/3 402/5/3 401/5/3
f 406/5/3 402/5/3 405/5/3
f 407/5/3 404/5/3 403/5/3
f 408/5/3 404/5/3 407/5/3
f 413/5/3 410/5/3 409/5/3
f 414/5/3 410/5/3 413/5/3
f 415/5/3 412/5/3 411/5/3
f 416/5/3 412/5/3 415/5/3
f 419/1/3 418/1/3 417/1/3
f 420/1/3 418/1/3 419/1/3
f 423/1/3 422/1/3 421/1/3
f 424/1/3 422/1/3 423/1/3
f 427/1/3 426/1/3 425/1/3
f 428/1/3 426/1/3 427/1/3
f 429/1/4 430/1/4 431/1/4
f 431/1/4 430/1/4 432/1/4
f 433/1/4 434/1/4 435/1/4
f 435/1/4 434/1/4 436/1/4
f 437/1/4 438/1/4 439/1/4
f 439/1/4 438/1/4 440/1/4
f 441/5/4 442/5/4 445/5/4
f 445/5/4 442/5/4 446/5/4
f 443/5/4 444/5/4 447/5/4
f 447/5/4 444/5/4 448/5/4
f 449/5/4 450/5/4 453/5/4
f 453/5/4 450/5/4 454/5/4
f 451/5/4 452/5/4 455/5/4
f 455/5/4 452/5/4 456/5/4
f 457/5/4 458/5/4 461/5/4
f 461/5/4 458/5/4 462/5/4
f 459/5/4 460/5/4 463/5/4
f 463/5/4 460/5/4 464/5/4
f 465/5/4 466/5/4 469/5/4
f 469/5/4 466/5/4 470/5/4
f 467/5/4 468/5/4 471/5/4
f 471/5/4 468/5/4 472/5/4
f 473/5/4 474/5/4 475/5/4
f 475/5/4 474/5/4 476/5/4
f 477/5/4 478/5/4 479/5/4
f 479/5/4 478/5/4 480/5/4
f 481/1/4 482/1/4 483/1/4
f 483/1/4 482/1/4 484/1/4
f 485/1/4 486/1/4 487/1/4
f 487/1/4 486/1/4 488/1/4
f 489/1/4 490/1/4 491/1/4
f 491/1/4 490/1/4 492/1/4
f 493/5/4 494/5/4 497/5/4
f 497/5/4 494/5/4 498/5/4
f 495/5/4 496/5/4 499/5/4
f 499/5/4 496/5/4 500/5/4
f 501/5/4 502/5/4 505/5/4
f 505/5/4 502/5/4 506/5/4
f 503/5/4 504/5/4 507/5/4
f 507/5/4 504/5/4 508/5/4
f 509/5/4 510/5/4 515/5/4
f 515/5/4 510/5/4 516/5/4
f 511/5/4 512/5/4 517/5/4
f 517/5/4 512/5/4 518/5/4
f 519/5/4 520/5/4 523/5/4
f 523/5/4 520/5/4 524/5/4
f 521/5/4 522/5/4 525/5/4
f 525/5/4 522/5/4 526/5/4
f 513/1/4 514/1/4 527/1/4
f 527/1/4 514/1/4 528/1/4
f 529/5/4 530/5/4 531/5/4
f 531/5/4 530/5/4 532/5/4
f 533/5/4 534/5/4 535/5/4
f 535/5/4 534/5/4 536/5/4
f 537/1/4 538/1/4 539/1/4
f 539/1/4 538/1/4 540/1/4
f 545/5/5 542/5/5 541/5/5
f 546/5/5 542/5/5 545/5/5
f 547/5/5 544/5/5 543/5/5
f 548/5/5 544/5/5 547/5/5
f 553/5/5 550/5/5 549/5/5
f 554/5/5 550/5/5 553/5/5
f 555/5/5 552/5/5 551/5/5
f 556/5/5 552/5/5 555/5/5
f 561/5/5 558/5/5 557/5/5
f 562/5/5 558/5/5 561/5/5
f 563/5/5 560/5/5 559/5/5
f 564/5/5 560/5/5 563/5/5
f 569/5/5 566/5/5 565/5/5
f 570/5/5 566/5/5 569/5/5
f 571/5/5 568/5/5 567/5/5
f 572/5/5 568/5/5 571/5/5
f 577/5/5 574/5/5 573/5/5
f 578/5/5 574/5/5 577/5/5
f 579/5/5 576/5/5 575/5/5
f 580/5/5 576/5/5 579/5/5
f 585/5/5 582/5/5 581/5/5
f 586/5/5 582/5/5 585/5/5
f 587/5/5 584/5/5 583/5/5
f 588/5/5 584/5/5 587/5/5
f 593/5/5 590/5/5 589/5/5
f 594/5/5 590/5/5 593/5/5
f 595/5/5 592/5/5 591/5/5
f 596/5/5 592/5/5 595/5/5
f 601/5/5 598/5/5 597/5/5
f 602/5/5 598/5/5 601/5/5
f 603/5/5 600/5/5 599/5/5
f 604/5/5 600/5/5 603/5/5
f 609/5/5 606/5/5 605/5/5
f 610/5/5 606/5/5 609/5/5
f 611/5/5 608/5/5 607/5/5
f 612/5/5 608/5/5 611/5/5
f 617/5/5 614/5/5 613/5/5
f 618/5/5 614/5/5 617/5/5
f 619/5/5 616/5/5 615/5/5
f 620/5/5 616/5/5 619/5/5
f 623/1/5 622/1/5 621/1/5
f 624/1/5 622/1/5 623/1/5
f 627/1/5 626/1/5 625/1/5
f 628/1/5 626/1/5 627/1/5
f 631/1/5 630/1/5 629/1/5
f 632/1/5 630/1/5 631/1/5
f 635/1/5 634/1/5 633/1/5
f 636/1/5 634/1/5 635/1/5
f 639/1/5 638/1/5 637/1/5
f 640/1/5 638/1/5 639/1/5
f 643/1/5 642/1/5 641/1/5
f 644/1/5 642/1/5 643/1/5
f 647/1/5 646/1/5 645/1/5
f 648/1/5 646/1/5 647/1/5
f 651/1/5 650/1/5 649/1/5
f 652/1/5 650/1/5 651/1/5
f 655/1/5 654/1/5 653/1/5
f 656/1/5 654/1/5 655/1/5
f 659/1/5 658/1/5 657/1/5
f 660/1/5 658/1/5 659/1/5
f 663/1/5 662/1/5 661/1/5
f 664/1/5 662/1/5 663/1/5
f 667/1/5 666/1/5 665/1/5
f 668/1/5 666/1/5 667/1/5
f 671/1/5 670/1/5 669/1/5
f 672/1/5 670/1/5 671/1/5
f 675/6/5 674/6/5 673/6/5
f 676/6/5 674/6/5 675/6/5
f 677/5/6 678/5/6 681/5/6
f 681/5/6 678/5/6 682/5/6
f 679/5/6 680/5/6 683/5/6
f 683/5/6 680/5/6 684/5/6
f 685/5/6 686/5/6 689/5/6
f 689/5/6 686/5/6 690/5/6
f 687/5/6 688/5/6 691/5/6
f 691/5/6 688/5/6 692/5/6
f 693/5/6 694/5/6 697/5/6
f 697/5/6 694/5/6 698/5/6
f 695/5/6 696/5/6 699/5/6
f 699/5/6 696/5/6 700/5/6
f 701/5/6 702/5/6 705/5/6
f 705/5/6 702/5/6 706/5/6
f 703/5/6 704/5/6 707/5/6
f 707/5/6 704/5/6 708/5/6
f 709/5/6 710/5/6 713/5/6
f 713/5/6 710/5/6 714/5/6
f 711/5/6 712/5/6 715/5/6
f 715/5/6 712/5/6 716/5/6
f 717/5/6 718/5/6 721/5/6
f 721/5/6 718/5/6 722/5/6
f 719/5/6 720/5/6 723/5/6
f 723/5/6 720/5/6 724/5/6
f 725/5/6 726/5/6 729/5/6
f 729/5/6 726/5/6 730/5/6
f 727/5/6 728/5/6 731/5/6
f 731/5/6 728/5/6 732/5/6
f 733/5/6 734/5/6 737/5/6
f 737/5/6 734/5/6 738/5/6
f 735/5/6 736/5/6 739/5/6
f 739/5/6 736/5/6 740/5/6
f 741/5/6 742/5/6 745/5/6
f 745/5/6 742/5/6 746/5/6
f 743/5/6 744/5/6 747/5/6
f 747/5/6 744/5/6 748/5/6
f 749/5/6 750/5/6 753/5/6
f 753/5/6 750/5/6 754/5/6
f 751/5/6 752/5/6 755/5/6
f 755/5/6 752/5/6 756/5/6
f 757/1/6 758/1/6 759/1/6
f 759/1/6 758/1/6 760/1/6
f 761/1/6 762/1/6 763/1/6
f 763/1/6 762/1/6 764/1/6
f 765/6/6 766/6/6 767/6/6
f 767/6/6 766/6/6 768/6/6
f 769/1/6 770/1/6 771/1/6
f 771/1/6 770/1/6 772/1/6
