# MagicaVoxel @ Ephtracy

# group
g Axe

# material
mtllib Axe.mtl
usemtl palette

# normals
vn -1 0 0
vn 1 0 0
vn 0 0 1
vn 0 0 -1
vn 0 -1 0
vn 0 1 0

# texcoords
vt 0.0605469 0.5
vt 0.400391 0.5
vt 0.966797 0.5

# verts
v -11.5 6 29.5
v -11.5 6 4.5
v -11.5 8 29.5
v -11.5 8 4.5
v -10.5 6 30.5
v -10.5 6 29.5
v -10.5 8 30.5
v -10.5 8 29.5
v -8.5 6 31.5
v -8.5 6 30.5
v -8.5 8 31.5
v -8.5 8 30.5
v -7.5 6 32.5
v -7.5 6 31.5
v -7.5 8 32.5
v -7.5 8 31.5
v 4.5 3 32.5
v 4.5 3 26.5
v 4.5 5 26.5
v 4.5 5 16.5
v 4.5 6 30.5
v 4.5 6 19.5
v 4.5 8 30.5
v 4.5 8 19.5
v 4.5 9 26.5
v 4.5 9 16.5
v 4.5 11 32.5
v 4.5 11 26.5
v 6.5 5 16.5
v 6.5 5 -32.5
v 6.5 9 16.5
v 6.5 9 -32.5
v -10.5 6 5.5
v -10.5 6 4.5
v -10.5 8 5.5
v -10.5 8 4.5
v -9.5 6 6.5
v -9.5 6 5.5
v -9.5 8 6.5
v -9.5 8 5.5
v -8.5 6 7.5
v -8.5 6 6.5
v -8.5 8 7.5
v -8.5 8 6.5
v -7.5 6 8.5
v -7.5 6 7.5
v -7.5 8 8.5
v -7.5 8 7.5
v -6.5 6 9.5
v -6.5 6 8.5
v -6.5 8 9.5
v -6.5 8 8.5
v -5.5 6 10.5
v -5.5 6 9.5
v -5.5 8 10.5
v -5.5 8 9.5
v -4.5 6 11.5
v -4.5 6 10.5
v -4.5 8 11.5
v -4.5 8 10.5
v -3.5 6 32.5
v -3.5 6 31.5
v -3.5 6 12.5
v -3.5 6 11.5
v -3.5 8 32.5
v -3.5 8 31.5
v -3.5 8 12.5
v -3.5 8 11.5
v -2.5 6 31.5
v -2.5 6 30.5
v -2.5 6 13.5
v -2.5 6 12.5
v -2.5 8 31.5
v -2.5 8 30.5
v -2.5 8 13.5
v -2.5 8 12.5
v -1.5 6 14.5
v -1.5 6 13.5
v -1.5 8 14.5
v -1.5 8 13.5
v -0.5 6 15.5
v -0.5 6 14.5
v -0.5 8 15.5
v -0.5 8 14.5
v 0.5 6 16.5
v 0.5 6 15.5
v 0.5 8 16.5
v 0.5 8 15.5
v 1.5 6 17.5
v 1.5 6 16.5
v 1.5 8 17.5
v 1.5 8 16.5
v 2.5 6 18.5
v 2.5 6 17.5
v 2.5 8 18.5
v 2.5 8 17.5
v 3.5 6 19.5
v 3.5 6 18.5
v 3.5 8 19.5
v 3.5 8 18.5
v 10.5 5 26.5
v 10.5 5 -32.5
v 10.5 9 26.5
v 10.5 9 -32.5
v 12.5 3 32.5
v 12.5 3 26.5
v 12.5 11 32.5
v 12.5 11 26.5
v -7.5 6 32.5
v -7.5 8 32.5
v -3.5 6 32.5
v -3.5 8 32.5
v 4.5 3 32.5
v 4.5 11 32.5
v 12.5 3 32.5
v 12.5 11 32.5
v -8.5 6 31.5
v -8.5 8 31.5
v -7.5 6 31.5
v -7.5 8 31.5
v -3.5 6 31.5
v -3.5 8 31.5
v -2.5 6 31.5
v -2.5 8 31.5
v -10.5 6 30.5
v -10.5 8 30.5
v -8.5 6 30.5
v -8.5 8 30.5
v -2.5 6 30.5
v -2.5 8 30.5
v 4.5 6 30.5
v 4.5 8 30.5
v -11.5 6 29.5
v -11.5 8 29.5
v -10.5 6 29.5
v -10.5 8 29.5
v 4.5 3 26.5
v 4.5 5 26.5
v 4.5 9 26.5
v 4.5 11 26.5
v 10.5 5 26.5
v 10.5 9 26.5
v 12.5 3 26.5
v 12.5 11 26.5
v 3.5 6 19.5
v 3.5 8 19.5
v 4.5 6 19.5
v 4.5 8 19.5
v 2.5 6 18.5
v 2.5 8 18.5
v 3.5 6 18.5
v 3.5 8 18.5
v 1.5 6 17.5
v 1.5 8 17.5
v 2.5 6 17.5
v 2.5 8 17.5
v 0.5 6 16.5
v 0.5 8 16.5
v 1.5 6 16.5
v 1.5 8 16.5
v 4.5 5 16.5
v 4.5 9 16.5
v 6.5 5 16.5
v 6.5 9 16.5
v -0.5 6 15.5
v -0.5 8 15.5
v 0.5 6 15.5
v 0.5 8 15.5
v -1.5 6 14.5
v -1.5 8 14.5
v -0.5 6 14.5
v -0.5 8 14.5
v -2.5 6 13.5
v -2.5 8 13.5
v -1.5 6 13.5
v -1.5 8 13.5
v -3.5 6 12.5
v -3.5 8 12.5
v -2.5 6 12.5
v -2.5 8 12.5
v -4.5 6 11.5
v -4.5 8 11.5
v -3.5 6 11.5
v -3.5 8 11.5
v -5.5 6 10.5
v -5.5 8 10.5
v -4.5 6 10.5
v -4.5 8 10.5
v -6.5 6 9.5
v -6.5 8 9.5
v -5.5 6 9.5
v -5.5 8 9.5
v -7.5 6 8.5
v -7.5 8 8.5
v -6.5 6 8.5
v -6.5 8 8.5
v -8.5 6 7.5
v -8.5 8 7.5
v -7.5 6 7.5
v -7.5 8 7.5
v -9.5 6 6.5
v -9.5 8 6.5
v -8.5 6 6.5
v -8.5 8 6.5
v -10.5 6 5.5
v -10.5 8 5.5
v -9.5 6 5.5
v -9.5 8 5.5
v -11.5 6 4.5
v -11.5 8 4.5
v -10.5 6 4.5
v -10.5 8 4.5
v 6.5 5 -32.5
v 6.5 9 -32.5
v 10.5 5 -32.5
v 10.5 9 -32.5
v 4.5 3 32.5
v 12.5 3 32.5
v 4.5 3 26.5
v 12.5 3 26.5
v 4.5 5 26.5
v 10.5 5 26.5
v 4.5 5 16.5
v 6.5 5 16.5
v 6.5 5 -32.5
v 10.5 5 -32.5
v -7.5 6 32.5
v -3.5 6 32.5
v -8.5 6 31.5
v -7.5 6 31.5
v -3.5 6 31.5
v -2.5 6 31.5
v -10.5 6 30.5
v -8.5 6 30.5
v -2.5 6 30.5
v 4.5 6 30.5
v -11.5 6 29.5
v -10.5 6 29.5
v 3.5 6 19.5
v 4.5 6 19.5
v 2.5 6 18.5
v 3.5 6 18.5
v 1.5 6 17.5
v 2.5 6 17.5
v 0.5 6 16.5
v 1.5 6 16.5
v -0.5 6 15.5
v 0.5 6 15.5
v -1.5 6 14.5
v -0.5 6 14.5
v -2.5 6 13.5
v -1.5 6 13.5
v -3.5 6 12.5
v -2.5 6 12.5
v -4.5 6 11.5
v -3.5 6 11.5
v -5.5 6 10.5
v -4.5 6 10.5
v -6.5 6 9.5
v -5.5 6 9.5
v -7.5 6 8.5
v -6.5 6 8.5
v -8.5 6 7.5
v -7.5 6 7.5
v -9.5 6 6.5
v -8.5 6 6.5
v -10.5 6 5.5
v -9.5 6 5.5
v -11.5 6 4.5
v -10.5 6 4.5
v -7.5 8 32.5
v -3.5 8 32.5
v -8.5 8 31.5
v -7.5 8 31.5
v -3.5 8 31.5
v -2.5 8 31.5
v -10.5 8 30.5
v -8.5 8 30.5
v -2.5 8 30.5
v 4.5 8 30.5
v -11.5 8 29.5
v -10.5 8 29.5
v 3.5 8 19.5
v 4.5 8 19.5
v 2.5 8 18.5
v 3.5 8 18.5
v 1.5 8 17.5
v 2.5 8 17.5
v 0.5 8 16.5
v 1.5 8 16.5
v -0.5 8 15.5
v 0.5 8 15.5
v -1.5 8 14.5
v -0.5 8 14.5
v -2.5 8 13.5
v -1.5 8 13.5
v -3.5 8 12.5
v -2.5 8 12.5
v -4.5 8 11.5
v -3.5 8 11.5
v -5.5 8 10.5
v -4.5 8 10.5
v -6.5 8 9.5
v -5.5 8 9.5
v -7.5 8 8.5
v -6.5 8 8.5
v -8.5 8 7.5
v -7.5 8 7.5
v -9.5 8 6.5
v -8.5 8 6.5
v -10.5 8 5.5
v -9.5 8 5.5
v -11.5 8 4.5
v -10.5 8 4.5
v 4.5 9 26.5
v 10.5 9 26.5
v 4.5 9 16.5
v 6.5 9 16.5
v 6.5 9 -32.5
v 10.5 9 -32.5
v 4.5 11 32.5
v 12.5 11 32.5
v 4.5 11 26.5
v 12.5 11 26.5

# faces
f 3/3/1 2/3/1 1/3/1
f 4/3/1 2/3/1 3/3/1
f 7/3/1 6/3/1 5/3/1
f 8/3/1 6/3/1 7/3/1
f 11/3/1 10/3/1 9/3/1
f 12/3/1 10/3/1 11/3/1
f 15/3/1 14/3/1 13/3/1
f 16/3/1 14/3/1 15/3/1
f 19/1/1 18/1/1 17/1/1
f 21/1/1 19/1/1 17/1/1
f 21/1/1 20/1/1 19/1/1
f 22/1/1 20/1/1 21/1/1
f 23/1/1 21/1/1 17/1/1
f 24/1/1 20/1/1 22/1/1
f 25/1/1 24/1/1 23/1/1
f 26/1/1 20/1/1 24/1/1
f 26/1/1 24/1/1 25/1/1
f 27/1/1 23/1/1 17/1/1
f 27/1/1 25/1/1 23/1/1
f 28/1/1 25/1/1 27/1/1
f 31/1/1 30/1/1 29/1/1
f 32/1/1 30/1/1 31/1/1
f 33/3/2 34/3/2 35/3/2
f 35/3/2 34/3/2 36/3/2
f 37/3/2 38/3/2 39/3/2
f 39/3/2 38/3/2 40/3/2
f 41/3/2 42/3/2 43/3/2
f 43/3/2 42/3/2 44/3/2
f 45/3/2 46/3/2 47/3/2
f 47/3/2 46/3/2 48/3/2
f 49/3/2 50/3/2 51/3/2
f 51/3/2 50/3/2 52/3/2
f 53/3/2 54/3/2 55/3/2
f 55/3/2 54/3/2 56/3/2
f 57/3/2 58/3/2 59/3/2
f 59/3/2 58/3/2 60/3/2
f 61/3/2 62/3/2 65/3/2
f 65/3/2 62/3/2 66/3/2
f 63/3/2 64/3/2 67/3/2
f 67/3/2 64/3/2 68/3/2
f 69/3/2 70/3/2 73/3/2
f 73/3/2 70/3/2 74/3/2
f 71/3/2 72/3/2 75/3/2
f 75/3/2 72/3/2 76/3/2
f 77/3/2 78/3/2 79/3/2
f 79/3/2 78/3/2 80/3/2
f 81/3/2 82/3/2 83/3/2
f 83/3/2 82/3/2 84/3/2
f 85/3/2 86/3/2 87/3/2
f 87/3/2 86/3/2 88/3/2
f 89/3/2 90/3/2 91/3/2
f 91/3/2 90/3/2 92/3/2
f 93/3/2 94/3/2 95/3/2
f 95/3/2 94/3/2 96/3/2
f 97/3/2 98/3/2 99/3/2
f 99/3/2 98/3/2 100/3/2
f 101/1/2 102/1/2 103/1/2
f 103/1/2 102/1/2 104/1/2
f 105/1/2 106/1/2 107/1/2
f 107/1/2 106/1/2 108/1/2
f 111/3/3 110/3/3 109/3/3
f 112/3/3 110/3/3 111/3/3
f 115/1/3 114/1/3 113/1/3
f 116/1/3 114/1/3 115/1/3
f 119/3/3 118/3/3 117/3/3
f 120/3/3 118/3/3 119/3/3
f 123/3/3 122/3/3 121/3/3
f 124/3/3 122/3/3 123/3/3
f 127/3/3 126/3/3 125/3/3
f 128/3/3 126/3/3 127/3/3
f 131/3/3 130/3/3 129/3/3
f 132/3/3 130/3/3 131/3/3
f 135/3/3 134/3/3 133/3/3
f 136/3/3 134/3/3 135/3/3
f 137/1/4 138/1/4 141/1/4
f 139/1/4 140/1/4 142/1/4
f 137/1/4 141/1/4 143/1/4
f 141/1/4 142/1/4 143/1/4
f 142/1/4 140/1/4 144/1/4
f 143/1/4 142/1/4 144/1/4
f 145/3/4 146/3/4 147/3/4
f 147/3/4 146/3/4 148/3/4
f 149/3/4 150/3/4 151/3/4
f 151/3/4 150/3/4 152/3/4
f 153/3/4 154/3/4 155/3/4
f 155/3/4 154/3/4 156/3/4
f 157/3/4 158/3/4 159/3/4
f 159/3/4 158/3/4 160/3/4
f 161/1/4 162/1/4 163/1/4
f 163/1/4 162/1/4 164/1/4
f 165/3/4 166/3/4 167/3/4
f 167/3/4 166/3/4 168/3/4
f 169/3/4 170/3/4 171/3/4
f 171/3/4 170/3/4 172/3/4
f 173/3/4 174/3/4 175/3/4
f 175/3/4 174/3/4 176/3/4
f 177/3/4 178/3/4 179/3/4
f 179/3/4 178/3/4 180/3/4
f 181/3/4 182/3/4 183/3/4
f 183/3/4 182/3/4 184/3/4
f 185/3/4 186/3/4 187/3/4
f 187/3/4 186/3/4 188/3/4
f 189/3/4 190/3/4 191/3/4
f 191/3/4 190/3/4 192/3/4
f 193/3/4 194/3/4 195/3/4
f 195/3/4 194/3/4 196/3/4
f 197/3/4 198/3/4 199/3/4
f 199/3/4 198/3/4 200/3/4
f 201/3/4 202/3/4 203/3/4
f 203/3/4 202/3/4 204/3/4
f 205/3/4 206/3/4 207/3/4
f 207/3/4 206/3/4 208/3/4
f 209/3/4 210/3/4 211/3/4
f 211/3/4 210/3/4 212/3/4
f 213/1/4 214/1/4 215/1/4
f 215/1/4 214/1/4 216/1/4
f 219/1/5 218/1/5 217/1/5
f 220/1/5 218/1/5 219/1/5
f 223/1/5 222/1/5 221/1/5
f 224/1/5 222/1/5 223/1/5
f 225/1/5 222/1/5 224/1/5
f 226/1/5 222/1/5 225/1/5
f 230/3/5 228/3/5 227/3/5
f 231/3/5 228/3/5 230/3/5
f 234/3/5 230/3/5 229/3/5
f 234/3/5 232/3/5 231/3/5
f 234/3/5 231/3/5 230/3/5
f 235/3/5 232/3/5 234/3/5
f 238/3/5 234/3/5 233/3/5
f 238/3/5 236/3/5 235/3/5
f 238/3/5 235/3/5 234/3/5
f 239/3/5 236/3/5 238/3/5
f 239/3/5 238/3/5 237/3/5
f 240/3/5 236/3/5 239/3/5
f 241/3/5 239/3/5 237/3/5
f 242/3/5 239/3/5 241/3/5
f 243/3/5 241/3/5 237/3/5
f 244/3/5 241/3/5 243/3/5
f 245/3/5 243/3/5 237/3/5
f 246/3/5 243/3/5 245/3/5
f 247/3/5 245/3/5 237/3/5
f 248/3/5 245/3/5 247/3/5
f 249/3/5 247/3/5 237/3/5
f 250/3/5 247/3/5 249/3/5
f 251/3/5 249/3/5 237/3/5
f 252/3/5 249/3/5 251/3/5
f 253/3/5 251/3/5 237/3/5
f 254/3/5 251/3/5 253/3/5
f 255/3/5 253/3/5 237/3/5
f 256/3/5 253/3/5 255/3/5
f 257/3/5 255/3/5 237/3/5
f 258/3/5 255/3/5 257/3/5
f 259/3/5 257/3/5 237/3/5
f 260/3/5 257/3/5 259/3/5
f 261/3/5 259/3/5 237/3/5
f 262/3/5 259/3/5 261/3/5
f 263/3/5 261/3/5 237/3/5
f 264/3/5 261/3/5 263/3/5
f 265/3/5 263/3/5 237/3/5
f 266/3/5 263/3/5 265/3/5
f 267/3/5 265/3/5 237/3/5
f 268/3/5 265/3/5 267/3/5
f 269/3/5 267/3/5 237/3/5
f 270/3/5 267/3/5 269/3/5
f 271/3/6 272/3/6 274/3/6
f 274/3/6 272/3/6 275/3/6
f 273/3/6 274/3/6 278/3/6
f 275/3/6 276/3/6 278/3/6
f 274/3/6 275/3/6 278/3/6
f 278/3/6 276/3/6 279/3/6
f 277/3/6 278/3/6 282/3/6
f 279/3/6 280/3/6 282/3/6
f 278/3/6 279/3/6 282/3/6
f 282/3/6 280/3/6 283/3/6
f 281/3/6 282/3/6 283/3/6
f 283/3/6 280/3/6 284/3/6
f 281/3/6 283/3/6 285/3/6
f 285/3/6 283/3/6 286/3/6
f 281/3/6 285/3/6 287/3/6
f 287/3/6 285/3/6 288/3/6
f 281/3/6 287/3/6 289/3/6
f 289/3/6 287/3/6 290/3/6
f 281/3/6 289/3/6 291/3/6
f 291/3/6 289/3/6 292/3/6
f 281/3/6 291/3/6 293/3/6
f 293/3/6 291/3/6 294/3/6
f 281/3/6 293/3/6 295/3/6
f 295/3/6 293/3/6 296/3/6
f 281/3/6 295/3/6 297/3/6
f 297/3/6 295/3/6 298/3/6
f 281/3/6 297/3/6 299/3/6
f 299/3/6 297/3/6 300/3/6
f 281/3/6 299/3/6 301/3/6
f 301/3/6 299/3/6 302/3/6
f 281/3/6 301/3/6 303/3/6
f 303/3/6 301/3/6 304/3/6
f 281/3/6 303/3/6 305/3/6
f 305/3/6 303/3/6 306/3/6
f 281/3/6 305/3/6 307/3/6
f 307/3/6 305/3/6 308/3/6
f 281/3/6 307/3/6 309/3/6
f 309/3/6 307/3/6 310/3/6
f 281/3/6 309/3/6 311/3/6
f 311/3/6 309/3/6 312/3/6
f 281/3/6 311/3/6 313/3/6
f 313/3/6 311/3/6 314/3/6
f 315/1/6 316/1/6 317/1/6
f 317/1/6 316/1/6 318/1/6
f 318/1/6 316/1/6 319/1/6
f 319/1/6 316/1/6 320/1/6
f 321/1/6 322/1/6 323/1/6
f 323/1/6 322/1/6 324/1/6
